<?xml version="1.0" encoding="UTF-8" standalone="no"?>
<!-- Created with Inkscape (http://www.inkscape.org/) -->

<svg
   xmlns:dc="http://purl.org/dc/elements/1.1/"
   xmlns:cc="http://creativecommons.org/ns#"
   xmlns:rdf="http://www.w3.org/1999/02/22-rdf-syntax-ns#"
   xmlns:svg="http://www.w3.org/2000/svg"
   xmlns="http://www.w3.org/2000/svg"
   xmlns:xlink="http://www.w3.org/1999/xlink"
   xmlns:sodipodi="http://sodipodi.sourceforge.net/DTD/sodipodi-0.dtd"
   xmlns:inkscape="http://www.inkscape.org/namespaces/inkscape"
   version="1.1"
   id="svg2"
   width="200"
   height="63.337795"
   viewBox="0 0 200 63.337798"
   sodipodi:docname="roostmade-200px.svg"
   inkscape:version="0.92.2 (5c3e80d, 2017-08-06)">
  <metadata
     id="metadata8">
    <rdf:RDF>
      <cc:Work
         rdf:about="">
        <dc:format>image/svg+xml</dc:format>
        <dc:type
           rdf:resource="http://purl.org/dc/dcmitype/StillImage" />
        <dc:title />
      </cc:Work>
    </rdf:RDF>
  </metadata>
  <defs
     id="defs6">
    <linearGradient
       y2="21393.102"
       x2="54721.926"
       y1="21342.557"
       x1="54751.109"
       gradientUnits="userSpaceOnUse"
       id="linearGradient6009"
       xlink:href="#linearGradient5984"
       inkscape:collect="always" />
    <linearGradient
       id="linearGradient5984"
       inkscape:collect="always">
      <stop
         id="stop5980"
         offset="0"
         style="stop-color:#666666;stop-opacity:1;" />
      <stop
         id="stop5982"
         offset="1"
         style="stop-color:#666666;stop-opacity:0;" />
    </linearGradient>
  </defs>
  <sodipodi:namedview
     pagecolor="#ffffff"
     bordercolor="#666666"
     borderopacity="1"
     objecttolerance="10"
     gridtolerance="10"
     guidetolerance="10"
     inkscape:pageopacity="0"
     inkscape:pageshadow="2"
     inkscape:window-width="1672"
     inkscape:window-height="1095"
     id="namedview4"
     showgrid="false"
     showguides="true"
     inkscape:guide-bbox="true"
     fit-margin-top="0"
     fit-margin-left="0"
     fit-margin-right="0"
     fit-margin-bottom="0"
     inkscape:zoom="4"
     inkscape:cx="81.179935"
     inkscape:cy="52.677174"
     inkscape:window-x="6"
     inkscape:window-y="11"
     inkscape:window-maximized="0"
     inkscape:current-layer="svg2" />
  <g
     transform="matrix(3.1805953,0,0,3.1805953,64.950282,-960.54383)"
     id="layer1"
     inkscape:label="Layer 1"
     style="stroke-width:1.18830824;fill:#ffffff">
    <path
       inkscape:connector-curvature="0"
       style="color:#000000;font-style:normal;font-variant:normal;font-weight:normal;font-stretch:normal;font-size:medium;line-height:normal;font-family:sans-serif;font-variant-ligatures:normal;font-variant-position:normal;font-variant-caps:normal;font-variant-numeric:normal;font-variant-alternates:normal;font-feature-settings:normal;text-indent:0;text-align:start;text-decoration:none;text-decoration-line:none;text-decoration-style:solid;text-decoration-color:#000000;letter-spacing:normal;word-spacing:normal;text-transform:none;writing-mode:lr-tb;direction:ltr;text-orientation:mixed;dominant-baseline:auto;baseline-shift:baseline;text-anchor:start;white-space:normal;shape-padding:0;clip-rule:nonzero;display:inline;overflow:visible;visibility:visible;opacity:1;isolation:auto;mix-blend-mode:normal;color-interpolation:sRGB;color-interpolation-filters:linearRGB;solid-color:#000000;solid-opacity:1;vector-effect:none;fill:#ffffff;fill-opacity:1;fill-rule:nonzero;stroke:none;stroke-width:0.52681047;stroke-linecap:round;stroke-linejoin:miter;stroke-miterlimit:4;stroke-dasharray:none;stroke-dashoffset:0;stroke-opacity:1;color-rendering:auto;image-rendering:auto;shape-rendering:auto;text-rendering:auto;enable-background:accumulate"
       d="m -6.6522594,303.94939 c -0.44531,0.042 -0.90975,0.13071 -1.38598,0.26499 -2.4763896,0.71117 -4.2264596,2.26929 -4.7712096,4.29884 -0.38018,1.36882 -0.13243,2.75083 0.59337,3.34894 0.16569,0.15094 0.43035,0.10971 0.57821,-0.0701 0.14894,-0.1787 0.14879,-0.44176 -0.0167,-0.57625 -0.42899,-0.35827 -0.69379,-1.35915 -0.36382,-2.54421 0.26471,-1.0134 1.17234,-2.82668 4.1446496,-3.66435 2.62477,-0.74093 4.14455,0.13271 4.70576,1.18961 0.61004,1.20155 0.16407,2.77618 -1.18962,4.1007 -1.73384,1.68642 -3.59957,2.7089 -5.01879,2.76614 -0.11605,-0.006 -0.23124,0.0569 -0.31353,0.14457 -0.0834,0.0883 -0.13187,0.20922 -0.13187,0.32363 0.0332,0.4272 0.23094,2.52339 1.17206,3.03465 0.37909,0.19803 0.72582,0.25098 1.00698,0.22634 0.2145,-0.0189 0.37898,-0.0693 0.52792,-0.12686 0.54449,-0.23005 0.95799,-0.69544 1.09048,-1.05353 0.0822,-0.22167 -0.0336,-0.44312 -0.24807,-0.5067 -0.19806,-0.0639 -0.4455,0.0582 -0.52888,0.27777 -0.0332,0.10163 -0.24684,0.38514 -0.5782,0.52967 -0.26332,0.10426 -0.54431,0.083 -0.82438,-0.0768 -0.38016,-0.19826 -0.64471,-1.16657 -0.74373,-1.99917 1.55253,-0.21681 3.43443,-1.30705 5.13455,-2.95839 1.65184,-1.61395 2.17969,-3.57625 1.3708,-5.10602 -0.69709,-1.34719 -2.27715,-2.00783 -4.20867,-1.82362 v 0 z m 37.6612404,-1.79605 c -0.14594,0.013 -0.28765,0.0977 -0.36665,0.2436 l -1.14928,2.27108 -0.27368,0.54097 0.011,-0.004 -2.28053,4.52815 c -0.11551,-0.13883 -0.26362,-0.2083 -0.34676,-0.25094 -0.61032,-0.25873 -1.4858,0.0855 -2.1795,0.85189 -0.27403,0.28622 -0.62421,0.70267 -0.86423,1.21685 -0.76967,1.17746 -1.40842,1.72232 -1.7697,1.67219 -0.0335,-0.0163 -0.14882,-0.0679 -0.21439,-0.21222 -0.0833,-0.20726 -0.0162,-0.51126 0.1812,-0.90759 0.0499,-0.10337 0.14906,-0.27743 0.24807,-0.50032 0.18215,-0.34646 0.41293,-0.7964 0.6598,-1.27909 0.0987,-0.20667 0.0169,-0.46499 -0.18121,-0.54668 -0.19749,-0.0817 -0.44545,0.004 -0.56065,0.21456 -0.0338,0.0652 -0.0661,0.13838 -0.0996,0.20792 -0.11515,-0.15672 -0.2647,-0.22623 -0.34672,-0.26895 -0.61113,-0.25872 -1.48587,0.0857 -2.17902,0.85235 -0.26305,0.27373 -0.59523,0.6669 -0.83386,1.15104 -0.0109,0.0148 -0.025,0.0307 -0.0346,0.0472 0,0 -0.36315,0.60948 -0.82534,1.1456 -0.37904,0.46216 -0.92493,0.60907 -1.12272,0.51089 -0.0165,-0.0178 -0.0825,-0.0464 -0.0167,-0.26228 0.0667,-0.20359 0.19874,-0.41367 0.31451,-0.65505 0.19775,-0.36402 0.41289,-0.77962 0.49516,-1.21581 0.0999,-0.60347 -0.14811,-1.07631 -0.62703,-1.23248 -0.41364,-0.12949 -1.07375,-0.004 -1.71752,0.71044 -0.11549,-0.2532 -0.31302,-0.45187 -0.57774,-0.52715 -0.38018,-0.0982 -0.82579,0.01 -1.28826,0.31141 l 0.0654,-0.12145 c 0.11577,-0.20823 0.0332,-0.44839 -0.16458,-0.54765 -0.19886,-0.0814 -0.4621,0.004 -0.56113,0.2312 l -1.21,2.37411 c -0.008,0.009 -0.0135,0.0211 -0.0189,0.0311 -0.49566,0.8191 -1.2715504,1.52995 -1.6681904,1.56463 l -0.0488,0.004 -0.0333,0.004 c -0.21449,0.0189 -0.47919,-0.004 -0.6114,-0.19314 -0.16566,-0.2834 -0.0492,-0.82148 0.29647,-1.46311 0.34669,-0.608 1.1239404,-2.12837 1.9328504,-3.71849 l 1.96512,-0.17192 c 0.23124,-0.0204 0.41219,-0.23405 0.41219,-0.44827 0,-0.2326 -0.18095,-0.39681 -0.41219,-0.37654 l -1.51925,0.13286 c 0.32861,-0.65746 0.60542,-1.21025 0.88603,-1.7713 0.0875,-0.17473 0.0858,-0.17184 0.16649,-0.33335 0.44382,-0.88639 0.79023,-1.57886 0.82864,-1.65955 0.0219,-0.0422 0.036,-0.0851 0.0446,-0.12723 0.003,-0.0137 0.006,-0.0285 0.006,-0.0418 0.003,-0.0278 0.003,-0.0553 0,-0.0815 0,-0.0137 -0.003,-0.0274 -0.006,-0.0394 v -0.009 c 0,-0.009 -0.006,-0.0185 -0.008,-0.0278 -0.008,-0.0241 -0.0169,-0.0476 -0.0309,-0.0693 -0.0372,-0.0659 -0.0948,-0.11882 -0.16885,-0.14943 -0.0308,-0.0137 -0.0624,-0.0189 -0.0949,-0.0248 -0.0165,-0.004 -0.0338,-0.005 -0.0508,-0.004 l -0.0275,0.004 -0.0228,0.004 v -0.006 l -0.0247,0.004 -0.0247,0.004 c -0.022,0.004 -0.0422,0.009 -0.0631,0.0163 -0.006,0 -0.014,0.007 -0.0195,0.007 -0.0165,0.007 -0.0317,0.0137 -0.047,0.0233 -0.008,0.004 -0.0165,0.01 -0.0247,0.0137 -0.003,0 -0.008,0.004 -0.0109,0.007 -0.0109,0.006 -0.022,0.0159 -0.0322,0.0252 -0.003,0 -0.008,0.006 -0.0109,0.009 -0.0136,0.01 -0.0247,0.0215 -0.0356,0.0341 -0.003,0.004 -0.008,0.009 -0.0109,0.0148 -0.008,0.009 -0.0169,0.0181 -0.0223,0.0267 -0.003,0.006 -0.008,0.0111 -0.0109,0.017 -0.008,0.0145 -0.0165,0.0267 -0.0247,0.0411 v 0.004 l -0.81773,1.61688 -1.29586,2.56277 -2.1961004,0.19211 c -0.21451,0.0189 -0.3956,0.21559 -0.3956,0.44682 0,0.2312 0.18109,0.39729 0.3956,0.37851 l 1.7502504,-0.15313 -1.2375204,2.46896 c -0.0165,0.004 -0.0165,0.0182 -0.0165,0.0182 -0.18132,0.34697 -0.33006,0.62385 -0.42879,0.79787 -0.1196,0.21838 -0.21548,0.42979 -0.28982,0.63293 -0.0247,0.0267 -0.0448,0.0565 -0.0626,0.0889 -0.21449,0.41433 -0.51099,0.67176 -0.84098,0.70062 -0.2647,0.0233 -0.52959,-0.11827 -0.64508,-0.35476 -0.0165,-0.0178 -0.0167,-0.0174 -0.0167,-0.0352 -0.0337,-0.11278 -0.0658,-0.24216 -0.11572,-0.37028 -0.26442,-0.66917 -0.76036,-1.88056 -0.76036,-1.88056 -0.0485,-0.14583 -0.18071,-0.23212 -0.32965,-0.23587 -0.14784,-0.0237 -0.29683,0.0615 -0.39558,0.20019 0,0.0189 -0.92681,1.4065 -1.47515,2.31472 -0.0136,0.0148 -0.0249,0.0311 -0.0355,0.0482 -0.28116,0.4868 -0.67662,0.73589 -1.08999,0.70674 0.29789,-0.78506 0.33105,-1.44919 0.10008,-1.92358 -0.1654,-0.34869 -0.46223,-0.57076 -0.84241,-0.65298 -0.13248,-0.0237 -0.28153,-0.0289 -0.41265,-0.0174 -0.92960996,0.0813 -1.94169996,0.97412 -2.21984,2.21717 -0.0165,0.0207 -0.0342,0.0416 -0.0493,0.065 -0.28116,0.4868 -0.6771,0.73593 -1.09046,0.70677 0.29787,-0.78502 0.32988,-1.44956 0.0986,-1.92391 -0.16456,-0.34879 -0.46216,-0.57028 -0.84098,-0.65261 -0.1322,-0.0241 -0.28111,-0.0293 -0.4136,-0.017 -1.08898,0.0953 -2.29477,1.30662 -2.29477,2.89015 0,1.14026 0.72677,1.57138 1.47041,1.50635 0.61003,-0.0534 1.20439,-0.43556 1.6013,-1.01477 0.0653,0.0111 0.13143,0.0237 0.19779,0.0278 0.11578,0.009 0.21438,0.0167 0.33014,0.007 0.34697,-0.0304 0.67969,-0.16602 0.97757,-0.39288 0.19010004,0.74563 0.79233004,1.03155 1.40732004,0.97776 0.61033,-0.0534 1.20514996,-0.43512 1.60178996,-1.0143 0.0655,0.0111 0.13175,0.0237 0.19733,0.0278 0.11574,0.009 0.21464,0.017 0.33012,0.007 0.61828,-0.0541 1.18879,-0.43868 1.59943,-1.08387 0.022,-0.0237 0.043,-0.0515 0.0597,-0.0816 0.2968,-0.50488 0.69361,-1.16679 1.02359,-1.64248 0.13248,0.33624 0.3636,0.86061 0.49472,1.19614 0.13221,0.3516 0.10038,0.75019 -0.0821,1.03029 -0.13194,0.19311 -0.31329,0.30774 -0.54452,0.32794 -0.0999,0.009 -0.14869,-0.0222 -0.18215,-0.0462 -0.0165,-0.0348 -0.0167,-0.0798 -0.0167,-0.11519 0.18131,-0.11489 0.26349,-0.3366 0.18119,-0.52718 -0.0834,-0.19048 -0.31341,-0.28696 -0.52792,-0.18477 -0.34699,0.16253 -0.54559,0.59221 -0.46247,0.99858 0.0823,0.47169 0.47814,0.73371 1.00699,0.68739 0.5113,-0.0447 0.9416,-0.29811 1.22139,-0.73486 0.0833,-0.10633 0.13269,-0.22615 0.18261,-0.36268 0.23124,0.11193 0.47788,0.17254 0.74232,0.14942 l 0.0161,-0.004 c 0.27238,-0.0237 0.53592,-0.11879 0.77646,-0.27666 0.0316,0.11326 0.0766,0.21871 0.13614,0.31445 0.23096,0.39262 0.69311,0.58346 1.28778,0.53145 l 0.0165,-0.004 0.0489,-0.004 0.0337,-0.004 c 0.26989,-0.0237 0.5455704,-0.14331 0.8110804,-0.31715 0.037,0.0739 0.0989,0.13705 0.1864,0.17624 0.0488,0.0315 0.11563,0.0431 0.18121,0.0373 0.14894,-0.013 0.29776,-0.10545 0.36333,-0.26229 l 0.59481,-1.1577 c 0.0165,-0.0382 0.39546,-0.62938 0.94105,-1.28854 0.69371,-0.86957 1.27166,-1.1014 1.46944,-1.03641 0.13221,0.043 0.16555,0.25005 0.16555,0.38254 0,0.29789 -0.49548,1.23104 -0.80872,1.83666 -0.1325,0.25958 -0.26477,0.51982 -0.36381,0.72623 -0.11547,0.20789 -0.0333,0.44868 0.18119,0.52867 0.0499,0.0315 0.11567,0.0435 0.18262,0.0376 0.14757,-0.013 0.29634,-0.10633 0.36189,-0.26313 0.10012,-0.1901 0.23133,-0.43238 0.36382,-0.69162 0.0165,-0.0381 0.0332,-0.0577 0.0332,-0.0664 0.0165,-0.0181 0.0165,-0.037 0.0332,-0.0561 0,0 0.54481,-1.02229 1.007,-1.77289 0.47893,-0.7356 0.94153,-0.92378 1.12367,-0.85772 0.16458,0.0479 0.14766,0.30026 0.13092,0.3851 -0.0489,0.28463 -0.21458,0.61263 -0.39558,0.94197 -0.14896,0.26184 -0.28093,0.52001 -0.37995,0.79314 -0.21451,0.64549 0.0497,1.0363 0.37995,1.18954 0.181,0.0986 0.39606,0.12997 0.62705,0.10974 0.51048,-0.0447 1.1027,-0.35954 1.51499,-0.83834 0.11409,0.34524 0.34916,0.49529 0.49233,0.55932 0.14894,0.0679 0.31306,0.0869 0.49521,0.071 0.49481,-0.0433 1.07278,-0.39066 1.58517,-0.96357 0.0165,0.0148 0.0165,0.0523 0.0332,0.0593 0.19778,0.51211 0.64383,0.63856 0.69347,0.66742 l 0.0337,-0.004 c 0.099,0.0271 0.21438,0.0348 0.33012,0.0248 0.4729,-0.0413 0.95824,-0.35294 1.45666,-0.89443 0.11081,0.35791 0.35393,0.508 0.50039,0.57336 0.14757,0.068 0.31341,0.0878 0.49475,0.0719 0.49535,-0.0433 1.07341,-0.3751 1.58468,-0.94786 0.0165,0.0152 0.0165,0.052 0.0332,0.0592 0.1994,0.49496 0.64463,0.62067 0.69344,0.6499 l 0.0337,-0.004 c 0.11546,0.0267 0.21436,0.0356 0.33012,0.0256 0.50636,-0.0443 1.04927,-0.39363 1.58472,-1.01189 0.18542,0.36728 0.54983,0.62964 1.05014,0.73016 0.21452,0.0344 0.44549,0.0422 0.69346,0.0204 0.67305,-0.0589 1.39496,-0.36294 2.05811,-0.89821 0.008,-0.006 0.0163,-0.013 0.0242,-0.0196 0.0225,-0.0181 0.0466,-0.0409 0.0698,-0.0606 0.16681,-0.14149 0.33036,-0.29336 0.48711,-0.46475 0.0232,-0.0259 0.0403,-0.0475 0.0621,-0.0724 0.2863,-0.30967 0.80675,-0.51141 1.19152,-0.49129 0.24043,0.0167 0.39519,0.11286 0.52363,0.27532 0.25539,0.32297 0.31582,0.97283 0.13612,1.48316 -0.50976,1.21225 -1.44786,1.81221 -2.58127,2.17434 -1.13772,0.36354 -2.43299,0.44049 -3.47439,0.55349 l -14.39743,1.2596 0.0318,-0.12233 a 0.39319024,0.42912756 43.747616 0 0 -0.4174,-0.48666 0.39319024,0.42912756 43.747616 0 0 -0.37661,0.34316 l -0.39416,1.50632 a 0.39357323,0.42954558 43.747616 1 0 0.79401,0.14349 l 0.14182,-0.54174 14.6305,-1.27998 h 0.004 c 1.00418,-0.10897 2.3591,-0.18137 3.64279,-0.59144 1.28369,-0.41018 2.53401,-1.20743 3.159,-2.70923 l 0.003,-0.0111 0.006,-0.0115 c 0.27552,-0.76743 0.23222,-1.65271 -0.24568,-2.25715 -0.23898,-0.30222 -0.60736,-0.51778 -1.05776,-0.54923 -0.90116,0.0543 -1.43872,0.25776 -1.99215,0.86965 -0.63681,0.67701 -1.56703,1.28605 -2.50678,1.10773 -0.21451,-0.0443 -0.46252,-0.14031 -0.54453,-0.37973 0.64322,-0.093 1.35365,-0.40018 1.79911,-0.67013 0.80917,-0.50092 1.08903,-1.1187 1.08903,-1.54908 v -0.0446 c -0.0335,-0.57502 -0.47792,-0.93196 -1.12226,-0.87557 v -0.004 c -1.0662,0.0933 -2.10087,1.20159 -2.47642,2.24959 -0.68326,1.14271 -1.32637,1.59765 -1.67721,1.56497 -0.0335,-0.0137 -0.14883,-0.0679 -0.2144,-0.21226 -0.0655,-0.20874 -0.0165,-0.50989 0.1812,-0.9071 l 3.27946,-6.53042 h 0.008 c 0.62212,-1.24266 1.14911,-2.29671 1.19767,-2.39671 0.11603,-0.22575 0.0334,-0.46676 -0.16602,-0.54801 -0.0109,-0.004 -0.0194,-0.006 -0.0304,-0.008 -0.0546,-0.017 -0.11167,-0.0252 -0.16792,-0.0204 z m -38.2010204,3.76146 c -0.14429,0.0185 -0.28251,0.11089 -0.35053,0.2545 l -5.0202196,10.27958 c -0.1155,0.20811 -0.0335,0.44883 0.16553,0.54661 0.0658,0.0111 0.13223,0.0245 0.19779,0.0189 0.14896,-0.013 0.29824,-0.10771 0.36381,-0.24669 l 5.0188096,-10.28035 c 0.11546,-0.20786 0.0333,-0.46406 -0.18121,-0.54431 v -0.004 c -0.0617,-0.0256 -0.12871,-0.0333 -0.19398,-0.0252 z m 3.86478,6.83649 c 0.0658,-0.006 0.13241,-0.0115 0.18262,0.004 0.14757,0.0405 0.26311,0.10945 0.31303,0.2529 0.13223,0.23642 0.0991,0.65238 -0.0654,1.14464 -0.099,-0.12249 -0.1823,-0.26421 -0.2144,-0.41004 -0.0333,-0.22834 -0.2481,-0.35839 -0.47906,-0.28821 -0.21451,0.0731 -0.36333,0.29551 -0.33013,0.50792 0.0823,0.40537 0.31367,0.76494 0.64366,1.01614 -0.26334,0.33627 -0.60995,0.51678 -0.87465,0.53994 -0.41337,0.0363 -0.64462,-0.24168 -0.64462,-0.76939 0,-1.13918 0.85921,-1.94166 1.46898,-1.99497 z m 4.51556,-0.39506 c 0.0658,-0.006 0.13146,-0.0111 0.18165,0.004 0.14896,0.0405 0.26423,0.10937 0.31306,0.25295 0.13248,0.23642 0.0988,0.65242 -0.0654,1.14459 -0.0987,-0.12245 -0.18093,-0.26431 -0.21441,-0.41003 -0.0332,-0.22834 -0.24782,-0.35836 -0.47905996,-0.28818 -0.21449,0.0731 -0.3636,0.29555 -0.33013,0.50789 0.0833,0.40525 0.31321,0.76497 0.64316996,1.01621 -0.26302996,0.33627 -0.60973996,0.51674 -0.87414996,0.53986 -0.41366,0.0363 -0.64461,-0.24164 -0.64461,-0.76935 0,-1.13919 0.85878,-1.94162 1.46991996,-1.99509 z m 19.7247204,-1.67587 0.002,-1.1e-4 c 0.0652,-0.006 0.13195,0.007 0.18213,0.0372 0.18103,0.0657 0.16426,0.34928 0.14752,0.51641 0,0.0163 -0.0167,0.0174 -0.0167,0.0367 -0.28115,0.50355 -0.57761,0.95979 -0.75891,1.20718 -0.62787,0.8304 -1.2224,1.03066 -1.40399,0.96427 v -0.009 c -0.0985,-0.0457 -0.1484,-0.30066 -0.0328,-0.75649 0.14786,-0.55857 0.52773,-1.02044 0.84099,-1.36142 0.3637,-0.39499 0.7603,-0.61099 1.04067,-0.63552 z m 5.12838,-0.44867 c 0.0655,-0.006 0.13236,0.007 0.18118,0.0196 0.18213,0.0839 0.18213,0.36405 0.14894,0.53289 0,0.0163 -0.0162,0.0178 -0.0162,0.0363 -0.28114,0.50355 -0.57821,0.95964 -0.76032,1.20679 -0.62707,0.8306 -1.22112,1.0319 -1.40352,0.96472 -0.0991,-0.0451 -0.14781,-0.30099 -0.0332,-0.75649 0.14898,-0.55779 0.52863,-1.02096 0.84241,-1.36193 0.36316,-0.39529 0.75995,-0.61108 1.03972,-0.63553 z m 5.02924,-0.43998 c 0.29789,-0.0263 0.29788,0.10597 0.29788,0.17125 0,0.099 -0.11577,0.45623 -0.64459,0.76694 -0.31355,0.192 -0.80889,0.43438 -1.28779,0.52482 0.31437,-0.68743 1.00771,-1.40817 1.6345,-1.46301 z m -23.4993604,7.2393 a 0.39319024,0.42912756 43.747616 0 0 -0.003,0 0.39319024,0.42912756 43.747616 0 0 -0.37662,0.34317 l -0.0887,0.33934 -17.2359696,1.50795 h -0.007 c -1.52751,0.102 -2.46486,0.22119 -3.18414,0.52571 -0.7209,0.30507 -1.16671,0.82311 -1.58613,1.5048 a 0.39386775,0.42986705 43.747616 0 0 0.69015,0.38784 c 0.38439,-0.62474 0.62828,-0.91166 1.15782,-1.13578 0.52954,-0.22412 1.40357,-0.35824 2.91328,-0.45887 h 0.003 l 17.0277296,-1.48972 -0.0849,0.32475 a 0.39357323,0.42954558 43.747616 1 0 0.79402,0.14349 l 0.39463,-1.50635 a 0.39319024,0.42912756 43.747616 0 0 -0.41551,-0.48729 z m 2.4645604,-0.17009 c -0.3907604,0.0341 -0.7898604,0.38369 -0.8945704,0.78361 l -0.10625,0.40629 -0.10624,0.40582 c -0.10471,0.39992 0.12531,0.69436 0.51605,0.66016 l 0.0834,-0.007 c 0.21303,-0.0185 0.42644,-0.13164 0.5943204,-0.29529 0.0371,-0.0434 0.0726,-0.0737 0.12144,-0.14161 0.0276,-0.0367 0.0559,-0.0742 0.0749,-0.11656 0.0153,-0.0274 0.0296,-0.0576 0.0451,-0.10733 0.02,-0.0905 -0.002,-0.1395 -0.0565,-0.1644 -0.0268,-0.0122 -0.0589,-0.017 -0.093,-0.0144 -0.052,0.004 -0.0995,0.0255 -0.14753,0.0679 -0.0247,0.0218 -0.0477,0.0494 -0.0663,0.0822 -0.049,0.0922 -0.0868,0.13894 -0.1442104,0.19381 -0.0314,0.0267 -0.0634,0.0481 -0.0939,0.0651 -0.037,0.0185 -0.0751,0.0315 -0.11431,0.0352 l -0.11668,0.0104 c -0.1553,0.0137 -0.24701,-0.10345 -0.20539,-0.26239 l 0.11718,-0.44657 0.11667,-0.44709 c 0.0416,-0.15894 0.20044,-0.29784 0.35573,-0.31144 l 0.1167004,-0.0104 c 0.0392,-0.004 0.072,0.004 0.10104,0.0163 0.0228,0.0122 0.0444,0.0289 0.063,0.0514 0.0308,0.0471 0.0456,0.0897 0.0475,0.17743 0.002,0.0311 0.0109,0.0557 0.0251,0.0742 0.0275,0.0359 0.066,0.0498 0.11811,0.0446 0.0342,-0.004 0.0706,-0.0145 0.1053,-0.0326 0.0706,-0.036 0.1194,-0.0911 0.14703,-0.18218 0.0104,-0.0493 0.0113,-0.0777 0.01,-0.10381 0.003,-0.041 -0.006,-0.0751 -0.0157,-0.10871 -0.0148,-0.0621 -0.0352,-0.0877 -0.0508,-0.12645 -0.088,-0.14124 -0.25132,-0.22182 -0.46435,-0.20315 z m 1.69522,-0.14828 c -0.39074,0.0341 -0.78938,0.38358 -0.89407,0.78354 l -0.21298,0.81214 c -0.10472,0.39993 0.12577,0.69429 0.51653,0.66013 l 0.0835,-0.007 c 0.39076,-0.0341 0.78938,-0.38361 0.8941,-0.7835 l 0.21297,-0.81222 c 0.1047,-0.39984 -0.12578,-0.69432 -0.51654,-0.66009 z m -0.0612,0.39048 c 0.18761,-0.0163 0.29786,0.12504 0.2476,0.31699 l -0.20254,0.77473 c -0.0503,0.19203 -0.24164,0.35987 -0.42926,0.37621 -0.18763,0.0163 -0.29834,-0.1249 -0.24807,-0.31693 l 0.203,-0.77479 c 0.0503,-0.192 0.24165,-0.3598 0.42927,-0.37621 z m 0.76223,1.28416 a 0.20044437,0.28568502 45.661509 0 0 -0.3031,0.26558 0.20044437,0.28568502 45.661509 0 0 0.17504,0.22423 0.20044437,0.28568502 45.661509 0 0 0.30357,-0.2661 0.20044437,0.28568502 45.661509 0 0 -0.17551,-0.22371 z"
       id="path1057-8-2" />
  </g>
</svg>
