<?xml version="1.0" encoding="UTF-8" standalone="no"?>
<svg
   xmlns:dc="http://purl.org/dc/elements/1.1/"
   xmlns:cc="http://creativecommons.org/ns#"
   xmlns:rdf="http://www.w3.org/1999/02/22-rdf-syntax-ns#"
   xmlns:svg="http://www.w3.org/2000/svg"
   xmlns="http://www.w3.org/2000/svg"
   version="1.1"
   id="svg2"
   viewBox="0 0 864.75881 387.17721"
   height="387.17722"
   width="864.75879">
  <defs
     id="defs4" />
  <metadata
     id="metadata7">
    <rdf:RDF>
      <cc:Work
         rdf:about="">
        <dc:format>image/svg+xml</dc:format>
        <dc:type
           rdf:resource="http://purl.org/dc/dcmitype/StillImage" />
        <dc:title></dc:title>
      </cc:Work>
    </rdf:RDF>
  </metadata>
  <g
     transform="translate(602.33264,-4473.2788)"
     id="layer1">
    <path
       id="path4907"
       d="m -573.02258,4499.6818 0,2 0,232.8907 0.002,0 0,97.4804 0,2 65.02148,0 4,0 0,-1.7558 0,-2.2442 0,-3.8047 0,-15.4297 -13.38867,0 10.52925,-13.5312 -7.51562,0 9.99804,-12.8457 -5.08008,0 8.82618,-11.4316 8.82617,11.4316 -5.08008,0 9.99805,12.8457 -7.51563,0 10.5293,13.5312 -13.10352,0 0,15.4297 0,3.8047 0,4 4,0 323.02344,0 323.02344,0 4,0 0,-4 0,-3.8047 0,-15.4297 -13.10352,0 10.5293,-13.5312 -7.51563,0 9.99805,-12.8457 -5.08008,0 8.82617,-11.4316 8.82618,11.4316 -5.08008,0 9.99804,12.8457 -7.51562,0 10.5293,13.5312 -13.38868,0 0,15.4297 0,3.8047 0,2.2442 0,1.7558 4,0 65.02149,0 0,-2 0,-101.3457 0,-231.0254 -571.24609,0 -4.03907,0 -230.85351,0 z m 4,4 226.85351,0 0,226.8907 -226.85351,0 0,-226.8907 z m 230.89258,0 567.24609,0 0,227.0098 -567.24609,0 0,-227.0098 z m -230.89063,231.0254 399.06836,0 399.06836,0 0,95.3457 -61.02149,0 0,-15.2344 17.56836,0 -10.52929,-13.5312 7.51953,0 -9.99805,-12.8457 5.03711,0 -15.38281,-19.9277 -1.58399,-2.0508 -16.96679,21.9785 5.03711,0 -9.99805,12.8457 7.51953,0 -10.5293,13.5312 17.28321,0 0,15.2344 -323.02344,0 -323.02344,0 0,-15.2344 17.28321,0 -10.5293,-13.5312 7.51953,0 -9.99805,-12.8457 5.03711,0 -16.96679,-21.9785 -1.58399,2.0508 -15.38281,19.9277 5.03711,0 -9.99805,12.8457 7.51953,0 -10.52929,13.5312 17.56836,0 0,15.2344 -61.02149,0 0,-95.3457 z"
       style="color:#000000;font-style:normal;font-variant:normal;font-weight:normal;font-stretch:normal;font-size:medium;line-height:normal;font-family:sans-serif;text-indent:0;text-align:start;text-decoration:none;text-decoration-line:none;text-decoration-style:solid;text-decoration-color:#000000;letter-spacing:normal;word-spacing:normal;text-transform:none;direction:ltr;block-progression:tb;writing-mode:lr-tb;baseline-shift:baseline;text-anchor:start;white-space:normal;clip-rule:nonzero;display:inline;overflow:visible;visibility:visible;opacity:1;isolation:auto;mix-blend-mode:normal;color-interpolation:sRGB;color-interpolation-filters:linearRGB;solid-color:#000000;solid-opacity:1;fill:#ffffff;fill-opacity:1;fill-rule:nonzero;stroke:none;stroke-width:4;stroke-linecap:square;stroke-linejoin:miter;stroke-miterlimit:4;stroke-dasharray:none;stroke-dashoffset:0;stroke-opacity:1;color-rendering:auto;image-rendering:auto;shape-rendering:auto;text-rendering:auto;enable-background:accumulate" />
    <path
       id="path4911"
       style="font-style:normal;font-variant:normal;font-weight:bold;font-stretch:normal;font-size:80.25875092px;line-height:125%;font-family:Nevis;-inkscape-font-specification:'Nevis, Bold';text-align:start;letter-spacing:0px;word-spacing:0px;writing-mode:lr-tb;text-anchor:start;fill:#ffffff;fill-opacity:1;stroke:none;stroke-width:1px;stroke-linecap:butt;stroke-linejoin:miter;stroke-opacity:1"
       d="m -195.74256,4582.4811 18.5272,0 q 7.9844,-0.1323 8.2049,-7.2786 -0.2205,-6.5286 -8.0725,-6.7933 l -18.6596,0 0,14.0719 z m 26.5998,10.8517 16.4981,28.8495 -15.1747,0 -15.8364,-27.3498 -12.0868,0 0,27.3498 -13.2337,0 0,-66.1687 28.8494,0 q 23.1592,0 23.1592,19.0566 0,14.3366 -12.1751,18.2626 z" />
    <path
       id="path4913"
       style="font-style:normal;font-variant:normal;font-weight:bold;font-stretch:normal;font-size:80.25875092px;line-height:125%;font-family:Nevis;-inkscape-font-specification:'Nevis, Bold';text-align:start;letter-spacing:0px;word-spacing:0px;writing-mode:lr-tb;text-anchor:start;fill:#ffffff;fill-opacity:1;stroke:none;stroke-width:1px;stroke-linecap:butt;stroke-linejoin:miter;stroke-opacity:1"
       d="m -117.73406,4622.1823 q -14.1159,0 -23.6001,-9.4842 -9.4841,-9.5283 -9.4841,-23.6002 0,-14.116 9.4841,-23.6002 9.4842,-9.4841 23.6001,-9.4841 14.1159,0 23.600202,9.4841 9.4841,9.4842 9.4841,23.6002 0,14.116 -9.4841,23.6002 -9.484302,9.4842 -23.600202,9.4842 z m 0.044,-12.3515 q 8.7784,0 14.2925,-5.9552 5.514002,-5.9552 5.514002,-14.7777 0,-8.8225 -5.514002,-14.7777 -5.5141,-5.9551 -14.3807,-5.9551 -8.7785,0 -14.2925,5.9551 -5.514,5.9552 -5.514,14.7777 0,8.8225 5.514,14.7777 5.514,5.9552 14.3807,5.9552 z" />
    <path
       id="path4915"
       style="font-style:normal;font-variant:normal;font-weight:bold;font-stretch:normal;font-size:80.25875092px;line-height:125%;font-family:Nevis;-inkscape-font-specification:'Nevis, Bold';text-align:start;letter-spacing:0px;word-spacing:0px;writing-mode:lr-tb;text-anchor:start;fill:#ffffff;fill-opacity:1;stroke:none;stroke-width:1px;stroke-linecap:butt;stroke-linejoin:miter;stroke-opacity:1"
       d="m -46.745958,4622.1823 q -14.1161,0 -23.6003,-9.4842 -9.4841,-9.5283 -9.4841,-23.6002 0,-14.116 9.4841,-23.6002 9.4842,-9.4841 23.6003,-9.4841 14.1159,0 23.6,9.4841 9.4843,9.4842 9.4843,23.6002 0,14.116 -9.4843,23.6002 -9.4841,9.4842 -23.6,9.4842 z m 0.044,-12.3515 q 8.7782,0 14.2924,-5.9552 5.514,-5.9552 5.514,-14.7777 0,-8.8225 -5.514,-14.7777 -5.5142,-5.9551 -14.3807,-5.9551 -8.7784,0 -14.2925,5.9551 -5.514,5.9552 -5.514,14.7777 0,8.8225 5.514,14.7777 5.5141,5.9552 14.3808,5.9552 z" />
    <path
       id="path4920"
       style="font-style:normal;font-variant:normal;font-weight:bold;font-stretch:normal;font-size:80.25875092px;line-height:125%;font-family:Nevis;-inkscape-font-specification:'Nevis, Bold';text-align:start;letter-spacing:0px;word-spacing:0px;writing-mode:lr-tb;text-anchor:start;fill:#ffffff;fill-opacity:1;stroke:none;stroke-width:1px;stroke-linecap:butt;stroke-linejoin:miter;stroke-opacity:1"
       d="m 13.484542,4556.0136 q 9.2194,0 14.2924,2.2057 5.0729,2.2055 9.4842,6.6168 l -8.8225,8.8225 q -4.4113,-5.2935 -12.3515,-5.2935 -7.9403001,0 -10.1459001,3.7495 -2.2057,3.7496 0,6.3963 2.2056,2.6468 10.1459001,3.9702 8.3813,0.8822 15.2188,5.514 6.8373,4.6319 6.8373,14.7777 0,7.9402 -7.3226,13.6748 -7.2786,5.7347 -16.9832,5.7347 -9.2196001,0 -15.3953001,-2.6468 -6.1758,-2.6468 -10.5869999,-7.0581 l 8.8224999,-8.8223 q 4.4112,5.2934 14.9982001,6.1757 8.8225,0 10.9841,-3.7496 2.2055,-3.7495 0,-7.499 -2.1616,-3.7497 -10.9841,-4.632 -7.9403001,-0.8823 -14.5571001,-4.8523 -6.6168,-3.97 -6.6168,-13.6748 0,-8.7784 7.4991,-14.0718 7.5432,-5.3377 15.4835001,-5.3377 z" />
    <path
       id="path4922"
       style="font-style:normal;font-variant:normal;font-weight:bold;font-stretch:normal;font-size:80.25875092px;line-height:125%;font-family:Nevis;-inkscape-font-specification:'Nevis, Bold';text-align:start;letter-spacing:0px;word-spacing:0px;writing-mode:lr-tb;text-anchor:start;fill:#ffffff;fill-opacity:1;stroke:none;stroke-width:1px;stroke-linecap:butt;stroke-linejoin:miter;stroke-opacity:1"
       d="m 42.577442,4556.0136 0,12.3515 22.056199,0 0,53.8172 13.2338,0 0,-53.8172 22.0562,0 0,-12.3515 -57.346199,0 z" />
    <path
       id="circle4924"
       d="m -94.31164,4633.7814 c -2.0863,0 -4.57473,1.4635 -6.29493,4.4649 l -5.92968,10.2129 c -2.2328,-1.1713 -3.4043,-3.2951 -3.4043,-5.418 0,-1.7569 0.80407,-3.5139 2.45117,-4.7949 l -1.24414,-2.2324 c -2.7085,1.9399 -3.91602,4.5393 -3.91602,7.1015 0,3.038 1.72033,5.9657 4.79493,7.5762 l -1.13477,1.9766 c -2.6719,4.6118 -1.0973,9.7363 4.2832,9.7363 5.6733,0 9.33267,-3.3672 12.48047,-7.0274 -0.007,-0.018 -0.0218,-0.035 -0.0293,-0.053 0.0235,0.016 0.0448,0.037 0.0684,0.053 1.8301,-2.1229 3.25702,-4.0279 6.29492,-8.164 l 0.51367,0.623 c 0.4758,0.6222 0.65795,1.3915 0.21875,2.1602 l -4.02539,6.9902 c -1.6105,2.8184 -0.47695,5.418 2.59765,5.418 2.26414,0 4.77345,-1.7536 7.17579,-4.0938 0.17993,2.3736 2.10015,4.0938 5.15429,4.0938 2.74974,0 5.48122,-1.3702 7.91797,-3.3067 -0.17525,1.8817 1.03374,3.3067 3.30859,3.3067 1.53731,0 3.43944,-0.9896 5.26954,-2.4903 0.183,1.4641 1.35502,2.4903 3.29492,2.4903 1.9147,0 4.00401,-1.2548 6.05664,-3.0547 -0.0481,1.7551 1.15027,3.0547 3.32226,3.0547 1.93328,0 4.04542,-1.2754 6.11719,-3.1035 -0.0718,1.7796 1.1265,3.1035 3.31836,3.1035 2.16741,0 4.55924,-1.6115 6.86719,-3.8008 -0.89534,4.7419 4.39261,4.9091 7.07226,0.873 l 1.97657,-2.9648 c 0.72972,1.4595 2.7223,2.1285 4.94531,1.0645 -0.19512,2.7453 1.79711,4.8281 5.1582,4.8281 4.3191,0 8.6022,-3.3672 11.75,-7.0274 -0.2563,-0.5124 -0.91533,-1.0986 -1.42773,-1.3183 l -0.25586,0.2929 c -2.7451,3.1844 -6.25974,5.709 -8.93164,5.709 -2.3425,0 -3.73346,-1.4625 -1.97656,-4.5371 l 0.36523,-0.6601 c 2.4523,1.0248 7.06492,0.5487 9.91992,-4.3926 l 0.54883,-0.9512 c 2.0498,-3.5139 0.0738,-6.1484 -3.03711,-6.1484 -3.0746,0 -5.52817,1.6109 -7.13867,4.3926 l -3.68164,6.3164 -0.23633,0.2714 c -2.0498,2.2327 -5.63615,2.7088 -3.62305,-1.3906 l 6.18555,-9.2246 -3.43945,0 -8.5293,12.8106 c -2.306,3.4772 -2.56176,3.5508 -1.09766,-0.1094 l 5.08789,-12.7012 -3.84375,0 -4.15039,10.332 c -0.005,-0 -0.0105,-0.01 -0.0156,-0.01 l -0.25586,0.293 c -2.7452,3.1844 -5.41786,5.709 -7.10156,5.709 -0.8418,0 -1.31796,-0.5852 -0.43946,-2.0859 l 8.16407,-14.2383 -3.80664,0 -5.96875,10.3379 c -0.009,-0 -0.0186,-0.012 -0.0273,-0.016 l -0.25781,0.2929 c -2.7452,3.1844 -5.41591,5.709 -7.09961,5.709 -0.8418,0 -1.31795,-0.5852 -0.43945,-2.0859 l 8.16211,-14.2383 3.11132,0 1.09766,-1.8301 -3.14648,0 3.58593,-6.2226 -3.80664,0 -3.58789,6.2226 -3.43945,0 -1.09766,1.8301 3.47657,0 -6.00391,10.3985 -0.18945,0.2167 c -2.7452,3.1844 -5.41797,5.709 -7.10157,5.709 -0.8419,0 -1.31785,-0.5852 -0.43945,-2.0859 l 6.14844,-10.7617 -2.15821,0 c 0.1464,-1.6105 -1.50123,-3.8418 -3.99023,-3.8418 -2.0497,0 -4.90522,1.6109 -6.51562,4.3926 l -3.64844,6.2968 c 0,0 -0.002,-0 -0.002,-0 l -0.25586,0.293 c -2.7452,3.1844 -6.25779,5.709 -8.92969,5.709 -2.3426,0 -3.73346,-1.4625 -1.97656,-4.5371 l 0.36523,-0.6602 c 2.4524,1.0248 7.06502,0.5487 9.91992,-4.3926 l 0.54883,-0.9511 c 2.0497,-3.5139 0.0719,-6.1485 -3.03906,-6.1485 -3.0746,0 -5.52622,1.6109 -7.13672,4.3926 l -3.70313,6.3496 -0.20703,0.2383 c -2.7452,3.1844 -5.41786,5.709 -7.10156,5.709 -0.8419,0 -1.31785,-0.5852 -0.43945,-2.0859 l 3.80664,-6.6622 c 1.3177,-2.306 0.69567,-3.6595 -0.54883,-5.1601 l -2.12305,-2.5625 c -0.549,-0.6954 -0.54789,-1.4633 0.22071,-2.1953 l -1.97657,-2.1602 c -2.1595,1.9399 -2.34258,4.1005 -0.98828,5.8574 l 0.33008,0.4375 c -1.6837,2.3792 -3.95446,5.6012 -6.44336,8.5293 0.006,0.01 0.0153,0.017 0.0215,0.025 -0.0197,-0.01 -0.0411,-0.02 -0.0605,-0.025 l -0.25586,0.293 c -2.7452,3.1844 -6.11271,5.709 -9.88281,5.709 -2.5987,0 -4.17165,-2.5987 -1.90235,-6.4785 l 1.06055,-1.8653 c 0.6954,0.1098 1.39156,0.1817 2.16016,0.1817 4.0629,0 8.67448,-2.0862 11.67578,-7.3203 1.0615,-1.8668 1.53711,-3.6224 1.53711,-5.1231 0,-3.4406 -2.23238,-5.6738 -5.05078,-5.6738 z m 0,3.293 c 1.4275,0 2.08593,0.953 2.08593,2.3438 0,3.5505 -4.31844,9.955 -10.24804,9.955 l -0.76954,0 5.49024,-9.5156 c 1.1347,-1.94 2.38001,-2.7832 3.44141,-2.7832 z m 67.99414,0.293 c -1.2444,0 -2.19532,0.988 -2.19532,2.2324 0,1.2445 0.95092,2.1973 2.19532,2.1973 1.2445,0 2.23242,-0.9528 2.23242,-2.1973 0,-1.2444 -0.98792,-2.2324 -2.23242,-2.2324 z m -41.67188,8.832 c 1.22068,-0.073 1.88976,1.0967 0.61328,3.3203 l -0.54883,0.9512 c -1.8302,3.1112 -4.28343,3.0378 -5.71093,2.5254 l 2.45312,-4.2813 c 0.96079,-1.6493 2.24395,-2.4587 3.19336,-2.5156 z m 64.625,0 c 1.22069,-0.073 1.88982,1.0967 0.61328,3.3203 l -0.54883,0.9512 c -1.8301,3.1112 -4.28148,3.0378 -5.70898,2.5254 l 2.45117,-4.2813 c 0.96079,-1.6493 2.24393,-2.4587 3.19336,-2.5156 z m -50.48242,0.2578 c 1.28865,-0.01 2.11447,1.1271 1.06445,3.0625 l -2.96484,5.1973 c -2.3059,3.6236 -4.57454,5.3437 -6.14844,5.3437 -0.8418,0 -1.31785,-0.5852 -0.43945,-2.0859 l 5.30664,-9.2598 c 0.89679,-1.5533 2.17936,-2.2515 3.18164,-2.2578 z m -70.25,4.418 a 2.2149785,2.2149785 0 0 0 -2.21484,2.2148 2.2149785,2.2149785 0 0 0 2.21484,2.2149 2.2149785,2.2149785 0 0 0 2.2168,-2.2149 2.2149785,2.2149785 0 0 0 -2.2168,-2.2148 z m 139.14062,0 a 2.2149785,2.2149785 0 0 0 -2.21484,2.2148 2.2149785,2.2149785 0 0 0 2.21484,2.2149 2.2149785,2.2149785 0 0 0 2.21485,-2.2149 2.2149785,2.2149785 0 0 0 -2.21485,-2.2148 z"
       style="opacity:1;fill:#ffffff;fill-opacity:1;fill-rule:nonzero;stroke:none;stroke-width:16;stroke-linecap:round;stroke-linejoin:miter;stroke-miterlimit:4;stroke-dasharray:none;stroke-dashoffset:0.60000002;stroke-opacity:1" />
    <path
       id="path5018"
       d="m -324.57336,4768.9201 -0.30664,0.039 -2.50391,0 0,26.8418 2.81055,0 0,-12.6758 1.75586,8.7422 2.85351,0 1.79883,-8.9336 0,12.9043 2.81055,0 0,-26.8789 -2.50196,0 -0.35156,-0.039 -2.54687,12.6016 -0.61329,3.2441 -0.61523,-3.0547 -2.58984,-12.791 z m 24.65039,0 -0.35157,0.039 -2.50195,0 0,26.8789 2.80859,0 0,-12.9043 2.58985,12.791 0,0.1133 2.80859,0 0,-26.8789 -2.80859,0 0,12.5625 -2.54492,-12.6016 z m -145.9668,0.039 2.63477,26.8789 2.85351,0 1.22852,-13.209 1.3164,13.209 2.81055,0 2.67773,-26.8789 -2.85351,0 -1.31641,13.4395 -1.31836,-13.4395 -2.63281,0 -1.4043,13.6699 -1.36132,-13.6699 -2.63477,0 z m 65.8457,0 2.63282,26.8789 3.81835,0 2.67774,-26.8789 -2.85156,0 -1.80078,18.5176 -1.84375,-18.5176 -2.63282,0 z m -50.56445,0.039 0,26.8398 2.81055,0 4.60937,0 0,-2.4433 -4.60937,0 0,-9.8496 3.73047,0 0,-2.4434 -3.73047,0 0,-9.6601 4.60937,0 0,-2.4434 -5.22461,0 -2.19531,0 z m 10.03125,0 0,26.8398 7.11133,0 1.66797,-1.4121 0,-10.7675 -1.44727,-1.2207 1.44727,-1.2598 0,-10.7676 -1.66797,-1.4121 -7.11133,0 z m 20.0625,0 0,26.8398 7.11133,0 1.66797,-1.4121 0,-24.0156 -1.66797,-1.4121 -7.11133,0 z m 11.31641,0 0,26.8398 2.81054,0 4.60938,0 0,-2.4433 -4.60938,0 0,-9.8496 3.73047,0 0,-2.4434 -3.73047,0 0,-9.6601 4.60938,0 0,-2.4434 -5.22461,0 -2.19531,0 z m 20.0625,0 0,26.8398 2.80859,0 4.60937,0 0,-2.4433 -4.60937,0 0,-9.8496 3.73242,0 0,-2.4434 -3.73242,0 0,-9.6601 4.60937,0 0,-2.4434 -5.22265,0 -2.19531,0 z m 9.94531,0 0,26.8398 2.80859,0 3.82032,0 0,-2.4433 -3.82032,0 0,-24.3965 -2.80859,0 z m 10.92773,0 -1.66797,1.4121 0,24.0156 1.66797,1.4121 5.35547,0 1.66797,-1.4121 0,-24.0156 -1.66797,-1.4121 -5.35547,0 z m 9.5625,0 0,26.8398 2.81055,0 0,-12.1035 4.51953,0 1.44922,-1.2207 0,-12.1035 -1.66797,-1.4121 -7.11133,0 z m 25.89258,0 0,26.8398 2.8086,0 4.60937,0 0,-2.4433 -4.60937,0 0,-9.8496 3.73242,0 0,-2.4434 -3.73242,0 0,-9.6601 4.60937,0 0,-2.4434 -5.22266,0 -2.19531,0 z m 20.83399,0 0,2.4434 2.98437,0 0,24.3964 2.80859,0 0,-24.3964 2.98633,0 0,-2.4434 -8.77929,0 z m -125.79297,2.4434 3.11523,0 0,9.7734 -3.11523,0 0,-9.7734 z m 20.06054,0 3.11719,0 0,21.9531 -3.11719,0 0,-21.9531 z m 50.58399,0 3.02929,0 0,21.9531 -3.02929,0 0,-21.9531 z m 11.23242,0 3.11523,0 0,9.7734 -3.11523,0 0,-9.7734 z m -81.87695,12.2929 3.11523,0 0,9.6602 -3.11523,0 0,-9.6602 z"
       style="font-style:normal;font-variant:normal;font-weight:normal;font-stretch:normal;font-size:40.93936157px;line-height:125%;font-family:'Cast Iron';-inkscape-font-specification:'Cast Iron, Normal';text-align:start;letter-spacing:0px;word-spacing:0px;writing-mode:lr-tb;text-anchor:start;fill:#ffffff;fill-opacity:1;stroke:none;stroke-width:1px;stroke-linecap:butt;stroke-linejoin:miter;stroke-opacity:1" />
    <path
       id="path5046"
       d="m -271.08704,4783.8517 0,3.0567 11.55469,0 0,-3.0567 -11.55469,0 z m 125.60157,0 0,3.0567 11.55273,0 0,-3.0567 -11.55273,0 z m 124.57422,0 0,3.0567 11.55273,0 0,-3.0567 -11.55273,0 z"
       style="font-style:normal;font-variant:normal;font-weight:normal;font-stretch:normal;font-size:40.93936157px;line-height:125%;font-family:'Cast Iron';-inkscape-font-specification:'Cast Iron, Normal';text-align:start;letter-spacing:0px;word-spacing:0px;writing-mode:lr-tb;text-anchor:start;fill:#ffffff;fill-opacity:1;stroke:none;stroke-width:1px;stroke-linecap:butt;stroke-linejoin:miter;stroke-opacity:1" />
    <path
       id="path5048"
       d="m -192.08313,4768.9201 0,12.1816 -3.11719,0 0,-12.1035 -2.80859,0 0,26.8399 2.80859,0 0,-12.293 3.11719,0 0,12.2168 2.85352,0 0,-26.8418 -2.85352,0 z m 27.46289,0 -1.66797,1.4141 0,8.3613 5.88281,7.0254 0,7.6738 -3.02929,0 0,-5.1152 -2.85352,0 0,6.1465 1.66797,1.4121 5.40039,0 1.62305,-1.4121 0,-9.2774 -5.83789,-6.9492 0,-6.7969 3.02929,0 0,5.0782 2.8086,0 0,-6.1465 -1.62305,-1.4141 -5.40039,0 z m -53.15234,0.039 -2.63477,26.8789 2.81055,0 0.83398,-8.2852 2.01953,0 0.78907,8.2852 2.67773,0 -2.67773,-26.8789 -3.81836,0 z m -22.63672,0.039 -1.66797,1.4121 0,24.0156 1.66797,1.4121 5.35547,0 1.66797,-1.4121 0,-10.8437 -4.47657,0 0,2.4433 1.62305,0 0,7.3692 -3.02734,0 0,-21.9531 3.02734,0 0,5.1914 2.85352,0 0,-6.2227 -1.66797,-1.4121 -5.35547,0 z m 9.56445,0 0,26.8398 2.8086,0 0,-12.1035 3.11718,0 0,12.1035 2.85352,0 0,-12.1796 -1.44922,-1.2207 1.44922,-1.2598 0,-10.7676 -1.66797,-1.4121 -7.11133,0 z m 21.51953,0 0,26.8398 2.8086,0 0,-12.1035 4.52148,0 1.44922,-1.2207 0,-12.1035 -1.66992,-1.4121 -7.10938,0 z m 22.63282,0 0,2.4434 1.88867,0 0,21.9531 -1.88867,0 0,2.4433 1.88867,0 2.80859,0 1.88672,0 0,-2.4433 -1.88672,0 0,-21.9531 1.88672,0 0,-2.4434 -6.58398,0 z m 10.84179,0 -1.66797,1.4121 0,24.0156 1.66797,1.4121 5.35547,0 1.66797,-1.4121 0,-6.1093 -2.85352,0 0,5.0781 -3.02929,0 0,-21.9531 3.02929,0 0,5.1914 2.85352,0 0,-6.2227 -1.66797,-1.4121 -5.35547,0 z m -52.18554,2.4434 3.11718,0 0,9.7734 -3.11718,0 0,-9.7734 z m 21.51953,0 3.11718,0 0,9.7734 -3.11718,0 0,-9.7734 z m -9.23633,5.8789 0.74609,7.7129 -1.49218,0 0.74609,-7.7129 z"
       style="font-style:normal;font-variant:normal;font-weight:normal;font-stretch:normal;font-size:40.93936157px;line-height:125%;font-family:'Cast Iron';-inkscape-font-specification:'Cast Iron, Normal';text-align:start;letter-spacing:0px;word-spacing:0px;writing-mode:lr-tb;text-anchor:start;fill:#ffffff;fill-opacity:1;stroke:none;stroke-width:1px;stroke-linecap:butt;stroke-linejoin:miter;stroke-opacity:1" />
    <path
       id="path5066"
       d="m -80.95813,4768.9201 -0.34961,0.039 -2.50195,0 0,26.8789 2.80859,0 0,-12.9043 2.58985,12.791 0,0.1133 2.80859,0 0,-26.8789 -2.80859,0 0,12.5625 -2.54688,-12.6016 z m 31.29492,0 -0.35156,0.039 -2.50195,0 0,26.8789 2.80859,0 0,-12.9043 2.58984,12.791 0,0.1133 2.81055,0 0,-26.8789 -2.81055,0 0,12.5625 -2.54492,-12.6016 z m -42.42187,0.039 -2.63477,26.8789 2.81055,0 0.83398,-8.2852 2.01758,0 0.79102,8.2852 2.67773,0 -2.67773,-26.8789 -3.81836,0 z m -24.39063,0.039 0,26.8398 7.11133,0 1.66797,-1.4121 0,-10.7675 -1.44922,-1.2207 1.44922,-1.2598 0,-10.7676 -1.66797,-1.4121 -7.11133,0 z m 11.31641,0 0,26.8398 2.81055,0 0,-12.1035 3.11718,0 0,12.1035 2.85157,0 0,-12.1796 -1.44727,-1.2207 1.44727,-1.2598 0,-10.7676 -1.66797,-1.4121 -7.11133,0 z m 32.15234,0 0,26.8398 7.10938,0 1.66797,-1.4121 0,-24.0156 -1.66797,-1.4121 -7.10938,0 z m 11.31641,0 0,2.4434 1.88672,0 0,21.9531 -1.88672,0 0,2.4433 1.88672,0 2.81054,0 1.88672,0 0,-2.4433 -1.88672,0 0,-21.9531 1.88672,0 0,-2.4434 -6.58398,0 z m 21.64453,0 -1.66797,1.4121 0,24.0156 1.66797,1.4121 5.35547,0 1.66797,-1.4121 0,-10.8437 -4.47852,0 0,2.4433 1.625,0 0,7.3692 -3.0293,0 0,-21.9531 3.0293,0 0,5.1914 2.85352,0 0,-6.2227 -1.66797,-1.4121 -5.35547,0 z m -73.61914,2.4434 3.11523,0 0,9.7734 -3.11523,0 0,-9.7734 z m 11.31641,0 3.11718,0 0,9.7734 -3.11718,0 0,-9.7734 z m 32.15039,0 3.11718,0 0,21.9531 -3.11718,0 0,-21.9531 z m -19.86719,5.8789 0.74609,7.7129 -1.49218,0 0.74609,-7.7129 z m -23.59961,6.414 3.11523,0 0,9.6602 -3.11523,0 0,-9.6602 z"
       style="font-style:normal;font-variant:normal;font-weight:normal;font-stretch:normal;font-size:40.93936157px;line-height:125%;font-family:'Cast Iron';-inkscape-font-specification:'Cast Iron, Normal';text-align:start;letter-spacing:0px;word-spacing:0px;writing-mode:lr-tb;text-anchor:start;fill:#ffffff;fill-opacity:1;stroke:none;stroke-width:1px;stroke-linecap:butt;stroke-linejoin:miter;stroke-opacity:1" />
    <path
       id="path5084"
       d="m 63.60632,4768.9201 -1.66796,1.4141 0,8.3613 5.88281,7.0254 0,7.6738 -3.0293,0 0,-5.1152 -2.85351,0 0,6.1465 1.66796,1.4121 5.40039,0 1.62305,-1.4121 0,-9.2774 -5.83789,-6.9492 0,-6.7969 3.0293,0 0,5.0782 2.80859,0 0,-6.1465 -1.62305,-1.4141 -5.40039,0 z m 12.37305,0 -0.30664,0.039 -2.50195,0 0,26.8418 2.80859,0 0,-12.6758 1.75586,8.7422 2.85352,0 1.79882,-8.9336 0,12.9043 2.81055,0 0,-26.8789 -2.50195,0 -0.35157,-0.039 -2.54687,12.6016 -0.61328,3.2441 -0.61524,-3.0547 -2.58984,-12.791 z m 24.65039,0 -0.35156,0.039 -2.50195,0 0,26.8789 2.80859,0 0,-12.9043 2.58984,12.791 0,0.1133 2.81055,0 0,-26.8789 -2.81055,0 0,12.5625 -2.54492,-12.6016 z m -68.22851,0.039 -2.63282,26.8789 2.8086,0 0.83398,-8.2852 2.01953,0 0.78906,8.2852 2.67774,0 -2.67774,-26.8789 -3.81835,0 z m 57.09961,0 -2.63477,26.8789 2.81055,0 0.83398,-8.2852 2.01953,0 0.78906,8.2852 2.67774,0 -2.67774,-26.8789 -3.81835,0 z m -79.73633,0.039 -1.66797,1.4121 0,24.0156 1.66797,1.4121 5.35547,0 1.66796,-1.4121 0,-6.1093 -2.85351,0 0,5.0781 -3.02735,0 0,-21.9531 3.02735,0 0,5.1914 2.85351,0 0,-6.2227 -1.66796,-1.4121 -5.35547,0 z m 9.56445,0 0,26.8398 2.80859,0 0,-12.1035 3.11719,0 0,12.1035 2.85352,0 0,-12.1796 -1.44922,-1.2207 1.44922,-1.2598 0,-10.7676 -1.66797,-1.4121 -7.11133,0 z m 21.34766,0 0,26.8398 2.80859,0 0,-12.2929 3.64453,0 0,-2.4434 -3.64453,0 0,-9.6601 4.52148,0 0,-2.4434 -5.13476,0 -2.19531,0 z m 9.94531,0 0,2.4434 2.98437,0 0,24.3964 2.81055,0 0,-24.3964 2.98438,0 0,-2.4434 -8.7793,0 z m -28.48438,2.4434 3.11719,0 0,9.7734 -3.11719,0 0,-9.7734 z m 12.28321,5.8789 0.74609,7.7129 -1.49219,0 0.7461,-7.7129 z m 57.09961,0 0.74609,7.7129 -1.49219,0 0.7461,-7.7129 z"
       style="font-style:normal;font-variant:normal;font-weight:normal;font-stretch:normal;font-size:40.93936157px;line-height:125%;font-family:'Cast Iron';-inkscape-font-specification:'Cast Iron, Normal';text-align:start;letter-spacing:0px;word-spacing:0px;writing-mode:lr-tb;text-anchor:start;fill:#ffffff;fill-opacity:1;stroke:none;stroke-width:1px;stroke-linecap:butt;stroke-linejoin:miter;stroke-opacity:1" />
    <path
       id="path4953"
       d="m -261.83118,4684.5178 c -10.00362,0 -19.61181,3.5249 -26.83984,9.8574 a 2.0002,2.0002 0 0 0 -0.36133,0.2617 c -6.49664,5.8857 -15.36479,9.2285 -24.625,9.2285 -9.26021,0 -18.13031,-3.3428 -24.62695,-9.2285 a 2.0002,2.0002 0 1 0 -2.68555,2.9648 c 7.27789,6.5935 17.09258,10.2637 27.3125,10.2637 10.00316,0 19.61006,-3.5235 26.83789,-9.8554 a 2.0002,2.0002 0 0 0 0.36133,-0.2657 c 6.49664,-5.8857 15.36675,-9.2265 24.62695,-9.2265 9.26021,0 18.12836,3.3408 24.625,9.2265 a 2.0002,2.0002 0 0 0 0.38868,0.2891 c 7.22488,6.3172 16.82165,9.832 26.8125,9.832 10.00316,0 19.61005,-3.5235 26.83789,-9.8554 a 2.0002,2.0002 0 0 0 0.36132,-0.2657 c 6.49664,-5.8857 15.36675,-9.2265 24.62696,-9.2265 9.2602,0 18.12836,3.3408 24.625,9.2265 a 2.0002,2.0002 0 0 0 0.38867,0.2891 c 7.22488,6.3172 16.82166,9.832 26.8125,9.832 10.00316,0 19.61005,-3.5235 26.83789,-9.8554 a 2.0002,2.0002 0 0 0 0.36133,-0.2657 c 6.49664,-5.8857 15.36674,-9.2265 24.62695,-9.2265 9.26021,0 18.12836,3.3408 24.625,9.2265 a 2.0002,2.0002 0 0 0 0.38867,0.2891 c 7.22489,6.3172 16.82166,9.832 26.8125,9.832 10.00029,0 19.6049,-3.5211 26.83203,-9.8496 a 2.0002,2.0002 0 0 0 0.36915,-0.2715 c 6.49664,-5.8857 15.36479,-9.2265 24.625,-9.2265 9.2602,0 18.12835,3.3408 24.625,9.2265 a 2.0002,2.0002 0 0 0 0.39453,0.291 c 7.22443,6.3155 16.81726,9.8301 26.80664,9.8301 10.00029,0 19.6049,-3.5211 26.83203,-9.8496 a 2.0002,2.0002 0 0 0 0.36914,-0.2715 c 6.49664,-5.8857 15.36479,-9.2265 24.625,-9.2265 9.2602,0 18.12836,3.3408 24.625,9.2265 a 2.0002,2.0002 0 0 0 0.39453,0.291 c 7.22444,6.3155 16.81727,9.8301 26.80664,9.8301 10.21992,0 20.03266,-3.6702 27.31055,-10.2637 a 2.0002,2.0002 0 0 0 -1.28125,-3.5 2.0002,2.0002 0 0 0 -1.4043,0.5352 c -6.49664,5.8857 -15.36479,9.2285 -24.625,9.2285 -9.26021,0 -18.12836,-3.3428 -24.625,-9.2285 a 2.0002,2.0002 0 0 0 -0.35742,-0.2578 c -7.22851,-6.3352 -16.83787,-9.8613 -26.84375,-9.8613 -9.9998,0 -19.60307,3.5216 -26.83008,9.8496 a 2.0002,2.0002 0 0 0 -0.37109,0.2695 c -6.49665,5.8857 -15.3648,9.2285 -24.625,9.2285 -9.26022,0 -18.12836,-3.3428 -24.625,-9.2285 a 2.0002,2.0002 0 0 0 -0.35743,-0.2578 c -7.2285,-6.3352 -16.83787,-9.8613 -26.84374,-9.8613 -10.00076,0 -19.60479,3.5225 -26.83204,9.8515 a 2.0002,2.0002 0 0 0 -0.36914,0.2676 c -6.49664,5.8857 -15.36479,9.2285 -24.625,9.2285 -9.2602,0 -18.13031,-3.3428 -24.62695,-9.2285 a 2.0002,2.0002 0 0 0 -0.35156,-0.2559 c -7.22887,-6.3369 -16.84031,-9.8632 -26.84766,-9.8632 -10.00223,0 -19.6102,3.5227 -26.83789,9.8535 a 2.0002,2.0002 0 0 0 -0.36328,0.2656 c -6.49664,5.8857 -15.36479,9.2285 -24.625,9.2285 -9.26021,0 -18.13031,-3.3428 -24.62695,-9.2285 a 2.0002,2.0002 0 0 0 -0.35157,-0.2559 c -7.22886,-6.3369 -16.84031,-9.8632 -26.84765,-9.8632 -10.00223,0 -19.61021,3.5227 -26.83789,9.8535 a 2.0002,2.0002 0 0 0 -0.36328,0.2656 c -6.49664,5.8857 -15.36479,9.2285 -24.625,9.2285 -9.2602,0 -18.13032,-3.3428 -24.62696,-9.2285 a 2.0002,2.0002 0 0 0 -0.35156,-0.2559 c -7.22887,-6.3369 -16.84031,-9.8632 -26.84766,-9.8632 z"
       style="color:#000000;font-style:normal;font-variant:normal;font-weight:normal;font-stretch:normal;font-size:medium;line-height:normal;font-family:sans-serif;text-indent:0;text-align:start;text-decoration:none;text-decoration-line:none;text-decoration-style:solid;text-decoration-color:#000000;letter-spacing:normal;word-spacing:normal;text-transform:none;direction:ltr;block-progression:tb;writing-mode:lr-tb;baseline-shift:baseline;text-anchor:start;white-space:normal;clip-rule:nonzero;display:inline;overflow:visible;visibility:visible;opacity:1;isolation:auto;mix-blend-mode:normal;color-interpolation:sRGB;color-interpolation-filters:linearRGB;solid-color:#000000;solid-opacity:1;fill:#ffffff;fill-opacity:1;fill-rule:nonzero;stroke:none;stroke-width:4;stroke-linecap:round;stroke-linejoin:miter;stroke-miterlimit:4;stroke-dasharray:none;stroke-dashoffset:0;stroke-opacity:1;color-rendering:auto;image-rendering:auto;shape-rendering:auto;text-rendering:auto;enable-background:accumulate" />
    <path
       id="path5199"
       d="m -474.38196,4553.0049 c -5.8319,0.085 -11.2748,3.6058 -13.599,9.2168 -2.1956,5.3005 -1.1006,11.248 2.4525,15.4176 -2.5792,0.937 -4.9498,2.431 -6.9268,4.4079 -3.5443,3.5444 -5.5379,8.3517 -5.5455,13.3634 l 15.0256,0 c 0.4437,0 0.6662,-0.028 0.9639,-0.067 2.5761,-0.7971 2.2573,-4.951 -0.9645,-4.9053 l -8.7767,0 c 0.6796,-1.7239 1.7055,-3.3102 3.0416,-4.6463 1.6555,-1.6555 3.6921,-2.837 5.903,-3.4681 l 0,3.678 c -0.051,3.5812 5.3475,3.5812 5.2963,0 l 0,-7.2233 c 0.01,-0.7293 -0.2817,-1.4306 -0.8057,-1.9379 -0.1956,-0.2215 -0.4279,-0.4087 -0.6853,-0.5538 -4.2073,-2.4292 -5.9448,-7.5492 -4.0856,-12.0376 1.071,-2.5856 3.1361,-4.4695 5.5901,-5.3668 -0.4356,1.213 -0.5997,2.5365 -0.4225,3.8826 0.5437,4.1294 4.1037,7.2518 8.2688,7.2518 0.047,-2e-4 0.094,0 0.1409,-0.01 0.065,0.01 0.1287,0.01 0.1936,0.01 l 6.6329,0 c 3.5805,0.051 3.5805,-5.3468 0,-5.2963 l -6.6329,0 c -0.046,0 -0.092,0 -0.1381,0.01 -0.065,0 -0.1312,-0.01 -0.1964,-0.01 -1.5485,0 -2.8164,-1.1122 -3.0185,-2.6475 -0.2021,-1.5354 0.7346,-2.9373 2.2304,-3.3382 0.3647,-0.091 0.706,-0.2606 1.0007,-0.4943 0.6676,-0.4705 1.0799,-1.2222 1.1186,-2.038 0.059,-1.2572 -0.7746,-2.3822 -1.9947,-2.6908 -1.3538,-0.3628 -2.7209,-0.5262 -4.0667,-0.5065 z"
       style="color:#000000;font-style:normal;font-variant:normal;font-weight:normal;font-stretch:normal;font-size:medium;line-height:normal;font-family:sans-serif;text-indent:0;text-align:start;text-decoration:none;text-decoration-line:none;text-decoration-style:solid;text-decoration-color:#000000;letter-spacing:normal;word-spacing:normal;text-transform:none;direction:ltr;block-progression:tb;writing-mode:lr-tb;baseline-shift:baseline;text-anchor:start;white-space:normal;clip-rule:nonzero;display:inline;overflow:visible;visibility:visible;opacity:1;isolation:auto;mix-blend-mode:normal;color-interpolation:sRGB;color-interpolation-filters:linearRGB;solid-color:#000000;solid-opacity:1;fill:#ffffff;fill-opacity:1;fill-rule:nonzero;stroke:none;stroke-width:13.5;stroke-linecap:butt;stroke-linejoin:miter;stroke-miterlimit:4;stroke-dasharray:none;stroke-dashoffset:0;stroke-opacity:1;color-rendering:auto;image-rendering:auto;shape-rendering:auto;text-rendering:auto;enable-background:accumulate" />
    <path
       id="path5197"
       d="m -452.01726,4566.2694 c -0.8476,-0.031 -1.6591,0.3461 -2.1816,1.0143 l -14.188,14.1894 c -2.5995,2.4954 1.2475,6.3438 3.743,3.7443 l 12.8352,-12.8337 c 3.0171,2.68 4.088,7.0141 2.4863,10.8809 -1.7947,4.3329 -6.3754,6.7105 -10.9122,5.7392 -0.3806,-0.192 -0.8021,-0.2888 -1.2283,-0.283 -1.1194,0.018 -2.1071,0.7379 -2.466,1.7983 -0.021,0.059 -0.04,0.1187 -0.057,0.1788 -0.059,0.1995 -0.093,0.4058 -0.1043,0.6135 -0.01,0.1468 4e-4,0.2943 0.019,0.4402 l 0,16.9289 c -6.4477,-0.5802 -12.8756,2.0098 -17.1131,7.0824 -4.9649,5.9437 -6.0432,14.2405 -2.7626,21.2557 3.2807,7.0152 10.3397,11.5067 18.0841,11.5067 3.5798,0.05 3.5798,-5.3448 0,-5.2949 -5.7011,0 -10.8724,-3.2914 -13.2875,-8.4557 -2.4151,-5.1643 -1.6263,-11.2413 2.0286,-15.6167 3.655,-4.3754 9.497,-6.235 15.0087,-4.7777 1.6424,0.4594 3.2841,-0.7311 3.3585,-2.4348 0.01,-0.159 0,-0.3178 -0.024,-0.4754 0,-0.058 0,-0.1166 0,-0.1747 l 0,-16.7962 c 6.1097,0.2186 11.9219,-3.3586 14.3451,-9.2086 2.8429,-6.8634 0.1745,-14.8121 -6.2131,-18.5784 -0.027,-0.017 -0.055,-0.034 -0.083,-0.05 -0.012,-0.01 -0.023,-0.015 -0.035,-0.022 -0.012,-0.01 -0.022,-0.013 -0.034,-0.019 -0.047,-0.027 -0.096,-0.053 -0.1449,-0.077 -0.056,-0.027 -0.112,-0.051 -0.1693,-0.075 -0.014,-0.01 -0.028,-0.012 -0.042,-0.017 -0.2762,-0.1094 -0.5699,-0.1705 -0.8667,-0.1828 z"
       style="color:#000000;font-style:normal;font-variant:normal;font-weight:normal;font-stretch:normal;font-size:medium;line-height:normal;font-family:sans-serif;text-indent:0;text-align:start;text-decoration:none;text-decoration-line:none;text-decoration-style:solid;text-decoration-color:#000000;letter-spacing:normal;word-spacing:normal;text-transform:none;direction:ltr;block-progression:tb;writing-mode:lr-tb;baseline-shift:baseline;text-anchor:start;white-space:normal;clip-rule:nonzero;display:inline;overflow:visible;visibility:visible;opacity:1;isolation:auto;mix-blend-mode:normal;color-interpolation:sRGB;color-interpolation-filters:linearRGB;solid-color:#000000;solid-opacity:1;fill:#ffffff;fill-opacity:1;fill-rule:nonzero;stroke:none;stroke-width:13.5;stroke-linecap:butt;stroke-linejoin:miter;stroke-miterlimit:4;stroke-dasharray:none;stroke-dashoffset:0;stroke-opacity:1;color-rendering:auto;image-rendering:auto;shape-rendering:auto;text-rendering:auto;enable-background:accumulate" />
    <path
       id="path5195"
       d="m -490.16526,4598.5076 c -0.6898,-0.019 -1.3596,0.2304 -1.8675,0.6975 -13.484,12.0284 -17.0383,31.7364 -8.6046,47.7168 5.4059,10.2432 14.8587,17.2771 25.5661,19.8689 4.3064,2.3801 6.9755,6.8757 6.9755,11.7763 -0.051,3.5807 5.3471,3.5807 5.2963,0 0,-3.8803 -1.2082,-7.5861 -3.3462,-10.6685 3.2329,0.026 6.5074,-0.3475 9.757,-1.1524 17.5394,-4.3444 29.8806,-20.1152 29.8806,-38.1847 7e-4,-0.1012 0,-0.2025 -0.014,-0.3032 0.01,-0.096 0.014,-0.1911 0.014,-0.2871 l 0,-6.6316 c 2e-4,-0.016 2e-4,-0.032 0,-0.049 0.086,-1.2582 0.7663,-2.3923 1.8458,-3.0293 1.1563,-0.6824 2.5679,-0.6823 3.7241,0 1.1562,0.6823 1.8634,1.9328 1.8634,3.2975 -0.071,3.641 5.308,3.641 5.2367,0 0,-3.2689 -1.7115,-6.3 -4.4811,-7.9343 -2.7695,-1.6345 -6.1926,-1.6346 -8.9621,0 -2.5005,1.4756 -4.1349,4.0919 -4.4296,6.9917 -0.064,0.2357 -0.094,0.479 -0.091,0.7231 l 0,6.6316 c -7e-4,0.1014 0,0.2026 0.015,0.3034 -0.01,0.095 -0.015,0.1911 -0.015,0.2871 0,15.6627 -10.6554,29.2783 -25.8586,33.0439 -5.2468,1.2997 -10.5626,1.3071 -15.5748,0.1924 -0.1486,-0.05 -0.3012,-0.086 -0.4563,-0.1096 -9.3243,-2.2094 -17.5528,-8.3125 -22.2632,-17.2378 -7.3104,-13.852 -4.2413,-30.8676 7.4468,-41.2939 1.8268,-1.5803 0.7569,-4.5804 -1.6576,-4.649 z"
       style="color:#000000;font-style:normal;font-variant:normal;font-weight:normal;font-stretch:normal;font-size:medium;line-height:normal;font-family:sans-serif;text-indent:0;text-align:start;text-decoration:none;text-decoration-line:none;text-decoration-style:solid;text-decoration-color:#000000;letter-spacing:normal;word-spacing:normal;text-transform:none;direction:ltr;block-progression:tb;writing-mode:lr-tb;baseline-shift:baseline;text-anchor:start;white-space:normal;clip-rule:nonzero;display:inline;overflow:visible;visibility:visible;opacity:1;isolation:auto;mix-blend-mode:normal;color-interpolation:sRGB;color-interpolation-filters:linearRGB;solid-color:#000000;solid-opacity:1;fill:#ffffff;fill-opacity:1;fill-rule:nonzero;stroke:none;stroke-width:13.5;stroke-linecap:butt;stroke-linejoin:miter;stroke-miterlimit:4;stroke-dasharray:none;stroke-dashoffset:0;stroke-opacity:1;color-rendering:auto;image-rendering:auto;shape-rendering:auto;text-rendering:auto;enable-background:accumulate" />
    <path
       id="path4975"
       d="m -422.80156,4602.4457 c -2.904,-1e-4 -5.8088,0.7655 -8.4083,2.2967 -4.9777,2.9321 -8.1219,8.2564 -8.3812,14.0797 -0.044,0.2005 -0.066,0.4059 -0.062,0.6121 0.035,3.4105 -1.7515,6.5335 -4.7018,8.2119 -2.9503,1.6784 -6.5988,1.6421 -9.5837,-0.096 -2.9849,-1.7383 -4.8352,-4.8989 -4.8698,-8.3094 0.01,-1.4925 -1.2228,-2.72 -2.7151,-2.7125 -1.4608,0.01 -2.615,1.1971 -2.5798,2.6583 0.054,5.2995 2.9443,10.2343 7.5687,12.9273 4.6244,2.6929 10.2971,2.7506 14.8678,0.1503 4.5708,-2.6003 7.3638,-7.4775 7.31,-12.777 -7e-4,-0.057 0,-0.1159 -0.01,-0.1733 0.097,-4.1114 2.274,-7.8751 5.7771,-9.9386 3.5841,-2.1112 7.9889,-2.1111 11.573,0 3.5336,2.0815 5.7187,5.8936 5.7798,10.047 -0.023,0.1471 -0.033,0.2951 -0.031,0.4441 l 0,1.7036 c -0.05,3.5805 5.3468,3.5805 5.2963,0 l 0,-1.7036 c 7e-4,-0.1101 -0.01,-0.2197 -0.019,-0.329 -0.022,-6.1009 -3.2242,-11.7414 -8.4055,-14.7934 -2.5995,-1.5312 -5.5029,-2.298 -8.407,-2.2981 z"
       style="color:#000000;font-style:normal;font-variant:normal;font-weight:normal;font-stretch:normal;font-size:medium;line-height:normal;font-family:sans-serif;text-indent:0;text-align:start;text-decoration:none;text-decoration-line:none;text-decoration-style:solid;text-decoration-color:#000000;letter-spacing:normal;word-spacing:normal;text-transform:none;direction:ltr;block-progression:tb;writing-mode:lr-tb;baseline-shift:baseline;text-anchor:start;white-space:normal;clip-rule:nonzero;display:inline;overflow:visible;visibility:visible;opacity:1;isolation:auto;mix-blend-mode:normal;color-interpolation:sRGB;color-interpolation-filters:linearRGB;solid-color:#000000;solid-opacity:1;fill:#ffffff;fill-opacity:1;fill-rule:nonzero;stroke:none;stroke-width:13.5;stroke-linecap:butt;stroke-linejoin:miter;stroke-miterlimit:4;stroke-dasharray:none;stroke-dashoffset:0;stroke-opacity:1;color-rendering:auto;image-rendering:auto;shape-rendering:auto;text-rendering:auto;enable-background:accumulate" />
  </g>
</svg>
