<?xml version="1.0" encoding="UTF-8" standalone="no"?>
<!-- Created with Inkscape (http://www.inkscape.org/) -->

<svg
   xmlns:dc="http://purl.org/dc/elements/1.1/"
   xmlns:cc="http://creativecommons.org/ns#"
   xmlns:rdf="http://www.w3.org/1999/02/22-rdf-syntax-ns#"
   xmlns:svg="http://www.w3.org/2000/svg"
   xmlns="http://www.w3.org/2000/svg"
   xmlns:sodipodi="http://sodipodi.sourceforge.net/DTD/sodipodi-0.dtd"
   xmlns:inkscape="http://www.inkscape.org/namespaces/inkscape"
   width="400"
   height="166"
   viewBox="0 0 400.00001 166"
   id="svg2"
   version="1.1"
   inkscape:version="0.91 r13725"
   sodipodi:docname="box-drc-400-166-everything-but-text.svg">
  <defs
     id="defs4" />
  <sodipodi:namedview
     id="base"
     pagecolor="#ffffff"
     bordercolor="#666666"
     borderopacity="1.0"
     inkscape:pageopacity="0.0"
     inkscape:pageshadow="2"
     inkscape:zoom="2"
     inkscape:cx="208.80673"
     inkscape:cy="136.30977"
     inkscape:document-units="px"
     inkscape:current-layer="layer1"
     showgrid="false"
     inkscape:window-width="1430"
     inkscape:window-height="793"
     inkscape:window-x="8"
     inkscape:window-y="0"
     inkscape:window-maximized="0"
     showguides="true"
     inkscape:guide-bbox="true"
     fit-margin-top="0"
     fit-margin-left="0"
     fit-margin-right="0"
     fit-margin-bottom="0"
     units="px" />
  <metadata
     id="metadata7">
    <rdf:RDF>
      <cc:Work
         rdf:about="">
        <dc:format>image/svg+xml</dc:format>
        <dc:type
           rdf:resource="http://purl.org/dc/dcmitype/StillImage" />
        <dc:title></dc:title>
      </cc:Work>
    </rdf:RDF>
  </metadata>
  <g
     inkscape:label="Layer 1"
     inkscape:groupmode="layer"
     id="layer1"
     transform="translate(352.61476,-4568.0199)">
    <path
       style="color:#000000;font-style:normal;font-variant:normal;font-weight:normal;font-stretch:normal;font-size:medium;line-height:normal;font-family:sans-serif;text-indent:0;text-align:start;text-decoration:none;text-decoration-line:none;text-decoration-style:solid;text-decoration-color:#000000;letter-spacing:normal;word-spacing:normal;text-transform:none;direction:ltr;block-progression:tb;writing-mode:lr-tb;baseline-shift:baseline;text-anchor:start;white-space:normal;clip-rule:nonzero;display:inline;overflow:visible;visibility:visible;opacity:1;isolation:auto;mix-blend-mode:normal;color-interpolation:sRGB;color-interpolation-filters:linearRGB;solid-color:#000000;solid-opacity:1;fill:#ffffff;fill-opacity:1;fill-rule:nonzero;stroke:none;stroke-width:4;stroke-linecap:square;stroke-linejoin:miter;stroke-miterlimit:4;stroke-dasharray:none;stroke-dashoffset:0;stroke-opacity:1;color-rendering:auto;image-rendering:auto;shape-rendering:auto;text-rendering:auto;enable-background:accumulate"
       d="M 0 0 L 0 0.9921875 L 0 116.61328 L 0.001953125 116.61328 L 0.001953125 165.00781 L 0.001953125 166 L 32.263672 166 L 34.248047 166 L 34.248047 165.12891 L 34.248047 164.01367 L 34.248047 162.125 L 34.248047 154.46484 L 27.605469 154.46484 L 32.830078 147.74805 L 29.101562 147.74805 L 34.0625 141.37109 L 31.541016 141.37109 L 35.919922 135.69531 L 40.300781 141.37109 L 37.779297 141.37109 L 42.740234 147.74805 L 39.011719 147.74805 L 44.236328 154.46484 L 37.734375 154.46484 L 37.734375 162.125 L 37.734375 164.01367 L 37.734375 166 L 39.71875 166 L 200 166 L 360.2832 166 L 362.26758 166 L 362.26758 164.01367 L 362.26758 162.125 L 362.26758 154.46484 L 355.76562 154.46484 L 360.99023 147.74805 L 357.25977 147.74805 L 362.2207 141.37109 L 359.70117 141.37109 L 364.08008 135.69531 L 368.45898 141.37109 L 365.93945 141.37109 L 370.90039 147.74805 L 367.16992 147.74805 L 372.39453 154.46484 L 365.75195 154.46484 L 365.75195 162.125 L 365.75195 164.01367 L 365.75195 165.12891 L 365.75195 166 L 367.73633 166 L 400 166 L 400 165.00781 L 400 114.69336 L 400 0 L 116.55273 0 L 114.54688 0 L 0 0 z M 1.984375 1.9863281 L 114.54688 1.9863281 L 114.54688 114.62695 L 1.984375 114.62695 L 1.984375 1.9863281 z M 116.55273 1.9863281 L 398.01562 1.9863281 L 398.01562 96.833984 C 394.79709 99.725084 390.42226 101.36719 385.85352 101.36719 C 381.25867 101.36719 376.85835 99.709009 373.63477 96.787109 A 0.99248426 0.99300807 0 0 0 373.45703 96.658203 C 369.8703 93.513003 365.10156 91.761719 360.13672 91.761719 C 355.17489 91.761719 350.41021 93.510744 346.82422 96.652344 A 0.99248426 0.99300807 0 0 0 346.64062 96.787109 C 343.41704 99.709009 339.01672 101.36719 334.42188 101.36719 C 329.82702 101.36719 325.42671 99.709009 322.20312 96.787109 A 0.99248426 0.99300807 0 0 0 322.02539 96.658203 C 318.43866 93.513003 313.66992 91.761719 308.70508 91.761719 C 303.74278 91.761719 298.97673 93.512297 295.39062 96.654297 A 0.99248426 0.99300807 0 0 0 295.20898 96.787109 C 291.9854 99.709009 287.58508 101.36719 282.99023 101.36719 C 278.39539 101.36719 273.99312 99.709009 270.76953 96.787109 A 0.99248426 0.99300807 0 0 0 270.5957 96.660156 C 267.00879 93.514256 262.23901 91.761719 257.27344 91.761719 C 252.31041 91.761719 247.54336 93.511297 243.95703 96.654297 A 0.99248426 0.99300807 0 0 0 243.77734 96.787109 C 240.55376 99.709009 236.15344 101.36719 231.55859 101.36719 C 226.96375 101.36719 222.56147 99.709009 219.33789 96.787109 A 0.99248426 0.99300807 0 0 0 219.16406 96.660156 C 215.57715 93.514256 210.80736 91.761719 205.8418 91.761719 C 200.87877 91.761719 196.11171 93.511297 192.52539 96.654297 A 0.99248426 0.99300807 0 0 0 192.3457 96.787109 C 189.12212 99.709009 184.7218 101.36719 180.12695 101.36719 C 175.53212 101.36719 171.12983 99.709009 167.90625 96.787109 A 0.99248426 0.99300807 0 0 0 167.73242 96.660156 C 164.1455 93.514256 159.37573 91.761719 154.41016 91.761719 C 149.44644 91.761719 144.68024 93.51245 141.09375 96.65625 A 0.99248426 0.99300807 0 0 0 140.91406 96.787109 C 137.69048 99.709009 133.29016 101.36719 128.69531 101.36719 C 124.13603 101.36719 119.7694 99.731462 116.55273 96.851562 L 116.55273 1.9863281 z M 48.945312 26.472656 C 46.051573 26.514656 43.350516 28.263228 42.197266 31.048828 C 41.107826 33.680328 41.651043 36.633125 43.414062 38.703125 C 42.134282 39.168325 40.957533 39.909225 39.976562 40.890625 C 38.217902 42.650325 37.228379 45.037291 37.224609 47.525391 L 44.679688 47.525391 C 44.899848 47.525391 45.012436 47.511188 45.160156 47.492188 C 46.438396 47.096487 46.278318 45.033941 44.679688 45.056641 L 40.326172 45.056641 C 40.663382 44.200741 41.171024 43.4133 41.833984 42.75 C 42.655434 41.9281 43.666642 41.340644 44.763672 41.027344 L 44.763672 42.853516 C 44.738372 44.631416 47.416035 44.631416 47.390625 42.853516 L 47.390625 39.267578 C 47.395625 38.905578 47.252197 38.558441 46.992188 38.306641 C 46.895188 38.196641 46.780064 38.10325 46.652344 38.03125 C 44.564714 36.82525 43.70248 34.282988 44.625 32.054688 C 45.15642 30.771088 46.180777 29.836125 47.398438 29.390625 C 47.182287 29.992825 47.101523 30.650059 47.189453 31.318359 C 47.459233 33.368359 49.224316 34.917969 51.291016 34.917969 C 51.314316 34.917869 51.338028 34.918169 51.361328 34.917969 L 51.457031 34.917969 L 54.748047 34.917969 C 56.524667 34.942969 56.524667 32.263963 54.748047 32.289062 L 51.457031 32.289062 C 51.434231 32.289062 51.411572 32.288962 51.388672 32.289062 L 51.291016 32.289062 C 50.522656 32.289062 49.893249 31.736809 49.792969 30.974609 C 49.692689 30.212409 50.158191 29.517459 50.900391 29.318359 C 51.081351 29.273359 51.250254 29.188366 51.396484 29.072266 C 51.727744 28.838766 51.931972 28.465547 51.951172 28.060547 C 51.980472 27.436447 51.568301 26.877809 50.962891 26.724609 C 50.291151 26.544509 49.613092 26.462856 48.945312 26.472656 z M 60.039062 33.054688 L 60.039062 33.058594 C 59.619192 33.043594 59.217844 33.2313 58.958984 33.5625 L 51.919922 40.605469 C 50.630072 41.844269 52.539104 43.755444 53.777344 42.464844 L 60.144531 36.09375 C 61.641601 37.42425 62.173656 39.576394 61.378906 41.496094 C 60.488396 43.647194 58.215974 44.82595 55.964844 44.34375 C 55.775994 44.24875 55.566949 44.200225 55.355469 44.203125 C 54.800029 44.213125 54.308939 44.571256 54.130859 45.097656 C 54.120459 45.126656 54.111916 45.155547 54.103516 45.185547 C 54.074216 45.284547 54.056381 45.387134 54.050781 45.490234 C 54.045781 45.563234 54.051007 45.636484 54.060547 45.708984 L 54.060547 54.113281 C 50.861247 53.825181 47.672933 55.110606 45.570312 57.628906 C 43.106772 60.579706 42.571409 64.698841 44.199219 68.181641 C 45.827079 71.664341 49.329165 73.894531 53.171875 73.894531 C 54.948145 73.919531 54.948145 71.240825 53.171875 71.265625 C 50.343035 71.265625 47.776485 69.632259 46.578125 67.068359 C 45.379775 64.504559 45.772398 61.486653 47.585938 59.314453 C 49.399518 57.142253 52.29638 56.219859 55.03125 56.943359 C 55.8462 57.171459 56.662309 56.580175 56.699219 55.734375 C 56.704219 55.655375 56.69939 55.576347 56.6875 55.498047 L 56.6875 55.410156 L 56.6875 47.072266 C 59.71909 47.180866 62.602318 45.406253 63.804688 42.501953 C 65.215318 39.094553 63.892146 35.147144 60.722656 33.277344 C 60.709256 33.267344 60.695541 33.259953 60.681641 33.251953 C 60.675641 33.241953 60.670062 33.243188 60.664062 33.242188 C 60.658063 33.242188 60.652484 33.232422 60.646484 33.232422 C 60.623184 33.219422 60.598519 33.205359 60.574219 33.193359 C 60.546419 33.180359 60.520588 33.16825 60.492188 33.15625 C 60.485187 33.15625 60.477603 33.146484 60.470703 33.146484 C 60.334253 33.092484 60.187636 33.060688 60.041016 33.054688 L 60.039062 33.054688 z M 41.113281 49.0625 C 40.771001 49.0525 40.43952 49.176303 40.1875 49.408203 C 33.49684 55.379803 31.731276 65.164156 35.916016 73.097656 C 38.598386 78.182956 43.290586 81.674238 48.603516 82.960938 C 50.740326 84.142638 52.0625 86.375594 52.0625 88.808594 C 52.0372 90.586194 54.716616 90.586194 54.691406 88.808594 C 54.691406 86.882194 54.09211 85.042019 53.03125 83.511719 C 54.63539 83.524719 56.260617 83.339053 57.873047 82.939453 C 66.575967 80.782653 72.699219 72.953122 72.699219 63.982422 C 72.699569 63.932422 72.698566 63.882031 72.691406 63.832031 C 72.696406 63.784031 72.699219 63.736953 72.699219 63.689453 L 72.699219 60.396484 C 72.699319 60.386484 72.699319 60.381047 72.699219 60.373047 C 72.741919 59.748347 73.079594 59.185341 73.615234 58.869141 C 74.188984 58.530341 74.889191 58.530341 75.462891 58.869141 C 76.036581 59.207841 76.386719 59.828359 76.386719 60.505859 C 76.351519 62.313459 79.021708 62.313459 78.986328 60.505859 C 78.986328 58.883059 78.135979 57.379659 76.761719 56.568359 C 75.387519 55.756859 73.688653 55.756759 72.314453 56.568359 C 71.073723 57.300859 70.263407 58.599363 70.117188 60.039062 C 70.085388 60.156063 70.070866 60.277238 70.072266 60.398438 L 70.072266 63.689453 C 70.071916 63.739453 70.072578 63.789844 70.080078 63.839844 C 70.075078 63.886844 70.072266 63.934922 70.072266 63.982422 C 70.072266 71.758322 64.785908 78.519172 57.242188 80.388672 C 54.638767 81.033872 52.000692 81.037775 49.513672 80.484375 C 49.439972 80.459375 49.364079 80.440688 49.287109 80.429688 C 44.660469 79.332788 40.577494 76.302094 38.240234 71.871094 C 34.612864 64.994294 36.135997 56.547294 41.935547 51.371094 C 42.841987 50.586594 42.311331 49.0965 41.113281 49.0625 z M 74.539062 51.017578 C 73.098122 51.017578 71.657038 51.398103 70.367188 52.158203 C 67.897288 53.613903 66.335691 56.257438 66.207031 59.148438 C 66.185231 59.248438 66.175734 59.348772 66.177734 59.451172 C 66.195134 61.144372 65.30767 62.695997 63.84375 63.529297 C 62.37983 64.362497 60.568981 64.342769 59.087891 63.480469 C 57.606811 62.617469 56.689035 61.048569 56.671875 59.355469 C 56.676875 58.614469 56.064689 58.006066 55.324219 58.009766 C 54.599379 58.009766 54.027452 58.604678 54.044922 59.330078 C 54.071722 61.960978 55.506181 64.411147 57.800781 65.748047 C 60.095371 67.084947 62.909784 67.112866 65.177734 65.822266 C 67.445724 64.531366 68.831388 62.109516 68.804688 59.478516 C 68.804337 59.450516 68.805901 59.420578 68.800781 59.392578 C 68.848881 57.351478 69.927806 55.483384 71.666016 54.458984 C 73.444426 53.410884 75.629793 53.410884 77.408203 54.458984 C 79.161543 55.492384 80.247024 57.385366 80.277344 59.447266 C 80.265944 59.520266 80.260719 59.593969 80.261719 59.667969 L 80.261719 60.513672 C 80.236919 62.291272 82.913722 62.291272 82.888672 60.513672 L 82.888672 59.667969 C 82.889012 59.612969 82.883906 59.558206 82.878906 59.503906 C 82.868006 56.475106 81.279904 53.675356 78.708984 52.160156 C 77.419134 51.399956 75.978109 51.019631 74.537109 51.019531 L 74.539062 51.017578 z M 154.41016 93.748047 C 159.005 93.748047 163.40532 95.406125 166.62891 98.328125 A 0.99248426 0.99300807 0 0 0 166.82227 98.472656 C 170.40721 101.60886 175.16957 103.35352 180.12695 103.35352 C 185.09045 103.35352 189.85696 101.60444 193.44336 98.460938 A 0.99248426 0.99300807 0 0 0 193.62305 98.328125 C 196.84664 95.406125 201.24695 93.748047 205.8418 93.748047 C 210.43664 93.748047 214.83696 95.406125 218.06055 98.328125 A 0.99248426 0.99300807 0 0 0 218.25391 98.472656 C 221.83884 101.60886 226.60121 103.35352 231.55859 103.35352 C 236.52209 103.35352 241.2886 101.60444 244.875 98.460938 A 0.99248426 0.99300807 0 0 0 245.05469 98.328125 C 248.27828 95.406125 252.67859 93.748047 257.27344 93.748047 C 261.86828 93.748047 266.2686 95.406125 269.49219 98.328125 A 0.99248426 0.99300807 0 0 0 269.68555 98.472656 C 273.27048 101.60886 278.03285 103.35352 282.99023 103.35352 C 287.9523 103.35352 292.71669 101.60469 296.30273 98.462891 A 0.99248426 0.99300807 0 0 0 296.48633 98.328125 C 299.70991 95.406125 304.11023 93.748047 308.70508 93.748047 C 313.29992 93.748047 317.70024 95.406125 320.92383 98.328125 A 0.99248426 0.99300807 0 0 0 321.11914 98.472656 C 324.70385 101.60806 329.46522 103.35352 334.42188 103.35352 C 339.38394 103.35352 344.14833 101.60469 347.73438 98.462891 A 0.99248426 0.99300807 0 0 0 347.91797 98.328125 C 351.14155 95.406125 355.54187 93.748047 360.13672 93.748047 C 364.73156 93.748047 369.13188 95.406125 372.35547 98.328125 A 0.99248426 0.99300807 0 0 0 372.55078 98.472656 C 376.13549 101.60806 380.89686 103.35352 385.85352 103.35352 C 390.30052 103.35352 394.59134 101.95084 398.01562 99.398438 L 398.01562 114.68555 L 116.55273 114.68555 L 116.55273 99.414062 C 119.97381 101.95676 124.2572 103.35352 128.69531 103.35352 C 133.6588 103.35352 138.42532 101.60444 142.01172 98.460938 A 0.99248426 0.99300807 0 0 0 142.19141 98.328125 C 145.41499 95.406125 149.81532 93.748047 154.41016 93.748047 z M 1.9863281 116.67969 L 200 116.67969 L 398.01562 116.67969 L 398.01562 164.01367 L 367.73633 164.01367 L 367.73633 156.45117 L 376.45312 156.45117 L 371.23047 149.73242 L 374.96094 149.73242 L 370 143.35547 L 372.5 143.35547 L 364.86719 133.46289 L 364.08008 132.44531 L 355.66211 143.35547 L 358.16016 143.35547 L 353.19922 149.73242 L 356.93164 149.73242 L 351.70703 156.45117 L 360.2832 156.45117 L 360.2832 164.01367 L 200 164.01367 L 39.71875 164.01367 L 39.71875 156.45117 L 48.294922 156.45117 L 43.070312 149.73242 L 46.800781 149.73242 L 41.839844 143.35547 L 44.339844 143.35547 L 35.919922 132.44531 L 35.134766 133.46289 L 27.501953 143.35547 L 30.001953 143.35547 L 25.041016 149.73242 L 28.771484 149.73242 L 23.546875 156.45117 L 32.263672 156.45117 L 32.263672 164.01367 L 1.9863281 164.01367 L 1.9863281 116.67969 z "
       transform="translate(-352.61476,4568.0199)"
       id="path4907" />
  </g>
</svg>
