<?xml version="1.0" encoding="UTF-8" standalone="no"?>
<!-- Created with Inkscape (http://www.inkscape.org/) -->

<svg
   xmlns:dc="http://purl.org/dc/elements/1.1/"
   xmlns:cc="http://creativecommons.org/ns#"
   xmlns:rdf="http://www.w3.org/1999/02/22-rdf-syntax-ns#"
   xmlns:svg="http://www.w3.org/2000/svg"
   xmlns="http://www.w3.org/2000/svg"
   xmlns:sodipodi="http://sodipodi.sourceforge.net/DTD/sodipodi-0.dtd"
   xmlns:inkscape="http://www.inkscape.org/namespaces/inkscape"
   width="864.75879"
   height="387.17722"
   viewBox="0 0 864.75881 387.17721"
   id="svg2"
   version="1.1"
   inkscape:version="0.91 r13725"
   sodipodi:docname="box-drc-002.svg">
  <defs
     id="defs4" />
  <sodipodi:namedview
     id="base"
     pagecolor="#ffffff"
     bordercolor="#666666"
     borderopacity="1.0"
     inkscape:pageopacity="0.0"
     inkscape:pageshadow="2"
     inkscape:zoom="0.67344591"
     inkscape:cx="318.11503"
     inkscape:cy="82.816257"
     inkscape:document-units="px"
     inkscape:current-layer="layer1"
     showgrid="false"
     inkscape:window-width="1430"
     inkscape:window-height="793"
     inkscape:window-x="22"
     inkscape:window-y="7"
     inkscape:window-maximized="0"
     showguides="true"
     inkscape:guide-bbox="true"
     fit-margin-top="0"
     fit-margin-left="0"
     fit-margin-right="0"
     fit-margin-bottom="0"
     units="px" />
  <metadata
     id="metadata7">
    <rdf:RDF>
      <cc:Work
         rdf:about="">
        <dc:format>image/svg+xml</dc:format>
        <dc:type
           rdf:resource="http://purl.org/dc/dcmitype/StillImage" />
        <dc:title></dc:title>
      </cc:Work>
    </rdf:RDF>
  </metadata>
  <g
     inkscape:label="Layer 1"
     inkscape:groupmode="layer"
     id="layer1"
     transform="translate(602.33264,-4473.2788)">
    <path
       style="font-style:normal;font-variant:normal;font-weight:bold;font-stretch:normal;font-size:80.25875092px;line-height:125%;font-family:Nevis;-inkscape-font-specification:'Nevis, Bold';text-align:start;letter-spacing:0px;word-spacing:0px;writing-mode:lr-tb;text-anchor:start;fill:#ffffff;fill-opacity:1;stroke:none;stroke-width:1px;stroke-linecap:butt;stroke-linejoin:miter;stroke-opacity:1"
       d="M 127.95117 79.726562 C 122.11927 79.811563 116.67576 83.332359 114.35156 88.943359 C 112.15596 94.243859 113.25159 100.19173 116.80469 104.36133 C 114.22549 105.29833 111.85395 106.79068 109.87695 108.76758 C 106.33265 112.31198 104.33963 117.11916 104.33203 122.13086 L 119.35742 122.13086 C 119.80112 122.13086 120.02457 122.10345 120.32227 122.06445 C 122.89837 121.26735 122.57922 117.11446 119.35742 117.16016 L 110.58008 117.16016 C 111.25968 115.43626 112.28499 113.84977 113.62109 112.51367 C 115.27659 110.85817 117.31449 109.67602 119.52539 109.04492 L 119.52539 112.72266 C 119.47439 116.30386 124.87151 116.30386 124.82031 112.72266 L 124.82031 105.5 C 124.83031 104.7707 124.53963 104.0698 124.01562 103.5625 C 123.82002 103.341 123.58748 103.15291 123.33008 103.00781 C 119.12278 100.57861 117.38494 95.459103 119.24414 90.970703 C 120.31514 88.385103 122.37998 86.500816 124.83398 85.603516 C 124.39838 86.816516 124.23491 88.140228 124.41211 89.486328 C 124.95581 93.615728 128.51654 96.738281 132.68164 96.738281 C 132.72864 96.738081 132.77537 96.738516 132.82227 96.728516 C 132.88727 96.738516 132.95072 96.738281 133.01562 96.738281 L 139.64844 96.738281 C 143.22894 96.789281 143.22894 91.390906 139.64844 91.441406 L 133.01562 91.441406 C 132.96963 91.441406 132.92305 91.441172 132.87695 91.451172 C 132.81195 91.451172 132.74684 91.441406 132.68164 91.441406 C 131.13314 91.441406 129.86421 90.330222 129.66211 88.794922 C 129.46001 87.259522 130.39678 85.857931 131.89258 85.457031 C 132.25728 85.366031 132.59788 85.194638 132.89258 84.960938 C 133.56018 84.490437 133.97302 83.739628 134.01172 82.923828 C 134.07072 81.666628 133.23768 80.541022 132.01758 80.232422 C 130.66378 79.869622 129.29697 79.706863 127.95117 79.726562 z M 393.35547 82.734375 L 393.35547 148.9043 L 406.58984 148.9043 L 406.58984 121.55273 L 418.67773 121.55273 L 434.51367 148.9043 L 449.6875 148.9043 L 433.18945 120.05469 C 441.30619 117.43735 445.36523 111.34875 445.36523 101.79102 C 445.36523 89.086616 437.64454 82.734375 422.20508 82.734375 L 393.35547 82.734375 z M 484.59766 82.734375 C 475.18706 82.734375 467.32085 85.896017 460.99805 92.21875 C 454.67531 98.54155 451.51367 106.40769 451.51367 115.81836 C 451.51367 125.19963 454.67531 133.06772 460.99805 139.41992 C 467.32085 145.74272 475.18706 148.9043 484.59766 148.9043 C 494.00826 148.9043 501.87635 145.74272 508.19922 139.41992 C 514.52195 133.09712 517.68359 125.22903 517.68359 115.81836 C 517.68359 106.40769 514.52195 98.54155 508.19922 92.21875 C 501.87635 85.896017 494.00826 82.734375 484.59766 82.734375 z M 555.58594 82.734375 C 546.1752 82.734375 538.30913 85.896017 531.98633 92.21875 C 525.66359 98.54155 522.50195 106.40769 522.50195 115.81836 C 522.50195 125.19963 525.66359 133.06772 531.98633 139.41992 C 538.30913 145.74272 546.1752 148.9043 555.58594 148.9043 C 564.99654 148.9043 572.86477 145.74272 579.1875 139.41992 C 585.51037 133.09712 588.67188 125.22903 588.67188 115.81836 C 588.67188 106.40769 585.51037 98.54155 579.1875 92.21875 C 572.86477 85.896017 564.99654 82.734375 555.58594 82.734375 z M 615.81641 82.734375 C 610.52287 82.734375 605.36278 84.513799 600.33398 88.072266 C 595.33458 91.601199 592.83398 96.292265 592.83398 102.14453 C 592.83398 108.6144 595.03997 113.17169 599.45117 115.81836 C 603.86237 118.46503 608.71428 120.08367 614.00781 120.67188 C 619.88948 121.26007 623.55112 122.80293 624.99219 125.30273 C 626.46252 127.8024 626.46252 130.30307 624.99219 132.80273 C 623.55112 135.30247 619.88948 136.55273 614.00781 136.55273 C 606.94981 135.96453 601.95057 133.90589 599.00977 130.37695 L 590.1875 139.19922 C 593.1283 142.14009 596.65819 144.49133 600.77539 146.25586 C 604.89252 148.02039 610.02352 148.9043 616.16992 148.9043 C 622.63966 148.9043 628.29994 146.9911 633.15234 143.16797 C 638.03408 139.3449 640.47656 134.78761 640.47656 129.49414 C 640.47656 122.73027 638.19687 117.80473 633.63867 114.7168 C 629.08034 111.62893 624.00746 109.79126 618.41992 109.20312 C 613.12639 108.32086 609.74384 106.99696 608.27344 105.23242 C 606.80297 103.46796 606.80297 101.33567 608.27344 98.835938 C 609.74384 96.336271 613.12639 95.085938 618.41992 95.085938 C 623.71339 95.085937 627.83062 96.849906 630.77148 100.37891 L 639.59375 91.556641 C 636.65288 88.615774 633.49131 86.41174 630.10938 84.941406 C 626.72737 83.47094 621.96267 82.734375 615.81641 82.734375 z M 644.91016 82.734375 L 644.91016 95.085938 L 666.9668 95.085938 L 666.9668 148.9043 L 680.19922 148.9043 L 680.19922 95.085938 L 702.25586 95.085938 L 702.25586 82.734375 L 644.91016 82.734375 z M 150.31055 92.990234 C 149.46437 92.960547 148.6545 93.338696 148.13281 94.005859 L 133.94531 108.19336 C 131.34581 110.68876 135.19395 114.53895 137.68945 111.93945 L 150.52344 99.105469 C 153.54054 101.78547 154.61147 106.11953 153.00977 109.98633 C 151.21507 114.31923 146.63446 116.69591 142.09766 115.72461 C 141.71706 115.53261 141.29534 115.43561 140.86914 115.44141 C 139.74974 115.45941 138.7632 116.17983 138.4043 117.24023 C 138.3833 117.29923 138.36466 117.35982 138.34766 117.41992 C 138.28866 117.61942 138.25349 117.8255 138.24219 118.0332 C 138.23219 118.18 138.24312 118.32676 138.26172 118.47266 L 138.26172 135.40234 C 131.81402 134.82214 125.38594 137.41177 121.14844 142.48438 C 116.18354 148.42807 115.10612 156.72503 118.38672 163.74023 C 121.66742 170.75543 128.7263 175.24609 136.4707 175.24609 C 140.0505 175.29609 140.0505 169.90127 136.4707 169.95117 C 130.7696 169.95117 125.59674 166.66039 123.18164 161.49609 C 120.76654 156.33179 121.55604 150.25431 125.21094 145.87891 C 128.86594 141.50351 134.70705 139.64426 140.21875 141.10156 C 141.86115 141.56096 143.50373 140.36972 143.57812 138.66602 C 143.58812 138.50702 143.57869 138.34901 143.55469 138.19141 L 143.55469 138.01562 L 143.55469 121.2207 C 149.66439 121.4393 155.47524 117.86172 157.89844 112.01172 C 160.74134 105.14832 158.07315 97.199894 151.68555 93.433594 C 151.65855 93.416594 151.63152 93.398813 151.60352 93.382812 C 151.59152 93.372812 151.58036 93.368328 151.56836 93.361328 C 151.55636 93.351328 151.54716 93.347797 151.53516 93.341797 C 151.48816 93.314797 151.43757 93.289625 151.38867 93.265625 C 151.33267 93.238625 151.278 93.213453 151.2207 93.189453 C 151.2067 93.179453 151.19173 93.178828 151.17773 93.173828 C 150.90274 93.064905 150.60993 93.002904 150.31445 92.990234 L 150.3125 92.990234 L 150.31055 92.990234 z M 484.55469 95.085938 C 490.46575 95.085938 495.25948 97.070949 498.93555 101.04102 C 502.61155 105.01115 504.44922 109.93669 504.44922 115.81836 C 504.44922 121.70003 502.61155 126.62752 498.93555 130.59766 C 495.25948 134.56779 490.49484 136.55273 484.64258 136.55273 C 478.73144 136.55273 473.93772 134.56779 470.26172 130.59766 C 466.58572 126.62752 464.74805 121.70003 464.74805 115.81836 C 464.74805 109.93669 466.58572 105.01115 470.26172 101.04102 C 473.93772 97.070949 478.70235 95.085938 484.55469 95.085938 z M 555.54297 95.085938 C 561.45397 95.085938 566.24769 97.070949 569.92383 101.04102 C 573.59983 105.01115 575.4375 109.93669 575.4375 115.81836 C 575.4375 121.70003 573.59983 126.62752 569.92383 130.59766 C 566.24769 134.56779 561.48299 136.55273 555.63086 136.55273 C 549.71973 136.55273 544.92607 134.56779 541.25 130.59766 C 537.574 126.62752 535.73633 121.70003 535.73633 115.81836 C 535.73633 109.93669 537.574 105.01115 541.25 101.04102 C 544.92607 97.070949 549.6907 95.085938 555.54297 95.085938 z M 406.58984 95.130859 L 425.25 95.130859 C 430.48467 95.307326 433.17527 97.571428 433.32227 101.92383 C 433.17527 106.68803 430.44012 109.11492 425.11719 109.20312 L 406.58984 109.20312 L 406.58984 95.130859 z M 112.16797 125.22852 C 111.47817 125.20952 110.80868 125.45868 110.30078 125.92578 C 96.816781 137.95418 93.261613 157.66218 101.69531 173.64258 C 107.10121 183.88578 116.55432 190.91992 127.26172 193.51172 C 131.56812 195.89182 134.23633 200.38846 134.23633 205.28906 C 134.18533 208.86976 139.584 208.86976 139.5332 205.28906 C 139.5332 201.40876 138.3255 197.70154 136.1875 194.61914 C 139.4204 194.64514 142.69376 194.2717 145.94336 193.4668 C 163.48276 189.1224 175.82422 173.3527 175.82422 155.2832 C 175.82492 155.182 175.82455 155.08117 175.81055 154.98047 C 175.82055 154.88447 175.82422 154.78936 175.82422 154.69336 L 175.82422 148.06055 C 175.82442 148.04455 175.82442 148.02872 175.82422 148.01172 C 175.91022 146.75352 176.59042 145.61942 177.66992 144.98242 C 178.82622 144.30002 180.23833 144.30012 181.39453 144.98242 C 182.55073 145.66472 183.25781 146.9146 183.25781 148.2793 C 183.18681 151.9203 188.56544 151.9203 188.49414 148.2793 C 188.49414 145.0104 186.78327 141.98 184.01367 140.3457 C 181.24417 138.7112 177.82028 138.7111 175.05078 140.3457 C 172.55028 141.8213 170.91579 144.43809 170.62109 147.33789 C 170.55709 147.57359 170.52825 147.81645 170.53125 148.06055 L 170.53125 154.69141 C 170.53055 154.79281 170.52992 154.89529 170.54492 154.99609 C 170.53492 155.09109 170.53125 155.1872 170.53125 155.2832 C 170.53125 170.9459 159.87508 184.56057 144.67188 188.32617 C 139.42507 189.62587 134.10986 189.63423 129.09766 188.51953 C 128.94906 188.46953 128.79573 188.43376 128.64062 188.41016 C 119.31633 186.20076 111.08735 180.09717 106.37695 171.17188 C 99.066553 157.31988 102.13612 140.30325 113.82422 129.87695 C 115.65102 128.29665 114.58247 125.29712 112.16797 125.22852 z M 179.53125 129.16602 C 176.62725 129.16592 173.72255 129.93169 171.12305 131.46289 C 166.14535 134.39499 163.00149 139.71967 162.74219 145.54297 C 162.69819 145.74347 162.67569 145.95005 162.67969 146.15625 C 162.71469 149.56675 160.92882 152.68879 157.97852 154.36719 C 155.02822 156.04559 151.37943 156.00958 148.39453 154.27148 C 145.40963 152.53318 143.55804 149.37144 143.52344 145.96094 C 143.53344 144.46844 142.30089 143.2425 140.80859 143.25 C 139.34779 143.26 138.19332 144.447 138.22852 145.9082 C 138.28252 151.2077 141.17443 156.14294 145.79883 158.83594 C 150.42323 161.52884 156.09532 161.58468 160.66602 158.98438 C 165.23682 156.38407 168.03036 151.50848 167.97656 146.20898 C 167.97586 146.15198 167.9768 146.09256 167.9668 146.03516 C 168.0638 141.92376 170.23909 138.1592 173.74219 136.0957 C 177.32629 133.9845 181.73231 133.9846 185.31641 136.0957 C 188.85001 138.1772 191.0346 141.98918 191.0957 146.14258 C 191.0727 146.28968 191.06245 146.43889 191.06445 146.58789 L 191.06445 148.29102 C 191.01445 151.87152 196.41183 151.87152 196.36133 148.29102 L 196.36133 146.58789 C 196.36203 146.47779 196.3508 146.36711 196.3418 146.25781 C 196.3198 140.15691 193.1188 134.51684 187.9375 131.46484 C 185.338 129.93364 182.4334 129.16807 179.5293 129.16797 L 179.53125 129.16602 z M 508.02148 160.50195 C 505.93518 160.50195 503.44676 161.9654 501.72656 164.9668 L 495.79688 175.17969 C 493.56408 174.00839 492.39258 171.88462 492.39258 169.76172 C 492.39258 168.00482 493.19665 166.2478 494.84375 164.9668 L 493.59961 162.73438 C 490.89111 164.67428 489.68359 167.27374 489.68359 169.83594 C 489.68359 172.87394 491.40392 175.80161 494.47852 177.41211 L 493.34375 179.38867 C 490.67185 184.00047 492.24645 189.125 497.62695 189.125 C 503.30025 189.125 506.95962 185.75786 510.10742 182.09766 C 510.10042 182.07966 510.08562 182.06292 510.07812 182.04492 C 510.10163 182.06092 510.12288 182.08166 510.14648 182.09766 C 511.97658 179.97476 513.40351 178.06969 516.44141 173.93359 L 516.95508 174.55664 C 517.43088 175.17884 517.61303 175.9481 517.17383 176.7168 L 513.14844 183.70703 C 511.53794 186.52543 512.67149 189.125 515.74609 189.125 C 518.01023 189.125 520.51954 187.37145 522.92188 185.03125 C 523.10181 187.40485 525.02203 189.125 528.07617 189.125 C 530.82591 189.125 533.55739 187.75486 535.99414 185.81836 C 535.81889 187.70006 537.02788 189.125 539.30273 189.125 C 540.84004 189.125 542.74217 188.13547 544.57227 186.63477 C 544.75527 188.09887 545.92729 189.125 547.86719 189.125 C 549.78189 189.125 551.8712 187.87021 553.92383 186.07031 C 553.87573 187.82541 555.0741 189.125 557.24609 189.125 C 559.17937 189.125 561.29151 187.84958 563.36328 186.02148 C 563.29148 187.80108 564.48978 189.125 566.68164 189.125 C 568.84905 189.125 571.24088 187.51352 573.54883 185.32422 C 572.65349 190.06612 577.94144 190.23337 580.62109 186.19727 L 582.59766 183.23242 C 583.32738 184.69192 585.31996 185.36087 587.54297 184.29688 C 587.34785 187.04217 589.34008 189.125 592.70117 189.125 C 597.02027 189.125 601.30337 185.75786 604.45117 182.09766 C 604.19487 181.58526 603.53584 180.999 603.02344 180.7793 L 602.76758 181.07227 C 600.02248 184.25667 596.50784 186.78125 593.83594 186.78125 C 591.49344 186.78125 590.10247 185.31874 591.85938 182.24414 L 592.22461 181.58398 C 594.67691 182.60878 599.28953 182.13271 602.14453 177.19141 L 602.69336 176.24023 C 604.74316 172.72633 602.76716 170.0918 599.65625 170.0918 C 596.58165 170.0918 594.12808 171.70267 592.51758 174.48438 L 588.83594 180.80078 L 588.59961 181.07227 C 586.54981 183.30497 582.96346 183.78104 584.97656 179.68164 L 591.16211 170.45703 L 587.72266 170.45703 L 579.19336 183.26758 C 576.88736 186.74478 576.6316 186.8184 578.0957 183.1582 L 583.18359 170.45703 L 579.33984 170.45703 L 575.18945 180.78906 C 575.18445 180.78906 575.17893 180.7793 575.17383 180.7793 L 574.91797 181.07227 C 572.17277 184.25667 569.50011 186.78125 567.81641 186.78125 C 566.97461 186.78125 566.49845 186.19601 567.37695 184.69531 L 575.54102 170.45703 L 571.73438 170.45703 L 565.76562 180.79492 C 565.75662 180.79492 565.74698 180.7833 565.73828 180.7793 L 565.48047 181.07227 C 562.73527 184.25667 560.06456 186.78125 558.38086 186.78125 C 557.53906 186.78125 557.06291 186.19601 557.94141 184.69531 L 566.10352 170.45703 L 569.21484 170.45703 L 570.3125 168.62695 L 567.16602 168.62695 L 570.75195 162.4043 L 566.94531 162.4043 L 563.35742 168.62695 L 559.91797 168.62695 L 558.82031 170.45703 L 562.29688 170.45703 L 556.29297 180.85547 L 556.10352 181.07227 C 553.35832 184.25667 550.68555 186.78125 549.00195 186.78125 C 548.16005 186.78125 547.6841 186.19601 548.5625 184.69531 L 554.71094 173.93359 L 552.55273 173.93359 C 552.69913 172.32309 551.0515 170.0918 548.5625 170.0918 C 546.5128 170.0918 543.65728 171.70267 542.04688 174.48438 L 538.39844 180.78125 L 538.39648 180.78125 L 538.14062 181.07422 C 535.39543 184.25862 531.88284 186.7832 529.21094 186.7832 C 526.86834 186.7832 525.47748 185.32069 527.23438 182.24609 L 527.59961 181.58594 C 530.05201 182.61074 534.66463 182.13466 537.51953 177.19336 L 538.06836 176.24219 C 540.11806 172.72829 538.14026 170.09375 535.0293 170.09375 C 531.9547 170.09375 529.50308 171.70463 527.89258 174.48633 L 524.18945 180.83594 L 523.98242 181.07422 C 521.23722 184.25862 518.56456 186.7832 516.88086 186.7832 C 516.03896 186.7832 515.56301 186.19797 516.44141 184.69727 L 520.24805 178.03516 C 521.56575 175.72916 520.94372 174.3756 519.69922 172.875 L 517.57617 170.3125 C 517.02717 169.6171 517.02828 168.84919 517.79688 168.11719 L 515.82031 165.95703 C 513.66081 167.89693 513.47773 170.05755 514.83203 171.81445 L 515.16211 172.25195 C 513.47841 174.63115 511.20765 177.85315 508.71875 180.78125 C 508.72475 180.79125 508.73403 180.79864 508.74023 180.80664 C 508.72053 180.79664 508.69909 180.78625 508.67969 180.78125 L 508.42383 181.07422 C 505.67863 184.25862 502.31112 186.7832 498.54102 186.7832 C 495.94232 186.7832 494.36937 184.18449 496.63867 180.30469 L 497.69922 178.43945 C 498.39462 178.54925 499.09077 178.62109 499.85938 178.62109 C 503.92228 178.62109 508.53386 176.53488 511.53516 171.30078 C 512.59666 169.43398 513.07227 167.67843 513.07227 166.17773 C 513.07227 162.73713 510.83988 160.50391 508.02148 160.50391 L 508.02148 160.50195 z M 508.02148 163.79492 C 509.44898 163.79492 510.10742 164.74787 510.10742 166.13867 C 510.10742 169.68917 505.78898 176.09375 499.85938 176.09375 L 499.08984 176.09375 L 504.58008 166.57812 C 505.71478 164.63813 506.96008 163.79492 508.02148 163.79492 z M 576.01562 164.08789 C 574.77122 164.08789 573.82031 165.07591 573.82031 166.32031 C 573.82031 167.56481 574.77122 168.51758 576.01562 168.51758 C 577.26013 168.51758 578.24805 167.56481 578.24805 166.32031 C 578.24805 165.07591 577.26013 164.08789 576.01562 164.08789 z M 534.34375 172.91992 C 535.56443 172.84692 536.23351 174.01663 534.95703 176.24023 L 534.4082 177.19141 C 532.578 180.30261 530.12477 180.2292 528.69727 179.7168 L 531.15039 175.43555 C 532.11118 173.78625 533.39434 172.97682 534.34375 172.91992 z M 598.96875 172.91992 C 600.18944 172.84692 600.85857 174.01663 599.58203 176.24023 L 599.0332 177.19141 C 597.2031 180.30261 594.75172 180.2292 593.32422 179.7168 L 595.77539 175.43555 C 596.73618 173.78625 598.01932 172.97682 598.96875 172.91992 z M 548.48633 173.17773 C 549.77498 173.16773 550.6008 174.30483 549.55078 176.24023 L 546.58594 181.4375 C 544.28004 185.0611 542.0114 186.78125 540.4375 186.78125 C 539.5957 186.78125 539.11965 186.19601 539.99805 184.69531 L 545.30469 175.43555 C 546.20148 173.88225 547.48405 173.18403 548.48633 173.17773 z M 478.23633 177.5957 A 2.2149785 2.2149785 0 0 0 476.02148 179.81055 A 2.2149785 2.2149785 0 0 0 478.23633 182.02539 A 2.2149785 2.2149785 0 0 0 480.45312 179.81055 A 2.2149785 2.2149785 0 0 0 478.23633 177.5957 z M 617.37695 177.5957 A 2.2149785 2.2149785 0 0 0 615.16211 179.81055 A 2.2149785 2.2149785 0 0 0 617.37695 182.02539 A 2.2149785 2.2149785 0 0 0 619.5918 179.81055 A 2.2149785 2.2149785 0 0 0 617.37695 177.5957 z M 331.24609 310.57227 L 331.24609 313.62891 L 342.80078 313.62891 L 342.80078 310.57227 L 331.24609 310.57227 z M 456.84766 310.57227 L 456.84766 313.62891 L 468.40039 313.62891 L 468.40039 310.57227 L 456.84766 310.57227 z M 581.42188 310.57227 L 581.42188 313.62891 L 592.97461 313.62891 L 592.97461 310.57227 L 581.42188 310.57227 z "
       transform="translate(-602.33264,4473.2788)"
       id="path4911" />
  </g>
</svg>
