<?xml version="1.0" encoding="UTF-8" standalone="no"?>
<!-- Created with Inkscape (http://www.inkscape.org/) -->

<svg
   xmlns:dc="http://purl.org/dc/elements/1.1/"
   xmlns:cc="http://creativecommons.org/ns#"
   xmlns:rdf="http://www.w3.org/1999/02/22-rdf-syntax-ns#"
   xmlns:svg="http://www.w3.org/2000/svg"
   xmlns="http://www.w3.org/2000/svg"
   xmlns:sodipodi="http://sodipodi.sourceforge.net/DTD/sodipodi-0.dtd"
   xmlns:inkscape="http://www.inkscape.org/namespaces/inkscape"
   width="864.75879"
   height="387.17722"
   viewBox="0 0 864.75881 387.17721"
   id="svg2"
   version="1.1"
   inkscape:version="0.91 r13725"
   sodipodi:docname="box-drc-001.svg">
  <defs
     id="defs4" />
  <sodipodi:namedview
     id="base"
     pagecolor="#ffffff"
     bordercolor="#666666"
     borderopacity="1.0"
     inkscape:pageopacity="0.0"
     inkscape:pageshadow="2"
     inkscape:zoom="0.67344591"
     inkscape:cx="318.11503"
     inkscape:cy="82.816257"
     inkscape:document-units="px"
     inkscape:current-layer="layer1"
     showgrid="false"
     inkscape:window-width="1430"
     inkscape:window-height="793"
     inkscape:window-x="22"
     inkscape:window-y="7"
     inkscape:window-maximized="0"
     showguides="true"
     inkscape:guide-bbox="true"
     fit-margin-top="0"
     fit-margin-left="0"
     fit-margin-right="0"
     fit-margin-bottom="0"
     units="px" />
  <metadata
     id="metadata7">
    <rdf:RDF>
      <cc:Work
         rdf:about="">
        <dc:format>image/svg+xml</dc:format>
        <dc:type
           rdf:resource="http://purl.org/dc/dcmitype/StillImage" />
        <dc:title></dc:title>
      </cc:Work>
    </rdf:RDF>
  </metadata>
  <g
     inkscape:label="Layer 1"
     inkscape:groupmode="layer"
     id="layer1"
     transform="translate(602.33264,-4473.2788)">
    <path
       style="color:#000000;font-style:normal;font-variant:normal;font-weight:normal;font-stretch:normal;font-size:medium;line-height:normal;font-family:sans-serif;text-indent:0;text-align:start;text-decoration:none;text-decoration-line:none;text-decoration-style:solid;text-decoration-color:#000000;letter-spacing:normal;word-spacing:normal;text-transform:none;direction:ltr;block-progression:tb;writing-mode:lr-tb;baseline-shift:baseline;text-anchor:start;white-space:normal;clip-rule:nonzero;display:inline;overflow:visible;visibility:visible;opacity:1;isolation:auto;mix-blend-mode:normal;color-interpolation:sRGB;color-interpolation-filters:linearRGB;solid-color:#000000;solid-opacity:1;fill:#ffffff;fill-opacity:1;fill-rule:nonzero;stroke:none;stroke-width:4;stroke-linecap:square;stroke-linejoin:miter;stroke-miterlimit:4;stroke-dasharray:none;stroke-dashoffset:0;stroke-opacity:1;color-rendering:auto;image-rendering:auto;shape-rendering:auto;text-rendering:auto;enable-background:accumulate"
       d="M 29.310547 26.402344 L 29.310547 28.402344 L 29.310547 261.29297 L 29.3125 261.29297 L 29.3125 358.77344 L 29.3125 360.77344 L 94.333984 360.77344 L 98.333984 360.77344 L 98.333984 359.01758 L 98.333984 356.77344 L 98.333984 352.96875 L 98.333984 337.53906 L 84.945312 337.53906 L 95.474609 324.00781 L 87.958984 324.00781 L 97.957031 311.16211 L 92.876953 311.16211 L 101.70312 299.73047 L 110.5293 311.16211 L 105.44922 311.16211 L 115.44727 324.00781 L 107.93164 324.00781 L 118.46094 337.53906 L 105.35742 337.53906 L 105.35742 352.96875 L 105.35742 356.77344 L 105.35742 360.77344 L 109.35742 360.77344 L 432.38086 360.77344 L 755.4043 360.77344 L 759.4043 360.77344 L 759.4043 356.77344 L 759.4043 352.96875 L 759.4043 337.53906 L 746.30078 337.53906 L 756.83008 324.00781 L 749.31445 324.00781 L 759.3125 311.16211 L 754.23242 311.16211 L 763.05859 299.73047 L 771.88477 311.16211 L 766.80469 311.16211 L 776.80273 324.00781 L 769.28711 324.00781 L 779.81641 337.53906 L 766.42773 337.53906 L 766.42773 352.96875 L 766.42773 356.77344 L 766.42773 359.01758 L 766.42773 360.77344 L 770.42773 360.77344 L 835.44922 360.77344 L 835.44922 358.77344 L 835.44922 257.42773 L 835.44922 26.402344 L 264.20312 26.402344 L 260.16406 26.402344 L 29.310547 26.402344 z M 33.310547 30.402344 L 260.16406 30.402344 L 260.16406 257.29297 L 33.310547 257.29297 L 33.310547 30.402344 z M 264.20312 30.402344 L 831.44922 30.402344 L 831.44922 221.45508 C 824.96276 227.27858 816.1451 230.58594 806.9375 230.58594 C 797.67729 230.58594 788.80914 227.24312 782.3125 221.35742 A 2.0002 2.0002 0 0 0 781.95508 221.09961 C 774.72657 214.76441 765.11721 211.23828 755.11133 211.23828 C 745.11153 211.23828 735.50826 214.75989 728.28125 221.08789 A 2.0002 2.0002 0 0 0 727.91016 221.35742 C 721.41351 227.24312 712.54536 230.58594 703.28516 230.58594 C 694.02494 230.58594 685.1568 227.24312 678.66016 221.35742 A 2.0002 2.0002 0 0 0 678.30273 221.09961 C 671.07423 214.76441 661.46485 211.23828 651.45898 211.23828 C 641.45822 211.23828 631.8542 214.76084 624.62695 221.08984 A 2.0002 2.0002 0 0 0 624.25781 221.35742 C 617.76117 227.24312 608.89302 230.58594 599.63281 230.58594 C 590.37261 230.58594 581.5025 227.24312 575.00586 221.35742 A 2.0002 2.0002 0 0 0 574.6543 221.10156 C 567.42543 214.76466 557.81399 211.23828 547.80664 211.23828 C 537.80441 211.23828 528.19644 214.761 520.96875 221.0918 A 2.0002 2.0002 0 0 0 520.60547 221.35742 C 514.10883 227.24312 505.24068 230.58594 495.98047 230.58594 C 486.72026 230.58594 477.85016 227.24312 471.35352 221.35742 A 2.0002 2.0002 0 0 0 471.00195 221.10156 C 463.77309 214.76466 454.16164 211.23828 444.1543 211.23828 C 434.15207 211.23828 424.54409 214.761 417.31641 221.0918 A 2.0002 2.0002 0 0 0 416.95312 221.35742 C 410.45649 227.24312 401.58833 230.58594 392.32812 230.58594 C 383.06793 230.58594 374.19781 227.24312 367.70117 221.35742 A 2.0002 2.0002 0 0 0 367.34961 221.10156 C 360.12074 214.76466 350.5093 211.23828 340.50195 211.23828 C 330.49833 211.23828 320.89014 214.7632 313.66211 221.0957 A 2.0002 2.0002 0 0 0 313.30078 221.35742 C 306.80414 227.24312 297.93599 230.58594 288.67578 230.58594 C 279.48725 230.58594 270.68582 227.29126 264.20312 221.49023 L 264.20312 30.402344 z M 340.50195 215.23828 C 349.76216 215.23828 358.63031 218.57914 365.12695 224.46484 A 2.0002 2.0002 0 0 0 365.51562 224.75391 C 372.74051 231.07111 382.33728 234.58594 392.32812 234.58594 C 402.33129 234.58594 411.93818 231.06237 419.16602 224.73047 A 2.0002 2.0002 0 0 0 419.52734 224.46484 C 426.02398 218.57914 434.89409 215.23828 444.1543 215.23828 C 453.4145 215.23828 462.28266 218.57914 468.7793 224.46484 A 2.0002 2.0002 0 0 0 469.16797 224.75391 C 476.39285 231.07111 485.98963 234.58594 495.98047 234.58594 C 505.98363 234.58594 515.59052 231.06237 522.81836 224.73047 A 2.0002 2.0002 0 0 0 523.17969 224.46484 C 529.67633 218.57914 538.54643 215.23828 547.80664 215.23828 C 557.06685 215.23828 565.935 218.57914 572.43164 224.46484 A 2.0002 2.0002 0 0 0 572.82031 224.75391 C 580.0452 231.07111 589.64197 234.58594 599.63281 234.58594 C 609.6331 234.58594 619.23771 231.06483 626.46484 224.73633 A 2.0002 2.0002 0 0 0 626.83398 224.46484 C 633.33062 218.57914 642.19877 215.23828 651.45898 215.23828 C 660.71918 215.23828 669.58733 218.57914 676.08398 224.46484 A 2.0002 2.0002 0 0 0 676.47852 224.75586 C 683.70295 231.07136 693.29578 234.58594 703.28516 234.58594 C 713.28545 234.58594 722.89006 231.06483 730.11719 224.73633 A 2.0002 2.0002 0 0 0 730.48633 224.46484 C 736.98297 218.57914 745.85112 215.23828 755.11133 215.23828 C 764.37153 215.23828 773.23969 218.57914 779.73633 224.46484 A 2.0002 2.0002 0 0 0 780.13086 224.75586 C 787.3553 231.07136 796.94813 234.58594 806.9375 234.58594 C 815.89975 234.58594 824.5481 231.76233 831.44922 226.62109 L 831.44922 257.41211 L 264.20312 257.41211 L 264.20312 226.65234 C 271.09779 231.77405 279.73145 234.58594 288.67578 234.58594 C 298.67894 234.58594 308.28584 231.06237 315.51367 224.73047 A 2.0002 2.0002 0 0 0 315.875 224.46484 C 322.37164 218.57914 331.24175 215.23828 340.50195 215.23828 z M 33.3125 261.42773 L 432.38086 261.42773 L 831.44922 261.42773 L 831.44922 356.77344 L 770.42773 356.77344 L 770.42773 341.53906 L 787.99609 341.53906 L 777.4668 328.00781 L 784.98633 328.00781 L 774.98828 315.16211 L 780.02539 315.16211 L 764.64258 295.23438 L 763.05859 293.18359 L 746.0918 315.16211 L 751.12891 315.16211 L 741.13086 328.00781 L 748.65039 328.00781 L 738.12109 341.53906 L 755.4043 341.53906 L 755.4043 356.77344 L 432.38086 356.77344 L 109.35742 356.77344 L 109.35742 341.53906 L 126.64062 341.53906 L 116.11133 328.00781 L 123.63086 328.00781 L 113.63281 315.16211 L 118.66992 315.16211 L 101.70312 293.18359 L 100.11914 295.23438 L 84.736328 315.16211 L 89.773438 315.16211 L 79.775391 328.00781 L 87.294922 328.00781 L 76.765625 341.53906 L 94.333984 341.53906 L 94.333984 356.77344 L 33.3125 356.77344 L 33.3125 261.42773 z "
       transform="translate(-602.33264,4473.2788)"
       id="path4907" />
  </g>
</svg>
