<?xml version="1.0" encoding="UTF-8" standalone="no"?>
<!-- Created with Inkscape (http://www.inkscape.org/) -->

<svg
   xmlns:dc="http://purl.org/dc/elements/1.1/"
   xmlns:cc="http://creativecommons.org/ns#"
   xmlns:rdf="http://www.w3.org/1999/02/22-rdf-syntax-ns#"
   xmlns:svg="http://www.w3.org/2000/svg"
   xmlns="http://www.w3.org/2000/svg"
   xmlns:sodipodi="http://sodipodi.sourceforge.net/DTD/sodipodi-0.dtd"
   xmlns:inkscape="http://www.inkscape.org/namespaces/inkscape"
   width="400"
   height="166"
   viewBox="0 0 400.00001 16`6"
   id="svg2"
   version="1.1"
   inkscape:version="0.91 r13725"
   sodipodi:docname="box-drc-400-166-complete.svg">
  <defs
     id="defs4" />
  <sodipodi:namedview
     id="base"
     pagecolor="#ffffff"
     bordercolor="#666666"
     borderopacity="1.0"
     inkscape:pageopacity="0.0"
     inkscape:pageshadow="2"
     inkscape:zoom="1"
     inkscape:cx="171.40155"
     inkscape:cy="214.62964"
     inkscape:document-units="px"
     inkscape:current-layer="layer1"
     showgrid="false"
     inkscape:window-width="1430"
     inkscape:window-height="793"
     inkscape:window-x="8"
     inkscape:window-y="0"
     inkscape:window-maximized="0"
     showguides="true"
     inkscape:guide-bbox="true"
     fit-margin-top="0"
     fit-margin-left="0"
     fit-margin-right="0"
     fit-margin-bottom="0"
     units="px" />
  <metadata
     id="metadata7">
    <rdf:RDF>
      <cc:Work
         rdf:about="">
        <dc:format>image/svg+xml</dc:format>
        <dc:type
           rdf:resource="http://purl.org/dc/dcmitype/StillImage" />
        <dc:title></dc:title>
      </cc:Work>
    </rdf:RDF>
  </metadata>
  <g
     inkscape:label="Layer 1"
     inkscape:groupmode="layer"
     id="layer1"
     transform="translate(352.61476,-4568.0199)">
    <g
       id="layer1-1"
       inkscape:label="Layer 1"
       transform="matrix(0.49619251,0,0,0.49645439,-68.28549,2334.1334)"
       style="fill:#ffffff">
      <path
         inkscape:export-ydpi="90"
         inkscape:export-xdpi="90"
         id="path4907"
         transform="translate(-602.33264,4473.2788)"
         d="m 29.310547,26.402344 0,2 0,232.890626 0.002,0 0,97.48047 0,2 65.021484,0 4,0 0,-1.75586 0,-2.24414 0,-3.80469 0,-15.42969 -13.388672,0 10.529297,-13.53125 -7.515625,0 9.998047,-12.8457 -5.080078,0 8.82617,-11.43164 8.82618,11.43164 -5.08008,0 9.99805,12.8457 -7.51563,0 10.5293,13.53125 -13.10352,0 0,15.42969 0,3.80469 0,4 4,0 323.02344,0 323.02344,0 4,0 0,-4 0,-3.80469 0,-15.42969 -13.10352,0 10.5293,-13.53125 -7.51563,0 9.99805,-12.8457 -5.08008,0 8.82617,-11.43164 8.82618,11.43164 -5.08008,0 9.99804,12.8457 -7.51562,0 10.5293,13.53125 -13.38868,0 0,15.42969 0,3.80469 0,2.24414 0,1.75586 4,0 65.02149,0 0,-2 0,-101.34571 0,-231.025386 -571.2461,0 -4.03906,0 -230.853516,0 z m 4,4 226.853513,0 0,226.890626 -226.853513,0 0,-226.890626 z m 230.892573,0 567.2461,0 0,191.052736 c -6.48646,5.8235 -15.30412,9.13086 -24.51172,9.13086 -9.26021,0 -18.12836,-3.34282 -24.625,-9.22852 a 2.0002,2.0002 0 0 0 -0.35742,-0.25781 c -7.22851,-6.3352 -16.83787,-9.86133 -26.84375,-9.86133 -9.9998,0 -19.60307,3.52161 -26.83008,9.84961 a 2.0002,2.0002 0 0 0 -0.37109,0.26953 c -6.49665,5.8857 -15.3648,9.22852 -24.625,9.22852 -9.26022,0 -18.12836,-3.34282 -24.625,-9.22852 a 2.0002,2.0002 0 0 0 -0.35743,-0.25781 c -7.2285,-6.3352 -16.83788,-9.86133 -26.84375,-9.86133 -10.00076,0 -19.60478,3.52256 -26.83203,9.85156 a 2.0002,2.0002 0 0 0 -0.36914,0.26758 c -6.49664,5.8857 -15.36479,9.22852 -24.625,9.22852 -9.2602,0 -18.13031,-3.34282 -24.62695,-9.22852 a 2.0002,2.0002 0 0 0 -0.35156,-0.25586 c -7.22887,-6.3369 -16.84031,-9.86328 -26.84766,-9.86328 -10.00223,0 -19.6102,3.52272 -26.83789,9.85352 a 2.0002,2.0002 0 0 0 -0.36328,0.26562 c -6.49664,5.8857 -15.36479,9.22852 -24.625,9.22852 -9.26021,0 -18.13031,-3.34282 -24.62695,-9.22852 a 2.0002,2.0002 0 0 0 -0.35157,-0.25586 c -7.22886,-6.3369 -16.84031,-9.86328 -26.84765,-9.86328 -10.00223,0 -19.61021,3.52272 -26.83789,9.85352 a 2.0002,2.0002 0 0 0 -0.36329,0.26562 c -6.49663,5.8857 -15.36479,9.22852 -24.625,9.22852 -9.26019,0 -18.13031,-3.34282 -24.62695,-9.22852 a 2.0002,2.0002 0 0 0 -0.35156,-0.25586 c -7.22887,-6.3369 -16.84031,-9.86328 -26.84766,-9.86328 -10.00362,0 -19.61181,3.52492 -26.83984,9.85742 a 2.0002,2.0002 0 0 0 -0.36133,0.26172 c -6.49664,5.8857 -15.36479,9.22852 -24.625,9.22852 -9.18853,0 -17.98996,-3.29468 -24.47266,-9.09571 l 0,-191.087886 z M 127.95117,79.726562 c -5.8319,0.085 -11.27541,3.605797 -13.59961,9.216797 -2.1956,5.3005 -1.09997,11.248371 2.45313,15.417971 -2.5792,0.937 -4.95074,2.42935 -6.92774,4.40625 -3.5443,3.5444 -5.53732,8.35158 -5.54492,13.36328 l 15.02539,0 c 0.4437,0 0.66715,-0.0274 0.96485,-0.0664 2.5761,-0.7971 2.25695,-4.94999 -0.96485,-4.90429 l -8.77734,0 c 0.6796,-1.7239 1.70491,-3.31039 3.04101,-4.64649 1.6555,-1.6555 3.6934,-2.83765 5.9043,-3.46875 l 0,3.67774 c -0.051,3.5812 5.34612,3.5812 5.29492,0 l 0,-7.22266 c 0.01,-0.7293 -0.28068,-1.4302 -0.80469,-1.9375 -0.1956,-0.2215 -0.42814,-0.40959 -0.68554,-0.55469 -4.2073,-2.4292 -5.94514,-7.548707 -4.08594,-12.037107 1.071,-2.5856 3.13584,-4.469887 5.58984,-5.367187 -0.4356,1.213 -0.59907,2.536712 -0.42187,3.882812 0.5437,4.1294 4.10443,7.251953 8.26953,7.251953 0.047,-2e-4 0.0937,2.35e-4 0.14063,-0.0098 0.065,0.01 0.12845,0.0098 0.19335,0.0098 l 6.63282,0 c 3.5805,0.051 3.5805,-5.347375 0,-5.296875 l -6.63282,0 c -0.046,0 -0.0926,-2.34e-4 -0.13867,0.0098 -0.065,0 -0.13011,-0.0098 -0.19531,-0.0098 -1.5485,0 -2.81743,-1.111184 -3.01953,-2.646484 -0.2021,-1.5354 0.73467,-2.936991 2.23047,-3.337891 0.3647,-0.091 0.7053,-0.262393 1,-0.496093 0.6676,-0.470501 1.08044,-1.22131 1.11914,-2.03711 0.059,-1.2572 -0.77404,-2.382806 -1.99414,-2.691406 -1.3538,-0.3628 -2.72061,-0.525559 -4.06641,-0.50586 z m 265.4043,3.007813 0,66.169925 13.23437,0 0,-27.35157 12.08789,0 15.83594,27.35157 15.17383,0 -16.49805,-28.84961 c 8.11674,-2.61734 12.17578,-8.70594 12.17578,-18.26367 0,-12.704404 -7.72069,-19.056645 -23.16015,-19.056645 l -28.84961,0 z m 91.24219,0 c -9.4106,0 -17.27681,3.161642 -23.59961,9.484375 -6.32274,6.3228 -9.48438,14.18894 -9.48438,23.59961 0,9.38127 3.16164,17.24936 9.48438,23.60156 6.3228,6.3228 14.18901,9.48438 23.59961,9.48438 9.4106,0 17.27869,-3.16158 23.60156,-9.48438 6.32273,-6.3228 9.48437,-14.19089 9.48437,-23.60156 0,-9.41067 -3.16164,-17.27681 -9.48437,-23.59961 -6.32287,-6.322733 -14.19096,-9.484375 -23.60156,-9.484375 z m 70.98828,0 c -9.41074,0 -17.27681,3.161642 -23.59961,9.484375 -6.32274,6.3228 -9.48438,14.18894 -9.48438,23.59961 0,9.38127 3.16164,17.24936 9.48438,23.60156 6.3228,6.3228 14.18887,9.48438 23.59961,9.48438 9.4106,0 17.27883,-3.16158 23.60156,-9.48438 6.32287,-6.3228 9.48438,-14.19089 9.48438,-23.60156 0,-9.41067 -3.16151,-17.27681 -9.48438,-23.59961 -6.32273,-6.322733 -14.19096,-9.484375 -23.60156,-9.484375 z m 60.23047,0 c -5.29354,0 -10.45363,1.779424 -15.48243,5.337891 -4.9994,3.528933 -7.5,8.219999 -7.5,14.072264 0,6.46987 2.20599,11.02716 6.61719,13.67383 4.4112,2.64667 9.26311,4.26531 14.55664,4.85352 5.88167,0.58819 9.54331,2.13105 10.98438,4.63085 1.47033,2.49967 1.47033,5.00034 0,7.5 -1.44107,2.49974 -5.10271,3.75 -10.98438,3.75 -7.058,-0.5882 -12.05724,-2.64684 -14.99804,-6.17578 l -8.82227,8.82227 c 2.9408,2.94087 6.47069,5.29211 10.58789,7.05664 4.11713,1.76453 9.24813,2.64844 15.39453,2.64844 6.46974,0 12.13002,-1.9132 16.98242,-5.73633 4.88174,-3.82307 7.32422,-8.38036 7.32422,-13.67383 0,-6.76387 -2.27969,-11.68941 -6.83789,-14.77734 -4.55833,-3.08787 -9.63121,-4.92554 -15.21875,-5.51368 -5.29353,-0.88226 -8.67608,-2.20616 -10.14648,-3.9707 -1.47047,-1.76446 -1.47047,-3.89675 0,-6.396482 1.4704,-2.499667 4.85295,-3.75 10.14648,-3.75 5.29347,-10e-7 9.4107,1.763968 12.35156,5.292972 l 8.82227,-8.822269 c -2.94087,-2.940867 -6.10244,-5.144901 -9.48437,-6.615235 -3.38201,-1.470466 -8.14671,-2.207031 -14.29297,-2.207031 z m 29.09375,0 0,12.351563 22.05664,0 0,53.818362 13.23242,0 0,-53.818362 22.05664,0 0,-12.351563 -57.3457,0 z M 150.31055,92.990234 c -0.84618,-0.02969 -1.65605,0.348462 -2.17774,1.015625 l -14.1875,14.187501 c -2.5995,2.4954 1.24864,6.34559 3.74414,3.74609 l 12.83399,-12.833981 c 3.0171,2.680001 4.08803,7.014061 2.48633,10.880861 -1.7947,4.3329 -6.37531,6.70958 -10.91211,5.73828 -0.3806,-0.192 -0.80232,-0.289 -1.22852,-0.2832 -1.1194,0.018 -2.10594,0.73842 -2.46484,1.79882 -0.021,0.059 -0.0396,0.11959 -0.0566,0.17969 -0.059,0.1995 -0.0942,0.40558 -0.10547,0.61328 -0.01,0.1468 9.3e-4,0.29356 0.0195,0.43946 l 0,16.92968 c -6.4477,-0.5802 -12.87578,2.00943 -17.11328,7.08204 -4.9649,5.94369 -6.04232,14.24065 -2.76172,21.25585 3.2807,7.0152 10.33958,11.50586 18.08398,11.50586 3.5798,0.05 3.5798,-5.34482 0,-5.29492 -5.7011,0 -10.87396,-3.29078 -13.28906,-8.45508 -2.4151,-5.1643 -1.6256,-11.24178 2.0293,-15.61718 3.655,-4.3754 9.49611,-6.23465 15.00781,-4.77735 1.6424,0.4594 3.28498,-0.73184 3.35937,-2.43554 0.01,-0.159 5.7e-4,-0.31701 -0.0234,-0.47461 l 0,-0.17579 0,-16.79492 c 6.1097,0.2186 11.92055,-3.35898 14.34375,-9.20898 2.8429,-6.8634 0.17471,-14.811826 -6.21289,-18.578126 -0.027,-0.017 -0.054,-0.03478 -0.082,-0.05078 -0.012,-0.01 -0.0232,-0.01448 -0.0352,-0.02148 -0.012,-0.01 -0.0212,-0.01353 -0.0332,-0.01953 -0.047,-0.027 -0.0976,-0.05217 -0.14649,-0.07617 -0.056,-0.027 -0.11067,-0.05217 -0.16797,-0.07617 -0.014,-0.01 -0.029,-0.01063 -0.043,-0.01563 -0.27499,-0.108923 -0.5678,-0.170924 -0.86328,-0.183594 l -0.002,0 -0.002,0 z m 334.24414,2.095704 c 5.91106,0 10.70479,1.985011 14.38086,5.955082 3.676,3.97013 5.51367,8.89567 5.51367,14.77734 0,5.88167 -1.83767,10.80916 -5.51367,14.7793 -3.67607,3.97013 -8.44071,5.95507 -14.29297,5.95507 -5.91114,0 -10.70486,-1.98494 -14.38086,-5.95507 -3.676,-3.97014 -5.51367,-8.89763 -5.51367,-14.7793 0,-5.88167 1.83767,-10.80721 5.51367,-14.77734 3.676,-3.970071 8.44063,-5.955082 14.29297,-5.955082 z m 70.98828,0 c 5.911,0 10.70472,1.985011 14.38086,5.955082 3.676,3.97013 5.51367,8.89567 5.51367,14.77734 0,5.88167 -1.83767,10.80916 -5.51367,14.7793 -3.67614,3.97013 -8.44084,5.95507 -14.29297,5.95507 -5.91113,0 -10.70479,-1.98494 -14.38086,-5.95507 -3.676,-3.97014 -5.51367,-8.89763 -5.51367,-14.7793 0,-5.88167 1.83767,-10.80721 5.51367,-14.77734 3.67607,-3.970071 8.4407,-5.955082 14.29297,-5.955082 z m -148.95313,0.04492 18.66016,0 c 5.23467,0.176467 7.92527,2.440569 8.07227,6.792972 -0.147,4.7642 -2.88215,7.19109 -8.20508,7.27929 l -18.52735,0 0,-14.072262 z M 112.16797,125.22852 c -0.6898,-0.019 -1.35929,0.23016 -1.86719,0.69726 -13.483999,12.0284 -17.039167,31.7364 -8.60547,47.7168 5.4059,10.2432 14.85901,17.27734 25.56641,19.86914 4.3064,2.3801 6.97461,6.87674 6.97461,11.77734 -0.051,3.5807 5.34767,3.5807 5.29687,0 0,-3.8803 -1.2077,-7.58752 -3.3457,-10.66992 3.2329,0.026 6.50626,-0.34744 9.75586,-1.15234 17.5394,-4.3444 29.88086,-20.1141 29.88086,-38.1836 7e-4,-0.1012 3.3e-4,-0.20203 -0.0137,-0.30273 0.01,-0.096 0.0137,-0.19111 0.0137,-0.28711 l 0,-6.63281 c 2e-4,-0.016 2e-4,-0.0318 0,-0.0488 0.086,-1.2582 0.7662,-2.3923 1.8457,-3.0293 1.1563,-0.6824 2.56841,-0.6823 3.72461,0 1.1562,0.6823 1.86328,1.93218 1.86328,3.29688 -0.071,3.641 5.30763,3.641 5.23633,0 0,-3.2689 -1.71087,-6.2993 -4.48047,-7.9336 -2.7695,-1.6345 -6.19339,-1.6346 -8.96289,0 -2.5005,1.4756 -4.13499,4.09239 -4.42969,6.99219 -0.064,0.2357 -0.0928,0.47856 -0.0898,0.72266 l 0,6.63086 c -7e-4,0.1014 -0.001,0.20388 0.0137,0.30468 -0.01,0.095 -0.0137,0.19111 -0.0137,0.28711 0,15.6627 -10.65617,29.27737 -25.85937,33.04297 -5.24681,1.2997 -10.56202,1.30806 -15.57422,0.19336 -0.1486,-0.05 -0.30193,-0.0858 -0.45704,-0.10937 -9.32429,-2.2094 -17.55327,-8.31299 -22.26367,-17.23828 -7.310397,-13.852 -4.24083,-30.86863 7.44727,-41.29493 1.8268,-1.5803 0.75825,-4.57983 -1.65625,-4.64843 z m 67.36328,3.9375 c -2.904,-1e-4 -5.8087,0.76567 -8.4082,2.29687 -4.9777,2.9321 -8.12156,8.25678 -8.38086,14.08008 -0.044,0.2005 -0.0665,0.40708 -0.0625,0.61328 0.035,3.4105 -1.75087,6.53254 -4.70117,8.21094 -2.9503,1.6784 -6.59909,1.64239 -9.58399,-0.0957 -2.9849,-1.7383 -4.83649,-4.90004 -4.87109,-8.31054 0.01,-1.4925 -1.22255,-2.71844 -2.71485,-2.71094 -1.4608,0.01 -2.61527,1.197 -2.58007,2.6582 0.054,5.2995 2.94591,10.23474 7.57031,12.92774 4.6244,2.6929 10.29649,2.74874 14.86719,0.14844 4.5708,-2.60031 7.36434,-7.4759 7.31054,-12.7754 -7e-4,-0.057 2.4e-4,-0.11642 -0.01,-0.17382 0.097,-4.1114 2.27229,-7.87596 5.77539,-9.93946 3.5841,-2.1112 7.99012,-2.1111 11.57422,0 3.5336,2.0815 5.71819,5.89348 5.77929,10.04688 -0.023,0.1471 -0.0332,0.29631 -0.0312,0.44531 l 0,1.70313 c -0.05,3.5805 5.34738,3.5805 5.29688,0 l 0,-1.70313 c 7e-4,-0.1101 -0.0105,-0.22078 -0.0195,-0.33008 -0.022,-6.1009 -3.223,-11.74097 -8.4043,-14.79297 -2.5995,-1.5312 -5.5041,-2.29677 -8.4082,-2.29687 l 0.002,-0.002 z m 328.49023,31.33593 c -2.0863,0 -4.57472,1.46345 -6.29492,4.46485 l -5.92968,10.21289 c -2.2328,-1.1713 -3.4043,-3.29507 -3.4043,-5.41797 0,-1.7569 0.80407,-3.51392 2.45117,-4.79492 l -1.24414,-2.23242 c -2.7085,1.9399 -3.91602,4.53936 -3.91602,7.10156 0,3.038 1.72033,5.96567 4.79493,7.57617 l -1.13477,1.97656 c -2.6719,4.6118 -1.0973,9.73633 4.2832,9.73633 5.6733,0 9.33267,-3.36714 12.48047,-7.02734 -0.007,-0.018 -0.0218,-0.0347 -0.0293,-0.0527 0.0235,0.016 0.0448,0.0367 0.0684,0.0527 1.8301,-2.1229 3.25703,-4.02797 6.29493,-8.16407 l 0.51367,0.62305 c 0.4758,0.6222 0.65795,1.39146 0.21875,2.16016 l -4.02539,6.99023 c -1.6105,2.8184 -0.47695,5.41797 2.59765,5.41797 2.26414,0 4.77345,-1.75355 7.17579,-4.09375 0.17993,2.3736 2.10015,4.09375 5.15429,4.09375 2.74974,0 5.48122,-1.37014 7.91797,-3.30664 -0.17525,1.8817 1.03374,3.30664 3.30859,3.30664 1.53731,0 3.43944,-0.98953 5.26954,-2.49023 0.183,1.4641 1.35502,2.49023 3.29492,2.49023 1.9147,0 4.00401,-1.25479 6.05664,-3.05469 -0.0481,1.7551 1.15027,3.05469 3.32226,3.05469 1.93328,0 4.04542,-1.27542 6.11719,-3.10352 -0.0718,1.7796 1.1265,3.10352 3.31836,3.10352 2.16741,0 4.55924,-1.61148 6.86719,-3.80078 -0.89534,4.7419 4.39261,4.90915 7.07226,0.87305 l 1.97657,-2.96485 c 0.72972,1.4595 2.7223,2.12845 4.94531,1.06446 -0.19512,2.74529 1.79711,4.82812 5.1582,4.82812 4.3191,0 8.6022,-3.36714 11.75,-7.02734 -0.2563,-0.5124 -0.91533,-1.09866 -1.42773,-1.31836 l -0.25586,0.29297 c -2.7451,3.1844 -6.25974,5.70898 -8.93164,5.70898 -2.3425,0 -3.73347,-1.46251 -1.97656,-4.53711 l 0.36523,-0.66016 c 2.4523,1.0248 7.06492,0.54873 9.91992,-4.39257 l 0.54883,-0.95118 c 2.0498,-3.5139 0.0738,-6.14843 -3.03711,-6.14843 -3.0746,0 -5.52817,1.61087 -7.13867,4.39258 l -3.68164,6.3164 -0.23633,0.27149 c -2.0498,2.2327 -5.63615,2.70877 -3.62305,-1.39063 l 6.18555,-9.22461 -3.43945,0 -8.5293,12.81055 c -2.306,3.4772 -2.56176,3.55082 -1.09766,-0.10938 l 5.08789,-12.70117 -3.84375,0 -4.15039,10.33203 c -0.005,0 -0.0105,-0.01 -0.0156,-0.01 l -0.25586,0.29297 c -2.7452,3.1844 -5.41786,5.70898 -7.10156,5.70898 -0.8418,0 -1.31796,-0.58524 -0.43946,-2.08594 l 8.16407,-14.23828 -3.80664,0 -5.96876,10.33789 c -0.009,0 -0.0186,-0.0116 -0.0273,-0.0156 l -0.25781,0.29297 c -2.7452,3.1844 -5.41591,5.70898 -7.09961,5.70898 -0.8418,0 -1.31795,-0.58524 -0.43945,-2.08594 l 8.16211,-14.23828 3.11132,0 1.09766,-1.83008 -3.14648,0 3.58593,-6.22265 -3.80664,0 -3.58789,6.22265 -3.43945,0 -1.09766,1.83008 3.47657,0 -6.00391,10.39844 -0.18945,0.2168 c -2.7452,3.1844 -5.41797,5.70898 -7.10157,5.70898 -0.8419,0 -1.31785,-0.58524 -0.43945,-2.08594 l 6.14844,-10.76172 -2.15821,0 c 0.1464,-1.6105 -1.50123,-3.84179 -3.99023,-3.84179 -2.0497,0 -4.90522,1.61087 -6.51562,4.39258 l -3.64844,6.29687 -0.002,0 -0.25586,0.29297 c -2.74519,3.1844 -6.25778,5.70898 -8.92968,5.70898 -2.3426,0 -3.73346,-1.46251 -1.97656,-4.53711 l 0.36523,-0.66015 c 2.4524,1.0248 7.06502,0.54872 9.91992,-4.39258 l 0.54883,-0.95117 c 2.0497,-3.5139 0.0719,-6.14844 -3.03906,-6.14844 -3.0746,0 -5.52622,1.61088 -7.13672,4.39258 l -3.70313,6.34961 -0.20703,0.23828 c -2.7452,3.1844 -5.41786,5.70898 -7.10156,5.70898 -0.8419,0 -1.31785,-0.58523 -0.43945,-2.08593 l 3.80664,-6.66211 c 1.3177,-2.306 0.69567,-3.65956 -0.54883,-5.16016 l -2.12305,-2.5625 c -0.549,-0.6954 -0.54789,-1.46331 0.22071,-2.19531 l -1.97657,-2.16016 c -2.1595,1.9399 -2.34258,4.10052 -0.98828,5.85742 l 0.33008,0.4375 c -1.6837,2.3792 -3.95446,5.6012 -6.44336,8.5293 0.006,0.01 0.0153,0.0174 0.0215,0.0254 -0.0197,-0.01 -0.0411,-0.0204 -0.0605,-0.0254 l -0.25586,0.29297 c -2.7452,3.1844 -6.11271,5.70898 -9.88281,5.70898 -2.5987,0 -4.17165,-2.59871 -1.90235,-6.47851 l 1.06055,-1.86524 c 0.6954,0.1098 1.39155,0.18164 2.16016,0.18164 4.0629,0 8.67448,-2.08621 11.67578,-7.32031 1.0615,-1.8668 1.53711,-3.62235 1.53711,-5.12305 0,-3.4406 -2.23239,-5.67382 -5.05079,-5.67382 l 0,-0.002 z m 0,3.29297 c 1.4275,0 2.08594,0.95295 2.08594,2.34375 0,3.5505 -4.31844,9.95508 -10.24804,9.95508 l -0.76954,0 5.49024,-9.51563 c 1.1347,-1.93999 2.38,-2.7832 3.4414,-2.7832 z m 67.99414,0.29297 c -1.2444,0 -2.19531,0.98802 -2.19531,2.23242 0,1.2445 0.95091,2.19727 2.19531,2.19727 1.24451,0 2.23243,-0.95277 2.23243,-2.19727 0,-1.2444 -0.98792,-2.23242 -2.23243,-2.23242 z m -41.67187,8.83203 c 1.22068,-0.073 1.88976,1.09671 0.61328,3.32031 l -0.54883,0.95118 c -1.8302,3.1112 -4.28343,3.03779 -5.71093,2.52539 l 2.45312,-4.28125 c 0.96079,-1.6493 2.24395,-2.45873 3.19336,-2.51563 z m 64.625,0 c 1.22069,-0.073 1.88982,1.09671 0.61328,3.32031 l -0.54883,0.95118 c -1.8301,3.1112 -4.28148,3.03779 -5.70898,2.52539 l 2.45117,-4.28125 c 0.96079,-1.6493 2.24393,-2.45873 3.19336,-2.51563 z m -50.48242,0.25781 c 1.28865,-0.01 2.11447,1.1271 1.06445,3.0625 l -2.96484,5.19727 c -2.3059,3.6236 -4.57454,5.34375 -6.14844,5.34375 -0.8418,0 -1.31785,-0.58524 -0.43945,-2.08594 l 5.30664,-9.25976 c 0.89679,-1.5533 2.17936,-2.25152 3.18164,-2.25782 z m -70.25,4.41797 a 2.2149785,2.2149785 0 0 0 -2.21485,2.21485 2.2149785,2.2149785 0 0 0 2.21485,2.21484 2.2149785,2.2149785 0 0 0 2.21679,-2.21484 2.2149785,2.2149785 0 0 0 -2.21679,-2.21485 z m 139.14062,0 a 2.2149785,2.2149785 0 0 0 -2.21484,2.21485 2.2149785,2.2149785 0 0 0 2.21484,2.21484 2.2149785,2.2149785 0 0 0 2.21485,-2.21484 2.2149785,2.2149785 0 0 0 -2.21485,-2.21485 z m -276.875,37.64258 c 9.26021,0 18.12836,3.34086 24.625,9.22656 a 2.0002,2.0002 0 0 0 0.38867,0.28907 c 7.22489,6.3172 16.82166,9.83203 26.8125,9.83203 10.00317,0 19.61006,-3.52357 26.8379,-9.85547 a 2.0002,2.0002 0 0 0 0.36132,-0.26563 c 6.49664,-5.8857 15.36675,-9.22656 24.62696,-9.22656 9.2602,0 18.12836,3.34086 24.625,9.22656 a 2.0002,2.0002 0 0 0 0.38867,0.28907 c 7.22488,6.3172 16.82166,9.83203 26.8125,9.83203 10.00316,0 19.61005,-3.52357 26.83789,-9.85547 a 2.0002,2.0002 0 0 0 0.36133,-0.26563 c 6.49664,-5.8857 15.36674,-9.22656 24.62695,-9.22656 9.26021,0 18.12836,3.34086 24.625,9.22656 a 2.0002,2.0002 0 0 0 0.38867,0.28907 c 7.22489,6.3172 16.82166,9.83203 26.8125,9.83203 10.00029,0 19.6049,-3.52111 26.83203,-9.84961 a 2.0002,2.0002 0 0 0 0.36914,-0.27149 c 6.49664,-5.8857 15.36479,-9.22656 24.625,-9.22656 9.2602,0 18.12835,3.34086 24.625,9.22656 a 2.0002,2.0002 0 0 0 0.39454,0.29102 c 7.22443,6.3155 16.81726,9.83008 26.80664,9.83008 10.00029,0 19.6049,-3.52111 26.83203,-9.84961 a 2.0002,2.0002 0 0 0 0.36914,-0.27149 c 6.49664,-5.8857 15.36479,-9.22656 24.625,-9.22656 9.2602,0 18.12836,3.34086 24.625,9.22656 a 2.0002,2.0002 0 0 0 0.39453,0.29102 c 7.22444,6.3155 16.81727,9.83008 26.80664,9.83008 8.96225,0 17.6106,-2.82361 24.51172,-7.96485 l 0,30.79102 -567.2461,0 0,-30.75977 c 6.89467,5.12171 15.52833,7.9336 24.47266,7.9336 10.00316,0 19.61006,-3.52357 26.83789,-9.85547 a 2.0002,2.0002 0 0 0 0.36133,-0.26563 c 6.49664,-5.8857 15.36675,-9.22656 24.62695,-9.22656 z m -307.18945,46.18945 399.06836,0 399.06836,0 0,95.34571 -61.02149,0 0,-15.23438 17.56836,0 -10.52929,-13.53125 7.51953,0 -9.99805,-12.8457 5.03711,0 -15.38281,-19.92773 -1.58399,-2.05079 -16.96679,21.97852 5.03711,0 -9.99805,12.8457 7.51953,0 -10.5293,13.53125 17.28321,0 0,15.23438 -323.02344,0 -323.02344,0 0,-15.23438 17.2832,0 -10.52929,-13.53125 7.51953,0 -9.99805,-12.8457 5.03711,0 -16.9668,-21.97852 -1.58398,2.05079 -15.382812,19.92773 5.03711,0 -9.998047,12.8457 7.519531,0 -10.529297,13.53125 17.568359,0 0,15.23438 -61.021484,0 0,-95.34571 z m 244.44727,34.21289 -0.30665,0.0391 -2.5039,0 0,26.84179 2.81055,0 0,-12.67578 1.75585,8.74219 2.85352,0 1.79883,-8.93359 0,12.90429 2.81055,0 0,-26.8789 -2.50196,0 -0.35156,-0.0391 -2.54688,12.60157 -0.61328,3.24414 -0.61523,-3.05469 -2.58984,-12.79102 z m 24.65039,0 -0.35157,0.0391 -2.50195,0 0,26.8789 2.80859,0 0,-12.90429 2.58985,12.79101 0,0.11328 2.80859,0 0,-26.8789 -2.80859,0 0,12.5625 -2.54492,-12.60157 z m 107.83984,0 0,12.18165 -3.11719,0 0,-12.10352 -2.80859,0 0,26.83984 2.80859,0 0,-12.29297 3.11719,0 0,12.2168 2.85352,0 0,-26.8418 -2.85352,0 z m 27.46289,0 -1.66797,1.41407 0,8.36133 5.88281,7.02539 0,7.67382 -3.02929,0 0,-5.11523 -2.85352,0 0,6.14648 1.66797,1.41211 5.40039,0 1.62305,-1.41211 0,-9.27734 -5.83789,-6.94922 0,-6.79687 3.02929,0 0,5.07812 2.8086,0 0,-6.14648 -1.62305,-1.41407 -5.40039,0 z m 83.66211,0 -0.34961,0.0391 -2.50195,0 0,26.8789 2.80859,0 0,-12.90429 2.58985,12.79101 0,0.11328 2.80859,0 0,-26.8789 -2.80859,0 0,12.5625 -2.54688,-12.60157 z m 31.29492,0 -0.35156,0.0391 -2.50195,0 0,26.8789 2.80859,0 0,-12.90429 2.58984,12.79101 0,0.11328 2.81055,0 0,-26.8789 -2.81055,0 0,12.5625 -2.54492,-12.60157 z m 113.26953,0 -1.66797,1.41407 0,8.36133 5.88282,7.02539 0,7.67382 -3.0293,0 0,-5.11523 -2.85352,0 0,6.14648 1.66797,1.41211 5.40039,0 1.62305,-1.41211 0,-9.27734 -5.83789,-6.94922 0,-6.79687 3.0293,0 0,5.07812 2.80859,0 0,-6.14648 -1.62305,-1.41407 -5.40039,0 z m 12.37305,0 -0.30664,0.0391 -2.50195,0 0,26.84179 2.80859,0 0,-12.67578 1.75586,8.74219 2.85352,0 1.79882,-8.93359 0,12.90429 2.81055,0 0,-26.8789 -2.50195,0 -0.35157,-0.0391 -2.54687,12.60157 -0.61328,3.24414 -0.61524,-3.05469 -2.58984,-12.79102 z m 24.65039,0 -0.35156,0.0391 -2.50195,0 0,26.8789 2.80859,0 0,-12.90429 2.58984,12.79101 0,0.11328 2.81055,0 0,-26.8789 -2.81055,0 0,12.5625 -2.54492,-12.60157 z m -546.51953,0.0391 2.63476,26.8789 2.85352,0 1.22852,-13.20898 1.3164,13.20898 2.81055,0 2.67773,-26.8789 -2.85351,0 -1.31641,13.43945 -1.31836,-13.43945 -2.63281,0 -1.4043,13.66992 -1.36133,-13.66992 -2.63476,0 z m 65.8457,0 2.63282,26.8789 3.81835,0 2.67774,-26.8789 -2.85156,0 -1.80079,18.51758 -1.84374,-18.51758 -2.63282,0 z m 162.27149,0 -2.63477,26.8789 2.81055,0 0.83398,-8.28515 2.01953,0 0.78907,8.28515 2.67773,0 -2.67773,-26.8789 -3.81836,0 z m 125.6875,0 -2.63477,26.8789 2.81055,0 0.83398,-8.28515 2.01758,0 0.79102,8.28515 2.67773,0 -2.67773,-26.8789 -3.81836,0 z m 124.48633,0 -2.63282,26.8789 2.8086,0 0.83398,-8.28515 2.01953,0 0.78906,8.28515 2.67774,0 -2.67774,-26.8789 -3.81835,0 z m 57.0996,0 -2.63476,26.8789 2.81055,0 0.83398,-8.28515 2.01953,0 0.78906,8.28515 2.67774,0 -2.67774,-26.8789 -3.81836,0 z m -520.10937,0.0391 0,26.83984 2.81055,0 4.60937,0 0,-2.44336 -4.60937,0 0,-9.84961 3.73046,0 0,-2.44335 -3.73046,0 0,-9.66016 4.60937,0 0,-2.44336 -5.22461,0 -2.19531,0 z m 10.03125,0 0,26.83984 7.11133,0 1.66797,-1.41211 0,-10.76757 -1.44727,-1.22071 1.44727,-1.25976 0,-10.76758 -1.66797,-1.41211 -7.11133,0 z m 20.0625,0 0,26.83984 7.11133,0 1.66797,-1.41211 0,-24.01562 -1.66797,-1.41211 -7.11133,0 z m 11.31641,0 0,26.83984 2.81054,0 4.60938,0 0,-2.44336 -4.60938,0 0,-9.84961 3.73047,0 0,-2.44335 -3.73047,0 0,-9.66016 4.60938,0 0,-2.44336 -5.22461,0 -2.19531,0 z m 20.0625,0 0,26.83984 2.80859,0 4.60937,0 0,-2.44336 -4.60937,0 0,-9.84961 3.73242,0 0,-2.44335 -3.73242,0 0,-9.66016 4.60937,0 0,-2.44336 -5.22265,0 -2.19531,0 z m 9.94531,0 0,26.83984 2.80859,0 3.82031,0 0,-2.44336 -3.82031,0 0,-24.39648 -2.80859,0 z m 10.92773,0 -1.66797,1.41211 0,24.01562 1.66797,1.41211 5.35547,0 1.66797,-1.41211 0,-24.01562 -1.66797,-1.41211 -5.35547,0 z m 9.5625,0 0,26.83984 2.81055,0 0,-12.10351 4.51953,0 1.44922,-1.2207 0,-12.10352 -1.66797,-1.41211 -7.11133,0 z m 25.89258,0 0,26.83984 2.80859,0 4.60938,0 0,-2.44336 -4.60938,0 0,-9.84961 3.73243,0 0,-2.44335 -3.73243,0 0,-9.66016 4.60938,0 0,-2.44336 -5.22266,0 -2.19531,0 z m 20.83399,0 0,2.44336 2.98437,0 0,24.39648 2.80859,0 0,-24.39648 2.98633,0 0,-2.44336 -8.77929,0 z m 51.56445,0 -1.66797,1.41211 0,24.01562 1.66797,1.41211 5.35547,0 1.66797,-1.41211 0,-10.84375 -4.47657,0 0,2.44336 1.62305,0 0,7.36914 -3.02734,0 0,-21.95312 3.02734,0 0,5.19141 2.85352,0 0,-6.22266 -1.66797,-1.41211 -5.35547,0 z m 9.56445,0 0,26.83984 2.8086,0 0,-12.10351 3.11718,0 0,12.10351 2.85352,0 0,-12.17968 -1.44922,-1.22071 1.44922,-1.25976 0,-10.76758 -1.66797,-1.41211 -7.11133,0 z m 21.51953,0 0,26.83984 2.8086,0 0,-12.10351 4.52148,0 1.44922,-1.2207 0,-12.10352 -1.66992,-1.41211 -7.10938,0 z m 22.63281,0 0,2.44336 1.88868,0 0,21.95312 -1.88868,0 0,2.44336 1.88868,0 2.80859,0 1.88672,0 0,-2.44336 -1.88672,0 0,-21.95312 1.88672,0 0,-2.44336 -6.58399,0 z m 10.8418,0 -1.66797,1.41211 0,24.01562 1.66797,1.41211 5.35547,0 1.66797,-1.41211 0,-6.10937 -2.85352,0 0,5.07812 -3.02929,0 0,-21.95312 3.02929,0 0,5.19141 2.85352,0 0,-6.22266 -1.66797,-1.41211 -5.35547,0 z m 59.375,0 0,26.83984 7.11133,0 1.66797,-1.41211 0,-10.76757 -1.44922,-1.22071 1.44922,-1.25976 0,-10.76758 -1.66797,-1.41211 -7.11133,0 z m 11.31641,0 0,26.83984 2.81055,0 0,-12.10351 3.11718,0 0,12.10351 2.85156,0 0,-12.17968 -1.44726,-1.22071 1.44726,-1.25976 0,-10.76758 -1.66796,-1.41211 -7.11133,0 z m 32.15234,0 0,26.83984 7.10938,0 1.66797,-1.41211 0,-24.01562 -1.66797,-1.41211 -7.10938,0 z m 11.31641,0 0,2.44336 1.88672,0 0,21.95312 -1.88672,0 0,2.44336 1.88672,0 2.81054,0 1.88672,0 0,-2.44336 -1.88672,0 0,-21.95312 1.88672,0 0,-2.44336 -6.58398,0 z m 21.64453,0 -1.66797,1.41211 0,24.01562 1.66797,1.41211 5.35547,0 1.66797,-1.41211 0,-10.84375 -4.47852,0 0,2.44336 1.625,0 0,7.36914 -3.0293,0 0,-21.95312 3.0293,0 0,5.19141 2.85352,0 0,-6.22266 -1.66797,-1.41211 -5.35547,0 z m 49.81055,0 -1.66797,1.41211 0,24.01562 1.66797,1.41211 5.35546,0 1.66797,-1.41211 0,-6.10937 -2.85351,0 0,5.07812 -3.02735,0 0,-21.95312 3.02735,0 0,5.19141 2.85351,0 0,-6.22266 -1.66797,-1.41211 -5.35546,0 z m 9.56445,0 0,26.83984 2.80859,0 0,-12.10351 3.11719,0 0,12.10351 2.85352,0 0,-12.17968 -1.44922,-1.22071 1.44922,-1.25976 0,-10.76758 -1.66797,-1.41211 -7.11133,0 z m 21.34766,0 0,26.83984 2.80859,0 0,-12.29297 3.64453,0 0,-2.44335 -3.64453,0 0,-9.66016 4.52148,0 0,-2.44336 -5.13476,0 -2.19531,0 z m 9.94531,0 0,2.44336 2.98437,0 0,24.39648 2.81055,0 0,-24.39648 2.98438,0 0,-2.44336 -8.7793,0 z m -468.38867,2.44336 3.11523,0 0,9.77344 -3.11523,0 0,-9.77344 z m 20.06054,0 3.11719,0 0,21.95312 -3.11719,0 0,-21.95312 z m 50.58399,0 3.02929,0 0,21.95312 -3.02929,0 0,-21.95312 z m 11.23242,0 3.11523,0 0,9.77344 -3.11523,0 0,-9.77344 z m 107.85352,0 3.11718,0 0,9.77344 -3.11718,0 0,-9.77344 z m 21.51953,0 3.11718,0 0,9.77344 -3.11718,0 0,-9.77344 z m 92.85156,0 3.11523,0 0,9.77344 -3.11523,0 0,-9.77344 z m 11.31641,0 3.11718,0 0,9.77344 -3.11718,0 0,-9.77344 z m 32.15039,0 3.11718,0 0,21.95312 -3.11718,0 0,-21.95312 z m 92.33593,0 3.11719,0 0,9.77344 -3.11719,0 0,-9.77344 z m -237.89062,5.87891 0.74609,7.71289 -1.49219,0 0.7461,-7.71289 z m 125.6875,0 0.74609,7.71289 -1.49219,0 0.7461,-7.71289 z m 124.48633,0 0.74609,7.71289 -1.49219,0 0.7461,-7.71289 z m 57.09961,0 0.74609,7.71289 -1.49219,0 0.7461,-7.71289 z m -509.28711,6.41406 3.11523,0 0,9.66015 -3.11523,0 0,-9.66015 z m 304.10156,0 3.11523,0 0,9.66015 -3.11523,0 0,-9.66015 z m -157.42188,0.11719 0,3.05664 11.55469,0 0,-3.05664 -11.55469,0 z m 125.60157,0 0,3.05664 11.55273,0 0,-3.05664 -11.55273,0 z m 124.57422,0 0,3.05664 11.55273,0 0,-3.05664 -11.55273,0 z"
         style="color:#000000;font-style:normal;font-variant:normal;font-weight:normal;font-stretch:normal;font-size:medium;line-height:normal;font-family:sans-serif;text-indent:0;text-align:start;text-decoration:none;text-decoration-line:none;text-decoration-style:solid;text-decoration-color:#000000;letter-spacing:normal;word-spacing:normal;text-transform:none;direction:ltr;block-progression:tb;writing-mode:lr-tb;baseline-shift:baseline;text-anchor:start;white-space:normal;clip-rule:nonzero;display:inline;overflow:visible;visibility:visible;opacity:1;isolation:auto;mix-blend-mode:normal;color-interpolation:sRGB;color-interpolation-filters:linearRGB;solid-color:#000000;solid-opacity:1;fill:#ffffff;fill-opacity:1;fill-rule:nonzero;stroke:none;stroke-width:4;stroke-linecap:square;stroke-linejoin:miter;stroke-miterlimit:4;stroke-dasharray:none;stroke-dashoffset:0;stroke-opacity:1;color-rendering:auto;image-rendering:auto;shape-rendering:auto;text-rendering:auto;enable-background:accumulate"
         inkscape:connector-curvature="0" />
    </g>
  </g>
</svg>
