<?xml version="1.0" encoding="UTF-8" standalone="no"?>
<!-- Created with Inkscape (http://www.inkscape.org/) -->

<svg
   xmlns:dc="http://purl.org/dc/elements/1.1/"
   xmlns:cc="http://creativecommons.org/ns#"
   xmlns:rdf="http://www.w3.org/1999/02/22-rdf-syntax-ns#"
   xmlns:svg="http://www.w3.org/2000/svg"
   xmlns="http://www.w3.org/2000/svg"
   xmlns:sodipodi="http://sodipodi.sourceforge.net/DTD/sodipodi-0.dtd"
   xmlns:inkscape="http://www.inkscape.org/namespaces/inkscape"
   width="69.686066mm"
   height="80.555603mm"
   viewBox="0 0 246.91913 285.43324"
   id="svg4421"
   version="1.1"
   inkscape:version="0.91 r13725"
   sodipodi:docname="drawing.svg">
  <defs
     id="defs4423" />
  <sodipodi:namedview
     id="base"
     pagecolor="#ffffff"
     bordercolor="#666666"
     borderopacity="1.0"
     inkscape:pageopacity="0.0"
     inkscape:pageshadow="2"
     inkscape:zoom="1"
     inkscape:cx="-41.53005"
     inkscape:cy="12.707875"
     inkscape:document-units="px"
     inkscape:current-layer="layer1"
     showgrid="false"
     fit-margin-top="0"
     fit-margin-left="0"
     fit-margin-right="0"
     fit-margin-bottom="0"
     inkscape:window-width="1440"
     inkscape:window-height="799"
     inkscape:window-x="0"
     inkscape:window-y="1"
     inkscape:window-maximized="1" />
  <metadata
     id="metadata4426">
    <rdf:RDF>
      <cc:Work
         rdf:about="">
        <dc:format>image/svg+xml</dc:format>
        <dc:type
           rdf:resource="http://purl.org/dc/dcmitype/StillImage" />
        <dc:title></dc:title>
      </cc:Work>
    </rdf:RDF>
  </metadata>
  <g
     inkscape:label="Layer 1"
     inkscape:groupmode="layer"
     id="layer1"
     transform="translate(-254.39656,-259.63684)">
    <path
       style="fill:#000000"
       d="m 316.00967,509.49232 -61.61311,-35.57772 0,-71.53802 0,-71.53802 52.27778,-30.17042 c 28.75277,-16.59371 56.51085,-32.61411 61.68461,-35.60084 l 9.40682,-5.43046 61.77495,35.60071 61.77497,35.60074 0,71.53929 0,71.53929 -60.21279,34.73142 c -33.11703,19.10227 -60.94796,35.11173 -61.84647,35.57659 l -1.63368,0.8452 -61.61308,-35.57776 z m 105.45794,-10.08471 c 2.58433,-0.5147 6.55677,-1.55539 8.82766,-2.31264 6.17354,-2.05856 21.3992,-9.90671 39.98049,-20.60817 l 16.57018,-9.54321 0,-63.42399 0,-63.424 -53.21131,-30.73107 c -29.26621,-16.90209 -53.9648,-31.12656 -54.88572,-31.60994 l -1.67446,-0.8789 -54.80421,31.62772 -54.80423,31.62771 0,49.18979 0,49.18979 2.6868,2.16452 c 3.53588,2.84859 7.11734,3.95249 12.71649,3.91957 5.21642,-0.0306 7.79255,-0.96762 13.85682,-5.03991 4.11964,-2.76639 4.68109,-3.35736 10.733,-11.29653 6.79363,-8.91227 12.86592,-15.24675 17.38969,-18.14058 3.52973,-2.25794 7.98685,-6.50038 9.35828,-8.9075 0.58504,-1.02688 1.20229,-2.81225 1.37163,-3.96751 0.57315,-3.90972 2.14836,-8.32667 3.89753,-10.92876 2.77877,-4.13382 5.963,-6.25094 17.84219,-11.86283 5.8847,-2.78004 7.00146,-3.54384 7.00146,-4.78868 0,-1.4615 -5.49242,-5.34964 -13.44058,-9.51468 -2.73987,-1.43579 -4.31494,-2.76277 -8.06193,-6.79217 -4.57659,-4.9215 -4.73101,-5.03623 -8.96416,-6.66128 -8.8549,-3.39926 -13.40929,-5.79471 -13.40929,-7.0528 0,-0.3328 1.99353,-1.26577 4.55095,-2.12989 13.55021,-4.57843 13.76484,-8.1939 1.2063,-20.31923 -2.65895,-2.56722 -4.83202,-4.93541 -4.82907,-5.26269 0.0108,-1.15065 2.37492,-1.5941 5.59711,-1.04965 4.86979,0.82281 7.20708,1.76133 16.06837,6.45206 7.17625,3.79875 8.52852,4.36416 9.56872,4.00076 2.68301,-0.93735 1.50043,-4.92382 -3.48625,-11.75219 -3.0836,-4.2224 -3.18166,-5.386 -0.4725,-5.60742 5.20432,-0.42542 19.2032,7.27893 26.17459,14.40528 3.95601,4.04397 6.43454,5.55932 9.10191,5.56482 2.24557,0.005 3.71068,-0.85443 4.73461,-2.7762 1.12703,-2.11516 1.09657,-4.49199 -0.0985,-7.68602 -0.53078,-1.41862 -0.89837,-3.15938 -0.81683,-3.86832 0.13238,-1.15212 0.32679,-1.28399 1.83012,-1.24181 1.75944,0.0493 5.27517,2.14037 7.35206,4.37276 2.19904,2.36372 3.78935,6.41294 5.1845,13.20065 0.68453,3.33042 1.42184,4.14503 3.41998,3.77849 3.60255,-0.66089 5.01167,-2.8256 5.4216,-8.32872 0.33031,-4.43435 0.8729,-4.72901 3.16774,-1.72029 2.49113,3.2661 3.11891,6.27547 2.81605,13.49912 l -0.25963,6.19073 3.27439,0 c 3.04781,0 3.36634,0.0985 4.60342,1.42277 0.73098,0.7825 1.7535,2.5572 2.27229,3.94377 2.85712,7.63629 1.27241,15.42158 -5.73396,28.16977 -1.644,2.99126 -3.2073,6.23177 -3.47404,7.20118 l -0.48498,1.76252 4.43032,3.31537 c 5.88175,4.40154 9.03734,8.71965 9.03734,12.36663 0,1.04266 -0.15675,1.09765 -3.15066,1.10536 -10.89873,0.0282 -19.85558,5.72936 -17.41525,11.08534 0.30573,0.67099 1.55009,2.4928 2.76528,4.04849 3.27983,4.19891 3.81984,5.21163 4.11702,7.72076 0.26558,2.24173 0.2274,2.32812 -2.09563,4.76342 -2.27773,2.38773 -2.45855,2.48026 -4.84582,2.48026 -2.15605,0 -2.90644,-0.27822 -5.74721,-2.131 -5.36025,-3.49603 -5.75169,-3.70356 -6.98506,-3.70356 -0.8596,0 -1.18333,0.24744 -1.18333,0.90473 0,0.49762 3.06562,5.48617 6.81247,11.08569 10.00819,14.95686 13.731,23.28916 13.72068,30.70927 -0.005,4.23879 -1.04984,6.49681 -6.68426,14.4583 -8.54787,12.07814 -9.623,14.7167 -7.23416,17.75363 1.91308,2.43207 4.22931,3.11766 9.45756,2.79928 2.55009,-0.15539 6.75097,-0.70345 9.33533,-1.21817 z m -19.8462,-116.84742 c 0.72281,-0.37376 1.65681,-1.40159 2.07556,-2.28404 2.01882,-4.25438 -2.28604,-8.55922 -6.54039,-6.5404 -2.68767,1.27538 -3.62649,4.06771 -2.25763,6.7148 1.28879,2.49223 4.20993,3.40893 6.72246,2.10964 z"
       id="path5068"
       inkscape:connector-curvature="0" />
  </g>
</svg>
