<?xml version="1.0" encoding="UTF-8" standalone="no"?>
<!-- Created with Inkscape (http://www.inkscape.org/) -->

<svg
   xmlns:dc="http://purl.org/dc/elements/1.1/"
   xmlns:cc="http://creativecommons.org/ns#"
   xmlns:rdf="http://www.w3.org/1999/02/22-rdf-syntax-ns#"
   xmlns:svg="http://www.w3.org/2000/svg"
   xmlns="http://www.w3.org/2000/svg"
   xmlns:sodipodi="http://sodipodi.sourceforge.net/DTD/sodipodi-0.dtd"
   xmlns:inkscape="http://www.inkscape.org/namespaces/inkscape"
   width="400"
   height="321.67026"
   viewBox="0 0 399.99999 321.67025"
   id="svg4566"
   version="1.1"
   inkscape:version="0.91 r13725"
   sodipodi:docname="drc-trace-fill.svg">
  <defs
     id="defs4568" />
  <sodipodi:namedview
     id="base"
     pagecolor="#ffffff"
     bordercolor="#666666"
     borderopacity="1.0"
     inkscape:pageopacity="0.0"
     inkscape:pageshadow="2"
     inkscape:zoom="2.0530711"
     inkscape:cx="199.99902"
     inkscape:cy="160.83529"
     inkscape:document-units="px"
     inkscape:current-layer="layer1"
     showgrid="false"
     inkscape:window-width="1374"
     inkscape:window-height="783"
     inkscape:window-x="55"
     inkscape:window-y="0"
     inkscape:window-maximized="0"
     fit-margin-top="0"
     fit-margin-left="0"
     fit-margin-right="0"
     fit-margin-bottom="0"
     units="px" />
  <metadata
     id="metadata4571">
    <rdf:RDF>
      <cc:Work
         rdf:about="">
        <dc:format>image/svg+xml</dc:format>
        <dc:type
           rdf:resource="http://purl.org/dc/dcmitype/StillImage" />
        <dc:title></dc:title>
      </cc:Work>
    </rdf:RDF>
  </metadata>
  <g
     inkscape:label="Layer 1"
     inkscape:groupmode="layer"
     id="layer1"
     transform="translate(-248.57139,-11.527117)">
    <path
       style="color:#000000;font-style:normal;font-variant:normal;font-weight:normal;font-stretch:normal;font-size:medium;line-height:normal;font-family:sans-serif;text-indent:0;text-align:start;text-decoration:none;text-decoration-line:none;text-decoration-style:solid;text-decoration-color:#000000;letter-spacing:normal;word-spacing:normal;text-transform:none;direction:ltr;block-progression:tb;writing-mode:lr-tb;baseline-shift:baseline;text-anchor:start;white-space:normal;clip-rule:nonzero;display:inline;overflow:visible;visibility:visible;opacity:1;isolation:auto;mix-blend-mode:normal;color-interpolation:sRGB;color-interpolation-filters:linearRGB;solid-color:#000000;solid-opacity:1;fill:#000000;fill-opacity:1;fill-rule:nonzero;stroke:none;stroke-width:1;stroke-linecap:square;stroke-linejoin:miter;stroke-miterlimit:4;stroke-dasharray:2, 1;stroke-dashoffset:2.20000005;stroke-opacity:1;color-rendering:auto;image-rendering:auto;shape-rendering:auto;text-rendering:auto;enable-background:accumulate"
       d="M 199.45703 11.072266 C 196.68479 11.075892 194.38708 12.163866 191 13.667969 C 187.60725 15.174586 183.53245 17.2431 179.09375 19.626953 L 179.04883 19.650391 L 87.613281 72.376953 L 87.570312 72.402344 C 83.232163 75.078243 79.351654 77.598696 76.308594 79.804688 C 73.265624 82.010587 71.143464 83.466762 69.740234 85.894531 C 68.468934 88.094117 68.632809 89.869471 68.542969 92.212891 C 68.458838 94.410899 68.433692 97.019471 68.279297 99.912109 L 68 99.912109 L 9.6328125 99.912109 L 24.029297 126.15234 L 29.945312 136.76758 L 24.029297 147.38477 L 9.6269531 173.63672 L 46.714844 173.63672 L 47.162109 173.63672 L 47.162109 205.78711 L 68.152344 205.78711 L 68.144531 213.86719 L 68.144531 213.91992 C 68.293751 218.71489 68.231288 223.13914 68.298828 226.76172 C 68.332628 228.57292 68.395581 230.18031 68.556641 231.60742 C 68.717761 233.03453 68.860302 234.25238 69.669922 235.65625 C 70.709742 237.45921 72.121831 238.58129 74.050781 240.10547 C 75.979731 241.62966 78.403616 243.32774 81.197266 245.16602 C 86.784566 248.84267 93.834699 253.06631 100.9707 257.19531 C 115.2428 265.4532 130.00645 273.41217 133.25391 275.28906 C 136.50136 277.16595 150.76681 285.98453 165.04688 294.22852 C 172.187 298.35056 179.36684 302.3516 185.3418 305.35742 C 188.32923 306.86038 191.01134 308.11299 193.29492 309.02344 C 195.57858 309.93398 197.2527 310.59766 199.33398 310.59766 C 199.55887 310.59766 199.77925 310.58902 199.99609 310.57422 C 200.21284 310.58882 200.43136 310.59766 200.65625 310.59766 C 202.73753 310.59766 204.4136 309.93398 206.69727 309.02344 C 208.98094 308.11299 211.66286 306.86038 214.65039 305.35742 C 220.62534 302.3516 227.80528 298.35056 234.94531 294.22852 C 249.22546 285.98453 263.49082 277.16595 266.73828 275.28906 C 269.98573 273.41217 284.74742 265.4532 299.01953 257.19531 C 306.15553 253.06631 313.20762 248.84267 318.79492 245.16602 C 321.58857 243.32774 324.01246 241.62966 325.94141 240.10547 C 327.87036 238.58129 329.28049 237.45921 330.32031 235.65625 C 331.12993 234.25238 331.27453 233.03453 331.43555 231.60742 C 331.59667 230.18031 331.65978 228.57292 331.69336 226.76172 C 331.72131 225.2462 331.72408 223.52213 331.73242 221.75781 L 390.36523 221.75781 L 375.96875 195.51758 L 370.05273 184.90234 L 375.96875 174.28516 L 390.37109 148.0332 L 353.2832 148.0332 L 352.83789 148.0332 L 352.83789 115.88281 L 331.75781 115.88281 L 331.74414 100.55859 L 331.73438 100.45898 C 331.54872 97.330932 331.54119 94.554445 331.45117 92.210938 C 331.36147 89.867525 331.52281 88.094117 330.25195 85.894531 C 328.84872 83.466761 326.72852 82.010585 323.68555 79.804688 C 320.64249 77.598698 316.76 75.078243 312.42188 72.402344 L 312.38086 72.376953 L 220.94531 19.650391 L 220.90039 19.625 C 216.46169 17.241147 212.38688 15.174586 208.99414 13.667969 C 205.60139 12.161352 203.29994 11.072266 200.52148 11.072266 L 200.51367 11.072266 C 200.33736 11.072266 200.16315 11.082228 199.99023 11.085938 C 199.81859 11.076904 199.64565 11.072321 199.4707 11.072266 L 199.46875 11.072266 L 199.4668 11.072266 L 199.45703 11.072266 z M 390.36523 221.75781 L 390.37109 221.76953 L 390.37109 221.75781 L 390.36523 221.75781 z M 9.6328125 99.912109 L 9.6269531 99.900391 L 9.6269531 99.912109 L 9.6328125 99.912109 z M 199.54297 17.931641 C 199.69064 17.931641 199.84055 17.945757 199.99609 17.966797 C 201.24021 17.796803 202.19604 18.286756 203.46094 18.726562 C 204.297 19.019523 205.25337 19.386826 206.25586 19.832031 C 209.37586 21.217511 213.33775 23.220635 217.67773 25.550781 L 308.90234 78.15625 C 313.14945 80.77643 316.92212 83.230696 319.72656 85.263672 C 322.45718 87.243126 324.27986 89.163942 324.3418 89.201172 C 324.2832 89.287172 324.64104 90.650633 324.71094 92.470703 C 324.79144 94.571113 324.80879 97.42641 324.99609 100.6875 L 325.00977 115.88281 L 74.982422 115.88281 L 74.996094 100.6875 C 75.183384 97.42642 75.20064 94.571113 75.28125 92.470703 C 75.35075 90.650633 75.708861 89.287542 75.650391 89.201172 C 75.712591 89.163672 77.535015 87.245078 80.265625 85.265625 C 83.070075 83.232648 86.844687 80.77643 91.091797 78.15625 L 182.31641 25.550781 C 186.65638 23.220634 190.61632 21.217512 193.73633 19.832031 C 194.73882 19.386826 195.69713 19.019523 196.5332 18.726562 C 197.63999 18.341742 198.50946 17.917734 199.54297 17.931641 z M 194.38477 33.667969 L 193.74609 33.677734 C 190.34758 33.727144 187.18139 35.777612 185.82812 39.044922 C 184.60413 41.999967 185.20046 45.256879 187.06445 47.664062 C 185.71758 48.208264 184.45162 48.958538 183.4043 50.005859 C 181.35403 52.05622 180.20312 54.838864 180.20312 57.738281 L 180.20312 58.365234 L 183.24023 58.365234 L 188.94336 58.365234 C 189.95783 58.378954 190.80273 57.548227 190.80273 56.533203 C 190.80273 55.518178 189.95829 54.684855 188.94336 54.699219 L 184.71875 54.699219 C 185.07136 53.955014 185.40471 53.192942 185.99805 52.599609 C 186.75973 51.837929 187.69734 51.325541 188.69141 50.966797 L 188.69141 52.457031 C 188.67771 53.471598 189.51037 54.316406 190.52539 54.316406 C 191.54042 54.316406 192.37178 53.472056 192.35742 52.457031 L 192.35742 48.429688 C 192.35742 47.961608 192.17951 47.503526 191.84766 47.154297 C 191.70384 46.983479 191.53527 46.834981 191.33984 46.726562 L 191.34766 46.734375 C 189.14661 45.463719 188.24414 42.799251 189.2168 40.451172 C 189.66649 39.365606 190.50749 38.633746 191.46094 38.099609 C 191.38504 38.565858 191.36148 39.045453 191.42578 39.533203 C 191.75277 42.016326 193.89036 43.891663 196.39453 43.892578 C 196.42743 43.89267 196.45598 43.892578 196.48438 43.892578 L 196.58203 43.892578 L 200.2793 43.892578 C 201.29378 43.906298 202.13867 43.075571 202.13867 42.060547 C 202.13867 41.045431 201.29423 40.212198 200.2793 40.226562 L 196.58203 40.226562 L 196.49414 40.226562 L 196.39648 40.226562 C 195.69967 40.226562 195.1515 39.747414 195.06055 39.056641 C 194.96905 38.365502 195.37395 37.758458 196.04688 37.578125 L 196.03711 37.578125 C 196.28716 37.514995 196.51869 37.39516 196.7207 37.236328 C 197.17652 36.910338 197.46361 36.396242 197.49023 35.835938 C 197.53143 34.968675 196.94983 34.185835 196.10938 33.972656 C 195.53636 33.819771 194.96065 33.791848 194.38672 33.757812 L 194.38672 33.669922 L 194.38477 33.667969 z M 206.30859 41.085938 L 206.31445 41.09375 L 206.27539 41.09375 C 206.0721 41.08369 205.89441 41.149057 205.71289 41.203125 L 205.71289 41.263672 C 205.66899 41.254572 205.62873 41.255859 205.59766 41.255859 C 205.58866 41.255951 205.58958 41.263672 205.58398 41.263672 L 205.57227 41.263672 L 205.59375 41.255859 C 205.58365 41.255585 205.55469 41.255859 205.55469 41.255859 C 205.5546 41.255859 205.53284 41.263672 205.52734 41.263672 L 205.41211 41.263672 L 205.28711 41.341797 L 205.26367 41.355469 C 205.24458 41.367009 205.22199 41.381433 205.20117 41.394531 C 205.22374 41.377226 205.26846 41.35383 205.30273 41.335938 C 205.31463 41.326838 205.33984 41.313533 205.33984 41.314453 C 205.33966 41.314544 205.38618 41.306198 205.42188 41.298828 C 205.36327 41.317128 205.3203 41.330448 205.30273 41.335938 L 205.51758 41.279297 C 205.53261 41.279297 205.54547 41.274753 205.55664 41.271484 C 205.36321 41.294264 205.17554 41.414309 205.14648 41.443359 C 205.13088 41.458909 205.13812 41.443419 205.19922 41.396484 C 205.18281 41.406845 205.16736 41.415891 205.15039 41.427734 L 205.11914 41.449219 L 205.10938 41.458984 L 205.09961 41.458984 L 205.0918 41.458984 C 205.0918 41.458984 205.07992 41.472779 205.07812 41.474609 C 205.06912 41.483709 205.05009 41.508873 205.02539 41.539062 C 204.98509 41.561932 204.9375 41.589844 204.9375 41.589844 L 204.91602 41.609375 L 204.9043 41.619141 L 196.84766 49.677734 C 196.45259 50.072893 196.26311 50.589604 196.29102 51.064453 C 196.31942 51.539303 196.53594 51.959767 196.84766 52.271484 C 197.15946 52.583292 197.57788 52.798175 198.05273 52.826172 C 198.52758 52.854532 199.04625 52.666642 199.44141 52.271484 L 206.32422 45.386719 C 207.70778 46.794615 208.21421 48.87994 207.42188 50.792969 C 206.47904 53.069135 204.07642 54.307642 201.69531 53.783203 C 201.46191 53.684663 201.21511 53.621249 200.96094 53.625 C 200.12643 53.63872 199.4023 54.222788 199.20898 55.035156 C 199.17608 55.160227 199.15684 55.285937 199.15234 55.40625 L 199.15234 55.421875 L 199.15234 55.4375 C 199.15234 55.49971 199.15162 55.594471 199.16992 55.716797 L 199.1582 55.625 L 199.1582 64.8125 C 195.5735 64.612679 192.03673 66.035958 189.67969 68.857422 C 186.81815 72.283107 186.19691 77.065929 188.08789 81.109375 C 189.97805 85.151083 194.0442 87.740083 198.50586 87.742188 C 199.51951 87.754998 200.36328 86.922587 200.36328 85.908203 C 200.36328 84.896747 199.52375 84.067847 198.51367 84.076172 L 198.50195 84.076172 C 195.45742 84.076172 192.70207 82.315159 191.41211 79.556641 C 190.1205 76.794739 190.54143 73.546968 192.49609 71.207031 C 194.44874 68.869474 197.5647 67.877398 200.50977 68.652344 C 201.63313 68.966532 202.7833 68.130191 202.83398 66.964844 L 202.83398 66.953125 L 202.83398 66.9375 C 202.83398 66.88352 202.82286 66.791447 202.81836 66.705078 C 202.81836 66.766378 202.83203 66.725036 202.83203 66.587891 L 202.83203 57.484375 C 206.25168 57.456925 209.45749 55.480921 210.81836 52.195312 C 212.48353 48.175196 210.90178 43.513108 207.13477 41.335938 C 206.92681 41.21407 206.63512 41.09527 206.32422 41.085938 L 206.30859 41.085938 z M 185.06641 59.453125 L 185.06445 59.455078 L 184.89648 59.455078 L 184.88477 59.455078 C 184.42694 59.470628 184.05148 59.671423 183.76172 59.914062 C 175.72688 66.458016 173.92673 76.772438 178.47266 86.054688 C 181.4557 92.145928 186.94021 96.358404 193.20117 97.902344 C 195.49664 99.170534 196.91797 101.56053 196.91797 104.16992 C 196.90897 105.18046 197.74004 106.02148 198.75195 106.02148 C 199.76615 106.02148 200.59697 105.17595 200.58398 104.16211 C 200.58398 102.08311 199.87818 100.15218 198.80469 98.455078 C 200.38633 98.435878 201.97952 98.356921 203.57031 97.988281 C 213.6749 95.646881 221.85742 86.657361 221.85742 76.234375 C 221.85742 76.203265 221.84755 76.130396 221.84375 76.074219 C 221.84375 76.005599 221.85742 75.908203 221.85742 75.908203 L 221.85742 72.226562 C 221.88852 71.619872 222.20938 71.080707 222.7168 70.78125 C 223.25268 70.46505 223.89549 70.46505 224.43164 70.78125 C 224.96779 71.097633 225.29688 71.678612 225.29688 72.322266 C 225.29688 73.327043 226.1086 74.179687 227.11914 74.179688 C 228.12904 74.179688 228.94381 73.329756 228.9375 72.320312 C 228.93695 70.37398 227.91809 68.566501 226.25977 67.587891 C 224.60091 66.608914 222.54363 66.608914 220.88477 67.587891 C 219.38081 68.475465 218.41395 70.048127 218.24414 71.783203 C 218.21304 71.922272 218.18765 72.064365 218.18945 72.210938 L 218.18945 75.904297 C 218.18945 75.935407 218.19917 76.008276 218.20117 76.064453 C 218.20117 76.133993 218.18945 76.230469 218.18945 76.230469 C 218.18945 84.879404 211.22342 92.446839 202.74219 94.412109 C 199.92585 95.064819 197.0877 95.040917 194.41016 94.435547 C 194.34771 94.418126 194.28388 94.404917 194.21875 94.394531 C 188.92423 93.137601 184.28817 89.592198 181.76562 84.441406 C 177.92163 76.592304 179.32486 68.257005 186.07422 62.757812 C 186.72858 62.241883 186.94595 61.42121 186.75977 60.728516 C 186.57486 60.040213 185.90979 59.439858 185.06641 59.453125 z M 222.03906 61.296875 L 222.02734 61.369141 C 220.52593 61.455141 219.03376 61.837125 217.68945 62.628906 C 214.79726 64.332599 212.98264 67.424471 212.83789 70.798828 C 212.81689 70.913378 212.80093 71.029953 212.80273 71.148438 C 212.82103 72.927796 211.89276 74.546437 210.35742 75.419922 C 208.82235 76.293224 206.92086 76.278092 205.35742 75.367188 C 203.74595 74.428652 202.8315 73.133518 202.81055 71.359375 L 202.81055 71.351562 C 202.80155 70.333702 201.96711 69.493747 200.94531 69.498047 C 199.93861 69.498047 199.12147 70.346845 199.14453 71.349609 C 199.17933 74.434025 200.89418 76.989531 203.54492 78.533203 C 206.23326 80.098742 209.53788 80.134696 212.20508 78.617188 C 214.87101 77.100598 216.49812 74.255252 216.46875 71.169922 L 216.46875 71.160156 L 216.46875 71.125 C 216.50535 68.927244 217.66396 66.916766 219.52539 65.820312 C 220.40848 65.300083 221.90793 64.986328 223.4043 64.986328 C 224.90067 64.986328 226.40207 65.300083 227.28516 65.820312 C 229.16031 66.924818 230.32149 68.955546 230.3418 71.171875 C 230.3328 71.242325 230.32527 71.313433 230.32617 71.386719 L 230.32617 72.330078 C 230.32617 73.334398 231.14318 74.179688 232.1582 74.179688 C 233.17323 74.179688 234.00656 73.337199 233.99219 72.322266 L 233.99219 71.378906 C 233.99219 71.351137 233.98483 71.283798 233.97852 71.21875 L 233.98438 71.253906 C 233.98447 71.244806 233.98447 71.240662 233.98438 71.232422 C 233.98438 71.222098 233.98118 71.212037 233.97852 71.201172 C 233.97782 71.193894 233.97724 71.190932 233.97656 71.183594 L 233.97656 71.167969 C 233.95276 67.651981 232.10913 64.397531 229.11328 62.632812 C 228.26652 62.134084 227.0723 61.835279 225.85352 61.621094 C 224.63474 61.407 223.4152 61.300781 222.57227 61.300781 L 222.04102 61.300781 L 222.03906 61.296875 z M 144.27344 69.027344 L 143.35156 69.925781 L 143.35156 75.242188 L 146.60547 79.708984 L 146.60547 84.589844 L 144.92969 84.589844 L 144.92969 81.337891 L 143.35156 81.337891 L 143.35156 85.246094 L 144.27344 86.144531 L 147.26172 86.144531 L 148.16016 85.246094 L 148.16016 79.345703 L 144.92969 74.927734 L 144.92969 70.605469 L 146.60547 70.605469 L 146.60547 73.833984 L 148.16016 73.833984 L 148.16016 69.925781 L 147.26172 69.027344 L 144.27344 69.027344 z M 137.80273 69.076172 L 137.80273 86.144531 L 139.35742 86.144531 L 141.90625 86.144531 L 141.90625 84.589844 L 139.35742 84.589844 L 139.35742 78.326172 L 141.42188 78.326172 L 141.42188 76.771484 L 139.35742 76.771484 L 139.35742 70.628906 L 141.90625 70.628906 L 141.90625 69.076172 L 139.01758 69.076172 L 137.80273 69.076172 z M 149.32812 69.076172 L 149.32812 70.628906 L 150.97852 70.628906 L 150.97852 86.144531 L 152.53125 86.144531 L 152.53125 70.628906 L 154.18359 70.628906 L 154.18359 69.076172 L 149.32812 69.076172 z M 249.8457 69.076172 L 248.92383 69.974609 L 248.92383 73.859375 L 250.47852 73.859375 L 250.47852 70.628906 L 252.1543 70.628906 L 252.1543 72.886719 L 248.90039 80.972656 L 248.90039 86.144531 L 249.8457 86.144531 L 252.80859 86.144531 L 253.73242 86.144531 L 253.73242 81.75 L 252.12891 81.75 L 252.12891 84.566406 L 250.47852 84.566406 L 250.47852 81.263672 L 253.73242 73.203125 L 253.73242 69.974609 L 252.80859 69.076172 L 249.8457 69.076172 z M 256.08203 69.076172 L 255.16016 69.974609 L 255.16016 85.246094 L 256.08203 86.144531 L 259.04492 86.144531 L 259.9668 85.246094 L 259.9668 69.974609 L 259.04492 69.076172 L 256.08203 69.076172 z M 262.75586 69.076172 L 261.85742 69.974609 L 261.85742 70.896484 L 262.75586 70.896484 L 262.75586 86.144531 L 264.33398 86.144531 L 264.33398 69.076172 L 262.75586 69.076172 z M 267.44141 69.076172 L 266.49414 70.021484 L 266.49414 73.859375 L 268.04688 73.859375 L 268.04688 70.628906 L 269.77148 70.628906 L 269.77148 76.845703 L 267.92578 76.845703 L 267.92578 78.447266 L 269.77148 78.447266 L 269.77148 84.589844 L 268.04688 84.589844 L 268.04688 81.75 L 266.49414 81.75 L 266.49414 85.197266 L 267.44141 86.144531 L 270.42773 86.144531 L 271.34961 85.246094 L 271.34961 78.398438 L 270.54883 77.623047 L 271.34961 76.820312 L 271.34961 69.974609 L 270.42773 69.076172 L 267.44141 69.076172 z M 256.71289 70.628906 L 258.38867 70.628906 L 258.38867 84.589844 L 256.71289 84.589844 L 256.71289 70.628906 z M 155.58594 84.566406 L 155.58594 86.121094 L 157.21289 86.121094 L 157.21289 84.566406 L 155.58594 84.566406 z M 21.349609 106.85156 L 68 106.85156 L 68.244141 106.85156 L 68.236328 115.88281 L 47.162109 115.88281 L 47.162109 118.94922 L 47.162109 166.69727 L 46.714844 166.69727 L 21.349609 166.69727 L 37.765625 136.77344 L 21.349609 106.85156 z M 53.292969 122.01367 L 346.70703 122.01367 L 346.70703 199.65625 L 53.292969 199.65625 L 53.292969 122.01367 z M 74.191406 147.18359 L 74.191406 174.48438 L 84.703125 174.48438 C 93.191405 174.48438 97.435547 169.93844 97.435547 160.84375 C 97.435547 151.73698 93.191405 147.18359 84.703125 147.18359 L 74.191406 147.18359 z M 150.60547 147.18359 L 150.60547 174.48438 L 156.04297 174.48438 L 156.04297 147.18359 L 150.60547 147.18359 z M 160.22461 147.18359 L 160.22461 174.48438 L 170.73828 174.48438 C 179.22664 174.48438 183.4707 169.93844 183.4707 160.84375 C 183.4707 151.73698 179.22664 147.18359 170.73828 147.18359 L 160.22461 147.18359 z M 108.5957 147.19922 L 108.5957 147.20117 L 97.679688 174.48438 L 103.50195 174.48438 L 105.13867 170.29883 L 117.50781 170.29883 L 119.14453 174.48438 L 124.94531 174.46484 L 114.05078 147.19922 L 108.5957 147.19922 z M 120.26953 147.20117 L 131.20117 174.48438 L 136.6582 174.48438 L 147.55273 147.20117 L 141.73242 147.20117 L 133.83789 167.19141 L 126.08984 147.20117 L 120.26953 147.20117 z M 198.4375 147.20117 L 198.4375 174.48438 L 203.89258 174.48438 L 203.89258 163.20898 L 208.87695 163.20898 L 215.40625 174.48438 L 221.66406 174.48438 L 214.86133 162.58984 C 218.20814 161.51068 219.88086 158.99966 219.88086 155.05859 C 219.88086 149.82006 216.70025 147.20117 210.33398 147.20117 L 198.4375 147.20117 z M 234.88477 147.20117 C 231.00445 147.20117 227.75953 148.50619 225.15234 151.11328 C 222.54524 153.72047 221.24219 156.96334 221.24219 160.84375 C 221.24219 164.71199 222.54524 167.95495 225.15234 170.57422 C 227.75953 173.18131 231.00445 174.48438 234.88477 174.48438 C 238.76517 174.48438 242.01 173.18131 244.61719 170.57422 C 247.22428 167.96712 248.52539 164.72416 248.52539 160.84375 C 248.52539 156.96334 247.22428 153.72047 244.61719 151.11328 C 242.01 148.50619 238.76517 147.20117 234.88477 147.20117 z M 264.86133 147.20117 C 260.98093 147.20117 257.736 148.50619 255.12891 151.11328 C 252.52181 153.72047 251.21875 156.96334 251.21875 160.84375 C 251.21875 164.71199 252.52181 167.95495 255.12891 170.57422 C 257.736 173.18131 260.98093 174.48438 264.86133 174.48438 C 268.74174 174.48438 271.98471 173.18131 274.5918 170.57422 C 277.19899 167.96712 278.50195 164.72416 278.50195 160.84375 C 278.50195 156.96334 277.19899 153.72047 274.5918 151.11328 C 271.98471 148.50619 268.74174 147.20117 264.86133 147.20117 z M 290.16602 147.20117 C 287.98336 147.20117 285.85485 147.93507 283.78125 149.40234 C 281.71982 150.85754 280.68945 152.79195 280.68945 155.20508 C 280.68945 157.87284 281.59704 159.75242 283.41602 160.84375 C 285.2349 161.93508 287.23717 162.6012 289.41992 162.84375 C 291.84522 163.0863 293.35506 163.72315 293.94922 164.75391 C 294.55554 165.78458 294.55554 166.81494 293.94922 167.8457 C 293.35506 168.87637 291.84522 169.39258 289.41992 169.39258 C 286.50962 169.15013 284.44889 168.3008 283.23633 166.8457 L 279.59766 170.48438 C 280.81031 171.69702 282.26523 172.66697 283.96289 173.39453 C 285.66063 174.12208 287.77619 174.48438 290.31055 174.48438 C 292.97831 174.48438 295.31368 173.69752 297.31445 172.12109 C 299.32739 170.54467 300.33398 168.66508 300.33398 166.48242 C 300.33398 163.69334 299.39312 161.66189 297.51367 160.38867 C 295.63403 159.11536 293.54226 158.35778 291.23828 158.11523 C 289.05553 157.75145 287.66101 157.2042 287.05469 156.47656 C 286.44836 155.749 286.44836 154.87256 287.05469 153.8418 C 287.66101 152.81104 289.05553 152.29492 291.23828 152.29492 C 293.42103 152.29492 295.11938 153.02333 296.33203 154.47852 L 299.96875 150.83984 C 298.7561 149.62719 297.45509 148.71756 296.06055 148.11133 C 294.66601 147.505 292.70038 147.20117 290.16602 147.20117 z M 302.16211 147.20117 L 302.16211 152.29492 L 311.25586 152.29492 L 311.25586 174.48438 L 316.71289 174.48438 L 316.71289 152.29492 L 325.80664 152.29492 L 325.80664 147.20117 L 302.16211 147.20117 z M 234.86719 152.29492 C 237.30456 152.29492 239.27915 153.113 240.79492 154.75 C 242.31068 156.38708 243.07031 158.41854 243.07031 160.84375 C 243.07031 163.26896 242.31068 165.30051 240.79492 166.9375 C 239.27915 168.5745 237.31538 169.39258 234.90234 169.39258 C 232.46496 169.39258 230.48843 168.5745 228.97266 166.9375 C 227.45689 165.30051 226.69922 163.26896 226.69922 160.84375 C 226.69922 158.41854 227.45689 156.38708 228.97266 154.75 C 230.48843 153.113 232.45406 152.29492 234.86719 152.29492 z M 264.84375 152.29492 C 267.28113 152.29492 269.25563 153.113 270.77148 154.75 C 272.28725 156.38708 273.04492 158.41854 273.04492 160.84375 C 273.04492 163.26896 272.28725 165.30051 270.77148 166.9375 C 269.25563 168.5745 267.29195 169.39258 264.87891 169.39258 C 262.44144 169.39258 260.46498 168.5745 258.94922 166.9375 C 257.43345 165.30051 256.67383 163.26896 256.67383 160.84375 C 256.67383 158.41854 257.43345 156.38708 258.94922 154.75 C 260.46498 153.113 262.43062 152.29492 264.84375 152.29492 z M 203.89258 152.3125 L 211.58789 152.3125 C 213.74658 152.3857 214.85563 153.3205 214.91602 155.11523 C 214.85562 157.07941 213.72607 158.0806 211.53125 158.11719 L 203.89258 158.11719 L 203.89258 152.3125 z M 79.646484 152.6582 L 84.703125 152.6582 C 89.541465 152.6582 91.968399 155.38701 91.980469 160.84375 C 91.968569 166.30049 89.541375 169.0347 84.703125 169.04688 L 79.646484 169.04688 L 79.646484 152.6582 z M 165.68164 152.6582 L 170.73828 152.6582 C 175.57662 152.6582 178.00159 155.38701 178.01367 160.84375 C 178.00177 166.30049 175.57662 169.0347 170.73828 169.04688 L 165.68164 169.04688 L 165.68164 152.6582 z M 111.46875 154.47852 L 115.50781 164.8457 L 107.32031 164.8457 L 111.46875 154.47852 z M 352.83789 154.97266 L 353.2832 154.97266 L 378.64844 154.97266 L 362.23242 184.89648 L 378.64844 214.81836 L 331.82812 214.81836 C 331.83585 214.51549 331.83837 214.22593 331.84766 213.91992 L 331.84766 213.86719 L 331.83984 205.78711 L 352.83789 205.78711 L 352.83789 154.97266 z M 74.894531 205.78711 L 325.0918 205.78711 L 325.09961 213.81055 L 325.09961 213.82031 C 324.94956 218.75051 325.00859 223.22732 324.94531 226.63672 C 324.91331 228.35578 324.84593 229.81128 324.72852 230.85156 C 324.63452 231.68442 324.43833 232.25932 324.4375 232.32812 C 324.3579 232.40402 323.34226 233.56099 321.75586 234.81445 C 320.07916 236.13936 317.77742 237.75961 315.08203 239.5332 C 309.69135 243.08057 302.71511 247.26292 295.63867 251.35742 C 291.64434 253.66856 287.70422 255.90003 283.91602 258.02539 L 272.82422 258.02539 L 272.82422 252.49023 L 282.32422 252.49023 L 276.35547 244.81836 L 280.61719 244.81836 L 274.94922 237.53711 L 277.81641 237.53711 L 270.50586 228.06641 L 263.19336 237.53711 L 266.0625 237.53711 L 260.39258 244.81836 L 264.65625 244.81836 L 258.6875 252.49023 L 268.1875 252.49023 L 268.1875 258.02539 L 131.81055 258.02539 L 131.81055 252.49023 L 141.3125 252.49023 L 135.3418 244.81836 L 139.60547 244.81836 L 133.9375 237.53711 L 136.80469 237.53711 L 129.49414 228.06641 L 122.18164 237.53711 L 125.04883 237.53711 L 119.38086 244.81836 L 123.64453 244.81836 L 117.67578 252.49023 L 127.17383 252.49023 L 127.17383 258.02539 L 116.07031 258.02539 C 112.28203 255.9 108.34209 253.66861 104.34766 251.35742 C 97.271288 247.26292 90.293024 243.08057 84.902344 239.5332 C 82.207044 237.75961 79.905306 236.13936 78.228516 234.81445 C 76.642206 233.56099 75.628618 232.40381 75.548828 232.32812 C 75.548828 232.25952 75.351682 231.68442 75.257812 230.85156 C 75.140332 229.81128 75.072946 228.35578 75.041016 226.63672 C 74.977916 223.22732 75.032799 218.75051 74.886719 213.82031 L 74.886719 213.81055 L 74.894531 205.78711 z M 163.23633 218.43164 C 161.27197 218.43164 158.92839 219.80882 157.30859 222.63477 L 151.72461 232.25 C 149.62238 231.14715 148.51953 229.14924 148.51953 227.15039 C 148.51953 225.49619 149.27722 223.84102 150.82812 222.63477 L 149.6582 220.5332 C 147.10792 222.35977 145.9707 224.80626 145.9707 227.21875 C 145.9707 230.0791 147.58944 232.83711 150.48438 234.35352 L 149.41602 236.21289 C 146.90024 240.55525 148.38121 245.38086 153.44727 245.38086 C 158.78901 245.38086 162.23539 242.21003 165.19922 238.76367 C 165.19278 238.74651 165.1791 238.73004 165.17188 238.71289 C 165.1942 238.72816 165.21399 238.74878 165.23633 238.76367 C 166.95952 236.76482 168.30362 234.97243 171.16406 231.07812 L 171.64648 231.66406 C 172.09453 232.24998 172.26707 232.97355 171.85352 233.69727 L 168.0625 240.28125 C 166.5461 242.93491 167.61484 245.38086 170.50977 245.38086 C 172.64159 245.38086 175.0037 243.73079 177.26562 241.52734 C 177.43564 243.76152 179.24211 245.38086 182.11719 245.38086 C 184.70635 245.38086 187.27792 244.09092 189.57227 242.26758 C 189.4067 244.03981 190.5452 245.38086 192.6875 245.38086 C 194.13492 245.38086 195.92721 244.45004 197.65039 243.03711 C 197.82276 244.41564 198.92538 245.38086 200.75195 245.38086 C 202.55504 245.38086 204.52409 244.20097 206.45703 242.50586 C 206.41213 244.15791 207.53926 245.38086 209.58398 245.38086 C 211.40429 245.38086 213.39306 244.18029 215.34375 242.45898 C 215.27607 244.13466 216.40482 245.38086 218.46875 245.38086 C 220.50858 245.38086 222.7595 243.8666 224.93164 241.80664 C 224.09244 246.26741 229.06942 246.42211 231.5918 242.62305 L 233.45312 239.83203 C 234.14038 241.20655 236.01778 241.83865 238.11133 240.83594 C 237.92779 243.42072 239.8022 245.38086 242.9668 245.38086 C 247.0334 245.38086 251.06547 242.21003 254.0293 238.76367 C 253.78803 238.28123 253.168 237.73022 252.68555 237.52344 L 252.44336 237.79883 C 249.85868 240.79715 246.55094 243.17578 244.03516 243.17578 C 241.82953 243.17578 240.51963 241.79727 242.17383 238.90234 L 242.51758 238.28125 C 244.82659 239.24622 249.16926 238.79899 251.85742 234.14648 L 252.375 233.25 C 254.30487 229.94161 252.44271 227.46094 249.51367 227.46094 C 246.61874 227.46094 244.31133 228.97652 242.79492 231.5957 L 239.32422 237.54688 L 239.10547 237.79883 C 237.17551 239.90107 233.79789 240.35005 235.69336 236.49023 L 241.51758 227.80469 L 238.27734 227.80469 L 230.24805 239.86719 C 228.07691 243.14118 227.83632 243.20994 229.21484 239.76367 L 234.00391 227.80469 L 230.38672 227.80469 L 226.47852 237.5332 C 226.4734 237.53095 226.46798 237.52562 226.46289 237.52344 L 226.22266 237.79883 C 223.63798 240.79715 221.12241 243.17578 219.53711 243.17578 C 218.74442 243.17578 218.29595 242.62396 219.12305 241.21094 L 226.80859 227.80469 L 223.22461 227.80469 L 217.60547 237.53906 C 217.59668 237.53511 217.58684 237.52717 217.57812 237.52344 L 217.33789 237.79883 C 214.75321 240.79715 212.23764 243.17578 210.65234 243.17578 C 209.85974 243.17578 209.41119 242.62396 210.23828 241.21094 L 217.92383 227.80469 L 220.85352 227.80469 L 221.88672 226.08203 L 218.92188 226.08203 L 222.30078 220.22266 L 218.7168 220.22266 L 215.33789 226.08203 L 212.09961 226.08203 L 211.06445 227.80469 L 214.33984 227.80469 L 208.69141 237.58594 L 208.50586 237.79883 C 205.92118 240.79715 203.40562 243.17578 201.82031 243.17578 C 201.02762 243.17578 200.58101 242.62396 201.4082 241.21094 L 207.19727 231.07812 L 205.16406 231.07812 C 205.30194 229.56172 203.75161 227.46094 201.4082 227.46094 C 199.47824 227.46094 196.78975 228.97652 195.27344 231.5957 L 191.83789 237.52539 L 191.83594 237.52344 L 191.5957 237.79883 C 189.01102 240.79715 185.70133 243.17578 183.18555 243.17578 C 180.97992 243.17578 179.66993 241.79727 181.32422 238.90234 L 181.66992 238.28125 C 183.97902 239.24622 188.32161 238.79899 191.00977 234.14648 L 191.52539 233.25 C 193.45535 229.94161 191.59506 227.46094 188.66602 227.46094 C 185.77118 227.46094 183.46162 228.97652 181.94531 231.5957 L 178.46289 237.57422 L 178.26367 237.79883 C 175.67899 240.79715 173.16343 243.17578 171.57812 243.17578 C 170.78542 243.17578 170.33696 242.62396 171.16406 241.21094 L 174.74805 234.93945 C 175.9887 232.76832 175.40417 231.4931 174.23242 230.08008 L 172.23242 227.66602 C 171.71539 227.0113 171.71565 226.28883 172.43945 225.59961 L 170.57812 223.56641 C 168.54487 225.39297 168.3733 227.42589 169.64844 229.08008 L 169.95898 229.49414 C 168.37367 231.73426 166.23599 234.76639 163.89258 237.52344 C 163.89838 237.53182 163.90616 237.54045 163.91211 237.54883 C 163.89349 237.5429 163.87385 237.52834 163.85547 237.52344 L 163.61523 237.79883 C 161.03045 240.79715 157.86021 243.17578 154.31055 243.17578 C 151.86366 243.17578 150.38085 240.72931 152.51758 237.07617 L 153.51758 235.31836 C 154.17239 235.42175 154.82707 235.49023 155.55078 235.49023 C 159.3762 235.49023 163.71897 233.52593 166.54492 228.59766 C 167.5443 226.84007 167.99219 225.18646 167.99219 223.77344 C 167.99219 220.53394 165.89 218.43164 163.23633 218.43164 z M 163.23633 221.5332 C 164.58036 221.5332 165.19922 222.42874 165.19922 223.73828 C 165.19922 227.08125 161.13378 233.11133 155.55078 233.11133 L 154.82617 233.11133 L 159.99609 224.15234 C 161.06446 222.32577 162.23695 221.5332 163.23633 221.5332 z M 227.25586 221.80859 C 226.0842 221.80859 225.1875 222.73841 225.1875 223.91016 C 225.1875 225.08191 226.0842 225.97852 227.25586 225.97852 C 228.42761 225.97852 229.35937 225.08191 229.35938 223.91016 C 229.35938 222.73841 228.42761 221.80859 227.25586 221.80859 z M 188.01953 230.12305 C 189.16888 230.05421 189.79957 231.15641 188.59766 233.25 L 188.08008 234.14648 C 186.3569 237.07581 184.04718 237.00598 182.70312 236.52344 L 185.01172 232.49219 C 185.91636 230.93917 187.12559 230.17659 188.01953 230.12305 z M 248.86719 230.12305 C 250.01653 230.05421 250.64722 231.15641 249.44531 233.25 L 248.92773 234.14648 C 247.20464 237.07581 244.89677 237.00598 243.55273 236.52344 L 245.86133 232.49219 C 246.766 230.93917 247.97325 230.17659 248.86719 230.12305 z M 201.33594 230.36523 C 202.54927 230.35758 203.32653 231.42779 202.33789 233.25 L 199.54688 238.14453 C 197.37574 241.5564 195.23777 243.17578 193.75586 243.17578 C 192.96325 243.17578 192.51665 242.62396 193.34375 241.21094 L 198.33984 232.49219 C 199.18416 231.02964 200.39224 230.37119 201.33594 230.36523 z M 127.0957 264.1582 L 272.88867 264.1582 C 268.50532 266.57835 264.89182 268.56546 263.35938 269.45117 C 259.63313 271.60473 245.72912 280.21358 231.56836 288.38867 C 224.48799 292.47622 217.38002 296.43197 211.61523 299.33203 C 208.73292 300.7821 206.18043 301.96827 204.19531 302.75977 C 202.21018 303.55128 200.58278 303.85352 200.65039 303.85352 C 200.67689 303.85352 200.39367 303.79152 199.99219 303.69141 C 199.59072 303.79159 199.30986 303.85352 199.33594 303.85352 C 199.40364 303.85352 197.77615 303.55128 195.79102 302.75977 C 193.8059 301.96827 191.25349 300.7821 188.37109 299.33203 C 182.60638 296.43197 175.49835 292.47622 168.41797 288.38867 C 154.25722 280.21358 140.35319 271.60473 136.62695 269.45117 C 135.09444 268.56543 131.47934 266.5785 127.0957 264.1582 z M 188.84766 276.36719 C 186.01577 276.47269 182.56836 277.84347 182.56836 281.29102 C 182.56836 284.66812 186.70155 285.6543 189.19922 285.6543 L 189.23438 285.6543 C 191.36268 285.6543 193.2454 285.03781 194.2832 284 C 194.84607 283.43714 195.14453 282.76999 195.14453 282.06641 L 193.59766 282.06641 C 193.47451 283.77257 190.43047 284.19336 189.23438 284.19336 L 189.2168 284.19336 C 187.36992 284.15856 184.27344 283.6324 184.27344 281.22266 C 184.27344 278.68976 187.19422 277.91411 188.90039 277.84375 C 190.80006 277.75595 192.41745 278.44282 193.17383 279.16406 C 193.40256 279.3927 193.6835 279.74392 193.68359 280.11328 L 195.16211 280.11328 L 195.16211 276.75391 L 193.70117 276.75391 L 193.70117 277.70508 C 192.46995 276.80808 190.64184 276.29684 188.84766 276.36719 z M 200.14453 276.64844 L 200.14453 278.16016 L 203.40039 278.16016 L 198.91602 283.80664 L 195.92383 283.80664 L 195.92383 285.28516 L 203.33008 285.28516 L 203.33008 283.80664 L 200.84961 283.80664 L 202.09961 282.24219 C 202.09961 282.24219 202.09783 282.22443 202.11523 282.20703 L 202.64258 281.53906 C 202.85365 281.34564 203.11897 281.16994 203.41797 281.06445 C 203.89282 280.92373 204.40198 281.00904 204.96484 281.32617 C 205.35177 281.53715 205.72252 281.78504 206.07422 282.03125 C 206.98887 282.64691 207.92118 283.2793 209.09961 283.2793 C 209.20519 283.2793 209.31052 283.28126 209.41602 283.26367 L 209.87305 283.82422 L 207.375 283.82422 L 207.375 285.30273 L 214.79883 285.30273 L 214.79883 283.82422 L 211.79102 283.82422 L 210.96289 282.76953 C 211.52576 282.47053 211.8768 282.08415 212.07031 281.76758 C 212.43966 281.22228 212.56447 280.55315 212.45898 279.9375 L 210.99805 280.20117 C 211.03375 280.37702 211.10427 281.13443 210.01367 281.5918 L 206.0918 276.64844 L 200.14453 276.64844 z M 205.33398 278.16016 L 208.00781 281.48438 C 207.69125 281.30843 207.32255 281.08026 206.91797 280.79883 C 206.53105 280.53497 206.14285 280.2716 205.70312 280.02539 C 205.21062 279.76152 204.71908 279.586 204.24414 279.5332 L 205.33398 278.16016 z M 216.76172 283.88672 C 216.39227 283.88672 216.07617 284.18534 216.07617 284.55469 C 216.07617 284.92405 216.39227 285.22266 216.76172 285.22266 C 217.13108 285.22266 217.42969 284.92405 217.42969 284.55469 C 217.42969 284.18534 217.13108 283.88672 216.76172 283.88672 z "
       transform="translate(248.57139,11.527117)"
       id="path5007" />
  </g>
</svg>
