<?xml version="1.0" encoding="UTF-8" standalone="no"?>
<!-- Created with Inkscape (http://www.inkscape.org/) -->

<svg
   xmlns:dc="http://purl.org/dc/elements/1.1/"
   xmlns:cc="http://creativecommons.org/ns#"
   xmlns:rdf="http://www.w3.org/1999/02/22-rdf-syntax-ns#"
   xmlns:svg="http://www.w3.org/2000/svg"
   xmlns="http://www.w3.org/2000/svg"
   xmlns:sodipodi="http://sodipodi.sourceforge.net/DTD/sodipodi-0.dtd"
   xmlns:inkscape="http://www.inkscape.org/namespaces/inkscape"
   version="1.1"
   id="svg2"
   width="12.62404"
   height="13.970518"
   viewBox="0 0 12.62404 13.970518"
   sodipodi:docname="favicon-roost.svg"
   inkscape:version="0.92.2 (5c3e80d, 2017-08-06)">
  <metadata
     id="metadata8">
    <rdf:RDF>
      <cc:Work
         rdf:about="">
        <dc:format>image/svg+xml</dc:format>
        <dc:type
           rdf:resource="http://purl.org/dc/dcmitype/StillImage" />
        <dc:title></dc:title>
      </cc:Work>
    </rdf:RDF>
  </metadata>
  <defs
     id="defs6" />
  <sodipodi:namedview
     pagecolor="#ffffff"
     bordercolor="#666666"
     borderopacity="1"
     objecttolerance="10"
     gridtolerance="10"
     guidetolerance="10"
     inkscape:pageopacity="0"
     inkscape:pageshadow="2"
     inkscape:window-width="1920"
     inkscape:window-height="1017"
     id="namedview4"
     showgrid="false"
     inkscape:zoom="19.469007"
     inkscape:cx="-5.3851301"
     inkscape:cy="-1.811278"
     inkscape:window-x="1912"
     inkscape:window-y="263"
     inkscape:window-maximized="1"
     inkscape:current-layer="svg2"
     fit-margin-top="0"
     fit-margin-left="0"
     fit-margin-right="0"
     fit-margin-bottom="0" />
  <path
     inkscape:connector-curvature="0"
     id="path24131-7"
     d="m 3.827013,0.0145603 c -0.819497,0 -1.592077,0.4692091 -1.914213,1.2506853 C 1.657003,1.886543 1.737735,2.572559 2.079451,3.108105 1.322891,3.444641 0.78637419,4.188904 0.76793179,5.059368 0.73801179,5.309326 0.92027799,5.534689 1.170966,5.5577 c 0.01348,6.06e-4 0.02698,6.06e-4 0.04045,0 h 1.446621 c 0.570388,-0.02554 0.570388,-0.869203 0,-0.894733 H 1.731428 C 1.864106,4.300544 2.151453,4.015782 2.518729,3.887963 v 0.09708 c 1.35e-4,0.596135 0.894553,0.596135 0.894413,0 V 3.473767 C 3.458592,3.299875 3.395492,3.11567 3.252961,3.006175 3.225071,2.980805 3.194081,2.959055 3.160741,2.941455 2.704637,2.648604 2.52569,2.082317 2.732305,1.580749 2.809965,1.3946833 2.932124,1.2393584 3.083079,1.1196294 v 0.2426942 c 0.06796,0.6229154 0.613696,1.0937434 1.24017,1.0791814 0.0059,1.18e-4 0.01187,1.18e-4 0.01781,0 h 0.4519 c 0.62455,0.02985 0.62455,-0.922968 0,-0.893116 H 4.341058 c -0.01024,-3.42e-4 -0.02049,-3.42e-4 -0.03073,0 -0.176518,0 -0.316309,-0.097077 -0.334755,-0.2847607 -0.01618,-0.1617965 0.07766,-0.2960873 0.230238,-0.3397725 0.132169,-0.013055 0.25169,-0.0842 0.32618,-0.1941552 0.0075,-0.010478 0.01449,-0.021277 0.02103,-0.032359 C 4.713722,0.4113893 4.522001,0.055489 4.194807,0.032359 4.097727,0.032359 3.999031,0 3.901628,0 H 3.820738 Z M 6.293761,1.698859 c -0.0054,-9.7e-5 -0.01079,-9.7e-5 -0.01619,0 -0.0054,-9.7e-5 -0.01079,-9.7e-5 -0.01619,0 -0.0054,-9.7e-5 -0.01079,-9.7e-5 -0.01618,0 -0.128145,0.01318 -0.244375,0.081 -0.318904,0.186066 L 4.510751,3.300642 C 4.052266,3.721799 4.722834,4.390995 5.14305,3.931648 L 6.327723,2.748917 C 6.601969,3.059566 6.682056,3.499652 6.516538,3.900907 6.31235,4.39115 5.787321,4.679147 5.250483,4.586923 c -0.04791,-0.0194 -0.09882,-0.03035 -0.150471,-0.03235 -0.05384,0.0013 -0.107003,0.01221 -0.15694,0.03235 -0.0054,-9.7e-5 -0.01079,-9.7e-5 -0.01619,0 -0.0054,-9.7e-5 -0.01079,-9.7e-5 -0.01618,0 -0.187563,0.08386 -0.293824,0.284769 -0.257575,0.487006 v 1.494999 h -0.07766 c -0.655112,0 -1.295665,0.266962 -1.748535,0.766912 -0.603981,0.666602 -0.769176,1.626052 -0.424065,2.454451 0.345274,0.831635 1.141312,1.39145 2.04025,1.433515 0.629741,0.0682 0.675445,-0.900075 0.04208,-0.891499 C 3.92975,10.299937 3.44161,9.963415 3.228204,9.450519 3.014794,8.93439 3.116564,8.348685 3.48934,7.936106 3.848688,7.538088 4.394751,7.374672 4.910073,7.505728 c 0.121692,0.05801 0.263062,0.05801 0.384754,0 C 5.481337,7.419508 5.585062,7.21726 5.546254,7.015484 V 5.481656 C 6.319964,5.433116 7.028956,4.967145 7.335075,4.229353 7.699926,3.349181 7.383615,2.329865 6.598418,1.797555 6.511878,1.720275 6.398688,1.679659 6.282756,1.684298 Z M 9.81299,5.724351 c -1.518297,0 -2.759758,1.226416 -2.810081,2.742448 -0.0015,0.02154 -0.0015,0.04318 0,0.06472 v 0 0 c 0,0.245934 -0.134289,0.470829 -0.3443,0.600264 -0.223602,0.129439 -0.501893,0.129439 -0.730832,0 C 5.698994,9.018529 5.558393,8.764506 5.558393,8.500781 c 0.0062,-0.602264 -0.900324,-0.602264 -0.894087,0 0,0.584084 0.317122,1.126098 0.82678,1.410863 0.509983,0.284757 1.136457,0.273436 1.634466,-0.03236 C 7.613044,9.583195 7.905736,9.047652 7.896514,8.47813 7.912704,7.408654 8.76261,6.564077 9.813959,6.564077 c 1.06106,0 1.915991,0.863992 1.915991,1.943174 -0.0034,0.25191 0.201938,0.456868 0.453841,0.453029 v 0 C 12.430371,8.95658 12.624492,8.807247 12.624039,8.560637 12.621239,7.002542 11.363805,5.725965 9.814445,5.724348 Z M 1.495692,5.976753 C 1.363578,5.977591 1.238601,6.036823 1.1543,6.138549 -0.21902931,7.725769 -0.38357251,10.031368 0.75013259,11.796565 1.883842,13.560144 4.049806,14.370743 6.061741,13.778572 8.024494,13.20096 9.390538,11.427669 9.456228,9.392274 c 0.0024,-0.02691 0.0024,-0.05399 0,-0.0809 V 8.460325 c 0,-0.113259 0.06795,-0.239457 0.174415,-0.304175 0.106785,-0.06472 0.24092,-0.06472 0.349645,0 0.106785,0.06472 0.174413,0.177977 0.174413,0.304175 -0.0043,0.252609 0.20139,0.458605 0.454004,0.454649 0.247286,-0.0036 0.44463,-0.207372 0.440409,-0.454649 0,-0.444939 -0.237843,-0.855901 -0.621944,-1.074327 -0.384104,-0.223278 -0.85914,-0.223278 -1.243243,0 -0.33476,0.192537 -0.558036,0.529074 -0.609976,0.904441 -0.0089,0.03166 -0.01438,0.06422 -0.01619,0.09708 v 0.779855 c -0.0015,0.02154 -0.0015,0.04318 0,0.06472 0,1.702098 -1.119951,3.201949 -2.755388,3.680865 C 4.167424,13.393494 2.416141,12.741456 1.494386,11.304705 0.57312009,9.871191 0.70643929,8.00568 1.82251,6.716163 2.076644,6.42778 1.87246,5.974362 1.488078,5.973518 Z"
     style="color:#000000;font-style:normal;font-variant:normal;font-weight:normal;font-stretch:normal;font-size:medium;line-height:normal;font-family:sans-serif;text-indent:0;text-align:start;text-decoration:none;text-decoration-line:none;text-decoration-style:solid;text-decoration-color:#000000;letter-spacing:normal;word-spacing:normal;text-transform:none;writing-mode:lr-tb;direction:ltr;baseline-shift:baseline;text-anchor:start;white-space:normal;clip-rule:nonzero;display:inline;overflow:visible;visibility:visible;opacity:1;isolation:auto;mix-blend-mode:normal;color-interpolation:sRGB;color-interpolation-filters:linearRGB;solid-color:#000000;solid-opacity:1;fill:#000000;fill-opacity:1;fill-rule:nonzero;stroke:none;stroke-width:23.06451035;stroke-linecap:round;stroke-linejoin:round;stroke-miterlimit:4;stroke-dasharray:none;stroke-dashoffset:2.19999981;stroke-opacity:1;color-rendering:auto;image-rendering:auto;shape-rendering:auto;text-rendering:auto;enable-background:accumulate"
     sodipodi:nodetypes="cccccccccccccccccccccccccccccsccccccccccccccccccsccccccccccccccccccccccccccscccsccccccccscccccccccccccccc" />
</svg>
