<?xml version="1.0" encoding="UTF-8" standalone="no"?>
<!-- Created with Inkscape (http://www.inkscape.org/) -->

<svg
   xmlns:dc="http://purl.org/dc/elements/1.1/"
   xmlns:cc="http://creativecommons.org/ns#"
   xmlns:rdf="http://www.w3.org/1999/02/22-rdf-syntax-ns#"
   xmlns:svg="http://www.w3.org/2000/svg"
   xmlns="http://www.w3.org/2000/svg"
   xmlns:sodipodi="http://sodipodi.sourceforge.net/DTD/sodipodi-0.dtd"
   xmlns:inkscape="http://www.inkscape.org/namespaces/inkscape"
   version="1.1"
   id="svg2"
   width="200"
   height="200"
   viewBox="0 0 200.00001 200"
   sodipodi:docname="favicon-roost - Copy.svg"
   inkscape:version="0.92.2 (5c3e80d, 2017-08-06)">
  <metadata
     id="metadata8">
    <rdf:RDF>
      <cc:Work
         rdf:about="">
        <dc:format>image/svg+xml</dc:format>
        <dc:type
           rdf:resource="http://purl.org/dc/dcmitype/StillImage" />
        <dc:title></dc:title>
      </cc:Work>
    </rdf:RDF>
  </metadata>
  <defs
     id="defs6" />
  <sodipodi:namedview
     pagecolor="#ffffff"
     bordercolor="#666666"
     borderopacity="1"
     objecttolerance="10"
     gridtolerance="10"
     guidetolerance="10"
     inkscape:pageopacity="0"
     inkscape:pageshadow="2"
     inkscape:window-width="1920"
     inkscape:window-height="1017"
     id="namedview4"
     showgrid="false"
     inkscape:zoom="2.4336259"
     inkscape:cx="81.749739"
     inkscape:cy="45.867058"
     inkscape:window-x="1912"
     inkscape:window-y="263"
     inkscape:window-maximized="1"
     inkscape:current-layer="svg2"
     fit-margin-top="0"
     fit-margin-left="0"
     fit-margin-right="0"
     fit-margin-bottom="0" />
  <path
     inkscape:connector-curvature="0"
     id="path24131-7"
     d="m 81.838207,25.842787 c -8.273926,0 -16.07416,4.737292 -19.326556,12.627343 -2.582618,6.272836 -1.767516,13.199051 1.682568,18.6061 -7.63849,3.397777 -13.055344,10.91215 -13.241553,19.700675 -0.302052,2.523657 1.538143,4.798995 4.069171,5.031298 0.136121,0.0063 0.272386,0.0063 0.408435,0 h 14.605584 c 5.758838,-0.257883 5.758838,-8.775736 0,-9.033544 h -9.355364 c 1.339565,-3.659096 4.240719,-6.534157 7.948866,-7.824683 v 0.980142 c 0.0014,6.018765 9.031714,6.018765 9.030299,0 v -5.162032 c 0.45886,-1.755636 -0.178215,-3.615427 -1.617245,-4.720915 -0.281579,-0.256438 -0.594477,-0.475524 -0.93108,-0.653666 -4.605021,-2.956731 -6.411729,-8.674166 -4.325676,-13.738147 0.784084,-1.878611 2.01744,-3.446838 3.541534,-4.65562 v 2.450318 c 0.686134,6.289142 6.196089,11.042811 12.521182,10.895772 0.05962,0.0013 0.119816,0.0013 0.179795,0 h 4.562541 c 6.305676,0.301692 6.305676,-9.318638 0,-9.017233 h -4.562527 c -0.103361,-0.0035 -0.206875,-0.0035 -0.31024,0 -1.782184,0 -3.19356,-0.980141 -3.379798,-2.875058 -0.163344,-1.633521 0.784078,-2.989342 2.324564,-3.430388 1.334422,-0.13217 2.541141,-0.850127 3.293226,-1.960284 0.0757,-0.105592 0.146321,-0.214776 0.212334,-0.326833 1.622495,-2.887126 -0.313186,-6.480429 -3.616648,-6.713953 -0.980157,0 -1.976625,-0.326834 -2.960035,-0.326834 h -0.816732 z m 24.905143,17.005262 c -0.0546,-0.001 -0.10897,-0.001 -0.16349,0 -0.0546,-0.001 -0.10897,-0.001 -0.1635,0 -0.0546,-0.001 -0.10896,-0.001 -0.16333,0 -1.2938,0.132889 -2.4673,0.817802 -3.21976,1.878539 L 88.741415,59.020209 c -4.629021,4.25214 2.141263,11.008549 6.383916,6.370813 L 107.0862,53.449814 c 2.76887,3.136382 3.57746,7.579667 1.90634,11.630824 -2.06156,4.949701 -7.36243,7.85744 -12.782532,6.926289 -0.483713,-0.196106 -0.997719,-0.306722 -1.519208,-0.326839 -0.543622,0.01434 -1.08034,0.123553 -1.584518,0.326839 -0.0546,-0.001 -0.108969,-0.001 -0.163489,0 -0.0546,-0.001 -0.108969,-0.001 -0.163345,0 -1.893703,0.846674 -2.966551,2.875127 -2.600568,4.916939 v 15.09404 h -0.784078 c -6.614237,0 -13.081485,2.695333 -17.653815,7.743016 -6.098005,6.730258 -7.765869,16.417168 -4.281506,24.781028 3.486,8.39647 11.523077,14.04854 20.599066,14.4732 6.358086,0.68886 6.819525,-9.08741 0.424885,-9.00086 -5.607985,-0.32683 -10.536413,-3.72447 -12.691037,-8.9028 -2.154659,-5.21103 -1.127159,-11.12449 2.63652,-15.29007 3.628098,-4.01855 9.141343,-5.66844 14.344212,-4.34523 1.228643,0.58543 2.655965,0.58543 3.884608,0 1.883071,-0.87053 2.930312,-2.912484 2.538491,-4.949699 v -15.48603 c 7.811654,-0.48989 14.969874,-5.194718 18.060554,-12.643717 3.68366,-8.886501 0.4901,-19.177882 -7.43754,-24.552248 -0.87371,-0.780234 -2.01651,-1.190321 -3.187,-1.143486 z m 35.53134,40.642736 c -15.32925,0 -27.86346,12.382323 -28.37154,27.688695 -0.0151,0.21765 -0.0151,0.43602 0,0.65367 v 0 0 c 0,2.483 -1.35582,4.75367 -3.47618,6.0605 -2.25756,1.30684 -5.06728,1.30684 -7.37872,0 -2.30988,-1.14349 -3.729436,-3.70816 -3.729436,-6.37082 0.06249,-6.08067 -9.089976,-6.08067 -9.027008,0 0,5.89709 3.20177,11.36944 8.347453,14.24457 5.148971,2.87499 11.474061,2.7607 16.502131,-0.32683 4.92189,-2.98942 7.87701,-8.39647 7.78391,-14.14659 0.16348,-10.79779 8.7444,-19.324924 19.35918,-19.324924 10.71282,0 19.3445,8.723164 19.3445,19.618924 -0.0345,2.54342 2.03884,4.61274 4.58214,4.57395 v 0 c 2.48955,-0.0359 4.44947,-1.54501 4.4449,-4.03492 -0.0281,-15.731042 -12.72376,-28.619851 -28.36664,-28.636162 z m -83.974309,2.548361 c -1.333862,0.0074 -2.595676,0.606263 -3.446809,1.633521 -13.865603,16.025133 -15.526886,39.303223 -4.080607,57.125283 11.446317,17.80568 33.314633,25.98981 53.627825,20.01106 19.81663,-5.83179 33.60868,-23.73552 34.27191,-44.2856 0.0245,-0.27153 0.0245,-0.54521 0,-0.81681 v -8.59249 c 0,-1.14348 0.68606,-2.41763 1.76096,-3.07101 1.07813,-0.65367 2.43241,-0.65367 3.53013,0 1.07814,0.65367 1.76093,1.79687 1.76093,3.07101 -0.0431,2.55046 2.03331,4.63027 4.58379,4.59033 2.49668,-0.0359 4.48913,-2.09375 4.44651,-4.59033 0,-4.49227 -2.40134,-8.64148 -6.27936,-10.84677 -3.87805,-2.254299 -8.67416,-2.254299 -12.5522,0 -3.37985,1.9439 -5.63412,5.34175 -6.15852,9.13158 -0.0898,0.31966 -0.14518,0.64865 -0.1635,0.98015 v 7.87367 c -0.0151,0.21765 -0.0151,0.43601 0,0.65367 0,17.18498 -11.30741,32.328 -27.81935,37.16328 -16.507008,4.85165 -34.188565,-1.73157 -43.494919,-16.23753 -9.301419,-14.4732 -7.955374,-33.30809 3.312851,-46.327482 2.565824,-2.911619 0.504329,-7.489446 -3.376536,-7.497997 z"
     style="color:#000000;font-style:normal;font-variant:normal;font-weight:normal;font-stretch:normal;font-size:medium;line-height:normal;font-family:sans-serif;text-indent:0;text-align:start;text-decoration:none;text-decoration-line:none;text-decoration-style:solid;text-decoration-color:#000000;letter-spacing:normal;word-spacing:normal;text-transform:none;writing-mode:lr-tb;direction:ltr;baseline-shift:baseline;text-anchor:start;white-space:normal;clip-rule:nonzero;display:inline;overflow:visible;visibility:visible;opacity:1;isolation:auto;mix-blend-mode:normal;color-interpolation:sRGB;color-interpolation-filters:linearRGB;solid-color:#000000;solid-opacity:1;fill:#ffffff;fill-opacity:1;fill-rule:nonzero;stroke:none;stroke-width:232.86727905;stroke-linecap:round;stroke-linejoin:round;stroke-miterlimit:4;stroke-dasharray:none;stroke-dashoffset:2.19999981;stroke-opacity:1;color-rendering:auto;image-rendering:auto;shape-rendering:auto;text-rendering:auto;enable-background:accumulate"
     sodipodi:nodetypes="cccccccccccccccccccccccccccccsccccccccccccccccccsccccccccccccccccccccccccccscccsccccccccscccccccccccccccc"
     inkscape:export-xdpi="780"
     inkscape:export-ydpi="780" />
</svg>
