<?xml version="1.0" encoding="UTF-8" standalone="no"?>
<!-- Created with Inkscape (http://www.inkscape.org/) -->

<svg
   xmlns:dc="http://purl.org/dc/elements/1.1/"
   xmlns:cc="http://creativecommons.org/ns#"
   xmlns:rdf="http://www.w3.org/1999/02/22-rdf-syntax-ns#"
   xmlns:svg="http://www.w3.org/2000/svg"
   xmlns="http://www.w3.org/2000/svg"
   xmlns:sodipodi="http://sodipodi.sourceforge.net/DTD/sodipodi-0.dtd"
   xmlns:inkscape="http://www.inkscape.org/namespaces/inkscape"
   version="1.1"
   id="svg2"
   width="23"
   height="30"
   viewBox="0 0 23 29.999999"
   sodipodi:docname="little.svg"
   inkscape:version="0.92.2 (5c3e80d, 2017-08-06)">
  <metadata
     id="metadata8">
    <rdf:RDF>
      <cc:Work
         rdf:about="">
        <dc:format>image/svg+xml</dc:format>
        <dc:type
           rdf:resource="http://purl.org/dc/dcmitype/StillImage" />
        <dc:title></dc:title>
      </cc:Work>
    </rdf:RDF>
  </metadata>
  <defs
     id="defs6" />
  <sodipodi:namedview
     pagecolor="#ffffff"
     bordercolor="#666666"
     borderopacity="1"
     objecttolerance="10"
     gridtolerance="10"
     guidetolerance="10"
     inkscape:pageopacity="0"
     inkscape:pageshadow="2"
     inkscape:window-width="1920"
     inkscape:window-height="1137"
     id="namedview4"
     showgrid="false"
     inkscape:zoom="19.469007"
     inkscape:cx="19.2426"
     inkscape:cy="9.4810783"
     inkscape:window-x="-8"
     inkscape:window-y="-8"
     inkscape:window-maximized="1"
     inkscape:current-layer="svg2"
     fit-margin-top="0"
     fit-margin-left="0"
     fit-margin-right="0"
     fit-margin-bottom="0" />
  <path
     inkscape:connector-curvature="0"
     id="path24131-7"
     d="m 7.1137349,1.8067103 c -1.4630533,0 -2.8423465,0.8376824 -3.417457,2.2328576 -0.4566763,1.109207 -0.3125454,2.3339569 0.297522,3.290071 -1.3506922,0.6008197 -2.3085386,1.9295582 -2.3414641,3.4836041 -0.053417,0.446251 0.2719847,0.848594 0.7195395,0.889676 0.024063,0.0011 0.048165,0.0011 0.072225,0 h 2.5826638 c 1.018317,-0.04559 1.018317,-1.551796 0,-1.597374 H 3.3724812 C 3.609353,9.4585078 4.1223548,8.9501214 4.7780566,8.721925 v 0.1733132 c 2.404e-4,1.0642855 1.5970509,1.0642855 1.5968017,0 V 7.9824531 C 6.4560068,7.6720025 6.3433509,7.3431406 6.0888857,7.1476589 6.0390944,7.1023571 5.9837742,7.0635332 5.9242396,7.0321159 5.1099538,6.5092867 4.790478,5.4982903 5.1593496,4.6028371 5.2980044,4.2706522 5.5160868,3.9933496 5.7855892,3.7795965 v 0.4332837 c 0.1213196,1.1120962 1.0956359,1.9526678 2.2140831,1.9266706 0.010606,2.109e-4 0.021199,2.109e-4 0.031802,0 h 0.8067814 c 1.1150132,0.053294 1.1150132,-1.6477817 0,-1.5944859 H 8.0314742 c -0.018285,-6.105e-4 -0.036586,-6.105e-4 -0.054871,0 -0.3151401,0 -0.564709,-0.1733138 -0.5976415,-0.5083862 C 7.3500687,3.7478223 7.5176163,3.5080719 7.7900079,3.4300805 8.0259688,3.4067723 8.239351,3.279757 8.3723396,3.0834538 8.3856786,3.0647468 8.3982016,3.0454688 8.4098806,3.0256838 8.6967819,2.515171 8.3545096,1.8797796 7.7703587,1.8384854 c -0.1733211,0 -0.3495199,-0.05777 -0.523415,-0.05777 H 7.1025226 Z M 11.51764,4.8137018 c -0.0097,-1.741e-4 -0.01927,-1.741e-4 -0.0289,0 -0.0097,-1.741e-4 -0.01927,-1.741e-4 -0.0289,0 -0.0097,-1.741e-4 -0.01927,-1.741e-4 -0.02889,0 -0.228775,0.023531 -0.436282,0.1446024 -0.56934,0.3321849 L 8.3344266,7.6733769 C 7.5158894,8.4252702 8.7130595,9.619991 9.4632741,8.7999159 L 11.57828,6.6883773 c 0.489613,0.554604 0.632592,1.3402924 0.337093,2.0566555 -0.364539,0.8752349 -1.301877,1.3893982 -2.2602979,1.2247509 -0.085532,-0.034642 -0.1764245,-0.054186 -0.2686368,-0.057767 -0.096117,0.00225 -0.1910339,0.021797 -0.2801872,0.057767 -0.00967,-1.74e-4 -0.019267,-1.74e-4 -0.028895,0 -0.00967,-1.74e-4 -0.019267,-1.74e-4 -0.028895,0 C 8.7136027,10.119501 8.5238952,10.478184 8.5886103,10.839239 V 13.50827 H 8.4499548 c -1.1695765,0 -2.3131616,0.47661 -3.1216727,1.369175 -1.0782932,1.190088 -1.3732166,2.903002 -0.7570876,4.381948 0.61642,1.484724 2.0375936,2.484166 3.6424736,2.559266 1.1242815,0.121755 1.205877,-1.606911 0.075126,-1.591601 -0.9916442,-0.05778 -1.863124,-0.658586 -2.2441189,-1.574262 -0.381002,-0.92145 -0.1993123,-1.967112 0.4662085,-2.703693 0.641547,-0.710583 1.6164371,-1.002332 2.536445,-0.768357 0.2172565,0.103561 0.4696475,0.103561 0.686904,0 0.3329773,-0.153927 0.5181593,-0.515003 0.4488743,-0.875235 v -2.738354 c 1.38131,-0.08666 2.647079,-0.918562 3.193595,-2.2357468 0.651371,-1.5713769 0.08666,-3.3911696 -1.31516,-4.3415063 -0.154497,-0.1379732 -0.35658,-0.2104801 -0.563554,-0.2021993 z m 6.282905,7.1867392 c -2.710627,0 -4.927017,2.18953 -5.016858,4.896112 -0.0027,0.03846 -0.0027,0.07709 0,0.115545 v 0 0 c 0,0.439067 -0.239748,0.840573 -0.614682,1.071655 -0.399198,0.231088 -0.896033,0.231088 -1.30476,0 -0.408448,-0.202194 -0.659463,-0.655702 -0.659463,-1.126534 0.01114,-1.075225 -1.6073553,-1.075225 -1.5962201,0 0,1.04277 0.5661598,2.010433 1.4760561,2.518825 0.910476,0.50838 2.028925,0.488167 2.918024,-0.05778 0.870322,-0.528611 1.392868,-1.48472 1.376405,-2.50149 0.0289,-1.909344 1.546247,-3.417174 3.423229,-3.417174 1.894318,0 3.420632,1.542492 3.420632,3.469163 -0.006,0.449737 0.360521,0.815649 0.810245,0.808796 v 0 c 0.440221,-0.0066 0.786786,-0.273212 0.785978,-0.713485 -0.0051,-2.78168 -2.249904,-5.06076 -5.015988,-5.063648 z M 2.9516122,12.451056 c -0.2358642,0.0015 -0.4589879,0.107245 -0.6094896,0.288857 -2.45181567,2.833675 -2.74557578,6.949877 -0.7215638,10.101297 2.0240199,3.14853 5.8909321,4.595699 9.4828542,3.538491 3.504117,-1.031215 5.942926,-4.197084 6.060201,-7.83089 0.0043,-0.04804 0.0043,-0.09639 0,-0.144432 v -1.519384 c 0,-0.202201 0.121317,-0.427504 0.311385,-0.543045 0.190645,-0.115546 0.430116,-0.115546 0.624224,0 0.190644,0.115545 0.311382,0.317743 0.311382,0.543045 -0.0077,0.450984 0.359543,0.818752 0.810535,0.811688 0.441482,-0.0065 0.793802,-0.370221 0.786266,-0.811688 0,-0.794352 -0.424622,-1.528046 -1.110361,-1.918004 -0.685744,-0.39862 -1.533829,-0.39862 -2.21957,0 -0.59765,0.343738 -0.996267,0.94456 -1.088996,1.614707 -0.01597,0.05653 -0.02567,0.114657 -0.0289,0.173314 v 1.392282 c -0.0027,0.03846 -0.0027,0.07709 0,0.115546 0,3.038769 -1.999456,5.716463 -4.919214,6.571476 C 7.72148,25.692219 4.5949015,24.528131 2.9492856,21.963089 1.3045425,19.403826 1.5425582,16.073314 3.5350882,13.771131 3.9887953,13.256279 3.6242606,12.446788 2.9380237,12.445281 Z"
     style="color:#000000;font-style:normal;font-variant:normal;font-weight:normal;font-stretch:normal;font-size:medium;line-height:normal;font-family:sans-serif;text-indent:0;text-align:start;text-decoration:none;text-decoration-line:none;text-decoration-style:solid;text-decoration-color:#000000;letter-spacing:normal;word-spacing:normal;text-transform:none;writing-mode:lr-tb;direction:ltr;baseline-shift:baseline;text-anchor:start;white-space:normal;clip-rule:nonzero;display:inline;overflow:visible;visibility:visible;opacity:1;isolation:auto;mix-blend-mode:normal;color-interpolation:sRGB;color-interpolation-filters:linearRGB;solid-color:#000000;solid-opacity:1;fill:#ffffff;fill-opacity:1;fill-rule:nonzero;stroke:none;stroke-width:41.17723846;stroke-linecap:round;stroke-linejoin:round;stroke-miterlimit:4;stroke-dasharray:none;stroke-dashoffset:2.19999981;stroke-opacity:1;color-rendering:auto;image-rendering:auto;shape-rendering:auto;text-rendering:auto;enable-background:accumulate"
     sodipodi:nodetypes="cccccccccccccccccccccccccccccsccccccccccccccccccsccccccccccccccccccccccccccscccsccccccccscccccccccccccccc" />
</svg>
