<?xml version="1.0" encoding="UTF-8" standalone="no"?>
<!-- Created with Inkscape (http://www.inkscape.org/) -->

<svg
   xmlns:dc="http://purl.org/dc/elements/1.1/"
   xmlns:cc="http://creativecommons.org/ns#"
   xmlns:rdf="http://www.w3.org/1999/02/22-rdf-syntax-ns#"
   xmlns:svg="http://www.w3.org/2000/svg"
   xmlns="http://www.w3.org/2000/svg"
   xmlns:xlink="http://www.w3.org/1999/xlink"
   xmlns:sodipodi="http://sodipodi.sourceforge.net/DTD/sodipodi-0.dtd"
   xmlns:inkscape="http://www.inkscape.org/namespaces/inkscape"
   width="210mm"
   height="297mm"
   viewBox="0 0 744.09448819 1052.3622047"
   id="svg2"
   version="1.1"
   inkscape:version="0.91 r13725"
   sodipodi:docname="rooster-sketch.svg">
  <defs
     id="defs4">
    <filter
       inkscape:collect="always"
       style="color-interpolation-filters:sRGB"
       id="filter4346"
       x="-0.01698"
       width="1.03396"
       y="-0.040915663"
       height="1.0818313">
      <feGaussianBlur
         inkscape:collect="always"
         stdDeviation="2.83"
         id="feGaussianBlur4348" />
    </filter>
  </defs>
  <sodipodi:namedview
     id="base"
     pagecolor="#ffffff"
     bordercolor="#666666"
     borderopacity="1.0"
     inkscape:pageopacity="0.0"
     inkscape:pageshadow="2"
     inkscape:zoom="0.57272791"
     inkscape:cx="372.04724"
     inkscape:cy="526.18124"
     inkscape:document-units="px"
     inkscape:current-layer="layer1"
     showgrid="false"
     inkscape:window-width="1440"
     inkscape:window-height="807"
     inkscape:window-x="0"
     inkscape:window-y="1"
     inkscape:window-maximized="1" />
  <metadata
     id="metadata7">
    <rdf:RDF>
      <cc:Work
         rdf:about="">
        <dc:format>image/svg+xml</dc:format>
        <dc:type
           rdf:resource="http://purl.org/dc/dcmitype/StillImage" />
        <dc:title />
      </cc:Work>
    </rdf:RDF>
  </metadata>
  <g
     inkscape:label="Layer 1"
     inkscape:groupmode="layer"
     id="layer1">
    <image
       sodipodi:absref="/Users/davidroost/Desktop/Roost/davidroostcreative/davidroost.github.io/content/sunset-02.jpg"
       xlink:href="sunset-02.jpg"
       width="1600"
       height="1200"
       preserveAspectRatio="none"
       id="image4268"
       x="-427.95276"
       y="-73.818901" />
    <rect
       style="color:#000000;clip-rule:nonzero;display:inline;overflow:visible;visibility:visible;opacity:0.25;isolation:auto;mix-blend-mode:normal;color-interpolation:sRGB;color-interpolation-filters:linearRGB;solid-color:#000000;solid-opacity:1;fill:#000000;fill-opacity:1;fill-rule:nonzero;stroke:none;stroke-width:1.5;stroke-linecap:round;stroke-linejoin:miter;stroke-miterlimit:4;stroke-dasharray:none;stroke-dashoffset:0.60000002;stroke-opacity:1;color-rendering:auto;image-rendering:auto;shape-rendering:auto;text-rendering:auto;enable-background:accumulate"
       id="rect4326"
       width="1109.3593"
       height="1109.3593"
       x="-182.63235"
       y="0.22770271"
       inkscape:export-xdpi="64.900002"
       inkscape:export-ydpi="64.900002" />
    <g
       inkscape:label="Layer 1"
       id="g4328"
       transform="matrix(1.4614927,0,0,1.4614927,595.0926,-6271.2506)"
       style="fill:#000000;stroke:#000000;filter:url(#filter4346);opacity:0.2">
      <g
         id="g4330"
         inkscape:label="Layer 1"
         transform="matrix(0.49619251,0,0,0.49645439,-68.28549,2334.1334)"
         style="fill:#000000;stroke:#000000">
        <path
           inkscape:export-ydpi="90"
           inkscape:export-xdpi="90"
           id="path4332"
           transform="translate(-602.33264,4473.2788)"
           d="m 29.310547,26.402344 0,2 0,232.890626 0.002,0 0,97.48047 0,2 65.021484,0 4,0 0,-1.75586 0,-2.24414 0,-3.80469 0,-15.42969 -13.388672,0 10.529297,-13.53125 -7.515625,0 9.998047,-12.8457 -5.080078,0 8.82617,-11.43164 8.82618,11.43164 -5.08008,0 9.99805,12.8457 -7.51563,0 10.5293,13.53125 -13.10352,0 0,15.42969 0,3.80469 0,4 4,0 323.02344,0 323.02344,0 4,0 0,-4 0,-3.80469 0,-15.42969 -13.10352,0 10.5293,-13.53125 -7.51563,0 9.99805,-12.8457 -5.08008,0 8.82617,-11.43164 8.82618,11.43164 -5.08008,0 9.99804,12.8457 -7.51562,0 10.5293,13.53125 -13.38868,0 0,15.42969 0,3.80469 0,2.24414 0,1.75586 4,0 65.02149,0 0,-2 0,-101.34571 0,-231.025386 -571.2461,0 -4.03906,0 -230.853516,0 z m 4,4 226.853513,0 0,226.890626 -226.853513,0 0,-226.890626 z m 230.892573,0 567.2461,0 0,191.052736 c -6.48646,5.8235 -15.30412,9.13086 -24.51172,9.13086 -9.26021,0 -18.12836,-3.34282 -24.625,-9.22852 a 2.0002,2.0002 0 0 0 -0.35742,-0.25781 c -7.22851,-6.3352 -16.83787,-9.86133 -26.84375,-9.86133 -9.9998,0 -19.60307,3.52161 -26.83008,9.84961 a 2.0002,2.0002 0 0 0 -0.37109,0.26953 c -6.49665,5.8857 -15.3648,9.22852 -24.625,9.22852 -9.26022,0 -18.12836,-3.34282 -24.625,-9.22852 a 2.0002,2.0002 0 0 0 -0.35743,-0.25781 c -7.2285,-6.3352 -16.83788,-9.86133 -26.84375,-9.86133 -10.00076,0 -19.60478,3.52256 -26.83203,9.85156 a 2.0002,2.0002 0 0 0 -0.36914,0.26758 c -6.49664,5.8857 -15.36479,9.22852 -24.625,9.22852 -9.2602,0 -18.13031,-3.34282 -24.62695,-9.22852 a 2.0002,2.0002 0 0 0 -0.35156,-0.25586 c -7.22887,-6.3369 -16.84031,-9.86328 -26.84766,-9.86328 -10.00223,0 -19.6102,3.52272 -26.83789,9.85352 a 2.0002,2.0002 0 0 0 -0.36328,0.26562 c -6.49664,5.8857 -15.36479,9.22852 -24.625,9.22852 -9.26021,0 -18.13031,-3.34282 -24.62695,-9.22852 a 2.0002,2.0002 0 0 0 -0.35157,-0.25586 c -7.22886,-6.3369 -16.84031,-9.86328 -26.84765,-9.86328 -10.00223,0 -19.61021,3.52272 -26.83789,9.85352 a 2.0002,2.0002 0 0 0 -0.36329,0.26562 c -6.49663,5.8857 -15.36479,9.22852 -24.625,9.22852 -9.26019,0 -18.13031,-3.34282 -24.62695,-9.22852 a 2.0002,2.0002 0 0 0 -0.35156,-0.25586 c -7.22887,-6.3369 -16.84031,-9.86328 -26.84766,-9.86328 -10.00362,0 -19.61181,3.52492 -26.83984,9.85742 a 2.0002,2.0002 0 0 0 -0.36133,0.26172 c -6.49664,5.8857 -15.36479,9.22852 -24.625,9.22852 -9.18853,0 -17.98996,-3.29468 -24.47266,-9.09571 l 0,-191.087886 z M 127.95117,79.726562 c -5.8319,0.085 -11.27541,3.605797 -13.59961,9.216797 -2.1956,5.3005 -1.09997,11.248371 2.45313,15.417971 -2.5792,0.937 -4.95074,2.42935 -6.92774,4.40625 -3.5443,3.5444 -5.53732,8.35158 -5.54492,13.36328 l 15.02539,0 c 0.4437,0 0.66715,-0.0274 0.96485,-0.0664 2.5761,-0.7971 2.25695,-4.94999 -0.96485,-4.90429 l -8.77734,0 c 0.6796,-1.7239 1.70491,-3.31039 3.04101,-4.64649 1.6555,-1.6555 3.6934,-2.83765 5.9043,-3.46875 l 0,3.67774 c -0.051,3.5812 5.34612,3.5812 5.29492,0 l 0,-7.22266 c 0.01,-0.7293 -0.28068,-1.4302 -0.80469,-1.9375 -0.1956,-0.2215 -0.42814,-0.40959 -0.68554,-0.55469 -4.2073,-2.4292 -5.94514,-7.548707 -4.08594,-12.037107 1.071,-2.5856 3.13584,-4.469887 5.58984,-5.367187 -0.4356,1.213 -0.59907,2.536712 -0.42187,3.882812 0.5437,4.1294 4.10443,7.251953 8.26953,7.251953 0.047,-2e-4 0.0937,2.35e-4 0.14063,-0.0098 0.065,0.01 0.12845,0.0098 0.19335,0.0098 l 6.63282,0 c 3.5805,0.051 3.5805,-5.347375 0,-5.296875 l -6.63282,0 c -0.046,0 -0.0926,-2.34e-4 -0.13867,0.0098 -0.065,0 -0.13011,-0.0098 -0.19531,-0.0098 -1.5485,0 -2.81743,-1.111184 -3.01953,-2.646484 -0.2021,-1.5354 0.73467,-2.936991 2.23047,-3.337891 0.3647,-0.091 0.7053,-0.262393 1,-0.496093 0.6676,-0.470501 1.08044,-1.22131 1.11914,-2.03711 0.059,-1.2572 -0.77404,-2.382806 -1.99414,-2.691406 -1.3538,-0.3628 -2.72061,-0.525559 -4.06641,-0.50586 z m 265.4043,3.007813 0,66.169925 13.23437,0 0,-27.35157 12.08789,0 15.83594,27.35157 15.17383,0 -16.49805,-28.84961 c 8.11674,-2.61734 12.17578,-8.70594 12.17578,-18.26367 0,-12.704404 -7.72069,-19.056645 -23.16015,-19.056645 l -28.84961,0 z m 91.24219,0 c -9.4106,0 -17.27681,3.161642 -23.59961,9.484375 -6.32274,6.3228 -9.48438,14.18894 -9.48438,23.59961 0,9.38127 3.16164,17.24936 9.48438,23.60156 6.3228,6.3228 14.18901,9.48438 23.59961,9.48438 9.4106,0 17.27869,-3.16158 23.60156,-9.48438 6.32273,-6.3228 9.48437,-14.19089 9.48437,-23.60156 0,-9.41067 -3.16164,-17.27681 -9.48437,-23.59961 -6.32287,-6.322733 -14.19096,-9.484375 -23.60156,-9.484375 z m 70.98828,0 c -9.41074,0 -17.27681,3.161642 -23.59961,9.484375 -6.32274,6.3228 -9.48438,14.18894 -9.48438,23.59961 0,9.38127 3.16164,17.24936 9.48438,23.60156 6.3228,6.3228 14.18887,9.48438 23.59961,9.48438 9.4106,0 17.27883,-3.16158 23.60156,-9.48438 6.32287,-6.3228 9.48438,-14.19089 9.48438,-23.60156 0,-9.41067 -3.16151,-17.27681 -9.48438,-23.59961 -6.32273,-6.322733 -14.19096,-9.484375 -23.60156,-9.484375 z m 60.23047,0 c -5.29354,0 -10.45363,1.779424 -15.48243,5.337891 -4.9994,3.528933 -7.5,8.219999 -7.5,14.072264 0,6.46987 2.20599,11.02716 6.61719,13.67383 4.4112,2.64667 9.26311,4.26531 14.55664,4.85352 5.88167,0.58819 9.54331,2.13105 10.98438,4.63085 1.47033,2.49967 1.47033,5.00034 0,7.5 -1.44107,2.49974 -5.10271,3.75 -10.98438,3.75 -7.058,-0.5882 -12.05724,-2.64684 -14.99804,-6.17578 l -8.82227,8.82227 c 2.9408,2.94087 6.47069,5.29211 10.58789,7.05664 4.11713,1.76453 9.24813,2.64844 15.39453,2.64844 6.46974,0 12.13002,-1.9132 16.98242,-5.73633 4.88174,-3.82307 7.32422,-8.38036 7.32422,-13.67383 0,-6.76387 -2.27969,-11.68941 -6.83789,-14.77734 -4.55833,-3.08787 -9.63121,-4.92554 -15.21875,-5.51368 -5.29353,-0.88226 -8.67608,-2.20616 -10.14648,-3.9707 -1.47047,-1.76446 -1.47047,-3.89675 0,-6.396482 1.4704,-2.499667 4.85295,-3.75 10.14648,-3.75 5.29347,-10e-7 9.4107,1.763968 12.35156,5.292972 l 8.82227,-8.822269 c -2.94087,-2.940867 -6.10244,-5.144901 -9.48437,-6.615235 -3.38201,-1.470466 -8.14671,-2.207031 -14.29297,-2.207031 z m 29.09375,0 0,12.351563 22.05664,0 0,53.818362 13.23242,0 0,-53.818362 22.05664,0 0,-12.351563 -57.3457,0 z M 150.31055,92.990234 c -0.84618,-0.02969 -1.65605,0.348462 -2.17774,1.015625 l -14.1875,14.187501 c -2.5995,2.4954 1.24864,6.34559 3.74414,3.74609 l 12.83399,-12.833981 c 3.0171,2.680001 4.08803,7.014061 2.48633,10.880861 -1.7947,4.3329 -6.37531,6.70958 -10.91211,5.73828 -0.3806,-0.192 -0.80232,-0.289 -1.22852,-0.2832 -1.1194,0.018 -2.10594,0.73842 -2.46484,1.79882 -0.021,0.059 -0.0396,0.11959 -0.0566,0.17969 -0.059,0.1995 -0.0942,0.40558 -0.10547,0.61328 -0.01,0.1468 9.3e-4,0.29356 0.0195,0.43946 l 0,16.92968 c -6.4477,-0.5802 -12.87578,2.00943 -17.11328,7.08204 -4.9649,5.94369 -6.04232,14.24065 -2.76172,21.25585 3.2807,7.0152 10.33958,11.50586 18.08398,11.50586 3.5798,0.05 3.5798,-5.34482 0,-5.29492 -5.7011,0 -10.87396,-3.29078 -13.28906,-8.45508 -2.4151,-5.1643 -1.6256,-11.24178 2.0293,-15.61718 3.655,-4.3754 9.49611,-6.23465 15.00781,-4.77735 1.6424,0.4594 3.28498,-0.73184 3.35937,-2.43554 0.01,-0.159 5.7e-4,-0.31701 -0.0234,-0.47461 l 0,-0.17579 0,-16.79492 c 6.1097,0.2186 11.92055,-3.35898 14.34375,-9.20898 2.8429,-6.8634 0.17471,-14.811826 -6.21289,-18.578126 -0.027,-0.017 -0.054,-0.03478 -0.082,-0.05078 -0.012,-0.01 -0.0232,-0.01448 -0.0352,-0.02148 -0.012,-0.01 -0.0212,-0.01353 -0.0332,-0.01953 -0.047,-0.027 -0.0976,-0.05217 -0.14649,-0.07617 -0.056,-0.027 -0.11067,-0.05217 -0.16797,-0.07617 -0.014,-0.01 -0.029,-0.01063 -0.043,-0.01563 -0.27499,-0.108923 -0.5678,-0.170924 -0.86328,-0.183594 l -0.002,0 -0.002,0 z m 334.24414,2.095704 c 5.91106,0 10.70479,1.985011 14.38086,5.955082 3.676,3.97013 5.51367,8.89567 5.51367,14.77734 0,5.88167 -1.83767,10.80916 -5.51367,14.7793 -3.67607,3.97013 -8.44071,5.95507 -14.29297,5.95507 -5.91114,0 -10.70486,-1.98494 -14.38086,-5.95507 -3.676,-3.97014 -5.51367,-8.89763 -5.51367,-14.7793 0,-5.88167 1.83767,-10.80721 5.51367,-14.77734 3.676,-3.970071 8.44063,-5.955082 14.29297,-5.955082 z m 70.98828,0 c 5.911,0 10.70472,1.985011 14.38086,5.955082 3.676,3.97013 5.51367,8.89567 5.51367,14.77734 0,5.88167 -1.83767,10.80916 -5.51367,14.7793 -3.67614,3.97013 -8.44084,5.95507 -14.29297,5.95507 -5.91113,0 -10.70479,-1.98494 -14.38086,-5.95507 -3.676,-3.97014 -5.51367,-8.89763 -5.51367,-14.7793 0,-5.88167 1.83767,-10.80721 5.51367,-14.77734 3.67607,-3.970071 8.4407,-5.955082 14.29297,-5.955082 z m -148.95313,0.04492 18.66016,0 c 5.23467,0.176467 7.92527,2.440569 8.07227,6.792972 -0.147,4.7642 -2.88215,7.19109 -8.20508,7.27929 l -18.52735,0 0,-14.072262 z M 112.16797,125.22852 c -0.6898,-0.019 -1.35929,0.23016 -1.86719,0.69726 -13.483999,12.0284 -17.039167,31.7364 -8.60547,47.7168 5.4059,10.2432 14.85901,17.27734 25.56641,19.86914 4.3064,2.3801 6.97461,6.87674 6.97461,11.77734 -0.051,3.5807 5.34767,3.5807 5.29687,0 0,-3.8803 -1.2077,-7.58752 -3.3457,-10.66992 3.2329,0.026 6.50626,-0.34744 9.75586,-1.15234 17.5394,-4.3444 29.88086,-20.1141 29.88086,-38.1836 7e-4,-0.1012 3.3e-4,-0.20203 -0.0137,-0.30273 0.01,-0.096 0.0137,-0.19111 0.0137,-0.28711 l 0,-6.63281 c 2e-4,-0.016 2e-4,-0.0318 0,-0.0488 0.086,-1.2582 0.7662,-2.3923 1.8457,-3.0293 1.1563,-0.6824 2.56841,-0.6823 3.72461,0 1.1562,0.6823 1.86328,1.93218 1.86328,3.29688 -0.071,3.641 5.30763,3.641 5.23633,0 0,-3.2689 -1.71087,-6.2993 -4.48047,-7.9336 -2.7695,-1.6345 -6.19339,-1.6346 -8.96289,0 -2.5005,1.4756 -4.13499,4.09239 -4.42969,6.99219 -0.064,0.2357 -0.0928,0.47856 -0.0898,0.72266 l 0,6.63086 c -7e-4,0.1014 -0.001,0.20388 0.0137,0.30468 -0.01,0.095 -0.0137,0.19111 -0.0137,0.28711 0,15.6627 -10.65617,29.27737 -25.85937,33.04297 -5.24681,1.2997 -10.56202,1.30806 -15.57422,0.19336 -0.1486,-0.05 -0.30193,-0.0858 -0.45704,-0.10937 -9.32429,-2.2094 -17.55327,-8.31299 -22.26367,-17.23828 -7.310397,-13.852 -4.24083,-30.86863 7.44727,-41.29493 1.8268,-1.5803 0.75825,-4.57983 -1.65625,-4.64843 z m 67.36328,3.9375 c -2.904,-1e-4 -5.8087,0.76567 -8.4082,2.29687 -4.9777,2.9321 -8.12156,8.25678 -8.38086,14.08008 -0.044,0.2005 -0.0665,0.40708 -0.0625,0.61328 0.035,3.4105 -1.75087,6.53254 -4.70117,8.21094 -2.9503,1.6784 -6.59909,1.64239 -9.58399,-0.0957 -2.9849,-1.7383 -4.83649,-4.90004 -4.87109,-8.31054 0.01,-1.4925 -1.22255,-2.71844 -2.71485,-2.71094 -1.4608,0.01 -2.61527,1.197 -2.58007,2.6582 0.054,5.2995 2.94591,10.23474 7.57031,12.92774 4.6244,2.6929 10.29649,2.74874 14.86719,0.14844 4.5708,-2.60031 7.36434,-7.4759 7.31054,-12.7754 -7e-4,-0.057 2.4e-4,-0.11642 -0.01,-0.17382 0.097,-4.1114 2.27229,-7.87596 5.77539,-9.93946 3.5841,-2.1112 7.99012,-2.1111 11.57422,0 3.5336,2.0815 5.71819,5.89348 5.77929,10.04688 -0.023,0.1471 -0.0332,0.29631 -0.0312,0.44531 l 0,1.70313 c -0.05,3.5805 5.34738,3.5805 5.29688,0 l 0,-1.70313 c 7e-4,-0.1101 -0.0105,-0.22078 -0.0195,-0.33008 -0.022,-6.1009 -3.223,-11.74097 -8.4043,-14.79297 -2.5995,-1.5312 -5.5041,-2.29677 -8.4082,-2.29687 l 0.002,-0.002 z m 328.49023,31.33593 c -2.0863,0 -4.57472,1.46345 -6.29492,4.46485 l -5.92968,10.21289 c -2.2328,-1.1713 -3.4043,-3.29507 -3.4043,-5.41797 0,-1.7569 0.80407,-3.51392 2.45117,-4.79492 l -1.24414,-2.23242 c -2.7085,1.9399 -3.91602,4.53936 -3.91602,7.10156 0,3.038 1.72033,5.96567 4.79493,7.57617 l -1.13477,1.97656 c -2.6719,4.6118 -1.0973,9.73633 4.2832,9.73633 5.6733,0 9.33267,-3.36714 12.48047,-7.02734 -0.007,-0.018 -0.0218,-0.0347 -0.0293,-0.0527 0.0235,0.016 0.0448,0.0367 0.0684,0.0527 1.8301,-2.1229 3.25703,-4.02797 6.29493,-8.16407 l 0.51367,0.62305 c 0.4758,0.6222 0.65795,1.39146 0.21875,2.16016 l -4.02539,6.99023 c -1.6105,2.8184 -0.47695,5.41797 2.59765,5.41797 2.26414,0 4.77345,-1.75355 7.17579,-4.09375 0.17993,2.3736 2.10015,4.09375 5.15429,4.09375 2.74974,0 5.48122,-1.37014 7.91797,-3.30664 -0.17525,1.8817 1.03374,3.30664 3.30859,3.30664 1.53731,0 3.43944,-0.98953 5.26954,-2.49023 0.183,1.4641 1.35502,2.49023 3.29492,2.49023 1.9147,0 4.00401,-1.25479 6.05664,-3.05469 -0.0481,1.7551 1.15027,3.05469 3.32226,3.05469 1.93328,0 4.04542,-1.27542 6.11719,-3.10352 -0.0718,1.7796 1.1265,3.10352 3.31836,3.10352 2.16741,0 4.55924,-1.61148 6.86719,-3.80078 -0.89534,4.7419 4.39261,4.90915 7.07226,0.87305 l 1.97657,-2.96485 c 0.72972,1.4595 2.7223,2.12845 4.94531,1.06446 -0.19512,2.74529 1.79711,4.82812 5.1582,4.82812 4.3191,0 8.6022,-3.36714 11.75,-7.02734 -0.2563,-0.5124 -0.91533,-1.09866 -1.42773,-1.31836 l -0.25586,0.29297 c -2.7451,3.1844 -6.25974,5.70898 -8.93164,5.70898 -2.3425,0 -3.73347,-1.46251 -1.97656,-4.53711 l 0.36523,-0.66016 c 2.4523,1.0248 7.06492,0.54873 9.91992,-4.39257 l 0.54883,-0.95118 c 2.0498,-3.5139 0.0738,-6.14843 -3.03711,-6.14843 -3.0746,0 -5.52817,1.61087 -7.13867,4.39258 l -3.68164,6.3164 -0.23633,0.27149 c -2.0498,2.2327 -5.63615,2.70877 -3.62305,-1.39063 l 6.18555,-9.22461 -3.43945,0 -8.5293,12.81055 c -2.306,3.4772 -2.56176,3.55082 -1.09766,-0.10938 l 5.08789,-12.70117 -3.84375,0 -4.15039,10.33203 c -0.005,0 -0.0105,-0.01 -0.0156,-0.01 l -0.25586,0.29297 c -2.7452,3.1844 -5.41786,5.70898 -7.10156,5.70898 -0.8418,0 -1.31796,-0.58524 -0.43946,-2.08594 l 8.16407,-14.23828 -3.80664,0 -5.96876,10.33789 c -0.009,0 -0.0186,-0.0116 -0.0273,-0.0156 l -0.25781,0.29297 c -2.7452,3.1844 -5.41591,5.70898 -7.09961,5.70898 -0.8418,0 -1.31795,-0.58524 -0.43945,-2.08594 l 8.16211,-14.23828 3.11132,0 1.09766,-1.83008 -3.14648,0 3.58593,-6.22265 -3.80664,0 -3.58789,6.22265 -3.43945,0 -1.09766,1.83008 3.47657,0 -6.00391,10.39844 -0.18945,0.2168 c -2.7452,3.1844 -5.41797,5.70898 -7.10157,5.70898 -0.8419,0 -1.31785,-0.58524 -0.43945,-2.08594 l 6.14844,-10.76172 -2.15821,0 c 0.1464,-1.6105 -1.50123,-3.84179 -3.99023,-3.84179 -2.0497,0 -4.90522,1.61087 -6.51562,4.39258 l -3.64844,6.29687 -0.002,0 -0.25586,0.29297 c -2.74519,3.1844 -6.25778,5.70898 -8.92968,5.70898 -2.3426,0 -3.73346,-1.46251 -1.97656,-4.53711 l 0.36523,-0.66015 c 2.4524,1.0248 7.06502,0.54872 9.91992,-4.39258 l 0.54883,-0.95117 c 2.0497,-3.5139 0.0719,-6.14844 -3.03906,-6.14844 -3.0746,0 -5.52622,1.61088 -7.13672,4.39258 l -3.70313,6.34961 -0.20703,0.23828 c -2.7452,3.1844 -5.41786,5.70898 -7.10156,5.70898 -0.8419,0 -1.31785,-0.58523 -0.43945,-2.08593 l 3.80664,-6.66211 c 1.3177,-2.306 0.69567,-3.65956 -0.54883,-5.16016 l -2.12305,-2.5625 c -0.549,-0.6954 -0.54789,-1.46331 0.22071,-2.19531 l -1.97657,-2.16016 c -2.1595,1.9399 -2.34258,4.10052 -0.98828,5.85742 l 0.33008,0.4375 c -1.6837,2.3792 -3.95446,5.6012 -6.44336,8.5293 0.006,0.01 0.0153,0.0174 0.0215,0.0254 -0.0197,-0.01 -0.0411,-0.0204 -0.0605,-0.0254 l -0.25586,0.29297 c -2.7452,3.1844 -6.11271,5.70898 -9.88281,5.70898 -2.5987,0 -4.17165,-2.59871 -1.90235,-6.47851 l 1.06055,-1.86524 c 0.6954,0.1098 1.39155,0.18164 2.16016,0.18164 4.0629,0 8.67448,-2.08621 11.67578,-7.32031 1.0615,-1.8668 1.53711,-3.62235 1.53711,-5.12305 0,-3.4406 -2.23239,-5.67382 -5.05079,-5.67382 l 0,-0.002 z m 0,3.29297 c 1.4275,0 2.08594,0.95295 2.08594,2.34375 0,3.5505 -4.31844,9.95508 -10.24804,9.95508 l -0.76954,0 5.49024,-9.51563 c 1.1347,-1.93999 2.38,-2.7832 3.4414,-2.7832 z m 67.99414,0.29297 c -1.2444,0 -2.19531,0.98802 -2.19531,2.23242 0,1.2445 0.95091,2.19727 2.19531,2.19727 1.24451,0 2.23243,-0.95277 2.23243,-2.19727 0,-1.2444 -0.98792,-2.23242 -2.23243,-2.23242 z m -41.67187,8.83203 c 1.22068,-0.073 1.88976,1.09671 0.61328,3.32031 l -0.54883,0.95118 c -1.8302,3.1112 -4.28343,3.03779 -5.71093,2.52539 l 2.45312,-4.28125 c 0.96079,-1.6493 2.24395,-2.45873 3.19336,-2.51563 z m 64.625,0 c 1.22069,-0.073 1.88982,1.09671 0.61328,3.32031 l -0.54883,0.95118 c -1.8301,3.1112 -4.28148,3.03779 -5.70898,2.52539 l 2.45117,-4.28125 c 0.96079,-1.6493 2.24393,-2.45873 3.19336,-2.51563 z m -50.48242,0.25781 c 1.28865,-0.01 2.11447,1.1271 1.06445,3.0625 l -2.96484,5.19727 c -2.3059,3.6236 -4.57454,5.34375 -6.14844,5.34375 -0.8418,0 -1.31785,-0.58524 -0.43945,-2.08594 l 5.30664,-9.25976 c 0.89679,-1.5533 2.17936,-2.25152 3.18164,-2.25782 z m -70.25,4.41797 a 2.2149785,2.2149785 0 0 0 -2.21485,2.21485 2.2149785,2.2149785 0 0 0 2.21485,2.21484 2.2149785,2.2149785 0 0 0 2.21679,-2.21484 2.2149785,2.2149785 0 0 0 -2.21679,-2.21485 z m 139.14062,0 a 2.2149785,2.2149785 0 0 0 -2.21484,2.21485 2.2149785,2.2149785 0 0 0 2.21484,2.21484 2.2149785,2.2149785 0 0 0 2.21485,-2.21484 2.2149785,2.2149785 0 0 0 -2.21485,-2.21485 z m -276.875,37.64258 c 9.26021,0 18.12836,3.34086 24.625,9.22656 a 2.0002,2.0002 0 0 0 0.38867,0.28907 c 7.22489,6.3172 16.82166,9.83203 26.8125,9.83203 10.00317,0 19.61006,-3.52357 26.8379,-9.85547 a 2.0002,2.0002 0 0 0 0.36132,-0.26563 c 6.49664,-5.8857 15.36675,-9.22656 24.62696,-9.22656 9.2602,0 18.12836,3.34086 24.625,9.22656 a 2.0002,2.0002 0 0 0 0.38867,0.28907 c 7.22488,6.3172 16.82166,9.83203 26.8125,9.83203 10.00316,0 19.61005,-3.52357 26.83789,-9.85547 a 2.0002,2.0002 0 0 0 0.36133,-0.26563 c 6.49664,-5.8857 15.36674,-9.22656 24.62695,-9.22656 9.26021,0 18.12836,3.34086 24.625,9.22656 a 2.0002,2.0002 0 0 0 0.38867,0.28907 c 7.22489,6.3172 16.82166,9.83203 26.8125,9.83203 10.00029,0 19.6049,-3.52111 26.83203,-9.84961 a 2.0002,2.0002 0 0 0 0.36914,-0.27149 c 6.49664,-5.8857 15.36479,-9.22656 24.625,-9.22656 9.2602,0 18.12835,3.34086 24.625,9.22656 a 2.0002,2.0002 0 0 0 0.39454,0.29102 c 7.22443,6.3155 16.81726,9.83008 26.80664,9.83008 10.00029,0 19.6049,-3.52111 26.83203,-9.84961 a 2.0002,2.0002 0 0 0 0.36914,-0.27149 c 6.49664,-5.8857 15.36479,-9.22656 24.625,-9.22656 9.2602,0 18.12836,3.34086 24.625,9.22656 a 2.0002,2.0002 0 0 0 0.39453,0.29102 c 7.22444,6.3155 16.81727,9.83008 26.80664,9.83008 8.96225,0 17.6106,-2.82361 24.51172,-7.96485 l 0,30.79102 -567.2461,0 0,-30.75977 c 6.89467,5.12171 15.52833,7.9336 24.47266,7.9336 10.00316,0 19.61006,-3.52357 26.83789,-9.85547 a 2.0002,2.0002 0 0 0 0.36133,-0.26563 c 6.49664,-5.8857 15.36675,-9.22656 24.62695,-9.22656 z m -307.18945,46.18945 399.06836,0 399.06836,0 0,95.34571 -61.02149,0 0,-15.23438 17.56836,0 -10.52929,-13.53125 7.51953,0 -9.99805,-12.8457 5.03711,0 -15.38281,-19.92773 -1.58399,-2.05079 -16.96679,21.97852 5.03711,0 -9.99805,12.8457 7.51953,0 -10.5293,13.53125 17.28321,0 0,15.23438 -323.02344,0 -323.02344,0 0,-15.23438 17.2832,0 -10.52929,-13.53125 7.51953,0 -9.99805,-12.8457 5.03711,0 -16.9668,-21.97852 -1.58398,2.05079 -15.382812,19.92773 5.03711,0 -9.998047,12.8457 7.519531,0 -10.529297,13.53125 17.568359,0 0,15.23438 -61.021484,0 0,-95.34571 z m 244.44727,34.21289 -0.30665,0.0391 -2.5039,0 0,26.84179 2.81055,0 0,-12.67578 1.75585,8.74219 2.85352,0 1.79883,-8.93359 0,12.90429 2.81055,0 0,-26.8789 -2.50196,0 -0.35156,-0.0391 -2.54688,12.60157 -0.61328,3.24414 -0.61523,-3.05469 -2.58984,-12.79102 z m 24.65039,0 -0.35157,0.0391 -2.50195,0 0,26.8789 2.80859,0 0,-12.90429 2.58985,12.79101 0,0.11328 2.80859,0 0,-26.8789 -2.80859,0 0,12.5625 -2.54492,-12.60157 z m 107.83984,0 0,12.18165 -3.11719,0 0,-12.10352 -2.80859,0 0,26.83984 2.80859,0 0,-12.29297 3.11719,0 0,12.2168 2.85352,0 0,-26.8418 -2.85352,0 z m 27.46289,0 -1.66797,1.41407 0,8.36133 5.88281,7.02539 0,7.67382 -3.02929,0 0,-5.11523 -2.85352,0 0,6.14648 1.66797,1.41211 5.40039,0 1.62305,-1.41211 0,-9.27734 -5.83789,-6.94922 0,-6.79687 3.02929,0 0,5.07812 2.8086,0 0,-6.14648 -1.62305,-1.41407 -5.40039,0 z m 83.66211,0 -0.34961,0.0391 -2.50195,0 0,26.8789 2.80859,0 0,-12.90429 2.58985,12.79101 0,0.11328 2.80859,0 0,-26.8789 -2.80859,0 0,12.5625 -2.54688,-12.60157 z m 31.29492,0 -0.35156,0.0391 -2.50195,0 0,26.8789 2.80859,0 0,-12.90429 2.58984,12.79101 0,0.11328 2.81055,0 0,-26.8789 -2.81055,0 0,12.5625 -2.54492,-12.60157 z m 113.26953,0 -1.66797,1.41407 0,8.36133 5.88282,7.02539 0,7.67382 -3.0293,0 0,-5.11523 -2.85352,0 0,6.14648 1.66797,1.41211 5.40039,0 1.62305,-1.41211 0,-9.27734 -5.83789,-6.94922 0,-6.79687 3.0293,0 0,5.07812 2.80859,0 0,-6.14648 -1.62305,-1.41407 -5.40039,0 z m 12.37305,0 -0.30664,0.0391 -2.50195,0 0,26.84179 2.80859,0 0,-12.67578 1.75586,8.74219 2.85352,0 1.79882,-8.93359 0,12.90429 2.81055,0 0,-26.8789 -2.50195,0 -0.35157,-0.0391 -2.54687,12.60157 -0.61328,3.24414 -0.61524,-3.05469 -2.58984,-12.79102 z m 24.65039,0 -0.35156,0.0391 -2.50195,0 0,26.8789 2.80859,0 0,-12.90429 2.58984,12.79101 0,0.11328 2.81055,0 0,-26.8789 -2.81055,0 0,12.5625 -2.54492,-12.60157 z m -546.51953,0.0391 2.63476,26.8789 2.85352,0 1.22852,-13.20898 1.3164,13.20898 2.81055,0 2.67773,-26.8789 -2.85351,0 -1.31641,13.43945 -1.31836,-13.43945 -2.63281,0 -1.4043,13.66992 -1.36133,-13.66992 -2.63476,0 z m 65.8457,0 2.63282,26.8789 3.81835,0 2.67774,-26.8789 -2.85156,0 -1.80079,18.51758 -1.84374,-18.51758 -2.63282,0 z m 162.27149,0 -2.63477,26.8789 2.81055,0 0.83398,-8.28515 2.01953,0 0.78907,8.28515 2.67773,0 -2.67773,-26.8789 -3.81836,0 z m 125.6875,0 -2.63477,26.8789 2.81055,0 0.83398,-8.28515 2.01758,0 0.79102,8.28515 2.67773,0 -2.67773,-26.8789 -3.81836,0 z m 124.48633,0 -2.63282,26.8789 2.8086,0 0.83398,-8.28515 2.01953,0 0.78906,8.28515 2.67774,0 -2.67774,-26.8789 -3.81835,0 z m 57.0996,0 -2.63476,26.8789 2.81055,0 0.83398,-8.28515 2.01953,0 0.78906,8.28515 2.67774,0 -2.67774,-26.8789 -3.81836,0 z m -520.10937,0.0391 0,26.83984 2.81055,0 4.60937,0 0,-2.44336 -4.60937,0 0,-9.84961 3.73046,0 0,-2.44335 -3.73046,0 0,-9.66016 4.60937,0 0,-2.44336 -5.22461,0 -2.19531,0 z m 10.03125,0 0,26.83984 7.11133,0 1.66797,-1.41211 0,-10.76757 -1.44727,-1.22071 1.44727,-1.25976 0,-10.76758 -1.66797,-1.41211 -7.11133,0 z m 20.0625,0 0,26.83984 7.11133,0 1.66797,-1.41211 0,-24.01562 -1.66797,-1.41211 -7.11133,0 z m 11.31641,0 0,26.83984 2.81054,0 4.60938,0 0,-2.44336 -4.60938,0 0,-9.84961 3.73047,0 0,-2.44335 -3.73047,0 0,-9.66016 4.60938,0 0,-2.44336 -5.22461,0 -2.19531,0 z m 20.0625,0 0,26.83984 2.80859,0 4.60937,0 0,-2.44336 -4.60937,0 0,-9.84961 3.73242,0 0,-2.44335 -3.73242,0 0,-9.66016 4.60937,0 0,-2.44336 -5.22265,0 -2.19531,0 z m 9.94531,0 0,26.83984 2.80859,0 3.82031,0 0,-2.44336 -3.82031,0 0,-24.39648 -2.80859,0 z m 10.92773,0 -1.66797,1.41211 0,24.01562 1.66797,1.41211 5.35547,0 1.66797,-1.41211 0,-24.01562 -1.66797,-1.41211 -5.35547,0 z m 9.5625,0 0,26.83984 2.81055,0 0,-12.10351 4.51953,0 1.44922,-1.2207 0,-12.10352 -1.66797,-1.41211 -7.11133,0 z m 25.89258,0 0,26.83984 2.80859,0 4.60938,0 0,-2.44336 -4.60938,0 0,-9.84961 3.73243,0 0,-2.44335 -3.73243,0 0,-9.66016 4.60938,0 0,-2.44336 -5.22266,0 -2.19531,0 z m 20.83399,0 0,2.44336 2.98437,0 0,24.39648 2.80859,0 0,-24.39648 2.98633,0 0,-2.44336 -8.77929,0 z m 51.56445,0 -1.66797,1.41211 0,24.01562 1.66797,1.41211 5.35547,0 1.66797,-1.41211 0,-10.84375 -4.47657,0 0,2.44336 1.62305,0 0,7.36914 -3.02734,0 0,-21.95312 3.02734,0 0,5.19141 2.85352,0 0,-6.22266 -1.66797,-1.41211 -5.35547,0 z m 9.56445,0 0,26.83984 2.8086,0 0,-12.10351 3.11718,0 0,12.10351 2.85352,0 0,-12.17968 -1.44922,-1.22071 1.44922,-1.25976 0,-10.76758 -1.66797,-1.41211 -7.11133,0 z m 21.51953,0 0,26.83984 2.8086,0 0,-12.10351 4.52148,0 1.44922,-1.2207 0,-12.10352 -1.66992,-1.41211 -7.10938,0 z m 22.63281,0 0,2.44336 1.88868,0 0,21.95312 -1.88868,0 0,2.44336 1.88868,0 2.80859,0 1.88672,0 0,-2.44336 -1.88672,0 0,-21.95312 1.88672,0 0,-2.44336 -6.58399,0 z m 10.8418,0 -1.66797,1.41211 0,24.01562 1.66797,1.41211 5.35547,0 1.66797,-1.41211 0,-6.10937 -2.85352,0 0,5.07812 -3.02929,0 0,-21.95312 3.02929,0 0,5.19141 2.85352,0 0,-6.22266 -1.66797,-1.41211 -5.35547,0 z m 59.375,0 0,26.83984 7.11133,0 1.66797,-1.41211 0,-10.76757 -1.44922,-1.22071 1.44922,-1.25976 0,-10.76758 -1.66797,-1.41211 -7.11133,0 z m 11.31641,0 0,26.83984 2.81055,0 0,-12.10351 3.11718,0 0,12.10351 2.85156,0 0,-12.17968 -1.44726,-1.22071 1.44726,-1.25976 0,-10.76758 -1.66796,-1.41211 -7.11133,0 z m 32.15234,0 0,26.83984 7.10938,0 1.66797,-1.41211 0,-24.01562 -1.66797,-1.41211 -7.10938,0 z m 11.31641,0 0,2.44336 1.88672,0 0,21.95312 -1.88672,0 0,2.44336 1.88672,0 2.81054,0 1.88672,0 0,-2.44336 -1.88672,0 0,-21.95312 1.88672,0 0,-2.44336 -6.58398,0 z m 21.64453,0 -1.66797,1.41211 0,24.01562 1.66797,1.41211 5.35547,0 1.66797,-1.41211 0,-10.84375 -4.47852,0 0,2.44336 1.625,0 0,7.36914 -3.0293,0 0,-21.95312 3.0293,0 0,5.19141 2.85352,0 0,-6.22266 -1.66797,-1.41211 -5.35547,0 z m 49.81055,0 -1.66797,1.41211 0,24.01562 1.66797,1.41211 5.35546,0 1.66797,-1.41211 0,-6.10937 -2.85351,0 0,5.07812 -3.02735,0 0,-21.95312 3.02735,0 0,5.19141 2.85351,0 0,-6.22266 -1.66797,-1.41211 -5.35546,0 z m 9.56445,0 0,26.83984 2.80859,0 0,-12.10351 3.11719,0 0,12.10351 2.85352,0 0,-12.17968 -1.44922,-1.22071 1.44922,-1.25976 0,-10.76758 -1.66797,-1.41211 -7.11133,0 z m 21.34766,0 0,26.83984 2.80859,0 0,-12.29297 3.64453,0 0,-2.44335 -3.64453,0 0,-9.66016 4.52148,0 0,-2.44336 -5.13476,0 -2.19531,0 z m 9.94531,0 0,2.44336 2.98437,0 0,24.39648 2.81055,0 0,-24.39648 2.98438,0 0,-2.44336 -8.7793,0 z m -468.38867,2.44336 3.11523,0 0,9.77344 -3.11523,0 0,-9.77344 z m 20.06054,0 3.11719,0 0,21.95312 -3.11719,0 0,-21.95312 z m 50.58399,0 3.02929,0 0,21.95312 -3.02929,0 0,-21.95312 z m 11.23242,0 3.11523,0 0,9.77344 -3.11523,0 0,-9.77344 z m 107.85352,0 3.11718,0 0,9.77344 -3.11718,0 0,-9.77344 z m 21.51953,0 3.11718,0 0,9.77344 -3.11718,0 0,-9.77344 z m 92.85156,0 3.11523,0 0,9.77344 -3.11523,0 0,-9.77344 z m 11.31641,0 3.11718,0 0,9.77344 -3.11718,0 0,-9.77344 z m 32.15039,0 3.11718,0 0,21.95312 -3.11718,0 0,-21.95312 z m 92.33593,0 3.11719,0 0,9.77344 -3.11719,0 0,-9.77344 z m -237.89062,5.87891 0.74609,7.71289 -1.49219,0 0.7461,-7.71289 z m 125.6875,0 0.74609,7.71289 -1.49219,0 0.7461,-7.71289 z m 124.48633,0 0.74609,7.71289 -1.49219,0 0.7461,-7.71289 z m 57.09961,0 0.74609,7.71289 -1.49219,0 0.7461,-7.71289 z m -509.28711,6.41406 3.11523,0 0,9.66015 -3.11523,0 0,-9.66015 z m 304.10156,0 3.11523,0 0,9.66015 -3.11523,0 0,-9.66015 z m -157.42188,0.11719 0,3.05664 11.55469,0 0,-3.05664 -11.55469,0 z m 125.60157,0 0,3.05664 11.55273,0 0,-3.05664 -11.55273,0 z m 124.57422,0 0,3.05664 11.55273,0 0,-3.05664 -11.55273,0 z"
           style="color:#000000;font-style:normal;font-variant:normal;font-weight:normal;font-stretch:normal;font-size:medium;line-height:normal;font-family:sans-serif;text-indent:0;text-align:start;text-decoration:none;text-decoration-line:none;text-decoration-style:solid;text-decoration-color:#000000;letter-spacing:normal;word-spacing:normal;text-transform:none;direction:ltr;block-progression:tb;writing-mode:lr-tb;baseline-shift:baseline;text-anchor:start;white-space:normal;clip-rule:nonzero;display:inline;overflow:visible;visibility:visible;opacity:1;isolation:auto;mix-blend-mode:normal;color-interpolation:sRGB;color-interpolation-filters:linearRGB;solid-color:#000000;solid-opacity:1;fill:#000000;fill-opacity:1;fill-rule:nonzero;stroke:#000000;stroke-width:4;stroke-linecap:square;stroke-linejoin:miter;stroke-miterlimit:4;stroke-dasharray:none;stroke-dashoffset:0;stroke-opacity:1;color-rendering:auto;image-rendering:auto;shape-rendering:auto;text-rendering:auto;enable-background:accumulate"
           inkscape:connector-curvature="0" />
      </g>
    </g>
    <path
       inkscape:connector-curvature="0"
       style="color:#000000;font-style:normal;font-variant:normal;font-weight:normal;font-stretch:normal;font-size:medium;line-height:normal;font-family:sans-serif;text-indent:0;text-align:start;text-decoration:none;text-decoration-line:none;text-decoration-style:solid;text-decoration-color:#000000;letter-spacing:normal;word-spacing:normal;text-transform:none;direction:ltr;block-progression:tb;writing-mode:lr-tb;baseline-shift:baseline;text-anchor:start;white-space:normal;clip-rule:nonzero;display:inline;overflow:visible;visibility:visible;opacity:1;isolation:auto;mix-blend-mode:normal;color-interpolation:sRGB;color-interpolation-filters:linearRGB;solid-color:#000000;solid-opacity:1;fill:#ffffff;fill-opacity:1;fill-rule:nonzero;stroke:none;stroke-width:4;stroke-linecap:square;stroke-linejoin:miter;stroke-miterlimit:4;stroke-dasharray:none;stroke-dashoffset:0;stroke-opacity:1;color-rendering:auto;image-rendering:auto;shape-rendering:auto;text-rendering:auto;enable-background:accumulate"
       d="m 79.748697,404.87706 0,1.45113 0,168.97717 0.0015,0 0,70.72836 0,1.45113 47.152392,0 2.90073,0 0,-1.27399 0,-1.62827 0,-2.76055 0,-11.19523 -9.70922,0 7.63565,-9.8178 -5.45019,0 7.2504,-9.32038 -3.68398,0 6.40057,-8.29439 6.40059,8.29439 -3.68398,0 7.2504,9.32038 -5.4502,0 7.63566,9.8178 -9.50243,0 0,11.19523 0,2.76055 0,2.90226 2.90072,0 234.2507,0 234.2507,0 2.90072,0 0,-2.90226 0,-2.76055 0,-11.19523 -9.50243,0 7.63566,-9.8178 -5.4502,0 7.2504,-9.32038 -3.68398,0 6.40058,-8.29439 6.40058,8.29439 -3.68398,0 7.2504,9.32038 -5.45019,0 7.63565,9.8178 -9.70922,0 0,11.19523 0,2.76055 0,1.62827 0,1.27399 2.90072,0 47.1524,0 0,-1.45113 0,-73.53285 0,-167.62381 -414.25723,0 -2.92906,0 -167.410749,0 z m 2.900727,2.90226 164.510026,0 0,164.62378 -164.510026,0 0,-164.62378 z m 167.439076,0 411.35651,0 0,138.62108 c -4.70386,4.22532 -11.09827,6.62503 -17.77545,6.62503 -6.71534,0 -13.14636,-2.42544 -17.8576,-6.69589 a 1.4505085,1.4512741 0 0 0 -0.2592,-0.18706 c -5.24198,-4.59659 -12.21051,-7.15503 -19.4666,-7.15503 -7.25167,0 -14.21578,2.55516 -19.45668,7.14653 a 1.4505085,1.4512741 0 0 0 -0.26911,0.19556 c -4.71125,4.27045 -11.14227,6.69589 -17.8576,6.69589 -6.71534,0 -13.14635,-2.42544 -17.8576,-6.69589 a 1.4505085,1.4512741 0 0 0 -0.2592,-0.18706 c -5.24197,-4.59659 -12.21052,-7.15503 -19.4666,-7.15503 -7.25236,0 -14.21702,2.55585 -19.45809,7.14794 a 1.4505085,1.4512741 0 0 0 -0.2677,0.19415 c -4.71124,4.27045 -11.14226,6.69589 -17.8576,6.69589 -6.71533,0 -13.14777,-2.42544 -17.85901,-6.69589 a 1.4505085,1.4512741 0 0 0 -0.25495,-0.18564 c -5.24224,-4.59783 -12.21228,-7.15645 -19.46943,-7.15645 -7.25343,0 -14.22096,2.55596 -19.46235,7.14936 a 1.4505085,1.4512741 0 0 0 -0.26344,0.19273 c -4.71125,4.27045 -11.14227,6.69589 -17.8576,6.69589 -6.71534,0 -13.14777,-2.42544 -17.85901,-6.69589 a 1.4505085,1.4512741 0 0 0 -0.25496,-0.18564 c -5.24223,-4.59783 -12.21228,-7.15645 -19.46942,-7.15645 -7.25344,0 -14.22097,2.55596 -19.46235,7.14936 a 1.4505085,1.4512741 0 0 0 -0.26345,0.19273 c -4.71124,4.27045 -11.14227,6.69589 -17.8576,6.69589 -6.71532,0 -13.14777,-2.42544 -17.85902,-6.69589 a 1.4505085,1.4512741 0 0 0 -0.25494,-0.18564 c -5.24224,-4.59783 -12.21229,-7.15645 -19.46943,-7.15645 -7.25445,0 -14.22213,2.55756 -19.46376,7.15219 a 1.4505085,1.4512741 0 0 0 -0.26203,0.1899 c -4.71125,4.27045 -11.14227,6.69589 -17.8576,6.69589 -6.66336,0 -13.04599,-2.39051 -17.74713,-6.59953 l 0,-138.64658 z m -98.80743,35.7879 c -4.22918,0.0617 -8.17672,2.61624 -9.86218,6.68738 -1.59221,3.84586 -0.79768,8.16142 1.77896,11.18673 -1.87039,0.67986 -3.59019,1.76265 -5.02387,3.19702 -2.57026,2.57169 -4.01556,6.05961 -4.02107,9.69592 l 10.89613,0 c 0.32177,0 0.48381,-0.0199 0.6997,-0.0482 1.86814,-0.57835 1.63669,-3.59154 -0.6997,-3.55838 l -6.36516,0 c 0.49283,-1.2508 1.23637,-2.4019 2.20528,-3.37133 1.20054,-1.20117 2.67839,-2.0589 4.28169,-2.5168 l 0,2.66843 c -0.037,2.5984 3.87691,2.5984 3.83978,0 l 0,-5.2405 c 0.007,-0.52916 -0.20354,-1.0377 -0.58354,-1.40578 -0.14185,-0.16071 -0.31048,-0.29719 -0.49715,-0.40247 -3.05105,-1.76254 -4.3113,-5.47707 -2.96304,-8.73369 0.77667,-1.87602 2.27405,-3.24319 4.05365,-3.89424 -0.31589,0.88011 -0.43444,1.84055 -0.30594,2.81723 0.39428,2.99614 2.97646,5.26176 5.99692,5.26176 0.0341,-1.5e-4 0.0679,1.7e-4 0.10198,-0.007 0.0471,0.007 0.0931,0.007 0.14021,0.007 l 4.81,0 c 2.59651,0.037 2.59651,-3.87987 0,-3.84323 l -4.81,0 c -0.0334,0 -0.0671,-1.7e-4 -0.10056,0.007 -0.0471,0 -0.0943,-0.007 -0.14163,-0.007 -1.12295,0 -2.04315,-0.80623 -2.18971,-1.92019 -0.14656,-1.11403 0.53277,-2.13098 1.61749,-2.42186 0.26448,-0.066 0.51147,-0.19038 0.72519,-0.35994 0.48413,-0.34138 0.78351,-0.88614 0.81157,-1.47806 0.0428,-0.91218 -0.56131,-1.72888 -1.44611,-1.95279 -0.98175,-0.26323 -1.97294,-0.38132 -2.94889,-0.36703 z m 192.46635,2.18236 0,48.01055 9.59733,0 0,-19.84533 8.76591,0 11.48394,19.84533 11.00378,0 -11.96408,-20.93225 c 5.88611,-1.89905 8.82965,-6.31672 8.82965,-13.25147 0,-9.21787 -5.5989,-13.82683 -16.79532,-13.82683 l -20.92121,0 z m 66.16717,0 c -6.82439,0 -12.52882,2.29398 -17.114,6.88153 -4.58514,4.5876 -6.8779,10.29499 -6.8779,17.12304 0,6.80671 2.29276,12.51552 6.8779,17.12445 4.58518,4.5876 10.28961,6.88153 17.114,6.88153 6.8244,0 12.53019,-2.29393 17.11542,-6.88153 4.58513,-4.5876 6.8779,-10.29641 6.8779,-17.12445 0,-6.82805 -2.29277,-12.53544 -6.8779,-17.12304 -4.58523,-4.58755 -10.29102,-6.88153 -17.11542,-6.88153 z m 51.47941,0 c -6.8245,0 -12.52883,2.29398 -17.11401,6.88153 -4.58513,4.5876 -6.8779,10.29499 -6.8779,17.12304 0,6.80671 2.29277,12.51552 6.8779,17.12445 4.58518,4.5876 10.28951,6.88153 17.11401,6.88153 6.82439,0 12.53029,-2.29393 17.11542,-6.88153 4.58523,-4.5876 6.8779,-10.29641 6.8779,-17.12445 0,-6.82805 -2.29267,-12.53544 -6.8779,-17.12304 -4.58513,-4.58755 -10.29103,-6.88153 -17.11542,-6.88153 z m 43.67803,0 c -3.83877,0 -7.58078,1.29109 -11.22757,3.87299 -3.62548,2.56047 -5.43886,5.96414 -5.43886,10.21033 0,4.69431 1.59974,8.00092 4.79866,9.92125 3.19892,1.92033 6.71744,3.09475 10.55621,3.52154 4.26528,0.42677 6.92063,1.54621 7.96567,3.35998 1.06626,1.81367 1.06626,3.62807 0,5.44173 -1.04504,1.81372 -3.70039,2.72087 -7.96567,2.72087 -5.11833,-0.42678 -8.74369,-1.92045 -10.8763,-4.48093 l -6.39775,6.40113 c 2.13261,2.13379 4.69242,3.83977 7.67814,5.12005 2.98567,1.28028 6.70658,1.92161 11.16383,1.92161 4.69174,0 8.79647,-1.38815 12.31534,-4.16208 3.54015,-2.77388 5.31139,-6.08049 5.31139,-9.92124 0,-4.90763 -1.65319,-8.48142 -4.95871,-10.72192 -3.30562,-2.24044 -6.98438,-3.57379 -11.03636,-4.00053 -3.83877,-0.64013 -6.29173,-1.60071 -7.35804,-2.88099 -1.06636,-1.28023 -1.06636,-2.82735 0,-4.64107 1.06631,-1.81366 3.51927,-2.72086 7.35804,-2.72086 3.83873,0 6.82447,1.27987 8.95713,3.84039 l 6.39775,-6.40112 c -2.13267,-2.13379 -4.42538,-3.73296 -6.8779,-4.79978 -2.45257,-1.06692 -5.90784,-1.60135 -10.365,-1.60135 z m 21.09826,0 0,8.96186 15.99507,0 0,39.04869 9.59591,0 0,-39.04869 15.99507,0 0,-8.96186 -41.58605,0 z m -358.6746,7.44129 c -0.61364,-0.0215 -1.20094,0.25283 -1.57926,0.7369 l -10.28851,10.29395 c -1.88511,1.81057 0.90549,4.60413 2.71518,2.71803 l 9.30697,-9.31188 c 2.18795,1.94451 2.96457,5.08915 1.80304,7.89476 -1.30148,3.1438 -4.62325,4.86824 -7.91326,4.1635 -0.276,-0.13931 -0.58183,-0.20969 -0.8909,-0.20548 -0.81177,0.0131 -1.52719,0.53577 -1.78746,1.30516 -0.0152,0.0428 -0.0287,0.0868 -0.041,0.13037 -0.0428,0.14475 -0.0683,0.29428 -0.0765,0.44498 -0.007,0.10651 6.8e-4,0.21299 0.0141,0.31885 l 0,12.28358 c -4.67575,-0.42098 -9.33728,1.45797 -12.41023,5.13847 -3.60046,4.31253 -4.38178,10.33251 -2.00275,15.42249 2.3791,5.08998 7.49807,8.34825 13.11417,8.34825 2.59601,0.0363 2.59601,-3.87802 0,-3.84181 -4.13433,0 -7.8856,-2.38767 -9.63698,-6.13471 -1.75139,-3.74703 -1.17886,-8.15663 1.47161,-11.33127 2.65054,-3.17463 6.8864,-4.52364 10.88339,-3.46627 1.19104,0.33332 2.3822,-0.531 2.43615,-1.76714 0.007,-0.11537 4.1e-4,-0.23001 -0.017,-0.34436 l 0,-0.12755 0,-12.1858 c 4.43064,0.15861 8.64457,-2.43715 10.40183,-6.68171 2.06162,-4.97983 0.12669,-10.74693 -4.50548,-13.47962 -0.0196,-0.0123 -0.0392,-0.0252 -0.0595,-0.0369 -0.009,-0.007 -0.0168,-0.0105 -0.0255,-0.0156 -0.009,-0.007 -0.0154,-0.01 -0.0241,-0.0142 -0.0341,-0.0196 -0.0708,-0.0379 -0.10624,-0.0553 -0.0406,-0.0196 -0.0802,-0.0378 -0.12181,-0.0553 -0.0102,-0.007 -0.021,-0.008 -0.0312,-0.0113 -0.19942,-0.079 -0.41176,-0.12401 -0.62603,-0.13321 l -0.001,0 -0.001,0 z m 242.38774,1.52057 c 4.2866,0 7.76292,1.44025 10.42874,4.32079 2.66577,2.88059 3.99841,6.45439 3.99841,10.72192 0,4.26753 -1.33264,7.84274 -3.99841,10.72333 -2.66582,2.88059 -6.12105,4.32079 -10.365,4.32079 -4.28665,0 -7.76297,-1.4402 -10.42874,-4.32079 -2.66577,-2.88059 -3.99841,-6.4558 -3.99841,-10.72333 0,-4.26753 1.33264,-7.84133 3.99841,-10.72192 2.66577,-2.88054 6.12099,-4.32079 10.365,-4.32079 z m 51.47941,0 c 4.28655,0 7.76286,1.44025 10.42873,4.32079 2.66577,2.88059 3.99842,6.45439 3.99842,10.72192 0,4.26753 -1.33265,7.84274 -3.99842,10.72333 -2.66587,2.88059 -6.12114,4.32079 -10.365,4.32079 -4.28664,0 -7.76292,-1.4402 -10.42873,-4.32079 -2.66577,-2.88059 -3.99842,-6.4558 -3.99842,-10.72333 0,-4.26753 1.33265,-7.84133 3.99842,-10.72192 2.66581,-2.88054 6.12104,-4.32079 10.365,-4.32079 z m -108.01809,0.0326 13.532,0 c 3.79609,0.12804 5.74727,1.77079 5.85387,4.92874 -0.1066,3.45673 -2.09009,5.2176 -5.95018,5.28159 l -13.43569,0 0,-10.21033 z m -213.50936,21.83779 c -0.50023,-0.0138 -0.98574,0.167 -1.35406,0.50591 -9.77835,8.72738 -12.35649,23.02681 -6.24053,34.62162 3.92026,7.4321 10.77549,12.53582 18.5403,14.41634 3.12292,1.72691 5.05786,4.98952 5.05786,8.54522 -0.037,2.59803 3.87803,2.59803 3.84119,0 0,-2.81541 -0.8758,-5.50524 -2.42624,-7.74172 2.34444,0.0189 4.71822,-0.25209 7.07477,-0.83609 12.71925,-3.15215 21.66906,-14.59408 21.66906,-27.70467 5e-4,-0.0734 2.4e-4,-0.14658 -0.01,-0.21965 0.007,-0.0697 0.01,-0.13866 0.01,-0.20831 l 0,-4.81254 c 1.4e-4,-0.0116 1.4e-4,-0.0231 0,-0.0354 0.0624,-0.91291 0.55563,-1.73577 1.33846,-2.19796 0.83853,-0.49512 1.86257,-0.49505 2.70102,0 0.83846,0.49506 1.35122,1.40193 1.35122,2.3921 -0.0515,2.64178 3.849,2.64178 3.79729,0 0,-2.37179 -1.24069,-4.57054 -3.24915,-5.75633 -2.0084,-1.18594 -4.49134,-1.18601 -6.49973,0 -1.81332,1.07064 -2.99862,2.96929 -3.21233,5.07328 -0.0464,0.17102 -0.0673,0.34723 -0.0651,0.52434 l 0,4.81111 c -5.1e-4,0.0736 -7.3e-4,0.14793 0.01,0.22107 -0.007,0.0689 -0.01,0.13866 -0.01,0.20831 0,11.3643 -7.72766,21.24262 -18.75274,23.97481 -3.80489,0.94302 -7.65939,0.94908 -11.29414,0.14029 -0.10776,-0.0363 -0.21896,-0.0623 -0.33144,-0.0793 -6.7618,-1.60306 -12.72931,-6.03161 -16.14521,-12.50748 -5.30136,-10.05052 -3.07537,-22.39719 5.40063,-29.96214 1.32476,-1.14661 0.54987,-3.32296 -1.20108,-3.37273 z m 48.85062,2.85691 c -2.10593,-7e-5 -4.21237,0.55555 -6.09748,1.66653 -3.60973,2.12743 -5.8896,5.99083 -6.07764,10.21601 -0.0319,0.14547 -0.0482,0.29536 -0.0453,0.44497 0.0254,2.47454 -1.2697,4.73978 -3.4092,5.95757 -2.1395,1.21779 -4.78554,1.19166 -6.95013,-0.0694 -2.1646,-1.26125 -3.50734,-3.55529 -3.53243,-6.02983 0.007,-1.08291 -0.88657,-1.9724 -1.96876,-1.96696 -1.05934,0.007 -1.89655,0.8685 -1.87102,1.92869 0.0392,3.84513 2.13632,7.42597 5.48985,9.37991 3.35353,1.95387 7.46683,1.99439 10.78142,0.1077 3.31466,-1.88669 5.34048,-5.42424 5.30147,-9.26937 -5.1e-4,-0.0414 1.7e-4,-0.0845 -0.007,-0.12612 0.0704,-2.98309 1.64783,-5.71452 4.18821,-7.21172 2.59913,-1.53181 5.79429,-1.53174 8.39341,0 2.56251,1.51026 4.14673,4.2761 4.19104,7.28966 -0.0167,0.10673 -0.0241,0.21499 -0.0226,0.3231 l 0,1.23573 c -0.0362,2.59789 3.87783,2.59789 3.84121,0 l 0,-1.23573 c 5e-4,-0.0799 -0.008,-0.16019 -0.0142,-0.23949 -0.016,-4.4266 -2.33726,-8.51883 -6.09464,-10.73326 -1.88511,-1.11098 -3.99147,-1.66645 -6.09747,-1.66652 l 0.001,-0.001 z m 238.21511,22.73624 c -1.51295,0 -3.3175,1.06183 -4.56496,3.23954 l -4.3001,7.41011 c -1.61918,-0.84985 -2.46873,-2.39079 -2.46873,-3.93109 0,-1.27474 0.58309,-2.54957 1.77754,-3.47902 l -0.90223,-1.61977 c -1.96415,1.40753 -2.83982,3.2936 -2.83982,5.15264 0,2.20427 1.24755,4.32848 3.47719,5.497 l -0.82291,1.43413 c -1.93761,3.34615 -0.79574,7.06433 3.1061,7.06433 4.11417,0 6.76788,-2.44308 9.05061,-5.09879 -0.005,-0.0131 -0.0158,-0.0252 -0.0213,-0.0382 0.017,0.0116 0.0325,0.0266 0.0496,0.0382 1.32716,-1.5403 2.36194,-2.92255 4.56497,-5.92356 l 0.3725,0.45207 c 0.34504,0.45144 0.47714,1.00959 0.15864,1.56733 l -2.91914,5.07186 c -1.16791,2.04493 -0.34588,3.93109 1.88376,3.93109 1.64192,0 3.46162,-1.27231 5.20376,-2.97028 0.13048,1.7222 1.52299,2.97028 3.73779,2.97028 1.99406,0 3.97488,-0.99412 5.74197,-2.39918 -0.12709,1.36529 0.74965,2.39918 2.39933,2.39918 1.11483,0 2.49422,-0.71797 3.82137,-1.80682 0.13271,1.0623 0.98264,1.80682 2.38942,1.80682 1.38851,0 2.90363,-0.91043 4.39216,-2.21637 -0.0349,1.27343 0.83416,2.21637 2.40925,2.21637 1.40198,0 2.93366,-0.9254 4.43607,-2.2518 -0.0521,1.29121 0.81692,2.2518 2.40642,2.2518 1.57176,0 3.30627,-1.16923 4.97996,-2.75771 -0.64929,3.44055 3.18544,3.5619 5.12867,0.63345 l 1.43337,-2.15119 c 0.52918,1.05897 1.97416,1.54433 3.58625,0.77234 -0.1415,1.99188 1.30323,3.50311 3.74063,3.50311 3.13214,0 6.23816,-2.44308 8.52089,-5.09879 -0.18587,-0.37178 -0.66378,-0.79715 -1.03537,-0.95655 l -0.18554,0.21257 c -1.9907,2.31048 -4.53945,4.14223 -6.47706,4.14223 -1.69874,0 -2.70745,-1.06115 -1.43337,-3.29197 l 0.26486,-0.47899 c 1.77836,0.74356 5.12335,0.39814 7.19374,-3.18709 l 0.39801,-0.69014 c 1.48647,-2.54956 0.0535,-4.46108 -2.20246,-4.46108 -2.22964,0 -4.00893,1.16879 -5.17683,3.1871 l -2.66986,4.58295 -0.17138,0.19699 c -1.48648,1.61996 -4.08724,1.96538 -2.62737,-1.009 l 4.48564,-6.69305 -2.49422,0 -6.18529,9.29488 c -1.67227,2.52294 -1.85775,2.57635 -0.79601,-0.0794 l 3.68965,-9.21552 -2.78742,0 -3.00979,7.49656 c -0.004,0 -0.008,-0.007 -0.0113,-0.007 l -0.18554,0.21257 c -1.99077,2.31049 -3.92894,4.14223 -5.14993,4.14223 -0.61045,0 -0.95576,-0.42462 -0.31868,-1.51348 l 5.92043,-10.33079 -2.76051,0 -4.32843,7.50081 c -0.007,0 -0.0135,-0.008 -0.0198,-0.0113 l -0.18696,0.21257 c -1.99077,2.31048 -3.92752,4.14223 -5.14851,4.14223 -0.61045,0 -0.95575,-0.42463 -0.31868,-1.51348 l 5.91902,-10.33079 2.25627,0 0.796,-1.32785 -2.28177,0 2.60045,-4.51493 -2.7605,0 -2.60188,4.51493 -2.49422,0 -0.796,1.32785 2.52114,0 -4.35393,7.54473 -0.13738,0.15731 c -1.99077,2.31048 -3.92901,4.14223 -5.14993,4.14223 -0.61053,0 -0.95568,-0.42463 -0.31868,-1.51348 l 4.45874,-7.80833 -1.5651,0 c 0.10617,-1.16852 -1.08866,-2.78746 -2.89364,-2.78746 -1.48641,0 -3.55718,1.16879 -4.72501,3.1871 l -2.64578,4.56878 -0.001,0 -0.18555,0.21257 c -1.99076,2.31049 -4.53802,4.14223 -6.47564,4.14223 -1.69881,0 -2.70743,-1.06114 -1.43336,-3.29196 l 0.26486,-0.47898 c 1.77843,0.74356 5.12342,0.39813 7.19374,-3.1871 l 0.398,-0.69014 c 1.48641,-2.54956 0.0521,-4.46109 -2.20387,-4.46109 -2.22964,0 -4.00751,1.1688 -5.17542,3.1871 l -2.68544,4.60705 -0.15013,0.17289 c -1.99077,2.31049 -3.92894,4.14223 -5.14993,4.14223 -0.61053,0 -0.95568,-0.42462 -0.31868,-1.51347 l 2.76051,-4.83379 c 0.95557,-1.67315 0.50449,-2.65525 -0.398,-3.74403 l -1.5396,-1.85926 c -0.39812,-0.50456 -0.39732,-1.06173 0.16005,-1.59284 l -1.43337,-1.56734 c -1.56603,1.40753 -1.69879,2.9752 -0.71668,4.24994 l 0.23937,0.31744 c -1.22099,1.72626 -2.8677,4.06403 -4.67261,6.18855 0.004,0.007 0.0111,0.0126 0.0156,0.0184 -0.0143,-0.007 -0.0298,-0.0148 -0.0439,-0.0184 l -0.18555,0.21257 c -1.99077,2.31049 -4.43282,4.14223 -7.16683,4.14223 -1.88453,0 -3.0252,-1.88553 -1.37955,-4.70057 l 0.76909,-1.35335 c 0.50429,0.0797 1.00913,0.13179 1.56651,0.13179 2.94634,0 6.29058,-1.51368 8.46706,-5.31136 0.76978,-1.35448 1.11469,-2.62825 1.11469,-3.7171 0,-2.49638 -1.61889,-4.11673 -3.66274,-4.11673 l 0,-0.001 z m 0,2.38926 c 1.0352,0 1.51269,0.69143 1.51269,1.70055 0,2.57611 -3.13166,7.22305 -7.4317,7.22305 l -0.55805,0 3.98142,-6.9042 c 0.82286,-1.40759 1.72593,-2.0194 2.49564,-2.0194 z m 49.30811,0.21257 c -0.90242,0 -1.592,0.71688 -1.592,1.61977 0,0.90296 0.68958,1.59426 1.592,1.59426 0.90249,0 1.61892,-0.6913 1.61892,-1.59426 0,-0.90289 -0.71643,-1.61977 -1.61892,-1.61977 z m -30.21968,6.40821 c 0.88521,-0.053 1.37042,0.79573 0.44474,2.4091 l -0.398,0.69014 c -1.32723,2.25738 -3.10627,2.20411 -4.14147,1.83233 l 1.77896,-3.10632 c 0.69675,-1.19667 1.62727,-1.78397 2.31577,-1.82525 z m 46.86487,0 c 0.88522,-0.053 1.37046,0.79573 0.44474,2.4091 l -0.398,0.69014 c -1.32716,2.25738 -3.10485,2.20411 -4.14005,1.83233 l 1.77754,-3.10632 c 0.69675,-1.19667 1.62726,-1.78397 2.31577,-1.82525 z m -36.60893,0.18706 c 0.93451,-0.007 1.53337,0.81778 0.77192,2.22204 l -2.15005,3.77095 c -1.67219,2.62916 -3.31737,3.87724 -4.45873,3.87724 -0.61046,0 -0.95569,-0.42463 -0.31869,-1.51349 l 3.84828,-6.71855 c 0.65034,-1.12702 1.58043,-1.63362 2.30727,-1.63819 z m -50.94402,3.20552 a 1.6062619,1.6071097 0 0 0 -1.60617,1.60702 1.6062619,1.6071097 0 0 0 1.60617,1.60701 1.6062619,1.6071097 0 0 0 1.60758,-1.60701 1.6062619,1.6071097 0 0 0 -1.60758,-1.60702 z m 100.90224,0 a 1.6062619,1.6071097 0 0 0 -1.60616,1.60702 1.6062619,1.6071097 0 0 0 1.60616,1.60701 1.6062619,1.6071097 0 0 0 1.60617,-1.60701 1.6062619,1.6071097 0 0 0 -1.60617,-1.60702 z m -200.78469,27.31212 c 6.71533,0 13.14635,2.42401 17.8576,6.69446 a 1.4505085,1.4512741 0 0 0 0.28185,0.20974 c 5.23936,4.58354 12.19876,7.13377 19.44394,7.13377 7.25411,0 14.22086,-2.55657 19.46235,-7.15078 a 1.4505085,1.4512741 0 0 0 0.26203,-0.19273 c 4.71124,-4.27045 11.14368,-6.69446 17.85902,-6.69446 6.71533,0 13.14635,2.42401 17.8576,6.69446 a 1.4505085,1.4512741 0 0 0 0.28185,0.20974 c 5.23936,4.58354 12.19876,7.13377 19.44394,7.13377 7.25411,0 14.22085,-2.55657 19.46235,-7.15078 a 1.4505085,1.4512741 0 0 0 0.26203,-0.19273 c 4.71124,-4.27045 11.14368,-6.69446 17.85901,-6.69446 6.71534,0 13.14636,2.42401 17.8576,6.69446 a 1.4505085,1.4512741 0 0 0 0.28186,0.20974 c 5.23936,4.58354 12.19876,7.13377 19.44393,7.13377 7.25203,0 14.21712,-2.55479 19.4581,-7.14652 a 1.4505085,1.4512741 0 0 0 0.26769,-0.19699 c 4.71125,-4.27045 11.14227,-6.69446 17.8576,-6.69446 6.71533,0 13.14635,2.42401 17.8576,6.69446 a 1.4505085,1.4512741 0 0 0 0.28612,0.21116 c 5.23902,4.5823 12.19557,7.13235 19.43968,7.13235 7.25203,0 14.21712,-2.55479 19.4581,-7.14652 a 1.4505085,1.4512741 0 0 0 0.26769,-0.19699 c 4.71125,-4.27045 11.14227,-6.69446 17.8576,-6.69446 6.71533,0 13.14636,2.42401 17.8576,6.69446 a 1.4505085,1.4512741 0 0 0 0.28611,0.21116 c 5.23903,4.5823 12.19558,7.13235 19.43969,7.13235 6.49926,0 12.77088,-2.04871 17.77545,-5.77901 l 0,22.34087 -411.35651,0 0,-22.3182 c 4.99989,3.71614 11.26086,5.75634 17.74713,5.75634 7.2541,0 14.22085,-2.55657 19.46234,-7.15078 a 1.4505085,1.4512741 0 0 0 0.26203,-0.19273 c 4.71125,-4.27045 11.14369,-6.69446 17.85902,-6.69446 z m -222.76818,33.51342 289.39708,0 289.39709,0 0,69.17946 -44.25167,0 0,-11.05352 12.74025,0 -7.63565,-9.8178 5.45303,0 -7.2504,-9.32038 3.65282,0 -11.15534,-14.45885 -1.14868,-1.48798 -12.304,15.94683 3.65282,0 -7.25041,9.32038 5.45303,0 -7.63566,9.8178 12.53347,0 0,11.05352 -234.2507,0 -234.25069,0 0,-11.05352 12.53346,0 -7.63565,-9.8178 5.45302,0 -7.2504,-9.32038 3.65282,0 -12.30401,-15.94683 -1.14867,1.48798 -11.15534,14.45885 3.65282,0 -7.2504,9.32038 5.45303,0 -7.63566,9.8178 12.74026,0 0,11.05352 -44.25167,0 0,-69.17946 z m 177.26869,24.82366 -0.22237,0.0284 -1.81578,0 0,19.47545 2.03815,0 0,-9.1971 1.27331,6.34303 2.06933,0 1.30447,-6.4819 0,9.36289 2.03816,0 0,-19.50237 -1.81437,0 -0.25495,-0.0284 -1.84695,9.14325 -0.44474,2.35383 -0.44615,-2.21637 -1.87811,-9.28071 z m 17.87602,0 -0.25496,0.0284 -1.81436,0 0,19.50237 2.03673,0 0,-9.36289 1.87812,9.2807 0,0.0822 2.03673,0 0,-19.50237 -2.03673,0 0,9.1149 -1.84553,-9.14325 z m 78.20348,0 0,8.83857 -2.26053,0 0,-8.78188 -2.03674,0 0,19.47403 2.03674,0 0,-8.91934 2.26053,0 0,8.86408 2.06932,0 0,-19.47546 -2.06932,0 z m 19.91558,0 -1.20958,1.026 0,6.06668 4.26611,5.09738 0,5.56785 -2.19679,0 0,-3.71143 -2.06932,0 0,4.45967 1.20958,1.02457 3.91627,0 1.17701,-1.02457 0,-6.73131 -4.23354,-5.04211 0,-4.93157 2.19679,0 0,3.68451 2.03675,0 0,-4.45967 -1.17701,-1.026 -3.91627,0 z m 60.67024,0 -0.25353,0.0284 -1.81437,0 0,19.50237 2.03674,0 0,-9.36289 1.87811,9.2807 0,0.0822 2.03674,0 0,-19.50237 -2.03674,0 0,9.1149 -1.84695,-9.14325 z m 22.6945,0 -0.25494,0.0284 -1.81437,0 0,19.50237 2.03674,0 0,-9.36289 1.8781,9.2807 0,0.0822 2.03816,0 0,-19.50237 -2.03816,0 0,9.1149 -1.84553,-9.14325 z m 82.141,0 -1.20958,1.026 0,6.06668 4.26611,5.09738 0,5.56785 -2.19679,0 0,-3.71143 -2.06932,0 0,4.45967 1.20958,1.02457 3.91626,0 1.17701,-1.02457 0,-6.73131 -4.23353,-5.04211 0,-4.93157 2.19679,0 0,3.68451 2.03674,0 0,-4.45967 -1.17701,-1.026 -3.91626,0 z m 8.97271,0 -0.22237,0.0284 -1.81437,0 0,19.47545 2.03674,0 0,-9.1971 1.27331,6.34303 2.06932,0 1.30448,-6.4819 0,9.36289 2.03816,0 0,-19.50237 -1.81437,0 -0.25496,-0.0284 -1.84694,9.14325 -0.44474,2.35383 -0.44616,-2.21637 -1.8781,-9.28071 z m 17.87601,0 -0.25495,0.0284 -1.81436,0 0,19.50237 2.03673,0 0,-9.36289 1.87811,9.2807 0,0.0822 2.03816,0 0,-19.50237 -2.03816,0 0,9.1149 -1.84553,-9.14325 z m -396.32598,0.0284 1.91068,19.50237 2.06932,0 0.8909,-9.58396 0.95463,9.58396 2.03816,0 1.94184,-19.50237 -2.06931,0 -0.95464,9.75119 -0.95605,-9.75119 -1.90927,0 -1.01837,9.91841 -0.98721,-9.91841 -1.91068,0 z m 47.7501,0 1.90927,19.50237 2.769,0 1.94185,-19.50237 -2.0679,0 -1.3059,13.4357 -1.33705,-13.4357 -1.90927,0 z m 117.67632,0 -1.91069,19.50237 2.03816,0 0.60479,-6.01141 1.46452,0 0.57222,6.01141 1.94184,0 -1.94184,-19.50237 -2.769,0 z m 91.14628,0 -1.91069,19.50237 2.03816,0 0.60479,-6.01141 1.46311,0 0.57363,6.01141 1.94184,0 -1.94184,-19.50237 -2.769,0 z m 90.27521,0 -1.90927,19.50237 2.03674,0 0.60479,-6.01141 1.46453,0 0.57221,6.01141 1.94185,0 -1.94185,-19.50237 -2.769,0 z m 41.40759,0 -1.91068,19.50237 2.03816,0 0.60478,-6.01141 1.46453,0 0.57221,6.01141 1.94185,0 -1.94185,-19.50237 -2.769,0 z m -377.17382,0.0284 0,19.47403 2.03816,0 3.34263,0 0,-1.77281 -3.34263,0 0,-7.14653 2.70526,0 0,-1.77281 -2.70526,0 0,-7.00907 3.34263,0 0,-1.77281 -3.78879,0 -1.592,0 z m 7.27448,0 0,19.47403 5.15701,0 1.20958,-1.02457 0,-7.81257 -1.04953,-0.8857 1.04953,-0.91404 0,-7.81257 -1.20958,-1.02458 -5.15701,0 z m 14.54896,0 0,19.47403 5.15701,0 1.20958,-1.02457 0,-17.42488 -1.20958,-1.02458 -5.15701,0 z m 8.20646,0 0,19.47403 2.03815,0 3.34264,0 0,-1.77281 -3.34264,0 0,-7.14653 2.70527,0 0,-1.77281 -2.70527,0 0,-7.00907 3.34264,0 0,-1.77281 -3.7888,0 -1.59199,0 z m 14.54895,0 0,19.47403 2.03674,0 3.34263,0 0,-1.77281 -3.34263,0 0,-7.14653 2.70668,0 0,-1.77281 -2.70668,0 0,-7.00907 3.34263,0 0,-1.77281 -3.78737,0 -1.592,0 z m 7.21216,0 0,19.47403 2.03674,0 2.77042,0 0,-1.77281 -2.77042,0 0,-17.70122 -2.03674,0 z m 7.92459,0 -1.20958,1.02458 0,17.42488 1.20958,1.02457 3.88369,0 1.20958,-1.02457 0,-17.42488 -1.20958,-1.02458 -3.88369,0 z m 6.93455,0 0,19.47403 2.03816,0 0,-8.78187 3.27748,0 1.05095,-0.8857 0,-8.78188 -1.20958,-1.02458 -5.15701,0 z m 18.77683,0 0,19.47403 2.03674,0 3.34263,0 0,-1.77281 -3.34263,0 0,-7.14653 2.70669,0 0,-1.77281 -2.70669,0 0,-7.00907 3.34263,0 0,-1.77281 -3.78737,0 -1.592,0 z m 15.10843,0 0,1.77281 2.16421,0 0,17.70122 2.03673,0 0,-17.70122 2.16564,0 0,-1.77281 -6.36658,0 z m 37.39359,0 -1.20958,1.02458 0,17.42488 1.20958,1.02457 3.88369,0 1.20958,-1.02457 0,-7.86784 -3.24632,0 0,1.77281 1.177,0 0,5.34679 -2.19537,0 0,-15.92841 2.19537,0 0,3.76671 2.06932,0 0,-4.51494 -1.20958,-1.02458 -3.88369,0 z m 6.93597,0 0,19.47403 2.03674,0 0,-8.78187 2.26052,0 0,8.78187 2.06933,0 0,-8.83714 -1.05095,-0.8857 1.05095,-0.91404 0,-7.81257 -1.20959,-1.02458 -5.157,0 z m 15.60557,0 0,19.47403 2.03674,0 0,-8.78187 3.2789,0 1.05095,-0.8857 0,-8.78188 -1.211,-1.02458 -5.15559,0 z m 16.4129,0 0,1.77281 1.36963,0 0,15.92841 -1.36963,0 0,1.77281 1.36963,0 2.03674,0 1.36822,0 0,-1.77281 -1.36822,0 0,-15.92841 1.36822,0 0,-1.77281 -4.77459,0 z m 7.86227,0 -1.20958,1.02458 0,17.42488 1.20958,1.02457 3.88369,0 1.20958,-1.02457 0,-4.43275 -2.06932,0 0,3.68451 -2.19678,0 0,-15.92841 2.19678,0 0,3.76671 2.06932,0 0,-4.51494 -1.20958,-1.02458 -3.88369,0 z m 43.05767,0 0,19.47403 5.157,0 1.20959,-1.02457 0,-7.81257 -1.05095,-0.8857 1.05095,-0.91404 0,-7.81257 -1.20959,-1.02458 -5.157,0 z m 8.20645,0 0,19.47403 2.03816,0 0,-8.78187 2.26052,0 0,8.78187 2.0679,0 0,-8.83714 -1.04952,-0.8857 1.04952,-0.91404 0,-7.81257 -1.20957,-1.02458 -5.15701,0 z m 23.31629,0 0,19.47403 5.15559,0 1.20959,-1.02457 0,-17.42488 -1.20959,-1.02458 -5.15559,0 z m 8.20646,0 0,1.77281 1.36821,0 0,15.92841 -1.36821,0 0,1.77281 1.36821,0 2.03815,0 1.36822,0 0,-1.77281 -1.36822,0 0,-15.92841 1.36822,0 0,-1.77281 -4.77458,0 z m 15.69621,0 -1.20958,1.02458 0,17.42488 1.20958,1.02457 3.88369,0 1.20958,-1.02457 0,-7.86784 -3.24774,0 0,1.77281 1.17842,0 0,5.34679 -2.19679,0 0,-15.92841 2.19679,0 0,3.76671 2.06932,0 0,-4.51494 -1.20958,-1.02458 -3.88369,0 z m 36.1217,0 -1.20958,1.02458 0,17.42488 1.20958,1.02457 3.88369,0 1.20958,-1.02457 0,-4.43275 -2.06932,0 0,3.68451 -2.19538,0 0,-15.92841 2.19538,0 0,3.76671 2.06932,0 0,-4.51494 -1.20958,-1.02458 -3.88369,0 z m 6.93597,0 0,19.47403 2.03674,0 0,-8.78187 2.26053,0 0,8.78187 2.06932,0 0,-8.83714 -1.05095,-0.8857 1.05095,-0.91404 0,-7.81257 -1.20959,-1.02458 -5.157,0 z m 15.48093,0 0,19.47403 2.03674,0 0,-8.91934 2.64295,0 0,-1.77281 -2.64295,0 0,-7.00907 3.27889,0 0,-1.77281 -3.72363,0 -1.592,0 z m 7.21216,0 0,1.77281 2.16421,0 0,17.70122 2.03816,0 0,-17.70122 2.16422,0 0,-1.77281 -6.36659,0 z m -339.66691,1.77281 2.25911,0 0,7.09126 -2.25911,0 0,-7.09126 z m 14.54754,0 2.26053,0 0,15.92841 -2.26053,0 0,-15.92841 z m 36.68258,0 2.19679,0 0,15.92841 -2.19679,0 0,-15.92841 z m 8.14555,0 2.25911,0 0,7.09126 -2.25911,0 0,-7.09126 z m 78.2134,0 2.26052,0 0,7.09126 -2.26052,0 0,-7.09126 z m 15.60557,0 2.26052,0 0,7.09126 -2.26052,0 0,-7.09126 z m 67.33426,0 2.25911,0 0,7.09126 -2.25911,0 0,-7.09126 z m 8.20645,0 2.26052,0 0,7.09126 -2.26052,0 0,-7.09126 z m 23.31488,0 2.26052,0 0,15.92841 -2.26052,0 0,-15.92841 z m 66.96033,0 2.26053,0 0,7.09126 -2.26053,0 0,-7.09126 z m -172.51393,4.26553 0.54105,5.5962 -1.08211,0 0.54106,-5.5962 z m 91.14627,0 0.54105,5.5962 -1.0821,0 0.54105,-5.5962 z m 90.27522,0 0.54105,5.5962 -1.08211,0 0.54106,-5.5962 z m 41.40759,0 0.54105,5.5962 -1.08211,0 0.54106,-5.5962 z m -369.32571,4.65382 2.25911,0 0,7.00906 -2.25911,0 0,-7.00906 z m 220.5289,0 2.25911,0 0,7.00906 -2.25911,0 0,-7.00906 z m -114.15947,0.085 0,2.21778 8.37925,0 0,-2.21778 -8.37925,0 z m 91.08396,0 0,2.21778 8.37783,0 0,-2.21778 -8.37783,0 z m 90.33895,0 0,2.21778 8.37783,0 0,-2.21778 -8.37783,0 z"
       id="path4907"
       inkscape:export-xdpi="90"
       inkscape:export-ydpi="90" />
    <image
       sodipodi:absref="/Users/davidroost/Desktop/trace.jpg"
       y="254.09622"
       x="1414.1708"
       id="image4444"
       xlink:href="file:///Users/davidroost/Desktop/trace.jpg"
       preserveAspectRatio="none"
       height="474"
       width="800"
       inkscape:export-filename="/Users/davidroost/Desktop/a-trace"
       inkscape:export-xdpi="90"
       inkscape:export-ydpi="90" />
  </g>
</svg>
