<?xml version="1.0" encoding="UTF-8" standalone="no"?>
<!-- Created with Inkscape (http://www.inkscape.org/) -->

<svg
   xmlns:dc="http://purl.org/dc/elements/1.1/"
   xmlns:cc="http://creativecommons.org/ns#"
   xmlns:rdf="http://www.w3.org/1999/02/22-rdf-syntax-ns#"
   xmlns:svg="http://www.w3.org/2000/svg"
   xmlns="http://www.w3.org/2000/svg"
   xmlns:sodipodi="http://sodipodi.sourceforge.net/DTD/sodipodi-0.dtd"
   xmlns:inkscape="http://www.inkscape.org/namespaces/inkscape"
   width="210mm"
   height="297mm"
   viewBox="0 0 744.09448819 1052.3622047"
   id="svg2"
   version="1.1"
   inkscape:version="0.91 r13725"
   sodipodi:docname="rooster-logo-2017-tinkering.svg">
  <defs
     id="defs4" />
  <sodipodi:namedview
     id="base"
     pagecolor="#ffffff"
     bordercolor="#666666"
     borderopacity="1.0"
     inkscape:pageopacity="0.0"
     inkscape:pageshadow="2"
     inkscape:zoom="0.23921509"
     inkscape:cx="3127.0746"
     inkscape:cy="3875.0348"
     inkscape:document-units="px"
     inkscape:current-layer="layer1"
     showgrid="false"
     inkscape:window-width="1440"
     inkscape:window-height="799"
     inkscape:window-x="0"
     inkscape:window-y="1"
     inkscape:window-maximized="1" />
  <metadata
     id="metadata7">
    <rdf:RDF>
      <cc:Work
         rdf:about="">
        <dc:format>image/svg+xml</dc:format>
        <dc:type
           rdf:resource="http://purl.org/dc/dcmitype/StillImage" />
        <dc:title></dc:title>
      </cc:Work>
    </rdf:RDF>
  </metadata>
  <g
     inkscape:label="Layer 1"
     inkscape:groupmode="layer"
     id="layer1">
    <rect
       style="opacity:1;fill:#ffffff;fill-opacity:1;fill-rule:nonzero;stroke:none;stroke-width:10;stroke-linecap:round;stroke-miterlimit:4;stroke-dasharray:none"
       id="rect4258"
       width="2695.2485"
       height="1516.0774"
       x="1799.4502"
       y="-3576.7109"
       inkscape:export-xdpi="90"
       inkscape:export-ydpi="90" />
    <circle
       style="opacity:1;fill:none;fill-opacity:1;fill-rule:nonzero;stroke:#000000;stroke-width:11;stroke-linecap:round;stroke-miterlimit:4;stroke-dasharray:none"
       id="path5718"
       cx="3127.0745"
       cy="-2822.6724"
       r="198.74911" />
    <path
       style="opacity:1;fill:none;fill-opacity:1;fill-rule:nonzero;stroke:#000000;stroke-width:11;stroke-miterlimit:4;stroke-dasharray:none"
       id="path4260"
       sodipodi:type="arc"
       sodipodi:cx="-2873.9541"
       sodipodi:cy="-3087.1992"
       sodipodi:rx="41.532272"
       sodipodi:ry="41.532272"
       sodipodi:start="1.5707963"
       sodipodi:end="3.1415927"
       d="m -2873.9541,-3045.6669 a 41.532272,41.532272 0 0 1 -29.3678,-12.1646 41.532272,41.532272 0 0 1 -12.1645,-29.3677"
       transform="matrix(0,1,-1,0,0,0)"
       sodipodi:open="true" />
    <path
       sodipodi:open="true"
       transform="matrix(0,1,-1,0,0,0)"
       d="m -2789.5127,-3214.4308 a 93.537476,93.537476 0 0 1 91.1231,72.4224 93.537476,93.537476 0 0 1 -49.9829,105.1195 93.537476,93.537476 0 0 1 -113.6893,-24.963"
       sodipodi:end="2.4584861"
       sodipodi:start="4.712389"
       sodipodi:ry="93.537476"
       sodipodi:rx="93.537476"
       sodipodi:cy="-3120.8933"
       sodipodi:cx="-2789.5127"
       sodipodi:type="arc"
       id="path4262"
       style="opacity:1;fill:none;fill-opacity:1;fill-rule:nonzero;stroke:#000000;stroke-width:11;stroke-linecap:round;stroke-miterlimit:4;stroke-dasharray:none" />
    <path
       style="fill:none;fill-rule:evenodd;stroke:#000000;stroke-width:11;stroke-linecap:round;stroke-linejoin:miter;stroke-miterlimit:4;stroke-dasharray:none;stroke-opacity:1"
       d="m 3077.2268,-2879.4546 -29.1796,0"
       id="path4264"
       inkscape:connector-curvature="0" />
    <path
       inkscape:connector-curvature="0"
       id="path4266"
       d="m 3084.4043,-2898.0127 0,-18.4146"
       style="fill:none;fill-rule:evenodd;stroke:#000000;stroke-width:11;stroke-linecap:round;stroke-linejoin:miter;stroke-miterlimit:4;stroke-dasharray:none;stroke-opacity:1"
       sodipodi:nodetypes="cc" />
    <path
       sodipodi:open="true"
       style="opacity:1;fill:none;fill-opacity:1;fill-rule:nonzero;stroke:#000000;stroke-width:11.00132084;stroke-linecap:round;stroke-miterlimit:4;stroke-dasharray:none"
       id="path4268"
       transform="matrix(-0.69931546,-0.71481318,0.69931546,-0.71481318,0,0)"
       sodipodi:type="arc"
       sodipodi:cx="-346.14514"
       sodipodi:cy="4273.5562"
       sodipodi:rx="16.353367"
       sodipodi:ry="16.353367"
       sodipodi:start="5.4977871"
       sodipodi:end="2.3561945"
       d="m -334.58157,4261.9926 a 16.353367,16.353367 0 0 1 4.23257,15.7961 16.353367,16.353367 0 0 1 -11.56358,11.5636 16.353367,16.353367 0 0 1 -15.79614,-4.2326" />
    <path
       sodipodi:open="true"
       style="opacity:1;fill:none;fill-opacity:1;fill-rule:nonzero;stroke:#000000;stroke-width:11.00110435;stroke-linecap:round;stroke-miterlimit:4;stroke-dasharray:none"
       id="path4270"
       transform="matrix(-0.69998774,-0.71415486,0.69998774,-0.71415486,0,0)"
       sodipodi:type="arc"
       sodipodi:cx="-338.61911"
       sodipodi:cy="4276.6455"
       sodipodi:rx="36.552612"
       sodipodi:ry="36.552612"
       sodipodi:start="5.4977871"
       sodipodi:end="2.3561945"
       d="m -312.77251,4250.7989 a 36.552612,36.552612 0 0 1 9.46051,35.3071 36.552612,36.552612 0 0 1 -25.8466,25.8466 36.552612,36.552612 0 0 1 -35.30711,-9.4605" />
    <path
       sodipodi:nodetypes="cc"
       style="fill:none;fill-rule:evenodd;stroke:#000000;stroke-width:11;stroke-linecap:round;stroke-linejoin:miter;stroke-miterlimit:4;stroke-dasharray:none;stroke-opacity:1"
       d="m 3214.4306,-2791.0182 0,-16.9083"
       id="path4272"
       inkscape:connector-curvature="0" />
    <path
       sodipodi:nodetypes="cc"
       style="fill:none;fill-rule:evenodd;stroke:#000000;stroke-width:11;stroke-linecap:round;stroke-linejoin:miter;stroke-miterlimit:4;stroke-dasharray:none;stroke-opacity:1"
       d="m 3266.7874,-2807.3363 0,-4.3439"
       id="path4274"
       inkscape:connector-curvature="0" />
    <path
       transform="matrix(0,1,-1,0,0,0)"
       id="path4276"
       style="opacity:1;fill:none;fill-opacity:1;fill-rule:nonzero;stroke:#000000;stroke-width:11;stroke-linecap:round;stroke-miterlimit:4;stroke-dasharray:none"
       sodipodi:type="arc"
       sodipodi:cx="-2944.064"
       sodipodi:cy="-3099.6438"
       sodipodi:rx="31.326332"
       sodipodi:ry="31.326332"
       sodipodi:start="0.52359878"
       sodipodi:end="3.403392"
       d="m -2916.9346,-3083.9806 a 31.326332,31.326332 0 0 1 -39.1174,13.2786 31.326332,31.326332 0 0 1 -18.2709,-37.0496"
       sodipodi:open="true" />
    <path
       style="opacity:1;fill:none;fill-opacity:1;fill-rule:nonzero;stroke:#000000;stroke-width:11;stroke-linecap:round;stroke-miterlimit:4;stroke-dasharray:none"
       id="path4278"
       transform="matrix(0,1,-1,0,0,0)"
       sodipodi:type="arc"
       sodipodi:cx="-2960.0283"
       sodipodi:cy="-3111.1924"
       sodipodi:rx="14.512902"
       sodipodi:ry="14.512902"
       sodipodi:start="0"
       sodipodi:end="2.8797933"
       d="m -2945.5154,-3111.1924 a 14.512902,14.512902 0 0 1 -12.6186,14.3888 14.512902,14.512902 0 0 1 -15.9127,-10.6326"
       sodipodi:open="true" />
    <path
       sodipodi:nodetypes="cc"
       style="fill:none;fill-rule:evenodd;stroke:#000000;stroke-width:11;stroke-linecap:round;stroke-linejoin:miter;stroke-miterlimit:4;stroke-dasharray:none;stroke-opacity:1"
       d="m 3112.0459,-2945.5154 16.9084,0"
       id="path4280"
       inkscape:connector-curvature="0" />
    <path
       sodipodi:open="true"
       d="m 2941.5252,3155.9764 a 31.326332,31.326332 0 0 1 -39.1175,13.2786 31.326332,31.326332 0 0 1 -18.2709,-37.0496"
       sodipodi:end="3.403392"
       sodipodi:start="0.52359878"
       sodipodi:ry="31.326332"
       sodipodi:rx="31.326332"
       sodipodi:cy="3140.3132"
       sodipodi:cx="2914.3958"
       sodipodi:type="arc"
       style="opacity:1;fill:none;fill-opacity:1;fill-rule:nonzero;stroke:#000000;stroke-width:11;stroke-linecap:round;stroke-miterlimit:4;stroke-dasharray:none"
       id="path4282"
       transform="matrix(0,-1,1,0,0,0)" />
    <path
       inkscape:connector-curvature="0"
       id="path4284"
       d="m 3119.1876,-2904.7841 36.6944,-36.6946"
       style="fill:none;fill-rule:evenodd;stroke:#000000;stroke-width:11;stroke-linecap:round;stroke-linejoin:miter;stroke-miterlimit:4;stroke-dasharray:none;stroke-opacity:1"
       sodipodi:nodetypes="cc" />
    <path
       sodipodi:open="true"
       style="opacity:1;fill:none;fill-opacity:1;fill-rule:nonzero;stroke:#000000;stroke-width:11;stroke-linecap:round;stroke-miterlimit:4;stroke-dasharray:none"
       id="path4286"
       transform="matrix(0,1,-1,0,0,0)"
       sodipodi:type="arc"
       sodipodi:cx="-2789.5127"
       sodipodi:cy="-3120.8501"
       sodipodi:rx="44.145317"
       sodipodi:ry="44.145317"
       sodipodi:start="0"
       sodipodi:end="3.4000846"
       d="m -2745.3674,-3120.8501 a 44.145317,44.145317 0 0 1 -25.4446,39.9887 44.145317,44.145317 0 0 1 -47.0021,-6.1089 44.145317,44.145317 0 0 1 -14.3773,-45.1644" />
    <path
       transform="matrix(0.99994922,0.01007754,0.01013672,0.99994862,0,0)"
       id="path4288"
       style="opacity:1;fill:none;fill-opacity:1;fill-rule:nonzero;stroke:#000000;stroke-width:11.00112343;stroke-linecap:round;stroke-miterlimit:4;stroke-dasharray:none"
       sodipodi:type="arc"
       sodipodi:cx="3192.2568"
       sodipodi:cy="-2845.3464"
       sodipodi:rx="31.168602"
       sodipodi:ry="31.077482"
       sodipodi:start="0"
       sodipodi:end="3.1415927"
       d="m 3223.4254,-2845.3464 a 31.168602,31.077482 0 0 1 -15.5843,26.9139 31.168602,31.077482 0 0 1 -31.1686,0 31.168602,31.077482 0 0 1 -15.5843,-26.9139"
       sodipodi:open="true" />
    <path
       sodipodi:nodetypes="cc"
       style="fill:none;fill-rule:evenodd;stroke:#000000;stroke-width:11;stroke-linecap:round;stroke-linejoin:miter;stroke-miterlimit:4;stroke-dasharray:none;stroke-opacity:1"
       d="m 3132.1697,-2833.5285 0,-50.7089"
       id="path4290"
       inkscape:connector-curvature="0" />
    <path
       transform="matrix(0,1,1,0,0,0)"
       d="m -2662.0339,3121.9087 a 41.12088,41.355713 0 0 1 -36.3177,-21.9595"
       sodipodi:end="2.6534224"
       sodipodi:start="1.5707963"
       sodipodi:ry="41.355713"
       sodipodi:rx="41.12088"
       sodipodi:cy="3080.553"
       sodipodi:cx="-2662.0339"
       sodipodi:type="arc"
       id="path4292"
       style="opacity:1;fill:none;fill-opacity:1;fill-rule:nonzero;stroke:#000000;stroke-width:11;stroke-linecap:round;stroke-miterlimit:4;stroke-dasharray:none"
       sodipodi:open="true" />
    <g
       transform="translate(16.687725,1025.4739)"
       id="g5680">
      <path
         style="opacity:1;fill:none;fill-opacity:1;fill-rule:nonzero;stroke:#000000;stroke-width:11;stroke-miterlimit:4;stroke-dasharray:none"
         id="path5682"
         sodipodi:type="arc"
         sodipodi:cx="-2869.3918"
         sodipodi:cy="-3087.2019"
         sodipodi:rx="41.532272"
         sodipodi:ry="41.532272"
         sodipodi:start="1.5707963"
         sodipodi:end="3.1415927"
         d="m -2869.3918,-3045.6696 a 41.532272,41.532272 0 0 1 -29.3678,-12.1646 41.532272,41.532272 0 0 1 -12.1645,-29.3677"
         transform="matrix(0,1,-1,0,0,0)"
         sodipodi:open="true" />
      <path
         sodipodi:open="true"
         transform="matrix(0,1,-1,0,0,0)"
         d="m -2784.9504,-3214.4335 a 93.537476,93.537476 0 0 1 91.123,72.4224 93.537476,93.537476 0 0 1 -49.9829,105.1195 93.537476,93.537476 0 0 1 -113.6893,-24.963"
         sodipodi:end="2.4584861"
         sodipodi:start="4.712389"
         sodipodi:ry="93.537476"
         sodipodi:rx="93.537476"
         sodipodi:cy="-3120.896"
         sodipodi:cx="-2784.9504"
         sodipodi:type="arc"
         id="path5684"
         style="opacity:1;fill:none;fill-opacity:1;fill-rule:nonzero;stroke:#000000;stroke-width:11;stroke-linecap:round;stroke-miterlimit:4;stroke-dasharray:none" />
      <path
         style="fill:none;fill-rule:evenodd;stroke:#000000;stroke-width:11;stroke-linecap:round;stroke-linejoin:miter;stroke-miterlimit:4;stroke-dasharray:none;stroke-opacity:1"
         d="m 3077.2295,-2874.8923 -29.1796,0"
         id="path5686"
         inkscape:connector-curvature="0" />
      <path
         inkscape:connector-curvature="0"
         id="path5688"
         d="m 3084.407,-2893.4504 0,-18.4146"
         style="fill:none;fill-rule:evenodd;stroke:#000000;stroke-width:11;stroke-linecap:round;stroke-linejoin:miter;stroke-miterlimit:4;stroke-dasharray:none;stroke-opacity:1"
         sodipodi:nodetypes="cc" />
      <path
         sodipodi:open="true"
         style="opacity:1;fill:none;fill-opacity:1;fill-rule:nonzero;stroke:#000000;stroke-width:11.00132084;stroke-linecap:round;stroke-miterlimit:4;stroke-dasharray:none"
         id="path5690"
         transform="matrix(-0.69931546,-0.71481318,0.69931546,-0.71481318,0,0)"
         sodipodi:type="arc"
         sodipodi:cx="-349.33835"
         sodipodi:cy="4270.3667"
         sodipodi:rx="16.353367"
         sodipodi:ry="16.353367"
         sodipodi:start="5.4977871"
         sodipodi:end="2.3561945"
         d="m -337.77477,4258.8031 a 16.353367,16.353367 0 0 1 4.23256,15.7962 16.353367,16.353367 0 0 1 -11.56358,11.5635 16.353367,16.353367 0 0 1 -15.79614,-4.2325" />
      <path
         sodipodi:open="true"
         style="opacity:1;fill:none;fill-opacity:1;fill-rule:nonzero;stroke:#000000;stroke-width:11.00110435;stroke-linecap:round;stroke-miterlimit:4;stroke-dasharray:none"
         id="path5692"
         transform="matrix(-0.69998774,-0.71415486,0.69998774,-0.71415486,0,0)"
         sodipodi:type="arc"
         sodipodi:cx="-341.81525"
         sodipodi:cy="4273.4531"
         sodipodi:rx="36.552612"
         sodipodi:ry="36.552612"
         sodipodi:start="5.4977871"
         sodipodi:end="2.3561945"
         d="m -315.96865,4247.6065 a 36.552612,36.552612 0 0 1 9.46052,35.3071 36.552612,36.552612 0 0 1 -25.8466,25.8466 36.552612,36.552612 0 0 1 -35.30712,-9.4605" />
      <path
         sodipodi:nodetypes="cc"
         style="fill:none;fill-rule:evenodd;stroke:#000000;stroke-width:11;stroke-linecap:round;stroke-linejoin:miter;stroke-miterlimit:4;stroke-dasharray:none;stroke-opacity:1"
         d="m 3214.4333,-2786.4559 0,-16.9083"
         id="path5694"
         inkscape:connector-curvature="0" />
      <path
         sodipodi:nodetypes="cc"
         style="fill:none;fill-rule:evenodd;stroke:#000000;stroke-width:11;stroke-linecap:round;stroke-linejoin:miter;stroke-miterlimit:4;stroke-dasharray:none;stroke-opacity:1"
         d="m 3266.7901,-2802.774 0,-4.3439"
         id="path5696"
         inkscape:connector-curvature="0" />
      <path
         transform="matrix(0,1,-1,0,0,0)"
         id="path5698"
         style="opacity:1;fill:none;fill-opacity:1;fill-rule:nonzero;stroke:#000000;stroke-width:11;stroke-linecap:round;stroke-miterlimit:4;stroke-dasharray:none"
         sodipodi:type="arc"
         sodipodi:cx="-2939.5017"
         sodipodi:cy="-3099.6465"
         sodipodi:rx="31.326332"
         sodipodi:ry="31.326332"
         sodipodi:start="0.52359878"
         sodipodi:end="3.403392"
         d="m -2912.3723,-3083.9833 a 31.326332,31.326332 0 0 1 -39.1175,13.2786 31.326332,31.326332 0 0 1 -18.2708,-37.0496"
         sodipodi:open="true" />
      <path
         style="opacity:1;fill:none;fill-opacity:1;fill-rule:nonzero;stroke:#000000;stroke-width:11;stroke-linecap:round;stroke-miterlimit:4;stroke-dasharray:none"
         id="path5700"
         transform="matrix(0,1,-1,0,0,0)"
         sodipodi:type="arc"
         sodipodi:cx="-2955.4661"
         sodipodi:cy="-3111.1951"
         sodipodi:rx="14.512902"
         sodipodi:ry="14.512902"
         sodipodi:start="0"
         sodipodi:end="2.8797933"
         d="m -2940.9532,-3111.1951 a 14.512902,14.512902 0 0 1 -12.6186,14.3888 14.512902,14.512902 0 0 1 -15.9127,-10.6326"
         sodipodi:open="true" />
      <path
         sodipodi:nodetypes="cc"
         style="fill:none;fill-rule:evenodd;stroke:#000000;stroke-width:11;stroke-linecap:round;stroke-linejoin:miter;stroke-miterlimit:4;stroke-dasharray:none;stroke-opacity:1"
         d="m 3112.0486,-2940.9531 16.9084,0"
         id="path5702"
         inkscape:connector-curvature="0" />
      <path
         sodipodi:open="true"
         d="m 2936.9629,3155.9791 a 31.326332,31.326332 0 0 1 -39.1175,13.2786 31.326332,31.326332 0 0 1 -18.2708,-37.0496"
         sodipodi:end="3.403392"
         sodipodi:start="0.52359878"
         sodipodi:ry="31.326332"
         sodipodi:rx="31.326332"
         sodipodi:cy="3140.3159"
         sodipodi:cx="2909.8335"
         sodipodi:type="arc"
         style="opacity:1;fill:none;fill-opacity:1;fill-rule:nonzero;stroke:#000000;stroke-width:11;stroke-linecap:round;stroke-miterlimit:4;stroke-dasharray:none"
         id="path5704"
         transform="matrix(0,-1,1,0,0,0)" />
      <path
         inkscape:connector-curvature="0"
         id="path5706"
         d="m 3119.1903,-2900.2218 36.6944,-36.6946"
         style="fill:none;fill-rule:evenodd;stroke:#000000;stroke-width:11;stroke-linecap:round;stroke-linejoin:miter;stroke-miterlimit:4;stroke-dasharray:none;stroke-opacity:1"
         sodipodi:nodetypes="cc" />
      <path
         sodipodi:open="true"
         style="opacity:1;fill:none;fill-opacity:1;fill-rule:nonzero;stroke:#000000;stroke-width:11;stroke-linecap:round;stroke-miterlimit:4;stroke-dasharray:none"
         id="path5708"
         transform="matrix(0,1,-1,0,0,0)"
         sodipodi:type="arc"
         sodipodi:cx="-2784.9504"
         sodipodi:cy="-3120.8528"
         sodipodi:rx="44.145317"
         sodipodi:ry="44.145317"
         sodipodi:start="0"
         sodipodi:end="3.4000846"
         d="m -2740.8051,-3120.8528 a 44.145317,44.145317 0 0 1 -25.4446,39.9887 44.145317,44.145317 0 0 1 -47.0022,-6.1089 44.145317,44.145317 0 0 1 -14.3772,-45.1643" />
      <path
         transform="matrix(0.99994922,0.01007754,0.01013672,0.99994862,0,0)"
         id="path5710"
         style="opacity:1;fill:none;fill-opacity:1;fill-rule:nonzero;stroke:#000000;stroke-width:11.00112343;stroke-linecap:round;stroke-miterlimit:4;stroke-dasharray:none"
         sodipodi:type="arc"
         sodipodi:cx="3192.2134"
         sodipodi:cy="-2840.7834"
         sodipodi:rx="31.168602"
         sodipodi:ry="31.077482"
         sodipodi:start="0"
         sodipodi:end="3.1415927"
         d="m 3223.382,-2840.7834 a 31.168602,31.077482 0 0 1 -15.5843,26.9138 31.168602,31.077482 0 0 1 -31.1686,0 31.168602,31.077482 0 0 1 -15.5843,-26.9138"
         sodipodi:open="true" />
      <path
         sodipodi:nodetypes="cc"
         style="fill:none;fill-rule:evenodd;stroke:#000000;stroke-width:11;stroke-linecap:round;stroke-linejoin:miter;stroke-miterlimit:4;stroke-dasharray:none;stroke-opacity:1"
         d="m 3132.1724,-2828.9662 0,-50.7089"
         id="path5712"
         inkscape:connector-curvature="0" />
      <path
         transform="matrix(0,1,1,0,0,0)"
         d="m -2657.4717,3121.9114 a 41.12088,41.355713 0 0 1 -36.3176,-21.9595"
         sodipodi:end="2.6534224"
         sodipodi:start="1.5707963"
         sodipodi:ry="41.355713"
         sodipodi:rx="41.12088"
         sodipodi:cy="3080.5557"
         sodipodi:cx="-2657.4717"
         sodipodi:type="arc"
         id="path5714"
         style="opacity:1;fill:none;fill-opacity:1;fill-rule:nonzero;stroke:#000000;stroke-width:11;stroke-linecap:round;stroke-miterlimit:4;stroke-dasharray:none"
         sodipodi:open="true" />
    </g>
    <text
       xml:space="preserve"
       style="font-style:normal;font-weight:normal;font-size:80.25896454px;line-height:125%;font-family:sans-serif;letter-spacing:0px;word-spacing:0px;fill:#000000;fill-opacity:1;stroke:none;stroke-width:1px;stroke-linecap:butt;stroke-linejoin:miter;stroke-opacity:1"
       x="3239.8989"
       y="-3942.5698"
       id="text5741"
       sodipodi:linespacing="125%"><tspan
         sodipodi:role="line"
         id="tspan5743"
         x="3239.8989"
         y="-3942.5698"
         style="font-style:normal;font-variant:normal;font-weight:normal;font-stretch:normal;font-size:45px;line-height:125%;font-family:'Gill Sans';-inkscape-font-specification:'Gill Sans, Normal';text-align:start;writing-mode:lr-tb;text-anchor:start">DAVID ROOST</tspan></text>
    <text
       sodipodi:linespacing="125%"
       id="text5745"
       y="-4045.387"
       x="3222.8914"
       style="font-style:normal;font-weight:normal;font-size:80.25896454px;line-height:125%;font-family:sans-serif;letter-spacing:0px;word-spacing:0px;fill:#000000;fill-opacity:1;stroke:none;stroke-width:1px;stroke-linecap:butt;stroke-linejoin:miter;stroke-opacity:1"
       xml:space="preserve"><tspan
         style="font-style:normal;font-variant:normal;font-weight:normal;font-stretch:normal;font-size:80.25896454px;line-height:125%;font-family:'Arial Rounded MT Bold';-inkscape-font-specification:'Arial Rounded MT Bold, Normal';text-align:start;writing-mode:lr-tb;text-anchor:start"
         y="-4045.387"
         x="3222.8914"
         id="tspan5747"
         sodipodi:role="line">DAVID ROOST</tspan></text>
    <text
       sodipodi:linespacing="125%"
       id="text5749"
       y="-3990.2566"
       x="3239.8989"
       style="font-style:normal;font-weight:normal;font-size:80.25896454px;line-height:125%;font-family:sans-serif;letter-spacing:0px;word-spacing:0px;fill:#000000;fill-opacity:1;stroke:none;stroke-width:1px;stroke-linecap:butt;stroke-linejoin:miter;stroke-opacity:1"
       xml:space="preserve"><tspan
         style="font-style:normal;font-variant:normal;font-weight:normal;font-stretch:normal;font-size:45px;line-height:125%;font-family:Gulim;-inkscape-font-specification:'Gulim, Normal';text-align:start;writing-mode:lr-tb;text-anchor:start"
         y="-3990.2566"
         x="3239.8989"
         id="tspan5751"
         sodipodi:role="line">DAVID ROOST</tspan></text>
    <text
       xml:space="preserve"
       style="font-style:normal;font-weight:normal;font-size:80.25896454px;line-height:125%;font-family:sans-serif;letter-spacing:0px;word-spacing:0px;fill:#000000;fill-opacity:1;stroke:none;stroke-width:1px;stroke-linecap:butt;stroke-linejoin:miter;stroke-opacity:1"
       x="3239.8989"
       y="-3897.2671"
       id="text5753"
       sodipodi:linespacing="125%"><tspan
         sodipodi:role="line"
         id="tspan5755"
         x="3239.8989"
         y="-3897.2671"
         style="font-style:normal;font-variant:normal;font-weight:normal;font-stretch:normal;font-size:45px;line-height:125%;font-family:'Helvetica Neue';-inkscape-font-specification:'Helvetica Neue, Normal';text-align:start;writing-mode:lr-tb;text-anchor:start">DAVID ROOST</tspan></text>
    <text
       sodipodi:linespacing="125%"
       id="text5757"
       y="-3987.8721"
       x="3750.1484"
       style="font-style:normal;font-weight:normal;font-size:80.25896454px;line-height:125%;font-family:sans-serif;letter-spacing:0px;word-spacing:0px;fill:#000000;fill-opacity:1;stroke:none;stroke-width:1px;stroke-linecap:butt;stroke-linejoin:miter;stroke-opacity:1"
       xml:space="preserve"><tspan
         style="font-style:normal;font-variant:normal;font-weight:normal;font-stretch:normal;font-size:45px;line-height:125%;font-family:'Hiragino Maru Gothic ProN';-inkscape-font-specification:'Hiragino Maru Gothic ProN, Normal';text-align:start;writing-mode:lr-tb;text-anchor:start"
         y="-3987.8721"
         x="3750.1484"
         id="tspan5759"
         sodipodi:role="line">DAVID ROOST</tspan></text>
    <g
       transform="matrix(-0.25293111,-0.9674843,0.9674843,-0.25293111,6648.9001,-511.2186)"
       style="font-style:normal;font-weight:normal;font-size:128.75390625px;line-height:125%;font-family:sans-serif;letter-spacing:0px;word-spacing:0px;fill:#000000;fill-opacity:1;stroke:none;stroke-width:1px;stroke-linecap:butt;stroke-linejoin:miter;stroke-opacity:1"
       id="text5761">
      <path
         d="m 3266.8338,-3010.3354 c -3.8276,4.2236 -3.6661,7.5076 0.2796,11.0835 l 9.8921,8.9648 c 12.1707,11.0298 27.0107,9.3973 39.5514,-4.4406 12.1378,-13.3933 11.9641,-27.7209 -0.3177,-38.8514 l -9.8921,-8.9648 c -3.9458,-3.5759 -7.2299,-3.4144 -11.1079,0.8648 l -28.4054,31.3437 z m 33.1309,-25.9478 c 1.0577,-1.167 2.4401,-1.1288 3.496,-0.1719 l 8.336,7.5546 c 9.1697,8.3101 8.8276,18.6277 -0.792,29.2424 -9.821,10.8369 -20.8924,12.4433 -29.8953,4.2843 l -8.225,-7.4539 c -1.1114,-1.0073 -1.2243,-2.223 -0.066,-3.5012 l 27.1463,-29.9543 z"
         style="font-style:normal;font-variant:normal;font-weight:normal;font-stretch:normal;font-size:75px;line-height:125%;font-family:'Hiragino Maru Gothic ProN';-inkscape-font-specification:'Hiragino Maru Gothic ProN, Normal';text-align:start;writing-mode:lr-tb;text-anchor:start"
         id="path4393" />
      <path
         d="m 3322.1171,-2966.2806 14.4656,21.5441 -9.5863,13.5733 c -0.8904,1.2302 -0.7819,2.6028 -0.029,3.7235 0.2508,0.3736 0.5639,0.7054 0.9393,0.9954 1.1475,1.0363 2.7504,1.4054 3.9957,0.5693 0.3736,-0.2509 0.6432,-0.5222 0.8913,-0.9598 l 31.2807,-45.5749 c 1.5735,-2.2309 1.296,-4.3934 -0.042,-6.3859 -1.296,-1.9303 -3.1507,-2.9434 -5.8112,-2.3314 l -53.8997,11.6184 c -0.4572,0.1263 -0.8103,0.2731 -1.1839,0.5239 -1.1831,0.7944 -1.6145,2.4391 -1.0897,3.8935 0.1682,0.5195 0.3567,0.9349 0.6494,1.3707 0.7107,1.0586 1.836,1.6581 3.374,1.2578 l 16.046,-3.8179 z m 6.4846,-1.6439 22.7816,-5.0882 c 2.3697,-0.5071 4.7803,-1.2223 7.2736,-2.0833 -1.7408,1.9818 -3.2734,4.0046 -4.6193,5.902 l -13.4788,19.0777 -11.9571,-17.8082 z"
         style="font-style:normal;font-variant:normal;font-weight:normal;font-stretch:normal;font-size:75px;line-height:125%;font-family:'Hiragino Maru Gothic ProN';-inkscape-font-specification:'Hiragino Maru Gothic ProN, Normal';text-align:start;writing-mode:lr-tb;text-anchor:start"
         id="path4395" />
      <path
         d="m 3353.4668,-2904.0358 c -3.0111,0.08 -6.4881,0.4135 -9.6577,0.7127 2.5239,-1.8194 5.4697,-3.7957 7.7305,-5.6773 l 33.4901,-28.0656 c 1.2227,-1.0152 1.4107,-2.4455 0.9138,-3.7811 -0.1569,-0.4217 -0.3841,-0.8173 -0.6816,-1.1868 -0.9008,-1.3453 -2.5142,-2.0254 -3.92,-1.5023 -0.3515,0.1308 -0.7471,0.358 -1.0462,0.6294 l -41.4283,35.9808 c -2.1202,1.8292 -2.2657,3.8039 -1.4549,5.9829 0.7846,2.1088 2.1856,3.5081 4.9155,3.5326 l 55.1086,0.1411 c 0.4038,0.01 0.7814,-0.051 1.1329,-0.1815 1.4058,-0.5231 2.0417,-2.04 1.9142,-3.6731 -0.087,-0.4479 -0.1732,-0.8958 -0.3302,-1.3176 -0.5231,-1.4058 -1.5742,-2.2951 -3.1631,-2.264 l -43.5236,0.6698 z"
         style="font-style:normal;font-variant:normal;font-weight:normal;font-stretch:normal;font-size:75px;line-height:125%;font-family:'Hiragino Maru Gothic ProN';-inkscape-font-specification:'Hiragino Maru Gothic ProN, Normal';text-align:start;writing-mode:lr-tb;text-anchor:start"
         id="path4397" />
      <path
         d="m 3349.7625,-2869.3979 c -1.9883,0.3841 -2.7347,2.056 -2.3506,4.0443 0.3982,2.0618 1.7279,3.4091 3.7161,3.025 l 52.2099,-10.0852 c 2.0619,-0.3982 2.7205,-2.1296 2.3222,-4.1915 -0.3841,-1.9882 -1.6259,-3.2761 -3.6878,-2.8778 l -52.2098,10.0852 z"
         style="font-style:normal;font-variant:normal;font-weight:normal;font-stretch:normal;font-size:75px;line-height:125%;font-family:'Hiragino Maru Gothic ProN';-inkscape-font-specification:'Hiragino Maru Gothic ProN, Normal';text-align:start;writing-mode:lr-tb;text-anchor:start"
         id="path4399" />
      <path
         d="m 3359.5517,-2849.2387 c -5.6991,0.1 -7.9831,2.4649 -7.8901,7.7891 l 0.2332,13.3479 c 0.287,16.4225 11.6332,26.1258 30.3054,25.7995 18.0722,-0.3157 28.4003,-10.2477 28.1107,-26.8202 l -0.2332,-13.3479 c -0.093,-5.3242 -2.4583,-7.6082 -8.2324,-7.5073 l -42.2936,0.7389 z m 41.5932,6.3994 c 1.5747,-0.027 2.4929,1.0066 2.5178,2.4314 l 0.1966,11.2482 c 0.2162,12.3732 -7.541,19.1847 -21.8638,19.435 -14.6228,0.2555 -23.371,-6.7177 -23.5832,-18.8659 l -0.1939,-11.0983 c -0.026,-1.4998 0.7829,-2.414 2.5076,-2.4442 l 40.4189,-0.7062 z"
         style="font-style:normal;font-variant:normal;font-weight:normal;font-stretch:normal;font-size:75px;line-height:125%;font-family:'Hiragino Maru Gothic ProN';-inkscape-font-specification:'Hiragino Maru Gothic ProN, Normal';text-align:start;writing-mode:lr-tb;text-anchor:start"
         id="path4401" />
      <path
         d="m 3339.4609,-2723.6552 c 15.0739,-0.5322 20.6125,-1.1106 23.3917,-4.8986 -0.9228,7.0746 1.6846,13.1752 9.8114,16.0639 8.6923,3.0897 16.1433,-0.6296 19.7856,-10.8765 l 5.8779,-16.5364 c 1.7834,-5.0175 0.3714,-7.9869 -5.07,-9.9211 l -44.8038,-15.9256 c -2.0494,-0.7285 -3.5411,0.3332 -4.2445,2.3119 -0.6782,1.9081 -0.1661,3.6025 1.8126,4.3058 l 22.1899,7.8875 -4.622,13.0029 c -2.5119,7.0669 -8.2327,7.2621 -23.8216,7.452 l -5.1508,0.1591 c -1.4478,0.043 -2.39,0.9016 -2.817,2.1029 -0.1758,0.4947 -0.3061,1.0852 -0.3406,1.6301 -0.1491,1.539 0.5844,2.8344 1.9271,3.3117 0.424,0.1507 0.8025,0.2056 1.2767,0.215 l 4.7974,-0.2846 z m 34.5456,-25.5294 16.1831,5.7524 c 1.696,0.6028 2.1719,1.7271 1.6444,3.2112 l -5.0992,14.3457 c -2.2356,6.2895 -6.6419,8.3847 -12.6487,6.2496 -5.6534,-2.0096 -7.9922,-7.2983 -5.857,-13.3051 l 5.7774,-16.2538 z"
         style="font-style:normal;font-variant:normal;font-weight:normal;font-stretch:normal;font-size:75px;line-height:125%;font-family:'Hiragino Maru Gothic ProN';-inkscape-font-specification:'Hiragino Maru Gothic ProN, Normal';text-align:start;writing-mode:lr-tb;text-anchor:start"
         id="path4403" />
      <path
         d="m 3362.5932,-2663.2039 c 9.042,-13.3513 4.8457,-28.4216 -10.3687,-38.7252 -15.4006,-10.4298 -30.9319,-8.629 -39.9318,4.6602 -8.9999,13.2893 -4.7615,28.2974 10.5149,38.6431 15.3386,10.3877 30.7857,8.7112 39.7856,-4.5781 z m -5.3405,-3.6167 c -6.3925,9.4391 -18.1722,10.2478 -29.909,2.2993 -12.4819,-8.4532 -16.209,-19.4013 -9.6483,-29.0887 6.4345,-9.5012 18.3184,-10.33 30.3035,-2.2133 11.9852,8.1167 15.7724,19.3773 9.2538,29.0027 z"
         style="font-style:normal;font-variant:normal;font-weight:normal;font-stretch:normal;font-size:75px;line-height:125%;font-family:'Hiragino Maru Gothic ProN';-inkscape-font-specification:'Hiragino Maru Gothic ProN, Normal';text-align:start;writing-mode:lr-tb;text-anchor:start"
         id="path4405" />
      <path
         d="m 3311.8775,-2606.4548 c 12.2584,-10.4762 12.208,-26.1196 0.2701,-40.0884 -12.0841,-14.1399 -27.5369,-16.5216 -39.7382,-6.0942 -12.2013,10.4274 -12.0939,26.0222 -0.1073,40.048 12.0353,14.0828 27.3741,16.562 39.5754,6.1346 z m -4.1904,-4.9034 c -8.6664,7.4064 -20.2389,5.0629 -29.4481,-5.713 -9.794,-11.4601 -10.4849,-23.0046 -1.5904,-30.6058 8.7233,-7.4551 20.4016,-5.1034 29.8058,5.9006 9.4041,11.004 10.0701,22.8657 1.2327,30.4182 z"
         style="font-style:normal;font-variant:normal;font-weight:normal;font-stretch:normal;font-size:75px;line-height:125%;font-family:'Hiragino Maru Gothic ProN';-inkscape-font-specification:'Hiragino Maru Gothic ProN, Normal';text-align:start;writing-mode:lr-tb;text-anchor:start"
         id="path4407" />
      <path
         d="m 3244.2353,-2591.5894 c 8.2568,-2.26 11.8424,-0.9428 14.2451,3.8932 2.2026,4.4329 0.5783,10.0973 -7.213,13.9684 -7.4555,3.7042 -12.1453,1.3445 -15.1222,-1.95 -1.2381,-1.1435 -2.7141,-1.0802 -3.9231,-0.4795 -0.403,0.2002 -0.7726,0.4676 -1.075,0.7017 -1.2099,0.936 -1.8511,2.5109 -1.1503,3.9214 0.1668,0.3358 0.4008,0.6383 0.702,0.9073 3.8805,4.1019 11.2484,8.4808 23.3384,2.4739 12.6273,-6.2738 14.4624,-15.7278 10.9584,-22.7803 -4.3717,-8.7988 -10.8412,-10.358 -21.9507,-7.4344 l -5.9406,1.5279 c -8.7266,2.3258 -12.9505,1.4095 -15.6869,-4.0981 -2.87,-5.7763 0.063,-11.8399 7.7204,-15.6442 9.8063,-4.8723 14.5257,-0.9361 17.9705,2.9634 1.1038,1.2103 2.6804,1.1807 3.9565,0.5466 0.403,-0.2002 0.7055,-0.4342 1.0751,-0.7016 1.2436,-1.0366 1.8849,-2.6115 1.1507,-4.0891 -0.1335,-0.2687 -0.3341,-0.504 -0.5681,-0.8064 -4.3151,-4.6396 -11.4098,-10.9968 -26.7238,-3.3881 -12.0228,5.9735 -15.4352,15.7925 -11.1303,24.457 4.8389,9.7391 12.3168,10.4623 23.896,7.4729 l 5.4709,-1.462 z"
         style="font-style:normal;font-variant:normal;font-weight:normal;font-stretch:normal;font-size:75px;line-height:125%;font-family:'Hiragino Maru Gothic ProN';-inkscape-font-specification:'Hiragino Maru Gothic ProN, Normal';text-align:start;writing-mode:lr-tb;text-anchor:start"
         id="path4409" />
      <path
         d="m 3195.4484,-2554.5214 -11.5508,-47.8249 c -0.4754,-1.9684 -2.2529,-2.6193 -4.2213,-2.1439 -1.9684,0.4754 -3.2528,1.8659 -2.7774,3.8343 l 11.5507,47.8249 -16.5492,3.9969 c -1.6768,0.405 -2.4182,2.1272 -2.0132,3.804 0.4226,1.7497 1.813,3.0341 3.5627,2.6116 l 40.17,-9.7019 c 1.7497,-0.4226 2.4006,-2.2001 1.978,-3.9498 -0.405,-1.6768 -1.7778,-2.8884 -3.6004,-2.4482 l -16.5491,3.997 z"
         style="font-style:normal;font-variant:normal;font-weight:normal;font-stretch:normal;font-size:75px;line-height:125%;font-family:'Hiragino Maru Gothic ProN';-inkscape-font-specification:'Hiragino Maru Gothic ProN, Normal';text-align:start;writing-mode:lr-tb;text-anchor:start"
         id="path4411" />
    </g>
    <circle
       transform="matrix(-0.8605343,0.50939249,-0.50939249,-0.8605343,0,0)"
       style="opacity:1;fill:none;fill-opacity:1;fill-rule:nonzero;stroke:#000000;stroke-width:11.00000005;stroke-linecap:round;stroke-miterlimit:4;stroke-dasharray:none"
       id="circle4204"
       cx="-4128.8032"
       cy="836.09827"
       r="316.52515" />
    <g
       style="font-style:normal;font-weight:normal;font-size:80.25896454px;line-height:125%;font-family:sans-serif;letter-spacing:0px;word-spacing:0px;fill:#000000;fill-opacity:1;stroke:none;stroke-width:1px;stroke-linecap:butt;stroke-linejoin:miter;stroke-opacity:1"
       id="text4206"
       transform="matrix(0.91390481,0,0,0.91390481,269.2261,-235.01855)">
      <path
         d="m 2954.4654,-2652.0733 c -10.814,-11.2436 -26.6396,-10.2788 -39.7751,2.3549 -13.4599,12.9455 -14.824,28.5136 -3.6461,40.1356 9.2543,9.6219 19.6757,8.3397 26.8468,5.0846 0.4284,-0.2038 0.7506,-0.4097 1.075,-0.7217 1.1351,-1.0918 1.0101,-2.8446 0.3425,-3.9715 -0.2558,-0.4824 -0.5657,-0.9128 -0.8776,-1.2371 -0.9878,-1.0271 -2.4101,-1.5322 -4.0153,-0.8208 -5.6762,2.7537 -12.5316,3.4159 -18.7705,-3.0708 -7.7985,-8.1084 -6.2426,-19.9067 4.1901,-29.9408 10.649,-10.2421 22.3368,-11.1814 30.1353,-3.073 5.9269,6.1623 5.3371,11.9325 3.0048,17.2975 -0.5591,1.4743 -0.1057,2.7031 0.7781,3.6221 0.416,0.4324 0.8859,0.8129 1.464,1.0894 1.0502,0.5509 2.6388,0.6879 3.774,-0.4039 0.3243,-0.312 0.6507,-0.7299 0.8731,-1.256 2.8853,-6.5212 3.7512,-15.5747 -5.3991,-25.0885 z"
         style="font-style:normal;font-variant:normal;font-weight:normal;font-stretch:normal;font-size:75px;line-height:125%;font-family:'Hiragino Maru Gothic ProN';-inkscape-font-specification:'Hiragino Maru Gothic ProN, Normal';text-align:start;writing-mode:lr-tb;text-anchor:start"
         id="path4257"
         inkscape:connector-curvature="0" />
      <path
         d="m 2994.569,-2560.7836 c 2.2544,-14.9138 2.7064,-20.4641 -0.5046,-23.8937 6.7834,2.2105 13.26,0.7718 17.5967,-6.6836 4.6384,-7.9741 2.3557,-15.9828 -7.0447,-21.4508 l -15.1702,-8.8243 c -4.6029,-2.6774 -7.7817,-1.8367 -10.6854,3.1552 l -23.9084,41.1022 c -1.0936,1.8801 -0.3249,3.5419 1.4903,4.5978 1.7504,1.0182 3.5102,0.8271 4.5661,-0.9882 l 11.841,-20.3566 11.9287,6.9387 c 6.483,3.7711 5.6208,9.4299 2.9351,24.7869 l -0.7927,5.0919 c -0.225,1.4309 0.4457,2.5152 1.5479,3.1562 0.4538,0.264 1.0101,0.5009 1.5393,0.6352 1.4852,0.43 2.8936,-0.052 3.6101,-1.2839 0.2263,-0.389 0.35,-0.7509 0.4466,-1.2153 l 0.6042,-4.7677 z m -18.7269,-38.658 8.6356,-14.8461 c 0.9051,-1.5559 2.0979,-1.8165 3.4593,-1.0246 l 13.1605,7.6552 c 5.7698,3.3562 7.0173,8.0731 3.812,13.5836 -3.0169,5.1864 -8.646,6.5106 -14.1565,3.3052 l -14.9109,-8.6733 z"
         style="font-style:normal;font-variant:normal;font-weight:normal;font-stretch:normal;font-size:75px;line-height:125%;font-family:'Hiragino Maru Gothic ProN';-inkscape-font-specification:'Hiragino Maru Gothic ProN, Normal';text-align:start;writing-mode:lr-tb;text-anchor:start"
         id="path4261"
         inkscape:connector-curvature="0" />
      <path
         d="m 3036.5522,-2564.7797 24.5072,7.3131 c 1.7248,0.5147 3.2103,-0.5291 3.7036,-2.1821 0.5361,-1.7967 -0.084,-3.3906 -1.8807,-3.9267 l -24.5071,-7.3131 4.4393,-14.8768 c 0.5147,-1.7248 1.4693,-2.3009 3.1941,-1.7862 l 25.2977,7.549 c 1.8686,0.5576 3.2822,-0.5077 3.8184,-2.3044 0.5361,-1.7967 -0.084,-3.3905 -1.9526,-3.9481 l -27.1662,-8.1067 c -5.1027,-1.5226 -7.9954,0.041 -9.6468,5.5743 l -12.0956,40.5338 c -1.6299,5.462 -0.067,8.3547 5.0359,9.8774 l 27.813,8.2996 c 1.8686,0.5576 3.3037,-0.5795 3.8184,-2.3043 0.5361,-1.7967 -0.084,-3.3906 -1.9526,-3.9482 l -25.7288,-7.6777 c -1.5811,-0.4718 -2.4662,-1.4403 -1.9729,-3.0933 l 5.2757,-17.6796 z"
         style="font-style:normal;font-variant:normal;font-weight:normal;font-stretch:normal;font-size:75px;line-height:125%;font-family:'Hiragino Maru Gothic ProN';-inkscape-font-specification:'Hiragino Maru Gothic ProN, Normal';text-align:start;writing-mode:lr-tb;text-anchor:start"
         id="path4265"
         inkscape:connector-curvature="0" />
      <path
         d="m 3101.0862,-2540.2829 25.9142,1.3627 5.1016,15.8147 c 0.4495,1.4506 1.6124,2.1877 2.9605,2.2586 0.4494,0.024 0.9027,-0.028 1.3599,-0.1538 1.5177,-0.2958 2.7751,-1.3562 2.8539,-2.8541 0.024,-0.4494 -0.032,-0.8278 -0.2327,-1.289 l -17.6741,-52.3754 c -0.8398,-2.5976 -2.7359,-3.6737 -5.1326,-3.7997 -2.3217,-0.1221 -4.2454,0.7531 -5.3529,3.2484 l -23.0617,50.0831 c -0.1735,0.4415 -0.268,0.812 -0.2917,1.2614 -0.075,1.4231 0.9817,2.7554 2.4599,3.2086 0.5164,0.1774 0.9619,0.2759 1.4862,0.3035 1.2732,0.067 2.4281,-0.4732 3.0312,-1.9435 l 6.5783,-15.1255 z m 2.5777,-6.1731 9.6054,-21.275 c 1.0169,-2.1996 1.8919,-4.5569 2.6999,-7.068 0.5402,2.582 1.238,5.022 1.9477,7.2373 l 7.1674,22.232 -21.4204,-1.1263 z"
         style="font-style:normal;font-variant:normal;font-weight:normal;font-stretch:normal;font-size:75px;line-height:125%;font-family:'Hiragino Maru Gothic ProN';-inkscape-font-specification:'Hiragino Maru Gothic ProN, Normal';text-align:start;writing-mode:lr-tb;text-anchor:start"
         id="path4269"
         inkscape:connector-curvature="0" />
      <path
         d="m 3175.7371,-2578.6269 9.7833,48.2175 c 0.4027,1.9846 2.155,2.7004 4.1396,2.2977 1.9845,-0.4026 3.3193,-1.7448 2.9166,-3.7294 l -9.7833,-48.2175 16.685,-3.3854 c 1.6906,-0.343 2.4948,-2.0367 2.1518,-3.7273 -0.3579,-1.7641 -1.7001,-3.0988 -3.4642,-2.7409 l -40.4997,8.2174 c -1.7641,0.3579 -2.4799,2.1103 -2.122,3.8743 0.343,1.6906 1.6703,2.9518 3.5079,2.579 l 16.685,-3.3854 z"
         style="font-style:normal;font-variant:normal;font-weight:normal;font-stretch:normal;font-size:75px;line-height:125%;font-family:'Hiragino Maru Gothic ProN';-inkscape-font-specification:'Hiragino Maru Gothic ProN, Normal';text-align:start;writing-mode:lr-tb;text-anchor:start"
         id="path4273"
         inkscape:connector-curvature="0" />
      <path
         d="m 3233.6118,-2544.478 c 0.7527,1.8799 2.5355,2.2971 4.4154,1.5444 1.9495,-0.7806 3.0214,-2.3409 2.2686,-4.2208 l -19.7661,-49.3647 c -0.7806,-1.9495 -2.6052,-2.2692 -4.5547,-1.4886 -1.8799,0.7527 -2.91,2.2154 -2.1294,4.165 l 19.7662,49.3647 z"
         style="font-style:normal;font-variant:normal;font-weight:normal;font-stretch:normal;font-size:75px;line-height:125%;font-family:'Hiragino Maru Gothic ProN';-inkscape-font-specification:'Hiragino Maru Gothic ProN, Normal';text-align:start;writing-mode:lr-tb;text-anchor:start"
         id="path4277"
         inkscape:connector-curvature="0" />
      <path
         d="m 3285.0788,-2585.7065 c 0.7052,2.9284 1.7553,6.2598 2.7077,9.2978 -2.305,-2.0899 -4.8513,-4.5597 -7.1622,-6.3792 l -34.4231,-26.9133 c -1.2474,-0.9846 -2.6856,-0.8707 -3.8884,-0.1066 -0.3798,0.2413 -0.7194,0.5459 -1.0189,0.9138 -1.1283,1.161 -1.4576,2.8807 -0.6533,4.1468 0.2011,0.3166 0.5057,0.6562 0.8334,0.8923 l 43.8174,33.0296 c 2.2305,1.6929 4.1922,1.4241 6.1547,0.1775 1.8992,-1.2065 2.9762,-2.868 2.4319,-5.5433 l -11.3352,-53.9305 c -0.074,-0.3969 -0.2122,-0.7537 -0.4133,-1.0702 -0.8043,-1.2661 -2.4204,-1.5723 -3.9911,-1.1076 -0.4201,0.178 -0.8402,0.356 -1.22,0.5973 -1.2661,0.8043 -1.9171,2.0175 -1.5559,3.5651 l 9.7163,42.4305 z"
         style="font-style:normal;font-variant:normal;font-weight:normal;font-stretch:normal;font-size:75px;line-height:125%;font-family:'Hiragino Maru Gothic ProN';-inkscape-font-specification:'Hiragino Maru Gothic ProN, Normal';text-align:start;writing-mode:lr-tb;text-anchor:start"
         id="path4281"
         inkscape:connector-curvature="0" />
      <path
         d="m 3316.2548,-2625.2144 17.8894,-18.2769 c 1.2591,-1.2864 1.0277,-3.0871 -0.2051,-4.2938 -1.3399,-1.3115 -3.0391,-1.5055 -4.3507,-0.1655 l -17.8895,18.277 -11.0948,-10.8596 c -1.2863,-1.2591 -1.3513,-2.3722 -0.092,-3.6585 l 18.4666,-18.8666 c 1.364,-1.3935 1.0801,-3.1407 -0.2599,-4.4522 -1.3399,-1.3116 -3.0392,-1.5055 -4.4032,-0.112 l -19.8306,20.2601 c -3.7247,3.8055 -3.6895,7.0933 0.4375,11.1329 l 30.2294,29.5885 c 4.0734,3.9871 7.3613,3.9519 11.0861,0.1464 l 20.3027,-20.7425 c 1.364,-1.3935 1.0265,-3.1931 -0.2598,-4.4522 -1.34,-1.3116 -3.0392,-1.5055 -4.4032,-0.112 l -18.7814,19.1882 c -1.1541,1.1791 -2.4234,1.5109 -3.6562,0.3043 l -13.1851,-12.9056 z"
         style="font-style:normal;font-variant:normal;font-weight:normal;font-stretch:normal;font-size:75px;line-height:125%;font-family:'Hiragino Maru Gothic ProN';-inkscape-font-specification:'Hiragino Maru Gothic ProN, Normal';text-align:start;writing-mode:lr-tb;text-anchor:start"
         id="path4285"
         inkscape:connector-curvature="0" />
    </g>
    <g
       id="g4423"
       transform="translate(0.00185923,0)">
      <circle
         r="10.450846"
         cy="-2748.4673"
         cx="2882.0728"
         id="path4419"
         style="opacity:1;fill:#000000;fill-opacity:1;fill-rule:nonzero;stroke:none;stroke-width:11;stroke-linecap:round;stroke-miterlimit:4;stroke-dasharray:none" />
      <circle
         style="opacity:1;fill:#000000;fill-opacity:1;fill-rule:nonzero;stroke:none;stroke-width:11;stroke-linecap:round;stroke-miterlimit:4;stroke-dasharray:none"
         id="circle4421"
         cx="3372.0728"
         cy="-2748.4673"
         r="10.450846" />
    </g>
  </g>
</svg>
