<?xml version="1.0" encoding="UTF-8" standalone="no"?>
<!-- Created with Inkscape (http://www.inkscape.org/) -->

<svg
   xmlns:dc="http://purl.org/dc/elements/1.1/"
   xmlns:cc="http://creativecommons.org/ns#"
   xmlns:rdf="http://www.w3.org/1999/02/22-rdf-syntax-ns#"
   xmlns:svg="http://www.w3.org/2000/svg"
   xmlns="http://www.w3.org/2000/svg"
   xmlns:sodipodi="http://sodipodi.sourceforge.net/DTD/sodipodi-0.dtd"
   xmlns:inkscape="http://www.inkscape.org/namespaces/inkscape"
   width="210mm"
   height="297mm"
   viewBox="0 0 744.09448819 1052.3622047"
   id="svg2"
   version="1.1"
   inkscape:version="0.91 r13725"
   sodipodi:docname="rooster-sketch.svg">
  <defs
     id="defs4">
    <filter
       inkscape:collect="always"
       style="color-interpolation-filters:sRGB"
       id="filter4341"
       x="-0.047999994"
       width="1.096"
       y="-0.048000006"
       height="1.096">
      <feGaussianBlur
         inkscape:collect="always"
         stdDeviation="8.169961"
         id="feGaussianBlur4343" />
    </filter>
  </defs>
  <sodipodi:namedview
     id="base"
     pagecolor="#ffffff"
     bordercolor="#666666"
     borderopacity="1.0"
     inkscape:pageopacity="0.0"
     inkscape:pageshadow="2"
     inkscape:zoom="10.616667"
     inkscape:cx="154.46387"
     inkscape:cy="-497.9502"
     inkscape:document-units="px"
     inkscape:current-layer="layer1"
     showgrid="false"
     inkscape:window-width="1440"
     inkscape:window-height="803"
     inkscape:window-x="0"
     inkscape:window-y="1"
     inkscape:window-maximized="1" />
  <metadata
     id="metadata7">
    <rdf:RDF>
      <cc:Work
         rdf:about="">
        <dc:format>image/svg+xml</dc:format>
        <dc:type
           rdf:resource="http://purl.org/dc/dcmitype/StillImage" />
        <dc:title></dc:title>
      </cc:Work>
    </rdf:RDF>
  </metadata>
  <g
     inkscape:label="Layer 1"
     inkscape:groupmode="layer"
     id="layer1">
    <rect
       style="opacity:0;fill:#999999;fill-opacity:1;fill-rule:nonzero;stroke:none;stroke-width:11;stroke-linecap:round;stroke-miterlimit:4;stroke-dasharray:none"
       id="rect3561"
       width="458.52844"
       height="458.52844"
       x="139.46387"
       y="138.75131"
       inkscape:export-xdpi="117.77"
       inkscape:export-ydpi="117.77" />
    <rect
       inkscape:export-ydpi="88.949997"
       inkscape:export-xdpi="88.949997"
       y="133.77214"
       x="871.24786"
       height="607.08594"
       width="607.08594"
       id="rect4325"
       style="opacity:0;fill:#999999;fill-opacity:1;fill-rule:nonzero;stroke:none;stroke-width:11;stroke-linecap:round;stroke-miterlimit:4;stroke-dasharray:none" />
    <rect
       inkscape:export-ydpi="117.77"
       inkscape:export-xdpi="117.77"
       y="208.05083"
       x="945.52667"
       height="458.52844"
       width="458.52844"
       id="rect4321"
       style="opacity:0;fill:#999999;fill-opacity:1;fill-rule:nonzero;stroke:none;stroke-width:11;stroke-linecap:round;stroke-miterlimit:4;stroke-dasharray:none" />
    <path
       sodipodi:nodetypes="sssssssssscccsccccscccccsccccscsccccscccccccccccccccccccccccccsccccccsccscsccccccscccccsccsccsccccsccscsscccccsccscccsccsscccscccsscccsccccscc"
       inkscape:connector-curvature="0"
       id="path4327"
       d="m 1174.7897,233.06609 c -112.7386,0 -204.24805,91.5114 -204.24805,204.25 0,112.7385 91.50945,204.248 204.24805,204.248 112.7385,0 204.25,-91.5095 204.25,-204.248 0,-112.7386 -91.5115,-204.25 -204.25,-204.25 z m 0,11 c 106.7936,0 193.25,86.4563 193.25,193.25 0,106.7936 -86.4564,193.248 -193.25,193.248 -106.7937,0 -193.24805,-86.4544 -193.24805,-193.248 0,-106.7937 86.45435,-193.25 193.24805,-193.25 z m -27.9258,35.0371 c -14.3809,0.2084 -27.7944,8.8879 -33.5274,22.7285 -5.6651,13.6771 -2.4576,29.0873 7.2891,39.4043 -7.0877,2.2613 -13.6096,6.1838 -18.9668,11.541 -8.8188,8.8188 -13.7754,20.7862 -13.7754,33.2578 l 11,0 0,0 26.0586,0 c 3.068,0.043 5.5783,-2.4317 5.5783,-5.5 0,-3.0683 -2.5103,-5.5434 -5.5783,-5.5 l -24.3301,0 c 1.7344,-5.4094 4.7319,-10.3861 8.8242,-14.4786 4.7666,-4.7665 10.7307,-8.0496 17.1836,-9.5761 l 0,10.9961 c -0.043,3.068 2.4317,5.5783 5.5,5.5783 3.0683,0 5.5434,-2.5103 5.5,-5.5783 l 0,-18.4141 c 0.02,-1.4585 -0.5412,-2.865 -1.5586,-3.9102 -0.4456,-0.5531 -0.9941,-1.0147 -1.6152,-1.3593 -11.2609,-6.5015 -15.9233,-20.2369 -10.9473,-32.25 3.2455,-7.8353 9.9084,-13.2873 17.6348,-15.1993 -1.8106,3.5173 -2.613,7.5784 -2.0664,11.7305 1.3053,9.9151 9.8412,17.4004 19.8418,17.4004 0.1356,3e-4 0.2711,0 0.4063,-0.014 0.1488,0.011 0.298,0.015 0.4472,0.014 l 16.9082,0 c 3.068,0.043 5.5783,-2.4317 5.5783,-5.5 0,-3.0683 -2.5103,-5.5434 -5.5783,-5.5 l -16.9082,0 c -0.1355,-3e-4 -0.271,0 -0.4062,0.014 -0.1488,-0.011 -0.2981,-0.015 -0.4473,-0.014 -4.5654,0 -8.3396,-3.3095 -8.9355,-7.8359 -0.596,-4.5264 2.1916,-8.7012 6.6015,-9.8828 0.78,-0.1967 1.5074,-0.5621 2.1309,-1.0704 1.3907,-0.9772 2.2515,-2.5424 2.332,-4.2402 0.1222,-2.612 -1.6114,-4.949 -4.1465,-5.5898 -3.3393,-0.8948 -6.7086,-1.2981 -10.0273,-1.25 z m 56.9629,33.8437 c -0.8355,-0.022 -1.6651,0.146 -2.4258,0.4922 -0.022,0.01 -0.043,0.018 -0.065,0.027 -0.1424,0.067 -0.2818,0.1399 -0.4179,0.2188 -0.025,0.014 -0.049,0.028 -0.074,0.043 -0.118,0.071 -0.2333,0.1454 -0.3457,0.2246 -0.047,0.033 -0.094,0.067 -0.1406,0.1015 -0.089,0.067 -0.1753,0.1367 -0.2597,0.209 -0.073,0.061 -0.1436,0.1232 -0.2129,0.1875 -0.032,0.03 -0.063,0.06 -0.094,0.09 -0.028,0.026 -0.055,0.053 -0.082,0.08 l -36.6953,36.6934 c -5.1854,5.1862 2.5931,12.9647 7.7793,7.7793 l 33.5332,-33.5352 c 8.7603,7.0973 12.0052,19.1922 7.5625,29.918 -4.8298,11.6602 -17.2281,18.0442 -29.4375,15.332 -0.8157,-0.4302 -1.7264,-0.6485 -2.6485,-0.6347 -2.5193,0.04 -4.6896,1.7858 -5.2675,4.2383 -0.1026,0.3797 -0.1641,0.7693 -0.1836,1.1621 -0.011,0.2843 0,0.5689 0.033,0.8515 l 0,44.75 c -16.4871,-1.9454 -33.0824,4.499 -43.92,17.4727 -12.3481,14.7819 -15.0302,35.4101 -6.8711,52.8574 8.1594,17.4473 25.7118,28.6152 44.9727,28.6152 3.068,0.043 5.5783,-2.4317 5.5783,-5.5 0,-3.0683 -2.5103,-5.5434 -5.5783,-5.5 -15.0164,0 -28.6466,-8.6729 -35.0078,-22.2753 -6.3612,-13.6025 -4.2795,-29.622 5.3477,-41.1465 9.6269,-11.5245 25.0195,-16.4245 39.5371,-12.586 3.4119,0.954 6.8227,-1.5192 6.9765,-5.0586 0.015,-0.3552 -0.01,-0.7111 -0.059,-1.0625 0.016,-0.1773 0.024,-0.3552 0.023,-0.5332 l 0,-44.1386 c 15.5366,1.1127 30.5193,-7.7905 36.6679,-22.6348 7.056,-17.0346 0.3566,-36.7673 -15.6113,-45.9863 -0.795,-0.4657 -1.6942,-0.7243 -2.6152,-0.752 z m -94.3321,79.4258 c -1.2459,0.032 -2.4441,0.4855 -3.3984,1.2871 -35.72,29.0694 -46.6873,79.0149 -26.4316,120.375 13.3361,27.2313 37.9116,46.0461 65.9492,52.7598 11.4204,6.2729 18.5117,18.181 18.5117,31.1601 -0.043,3.068 2.4317,5.5783 5.5,5.5783 3.0683,0 5.5434,-2.5103 5.5,-5.5783 0,-10.4962 -3.56,-20.4723 -9.7891,-28.498 8.4653,0.2817 17.0703,-0.5168 25.6289,-2.5 44.8651,-10.3962 76.6817,-50.4267 76.6817,-96.4805 0,-0.2514 -0.014,-0.5026 -0.047,-0.7519 0.033,-0.2499 0.049,-0.5018 0.047,-0.7539 l 0,-16.9083 c 0.1855,-3.7066 2.1623,-7.0719 5.3301,-8.9414 3.3284,-1.9643 7.406,-1.9629 10.7343,0 3.3284,1.9643 5.3672,5.5715 5.3672,9.5 -0.022,3.0871 2.4202,5.6018 5.4405,5.6018 3.0202,0 5.4624,-2.5147 5.4404,-5.6018 0,-7.8838 -4.1289,-15.1889 -10.8086,-19.1308 -6.6796,-3.9419 -14.9337,-3.9419 -21.6133,0 -6.0898,3.5938 -10.0461,9.9875 -10.6992,17.0625 -0.1334,0.4919 -0.1979,1 -0.1914,1.5097 l 0,16.9083 c 0,0.2514 0.014,0.5026 0.047,0.7519 -0.033,0.2499 -0.049,0.5018 -0.047,0.7539 0,40.9956 -28.2267,76.5094 -68.1641,85.7637 -13.2802,3.0773 -26.6696,2.9597 -39.2969,0.1015 -0.2941,-0.091 -0.5952,-0.1568 -0.9003,-0.1972 -24.974,-5.9284 -46.8493,-22.6629 -58.7422,-46.9473 -18.0309,-36.8174 -8.3008,-81.1292 23.4961,-107.0058 4.154,-3.2749 1.7429,-9.9526 -3.545,-9.8184 z m 168.8496,12.7852 c -7.1893,0 -14.378,1.8963 -20.8144,5.6875 -12.3913,7.2989 -20.1921,20.5804 -20.7598,35.0898 -0.095,0.4193 -0.1404,0.8493 -0.1347,1.2812 0.093,9.1405 -4.6998,17.5211 -12.6035,22.0176 -7.9039,4.4966 -17.6812,4.3971 -25.6778,-0.2597 -7.9966,-4.6568 -12.9601,-13.1331 -13.0527,-22.2735 0.013,-3.1007 -2.5399,-5.6507 -5.6406,-5.6347 -3.0354,0.015 -5.4351,2.487 -5.3614,5.5234 0.1324,13.0643 7.26,25.2234 18.6621,31.8633 11.4022,6.64 25.3845,6.7807 36.6543,0.3691 11.2699,-6.4114 18.152,-18.4298 18.0196,-31.4941 0,-0.078 -0.01,-0.155 -0.012,-0.2324 0.183,-11.0064 5.9849,-21.1097 15.3516,-26.627 9.5183,-5.6067 21.22,-5.6067 30.7383,0 9.4378,5.5592 15.2633,15.7735 15.3613,26.877 -0.052,0.3182 -0.076,0.6404 -0.072,0.9628 l 0,4.3438 c -0.043,3.068 2.4317,5.5783 5.5,5.5783 3.0683,0 5.5434,-2.5103 5.5,-5.5783 l 0,-4.3438 c 0,-0.2061 -0.01,-0.4121 -0.029,-0.6171 10e-5,-0.021 10e-5,-0.041 0,-0.062 10e-5,-15.165 -7.9437,-29.2006 -20.8164,-36.7832 -6.4363,-3.7912 -13.625,-5.6875 -20.8145,-5.6875 z"
       style="color:#000000;font-style:normal;font-variant:normal;font-weight:normal;font-stretch:normal;font-size:medium;line-height:normal;font-family:sans-serif;text-indent:0;text-align:start;text-decoration:none;text-decoration-line:none;text-decoration-style:solid;text-decoration-color:#000000;letter-spacing:normal;word-spacing:normal;text-transform:none;direction:ltr;block-progression:tb;writing-mode:lr-tb;baseline-shift:baseline;text-anchor:start;white-space:normal;clip-rule:nonzero;display:inline;overflow:visible;visibility:visible;opacity:1;isolation:auto;mix-blend-mode:normal;color-interpolation:sRGB;color-interpolation-filters:linearRGB;solid-color:#000000;solid-opacity:1;fill:#ffffff;fill-opacity:1;fill-rule:nonzero;stroke:#ffffff;stroke-width:32;stroke-linecap:round;stroke-linejoin:miter;stroke-miterlimit:4;stroke-dasharray:none;stroke-dashoffset:0;stroke-opacity:1;filter:url(#filter4341);color-rendering:auto;image-rendering:auto;shape-rendering:auto;text-rendering:auto;enable-background:accumulate" />
    <path
       style="color:#000000;font-style:normal;font-variant:normal;font-weight:normal;font-stretch:normal;font-size:medium;line-height:normal;font-family:sans-serif;text-indent:0;text-align:start;text-decoration:none;text-decoration-line:none;text-decoration-style:solid;text-decoration-color:#000000;letter-spacing:normal;word-spacing:normal;text-transform:none;direction:ltr;block-progression:tb;writing-mode:lr-tb;baseline-shift:baseline;text-anchor:start;white-space:normal;clip-rule:nonzero;display:inline;overflow:visible;visibility:visible;opacity:1;isolation:auto;mix-blend-mode:normal;color-interpolation:sRGB;color-interpolation-filters:linearRGB;solid-color:#000000;solid-opacity:1;fill:#000000;fill-opacity:1;fill-rule:nonzero;stroke:#000000;stroke-width:1;stroke-linecap:round;stroke-linejoin:miter;stroke-miterlimit:4;stroke-dasharray:none;stroke-dashoffset:0;stroke-opacity:1;color-rendering:auto;image-rendering:auto;shape-rendering:auto;text-rendering:auto;enable-background:accumulate"
       d="m 1174.7897,233.06609 c -112.7386,0 -204.24805,91.5114 -204.24805,204.25 0,112.7385 91.50945,204.248 204.24805,204.248 112.7385,0 204.25,-91.5095 204.25,-204.248 0,-112.7386 -91.5115,-204.25 -204.25,-204.25 z m 0,11 c 106.7936,0 193.25,86.4563 193.25,193.25 0,106.7936 -86.4564,193.248 -193.25,193.248 -106.7937,0 -193.24805,-86.4544 -193.24805,-193.248 0,-106.7937 86.45435,-193.25 193.24805,-193.25 z m -27.9258,35.0371 c -14.3809,0.2084 -27.7944,8.8879 -33.5274,22.7285 -5.6651,13.6771 -2.4576,29.0873 7.2891,39.4043 -7.0877,2.2613 -13.6096,6.1838 -18.9668,11.541 -8.8188,8.8188 -13.7754,20.7862 -13.7754,33.2578 l 11,0 0,0 26.0586,0 c 3.068,0.043 5.5783,-2.4317 5.5783,-5.5 0,-3.0683 -2.5103,-5.5434 -5.5783,-5.5 l -24.3301,0 c 1.7344,-5.4094 4.7319,-10.3861 8.8242,-14.4786 4.7666,-4.7665 10.7307,-8.0496 17.1836,-9.5761 l 0,10.9961 c -0.043,3.068 2.4317,5.5783 5.5,5.5783 3.0683,0 5.5434,-2.5103 5.5,-5.5783 l 0,-18.4141 c 0.02,-1.4585 -0.5412,-2.865 -1.5586,-3.9102 -0.4456,-0.5531 -0.9941,-1.0147 -1.6152,-1.3593 -11.2609,-6.5015 -15.9233,-20.2369 -10.9473,-32.25 3.2455,-7.8353 9.9084,-13.2873 17.6348,-15.1993 -1.8106,3.5173 -2.613,7.5784 -2.0664,11.7305 1.3053,9.9151 9.8412,17.4004 19.8418,17.4004 0.1356,3e-4 0.2711,0 0.4063,-0.014 0.1488,0.011 0.298,0.015 0.4472,0.014 l 16.9082,0 c 3.068,0.043 5.5783,-2.4317 5.5783,-5.5 0,-3.0683 -2.5103,-5.5434 -5.5783,-5.5 l -16.9082,0 c -0.1355,-3e-4 -0.271,0 -0.4062,0.014 -0.1488,-0.011 -0.2981,-0.015 -0.4473,-0.014 -4.5654,0 -8.3396,-3.3095 -8.9355,-7.8359 -0.596,-4.5264 2.1916,-8.7012 6.6015,-9.8828 0.78,-0.1967 1.5074,-0.5621 2.1309,-1.0704 1.3907,-0.9772 2.2515,-2.5424 2.332,-4.2402 0.1222,-2.612 -1.6114,-4.949 -4.1465,-5.5898 -3.3393,-0.8948 -6.7086,-1.2981 -10.0273,-1.25 z m 56.9629,33.8437 c -0.8355,-0.022 -1.6651,0.146 -2.4258,0.4922 -0.022,0.01 -0.043,0.018 -0.065,0.027 -0.1424,0.067 -0.2818,0.1399 -0.4179,0.2188 -0.025,0.014 -0.049,0.028 -0.074,0.043 -0.118,0.071 -0.2333,0.1454 -0.3457,0.2246 -0.047,0.033 -0.094,0.067 -0.1406,0.1015 -0.089,0.067 -0.1753,0.1367 -0.2597,0.209 -0.073,0.061 -0.1436,0.1232 -0.2129,0.1875 -0.032,0.03 -0.063,0.06 -0.094,0.09 -0.028,0.026 -0.055,0.053 -0.082,0.08 l -36.6953,36.6934 c -5.1854,5.1862 2.5931,12.9647 7.7793,7.7793 l 33.5332,-33.5352 c 8.7603,7.0973 12.0052,19.1922 7.5625,29.918 -4.8298,11.6602 -17.2281,18.0442 -29.4375,15.332 -0.8157,-0.4302 -1.7264,-0.6485 -2.6485,-0.6347 -2.5193,0.04 -4.6896,1.7858 -5.2675,4.2383 -0.1026,0.3797 -0.1641,0.7693 -0.1836,1.1621 -0.011,0.2843 0,0.5689 0.033,0.8515 l 0,44.75 c -16.4871,-1.9454 -33.0824,4.499 -43.92,17.4727 -12.3481,14.7819 -15.0302,35.4101 -6.8711,52.8574 8.1594,17.4473 25.7118,28.6152 44.9727,28.6152 3.068,0.043 5.5783,-2.4317 5.5783,-5.5 0,-3.0683 -2.5103,-5.5434 -5.5783,-5.5 -15.0164,0 -28.6466,-8.6729 -35.0078,-22.2753 -6.3612,-13.6025 -4.2795,-29.622 5.3477,-41.1465 9.6269,-11.5245 25.0195,-16.4245 39.5371,-12.586 3.4119,0.954 6.8227,-1.5192 6.9765,-5.0586 0.015,-0.3552 -0.01,-0.7111 -0.059,-1.0625 0.016,-0.1773 0.024,-0.3552 0.023,-0.5332 l 0,-44.1386 c 15.5366,1.1127 30.5193,-7.7905 36.6679,-22.6348 7.056,-17.0346 0.3566,-36.7673 -15.6113,-45.9863 -0.795,-0.4657 -1.6942,-0.7243 -2.6152,-0.752 z m -94.3321,79.4258 c -1.2459,0.032 -2.4441,0.4855 -3.3984,1.2871 -35.72,29.0694 -46.6873,79.0149 -26.4316,120.375 13.3361,27.2313 37.9116,46.0461 65.9492,52.7598 11.4204,6.2729 18.5117,18.181 18.5117,31.1601 -0.043,3.068 2.4317,5.5783 5.5,5.5783 3.0683,0 5.5434,-2.5103 5.5,-5.5783 0,-10.4962 -3.56,-20.4723 -9.7891,-28.498 8.4653,0.2817 17.0703,-0.5168 25.6289,-2.5 44.8651,-10.3962 76.6817,-50.4267 76.6817,-96.4805 0,-0.2514 -0.014,-0.5026 -0.047,-0.7519 0.033,-0.2499 0.049,-0.5018 0.047,-0.7539 l 0,-16.9083 c 0.1855,-3.7066 2.1623,-7.0719 5.3301,-8.9414 3.3284,-1.9643 7.406,-1.9629 10.7343,0 3.3284,1.9643 5.3672,5.5715 5.3672,9.5 -0.022,3.0871 2.4202,5.6018 5.4405,5.6018 3.0202,0 5.4624,-2.5147 5.4404,-5.6018 0,-7.8838 -4.1289,-15.1889 -10.8086,-19.1308 -6.6796,-3.9419 -14.9337,-3.9419 -21.6133,0 -6.0898,3.5938 -10.0461,9.9875 -10.6992,17.0625 -0.1334,0.4919 -0.1979,1 -0.1914,1.5097 l 0,16.9083 c 0,0.2514 0.014,0.5026 0.047,0.7519 -0.033,0.2499 -0.049,0.5018 -0.047,0.7539 0,40.9956 -28.2267,76.5094 -68.1641,85.7637 -13.2802,3.0773 -26.6696,2.9597 -39.2969,0.1015 -0.2941,-0.091 -0.5952,-0.1568 -0.9003,-0.1972 -24.974,-5.9284 -46.8493,-22.6629 -58.7422,-46.9473 -18.0309,-36.8174 -8.3008,-81.1292 23.4961,-107.0058 4.154,-3.2749 1.7429,-9.9526 -3.545,-9.8184 z m 168.8496,12.7852 c -7.1893,0 -14.378,1.8963 -20.8144,5.6875 -12.3913,7.2989 -20.1921,20.5804 -20.7598,35.0898 -0.095,0.4193 -0.1404,0.8493 -0.1347,1.2812 0.093,9.1405 -4.6998,17.5211 -12.6035,22.0176 -7.9039,4.4966 -17.6812,4.3971 -25.6778,-0.2597 -7.9966,-4.6568 -12.9601,-13.1331 -13.0527,-22.2735 0.013,-3.1007 -2.5399,-5.6507 -5.6406,-5.6347 -3.0354,0.015 -5.4351,2.487 -5.3614,5.5234 0.1324,13.0643 7.26,25.2234 18.6621,31.8633 11.4022,6.64 25.3845,6.7807 36.6543,0.3691 11.2699,-6.4114 18.152,-18.4298 18.0196,-31.4941 0,-0.078 -0.01,-0.155 -0.012,-0.2324 0.183,-11.0064 5.9849,-21.1097 15.3516,-26.627 9.5183,-5.6067 21.22,-5.6067 30.7383,0 9.4378,5.5592 15.2633,15.7735 15.3613,26.877 -0.052,0.3182 -0.076,0.6404 -0.072,0.9628 l 0,4.3438 c -0.043,3.068 2.4317,5.5783 5.5,5.5783 3.0683,0 5.5434,-2.5103 5.5,-5.5783 l 0,-4.3438 c 0,-0.2061 -0.01,-0.4121 -0.029,-0.6171 10e-5,-0.021 10e-5,-0.041 0,-0.062 10e-5,-15.165 -7.9437,-29.2006 -20.8164,-36.7832 -6.4363,-3.7912 -13.625,-5.6875 -20.8145,-5.6875 z"
       id="path4323"
       inkscape:connector-curvature="0"
       sodipodi:nodetypes="sssssssssscccsccccscccccsccccscsccccscccccccccccccccccccccccccsccccccsccscsccccccscccccsccsccsccccsccscsscccccsccscccsccsscccscccsscccsccccscc" />
    <path
       inkscape:export-ydpi="136.31"
       inkscape:export-xdpi="136.31"
       style="opacity:0.98000004;fill:none;fill-opacity:1;fill-rule:nonzero;stroke:#000000;stroke-width:11;stroke-miterlimit:4;stroke-dasharray:none"
       id="path3517"
       sodipodi:type="arc"
       sodipodi:cx="-245.72829"
       sodipodi:cy="-370.24826"
       sodipodi:rx="41.532272"
       sodipodi:ry="41.532272"
       sodipodi:start="1.5707963"
       sodipodi:end="3.1415927"
       d="m -245.72829,-328.71599 a 41.532272,41.532272 0 0 1 -29.36775,-12.16452 41.532272,41.532272 0 0 1 -12.16452,-29.36775"
       transform="matrix(0,1,-1,0,0,0)"
       sodipodi:open="true" />
    <path
       sodipodi:nodetypes="ccccccccc"
       inkscape:connector-curvature="0"
       id="path3519"
       d="m 344.9019,-233.83564 c -33.75913,27.47257 -44.1078,74.60022 -24.96485,113.68945 19.14356,39.089278 62.7195,59.808538 105.1211,49.982418 42.40101,-9.82544 72.42192,-47.598508 72.42187,-91.123038 m 32.37109,-17.85157 c 2.8e-4,-5.90701 -3.08291,-11.36533 -8.08789,-14.31836 -2.57051,-1.51646 -5.4997,-2.28068 -8.46679,-2.20898 -2.70884,0.065 -5.3583,0.82454 -7.70508,2.20898 -5.00498,2.95303 -8.08817,8.41135 -8.08789,14.31836"
       style="opacity:0.98000004;fill:none;fill-opacity:1;fill-rule:nonzero;stroke:#000000;stroke-width:11;stroke-linecap:round;stroke-miterlimit:4;stroke-dasharray:none" />
    <path
       inkscape:export-ydpi="136.31"
       inkscape:export-xdpi="136.31"
       style="opacity:0.98000004;fill:none;fill-rule:evenodd;stroke:#000000;stroke-width:11;stroke-linecap:round;stroke-linejoin:miter;stroke-miterlimit:4;stroke-dasharray:none;stroke-opacity:1"
       d="m 360.27584,-251.22877 -29.1796,0"
       id="path3521"
       inkscape:connector-curvature="0" />
    <path
       inkscape:export-ydpi="136.31"
       inkscape:export-xdpi="136.31"
       inkscape:connector-curvature="0"
       id="path3523"
       d="m 367.45334,-269.78687 0,-18.4146"
       style="opacity:0.98000004;fill:none;fill-rule:evenodd;stroke:#000000;stroke-width:11;stroke-linecap:round;stroke-linejoin:miter;stroke-miterlimit:4;stroke-dasharray:none;stroke-opacity:1"
       sodipodi:nodetypes="cc" />
    <path
       inkscape:export-ydpi="136.31"
       inkscape:export-xdpi="136.31"
       transform="matrix(0,1,-1,0,0,0)"
       id="path3525"
       style="opacity:0.98000004;fill:none;fill-opacity:1;fill-rule:nonzero;stroke:#000000;stroke-width:11;stroke-linecap:round;stroke-miterlimit:4;stroke-dasharray:none"
       sodipodi:type="arc"
       sodipodi:cx="-315.83817"
       sodipodi:cy="-382.69284"
       sodipodi:rx="31.326332"
       sodipodi:ry="31.326332"
       sodipodi:start="0.52359878"
       sodipodi:end="3.403392"
       d="m -288.70877,-367.02967 a 31.326332,31.326332 0 0 1 -39.11746,13.27859 31.326332,31.326332 0 0 1 -18.27085,-37.04961"
       sodipodi:open="true" />
    <path
       inkscape:export-ydpi="136.31"
       inkscape:export-xdpi="136.31"
       style="opacity:0.98000004;fill:none;fill-opacity:1;fill-rule:nonzero;stroke:#000000;stroke-width:11;stroke-linecap:round;stroke-miterlimit:4;stroke-dasharray:none"
       id="path3527"
       transform="matrix(0,1,-1,0,0,0)"
       sodipodi:type="arc"
       sodipodi:cx="-331.80252"
       sodipodi:cy="-394.24142"
       sodipodi:rx="14.512902"
       sodipodi:ry="14.512902"
       sodipodi:start="0"
       sodipodi:end="2.8797933"
       d="m -317.28962,-394.24142 a 14.512902,14.512902 0 0 1 -12.61859,14.38874 14.512902,14.512902 0 0 1 -15.9127,-10.63253"
       sodipodi:open="true" />
    <path
       inkscape:export-ydpi="136.31"
       inkscape:export-xdpi="136.31"
       sodipodi:nodetypes="cc"
       style="opacity:0.98000004;fill:none;fill-rule:evenodd;stroke:#000000;stroke-width:11;stroke-linecap:round;stroke-linejoin:miter;stroke-miterlimit:4;stroke-dasharray:none;stroke-opacity:1"
       d="m 395.09494,-317.28957 16.9084,0"
       id="path3529"
       inkscape:connector-curvature="0" />
    <path
       sodipodi:nodetypes="sssssssssscccsccccscccccsccccscsccccscccccccccccccccccccccccccsccccccsccscsccccccscccccsccsccsccccsccscsscccccsccscccsccsscccscccsscccsccccscc"
       inkscape:connector-curvature="0"
       id="path3565"
       d="m 368.7269,163.76657 c -112.7386,0 -204.24805,91.5114 -204.24805,204.25 0,112.7385 91.50945,204.248 204.24805,204.248 112.7385,0 204.25,-91.5095 204.25,-204.248 0,-112.7386 -91.5115,-204.25 -204.25,-204.25 z m 0,11 c 106.7936,0 193.25,86.4563 193.25,193.25 0,106.7936 -86.4564,193.248 -193.25,193.248 -106.7937,0 -193.24805,-86.4544 -193.24805,-193.248 0,-106.7937 86.45435,-193.25 193.24805,-193.25 z m -27.9258,35.0371 c -14.3809,0.2084 -27.7944,8.8879 -33.5274,22.7285 -5.6651,13.6771 -2.4576,29.0873 7.2891,39.4043 -7.0877,2.2613 -13.6096,6.1838 -18.9668,11.541 -8.8188,8.8188 -13.7754,20.7862 -13.7754,33.2578 l 11,0 0,0 26.0586,0 c 3.068,0.043 5.5783,-2.4317 5.5783,-5.5 0,-3.0683 -2.5103,-5.5434 -5.5783,-5.5 l -24.3301,0 c 1.7344,-5.4094 4.7319,-10.3861 8.8242,-14.4786 4.7666,-4.7665 10.7307,-8.0496 17.1836,-9.5761 l 0,10.9961 c -0.043,3.068 2.4317,5.5783 5.5,5.5783 3.0683,0 5.5434,-2.5103 5.5,-5.5783 l 0,-18.4141 c 0.02,-1.4585 -0.5412,-2.865 -1.5586,-3.9102 -0.4456,-0.5531 -0.9941,-1.0147 -1.6152,-1.3593 -11.2609,-6.5015 -15.9233,-20.2369 -10.9473,-32.25 3.2455,-7.8353 9.9084,-13.2873 17.6348,-15.1993 -1.8106,3.5173 -2.613,7.5784 -2.0664,11.7305 1.3053,9.9151 9.8412,17.4004 19.8418,17.4004 0.1356,3e-4 0.2711,0 0.4063,-0.014 0.1488,0.011 0.298,0.015 0.4472,0.014 l 16.9082,0 c 3.068,0.043 5.5783,-2.4317 5.5783,-5.5 0,-3.0683 -2.5103,-5.5434 -5.5783,-5.5 l -16.9082,0 c -0.1355,-3e-4 -0.271,0 -0.4062,0.014 -0.1488,-0.011 -0.2981,-0.015 -0.4473,-0.014 -4.5654,0 -8.3396,-3.3095 -8.9355,-7.8359 -0.596,-4.5264 2.1916,-8.7012 6.6015,-9.8828 0.78,-0.1967 1.5074,-0.5621 2.1309,-1.0704 1.3907,-0.9772 2.2515,-2.5424 2.332,-4.2402 0.1222,-2.612 -1.6114,-4.949 -4.1465,-5.5898 -3.3393,-0.8948 -6.7086,-1.2981 -10.0273,-1.25 z m 56.9629,33.8437 c -0.8355,-0.022 -1.6651,0.146 -2.4258,0.4922 -0.022,0.01 -0.043,0.018 -0.065,0.027 -0.1424,0.067 -0.2818,0.1399 -0.4179,0.2188 -0.025,0.014 -0.049,0.028 -0.074,0.043 -0.118,0.071 -0.2333,0.1454 -0.3457,0.2246 -0.047,0.033 -0.094,0.067 -0.1406,0.1015 -0.089,0.067 -0.1753,0.1367 -0.2597,0.209 -0.073,0.061 -0.1436,0.1232 -0.2129,0.1875 -0.032,0.03 -0.063,0.06 -0.094,0.09 -0.028,0.026 -0.055,0.053 -0.082,0.08 l -36.6953,36.6934 c -5.1854,5.1862 2.5931,12.9647 7.7793,7.7793 l 33.5332,-33.5352 c 8.7603,7.0973 12.0052,19.1922 7.5625,29.918 -4.8298,11.6602 -17.2281,18.0442 -29.4375,15.332 -0.8157,-0.4302 -1.7264,-0.6485 -2.6485,-0.6347 -2.5193,0.04 -4.6896,1.7858 -5.2675,4.2383 -0.1026,0.3797 -0.1641,0.7693 -0.1836,1.1621 -0.011,0.2843 0,0.5689 0.033,0.8515 l 0,44.75 c -16.4871,-1.9454 -33.0824,4.499 -43.92,17.4727 -12.3481,14.7819 -15.0302,35.4101 -6.8711,52.8574 8.1594,17.4473 25.7118,28.6152 44.9727,28.6152 3.068,0.043 5.5783,-2.4317 5.5783,-5.5 0,-3.0683 -2.5103,-5.5434 -5.5783,-5.5 -15.0164,0 -28.6466,-8.6729 -35.0078,-22.2753 -6.3612,-13.6025 -4.2795,-29.622 5.3477,-41.1465 9.6269,-11.5245 25.0195,-16.4245 39.5371,-12.586 3.4119,0.954 6.8227,-1.5192 6.9765,-5.0586 0.015,-0.3552 -0.01,-0.7111 -0.059,-1.0625 0.016,-0.1773 0.024,-0.3552 0.023,-0.5332 l 0,-44.1386 c 15.5366,1.1127 30.5193,-7.7905 36.6679,-22.6348 7.056,-17.0346 0.3566,-36.7673 -15.6113,-45.9863 -0.795,-0.4657 -1.6942,-0.7243 -2.6152,-0.752 z m -94.3321,79.4258 c -1.2459,0.032 -2.4441,0.4855 -3.3984,1.2871 -35.72,29.0694 -46.6873,79.0149 -26.4316,120.375 13.3361,27.2313 37.9116,46.0461 65.9492,52.7598 11.4204,6.2729 18.5117,18.181 18.5117,31.1601 -0.043,3.068 2.4317,5.5783 5.5,5.5783 3.0683,0 5.5434,-2.5103 5.5,-5.5783 0,-10.4962 -3.56,-20.4723 -9.7891,-28.498 8.4653,0.2817 17.0703,-0.5168 25.6289,-2.5 44.8651,-10.3962 76.6817,-50.4267 76.6817,-96.4805 0,-0.2514 -0.014,-0.5026 -0.047,-0.7519 0.033,-0.2499 0.049,-0.5018 0.047,-0.7539 l 0,-16.9083 c 0.1855,-3.7066 2.1623,-7.0719 5.3301,-8.9414 3.3284,-1.9643 7.406,-1.9629 10.7343,0 3.3284,1.9643 5.3672,5.5715 5.3672,9.5 -0.022,3.0871 2.4202,5.6018 5.4405,5.6018 3.0202,0 5.4624,-2.5147 5.4404,-5.6018 0,-7.8838 -4.1289,-15.1889 -10.8086,-19.1308 -6.6796,-3.9419 -14.9337,-3.9419 -21.6133,0 -6.0898,3.5938 -10.0461,9.9875 -10.6992,17.0625 -0.1334,0.4919 -0.1979,1 -0.1914,1.5097 l 0,16.9083 c 0,0.2514 0.014,0.5026 0.047,0.7519 -0.033,0.2499 -0.049,0.5018 -0.047,0.7539 0,40.9956 -28.2267,76.5094 -68.1641,85.7637 -13.2802,3.0773 -26.6696,2.9597 -39.2969,0.1015 -0.2941,-0.091 -0.5952,-0.1568 -0.9003,-0.1972 -24.974,-5.9284 -46.8493,-22.6629 -58.7422,-46.9473 -18.0309,-36.8174 -8.3008,-81.1292 23.4961,-107.0058 4.154,-3.2749 1.7429,-9.9526 -3.545,-9.8184 z m 168.8496,12.7852 c -7.1893,0 -14.378,1.8963 -20.8144,5.6875 -12.3913,7.2989 -20.1921,20.5804 -20.7598,35.0898 -0.095,0.4193 -0.1404,0.8493 -0.1347,1.2812 0.093,9.1405 -4.6998,17.5211 -12.6035,22.0176 -7.9039,4.4966 -17.6812,4.3971 -25.6778,-0.2597 -7.9966,-4.6568 -12.9601,-13.1331 -13.0527,-22.2735 0.013,-3.1007 -2.5399,-5.6507 -5.6406,-5.6347 -3.0354,0.015 -5.4351,2.487 -5.3614,5.5234 0.1324,13.0643 7.26,25.2234 18.6621,31.8633 11.4022,6.64 25.3845,6.7807 36.6543,0.3691 11.2699,-6.4114 18.152,-18.4298 18.0196,-31.4941 0,-0.078 -0.01,-0.155 -0.012,-0.2324 0.183,-11.0064 5.9849,-21.1097 15.3516,-26.627 9.5183,-5.6067 21.22,-5.6067 30.7383,0 9.4378,5.5592 15.2633,15.7735 15.3613,26.877 -0.052,0.3182 -0.076,0.6404 -0.072,0.9628 l 0,4.3438 c -0.043,3.068 2.4317,5.5783 5.5,5.5783 3.0683,0 5.5434,-2.5103 5.5,-5.5783 l 0,-4.3438 c 0,-0.2061 -0.01,-0.4121 -0.029,-0.6171 10e-5,-0.021 10e-5,-0.041 0,-0.062 10e-5,-15.165 -7.9437,-29.2006 -20.8164,-36.7832 -6.4363,-3.7912 -13.625,-5.6875 -20.8145,-5.6875 z"
       style="color:#000000;font-style:normal;font-variant:normal;font-weight:normal;font-stretch:normal;font-size:medium;line-height:normal;font-family:sans-serif;text-indent:0;text-align:start;text-decoration:none;text-decoration-line:none;text-decoration-style:solid;text-decoration-color:#000000;letter-spacing:normal;word-spacing:normal;text-transform:none;direction:ltr;block-progression:tb;writing-mode:lr-tb;baseline-shift:baseline;text-anchor:start;white-space:normal;clip-rule:nonzero;display:inline;overflow:visible;visibility:visible;opacity:1;isolation:auto;mix-blend-mode:normal;color-interpolation:sRGB;color-interpolation-filters:linearRGB;solid-color:#000000;solid-opacity:1;fill:#000000;fill-opacity:1;fill-rule:nonzero;stroke:#000000;stroke-width:2;stroke-linecap:round;stroke-linejoin:miter;stroke-miterlimit:4;stroke-dasharray:none;stroke-dashoffset:0;stroke-opacity:1;color-rendering:auto;image-rendering:auto;shape-rendering:auto;text-rendering:auto;enable-background:accumulate"
       inkscape:export-xdpi="117.77"
       inkscape:export-ydpi="117.77" />
    <rect
       style="opacity:0;fill:#999999;fill-opacity:1;fill-rule:nonzero;stroke:none;stroke-width:11;stroke-linecap:round;stroke-miterlimit:4;stroke-dasharray:none"
       id="rect3567"
       width="607.08594"
       height="607.08594"
       x="878.53107"
       y="1022.3262"
       inkscape:export-xdpi="88.949997"
       inkscape:export-ydpi="88.949997" />
    <rect
       style="opacity:0;fill:#999999;fill-opacity:1;fill-rule:nonzero;stroke:none;stroke-width:11;stroke-linecap:round;stroke-miterlimit:4;stroke-dasharray:none"
       id="rect3569"
       width="458.52844"
       height="458.52844"
       x="952.80988"
       y="1096.605"
       inkscape:export-xdpi="117.77"
       inkscape:export-ydpi="117.77" />
    <path
       style="color:#000000;font-style:normal;font-variant:normal;font-weight:normal;font-stretch:normal;font-size:medium;line-height:normal;font-family:sans-serif;text-indent:0;text-align:start;text-decoration:none;text-decoration-line:none;text-decoration-style:solid;text-decoration-color:#000000;letter-spacing:normal;word-spacing:normal;text-transform:none;direction:ltr;block-progression:tb;writing-mode:lr-tb;baseline-shift:baseline;text-anchor:start;white-space:normal;clip-rule:nonzero;display:inline;overflow:visible;visibility:visible;opacity:1;isolation:auto;mix-blend-mode:normal;color-interpolation:sRGB;color-interpolation-filters:linearRGB;solid-color:#000000;solid-opacity:1;fill:#ffffff;fill-opacity:1;fill-rule:nonzero;stroke:#ffffff;stroke-width:32;stroke-linecap:round;stroke-linejoin:miter;stroke-miterlimit:4;stroke-dasharray:none;stroke-dashoffset:0;stroke-opacity:1;filter:url(#filter4341);color-rendering:auto;image-rendering:auto;shape-rendering:auto;text-rendering:auto;enable-background:accumulate"
       d="m 1182.0729,1121.6202 c -112.7386,0 -204.24802,91.5114 -204.24802,204.25 0,112.7385 91.50942,204.248 204.24802,204.248 112.7385,0 204.25,-91.5095 204.25,-204.248 0,-112.7386 -91.5115,-204.25 -204.25,-204.25 z m 0,11 c 106.7936,0 193.25,86.4563 193.25,193.25 0,106.7936 -86.4564,193.248 -193.25,193.248 -106.7937,0 -193.24802,-86.4544 -193.24802,-193.248 0,-106.7937 86.45432,-193.25 193.24802,-193.25 z m -27.9258,35.0371 c -14.3809,0.2084 -27.7944,8.8879 -33.5274,22.7285 -5.6651,13.6771 -2.4576,29.0873 7.2891,39.4043 -7.0877,2.2613 -13.6096,6.1838 -18.9668,11.541 -8.8188,8.8188 -13.7754,20.7862 -13.7754,33.2578 l 11,0 0,0 26.0586,0 c 3.068,0.043 5.5783,-2.4317 5.5783,-5.5 0,-3.0683 -2.5103,-5.5434 -5.5783,-5.5 l -24.3301,0 c 1.7344,-5.4094 4.7319,-10.3861 8.8242,-14.4786 4.7666,-4.7665 10.7307,-8.0496 17.1836,-9.5761 l 0,10.9961 c -0.043,3.068 2.4317,5.5783 5.5,5.5783 3.0683,0 5.5434,-2.5103 5.5,-5.5783 l 0,-18.4141 c 0.02,-1.4585 -0.5412,-2.865 -1.5586,-3.9102 -0.4456,-0.5531 -0.9941,-1.0147 -1.6152,-1.3593 -11.2609,-6.5015 -15.9233,-20.2369 -10.9473,-32.25 3.2455,-7.8353 9.9084,-13.2873 17.6348,-15.1993 -1.8106,3.5173 -2.613,7.5784 -2.0664,11.7305 1.3053,9.9151 9.8412,17.4004 19.8418,17.4004 0.1356,3e-4 0.2711,0 0.4063,-0.014 0.1488,0.011 0.298,0.015 0.4472,0.014 l 16.9082,0 c 3.068,0.043 5.5783,-2.4317 5.5783,-5.5 0,-3.0683 -2.5103,-5.5434 -5.5783,-5.5 l -16.9082,0 c -0.1355,-3e-4 -0.271,0 -0.4062,0.014 -0.1488,-0.011 -0.2981,-0.015 -0.4473,-0.014 -4.5654,0 -8.3396,-3.3095 -8.9355,-7.8359 -0.596,-4.5264 2.1916,-8.7012 6.6015,-9.8828 0.78,-0.1967 1.5074,-0.5621 2.1309,-1.0704 1.3907,-0.9772 2.2515,-2.5424 2.332,-4.2402 0.1222,-2.612 -1.6114,-4.949 -4.1465,-5.5898 -3.3393,-0.8948 -6.7086,-1.2981 -10.0273,-1.25 z m 56.9629,33.8437 c -0.8355,-0.022 -1.6651,0.146 -2.4258,0.4922 -0.022,0.01 -0.043,0.018 -0.065,0.027 -0.1424,0.067 -0.2818,0.1399 -0.4179,0.2188 -0.025,0.014 -0.049,0.028 -0.074,0.043 -0.118,0.071 -0.2333,0.1454 -0.3457,0.2246 -0.047,0.033 -0.094,0.067 -0.1406,0.1015 -0.089,0.067 -0.1753,0.1367 -0.2597,0.209 -0.073,0.061 -0.1436,0.1232 -0.2129,0.1875 -0.032,0.03 -0.063,0.06 -0.094,0.09 -0.028,0.026 -0.055,0.053 -0.082,0.08 l -36.6953,36.6934 c -5.1854,5.1862 2.5931,12.9647 7.7793,7.7793 l 33.5332,-33.5352 c 8.7603,7.0973 12.0052,19.1922 7.5625,29.918 -4.8298,11.6602 -17.2281,18.0442 -29.4375,15.332 -0.8157,-0.4302 -1.7264,-0.6485 -2.6485,-0.6347 -2.5193,0.04 -4.6896,1.7858 -5.2675,4.2383 -0.1026,0.3797 -0.1641,0.7693 -0.1836,1.1621 -0.011,0.2843 0,0.5689 0.033,0.8515 l 0,44.75 c -16.4871,-1.9454 -33.0824,4.499 -43.92,17.4727 -12.3481,14.7819 -15.0302,35.4101 -6.8711,52.8574 8.1594,17.4473 25.7118,28.6152 44.9727,28.6152 3.068,0.043 5.5783,-2.4317 5.5783,-5.5 0,-3.0683 -2.5103,-5.5434 -5.5783,-5.5 -15.0164,0 -28.6466,-8.6729 -35.0078,-22.2753 -6.3612,-13.6025 -4.2795,-29.622 5.3477,-41.1465 9.6269,-11.5245 25.0195,-16.4245 39.5371,-12.586 3.4119,0.954 6.8227,-1.5192 6.9765,-5.0586 0.015,-0.3552 -0.01,-0.7111 -0.059,-1.0625 0.016,-0.1773 0.024,-0.3552 0.023,-0.5332 l 0,-44.1386 c 15.5366,1.1127 30.5193,-7.7905 36.6679,-22.6348 7.056,-17.0346 0.3566,-36.7673 -15.6113,-45.9863 -0.795,-0.4657 -1.6942,-0.7243 -2.6152,-0.752 z m -94.3321,79.4258 c -1.2459,0.032 -2.4441,0.4855 -3.3984,1.2871 -35.72,29.0694 -46.6873,79.0149 -26.4316,120.375 13.3361,27.2313 37.9116,46.0461 65.9492,52.7598 11.4204,6.2729 18.5117,18.181 18.5117,31.1601 -0.043,3.068 2.4317,5.5783 5.5,5.5783 3.0683,0 5.5434,-2.5103 5.5,-5.5783 0,-10.4962 -3.56,-20.4723 -9.7891,-28.498 8.4653,0.2817 17.0703,-0.5168 25.6289,-2.5 44.8651,-10.3962 76.6817,-50.4267 76.6817,-96.4805 0,-0.2514 -0.014,-0.5026 -0.047,-0.7519 0.033,-0.2499 0.049,-0.5018 0.047,-0.7539 l 0,-16.9083 c 0.1855,-3.7066 2.1623,-7.0719 5.3301,-8.9414 3.3284,-1.9643 7.406,-1.9629 10.7343,0 3.3284,1.9643 5.3672,5.5715 5.3672,9.5 -0.022,3.0871 2.4202,5.6018 5.4405,5.6018 3.0202,0 5.4624,-2.5147 5.4404,-5.6018 0,-7.8838 -4.1289,-15.1889 -10.8086,-19.1308 -6.6796,-3.9419 -14.9337,-3.9419 -21.6133,0 -6.0898,3.5938 -10.0461,9.9875 -10.6992,17.0625 -0.1334,0.4919 -0.1979,1 -0.1914,1.5097 l 0,16.9083 c 0,0.2514 0.014,0.5026 0.047,0.7519 -0.033,0.2499 -0.049,0.5018 -0.047,0.7539 0,40.9956 -28.2267,76.5094 -68.1641,85.7637 -13.2802,3.0773 -26.6696,2.9597 -39.2969,0.1015 -0.2941,-0.091 -0.5952,-0.1568 -0.9003,-0.1972 -24.974,-5.9284 -46.8493,-22.6629 -58.7422,-46.9473 -18.0309,-36.8174 -8.3008,-81.1292 23.4961,-107.0058 4.154,-3.2749 1.7429,-9.9526 -3.545,-9.8184 z m 168.8496,12.7852 c -7.1893,0 -14.378,1.8963 -20.8144,5.6875 -12.3913,7.2989 -20.1921,20.5804 -20.7598,35.0898 -0.095,0.4193 -0.1404,0.8493 -0.1347,1.2812 0.093,9.1405 -4.6998,17.5211 -12.6035,22.0176 -7.9039,4.4966 -17.6812,4.3971 -25.6778,-0.2597 -7.9966,-4.6568 -12.9601,-13.1331 -13.0527,-22.2735 0.013,-3.1007 -2.5399,-5.6507 -5.6406,-5.6347 -3.0354,0.015 -5.4351,2.487 -5.3614,5.5234 0.1324,13.0643 7.26,25.2234 18.6621,31.8633 11.4022,6.64 25.3845,6.7807 36.6543,0.3691 11.2699,-6.4114 18.152,-18.4298 18.0196,-31.4941 0,-0.078 -0.01,-0.155 -0.012,-0.2324 0.183,-11.0064 5.9849,-21.1097 15.3516,-26.627 9.5183,-5.6067 21.22,-5.6067 30.7383,0 9.4378,5.5592 15.2633,15.7735 15.3613,26.877 -0.052,0.3182 -0.076,0.6404 -0.072,0.9628 l 0,4.3438 c -0.043,3.068 2.4317,5.5783 5.5,5.5783 3.0683,0 5.5434,-2.5103 5.5,-5.5783 l 0,-4.3438 c 0,-0.2061 -0.01,-0.4121 -0.029,-0.6171 10e-5,-0.021 10e-5,-0.041 0,-0.062 10e-5,-15.165 -7.9437,-29.2006 -20.8164,-36.7832 -6.4363,-3.7912 -13.625,-5.6875 -20.8145,-5.6875 z"
       id="path3571"
       inkscape:connector-curvature="0"
       sodipodi:nodetypes="sssssssssscccsccccscccccsccccscsccccscccccccccccccccccccccccccsccccccsccscsccccccscccccsccsccsccccsccscsscccccsccscccsccsscccscccsscccsccccscc" />
    <path
       style="color:#000000;font-style:normal;font-variant:normal;font-weight:normal;font-stretch:normal;font-size:medium;line-height:normal;font-family:sans-serif;text-indent:0;text-align:start;text-decoration:none;text-decoration-line:none;text-decoration-style:solid;text-decoration-color:#000000;letter-spacing:normal;word-spacing:normal;text-transform:none;direction:ltr;block-progression:tb;writing-mode:lr-tb;baseline-shift:baseline;text-anchor:start;white-space:normal;clip-rule:nonzero;display:inline;overflow:visible;visibility:visible;opacity:1;isolation:auto;mix-blend-mode:normal;color-interpolation:sRGB;color-interpolation-filters:linearRGB;solid-color:#000000;solid-opacity:1;fill:#000000;fill-opacity:1;fill-rule:nonzero;stroke:#000000;stroke-width:1;stroke-linecap:round;stroke-linejoin:miter;stroke-miterlimit:4;stroke-dasharray:none;stroke-dashoffset:0;stroke-opacity:1;color-rendering:auto;image-rendering:auto;shape-rendering:auto;text-rendering:auto;enable-background:accumulate"
       d="m 1182.0723,1121.6211 c -112.7386,0 -204.24808,91.5114 -204.24808,204.25 0,66.2452 31.60608,125.1478 80.53908,162.4746 3.0356,-2.3153 6.139,-4.5456 9.3047,-6.6914 -47.8216,-35.1652 -78.84378,-91.8206 -78.84378,-155.7832 0,-106.7937 86.45438,-193.25 193.24808,-193.25 106.7936,0 193.25,86.4563 193.25,193.25 0,63.962 -31.0204,120.618 -78.8418,155.7832 3.1653,2.1455 6.2654,4.3783 9.3007,6.6934 48.9349,-37.3268 80.5411,-96.2304 80.5411,-162.4766 0,-112.7386 -91.5115,-204.25 -204.25,-204.25 z m -27.9258,46.0371 c -14.3809,0.2084 -27.7944,8.8879 -33.5274,22.7285 -5.6651,13.6771 -2.4576,29.0873 7.2891,39.4043 -7.0877,2.2613 -13.6096,6.1838 -18.9668,11.541 -8.8188,8.8188 -13.7754,20.7862 -13.7754,33.2578 l 11,0 26.0586,0 c 3.068,0.043 5.5781,-2.4317 5.5781,-5.5 0,-3.0683 -2.5101,-5.5434 -5.5781,-5.5 l -24.3301,0 c 1.7344,-5.4094 4.732,-10.3879 8.8243,-14.4804 4.7665,-4.7665 10.7306,-8.0477 17.1835,-9.5742 l 0,10.996 c -0.043,3.068 2.4317,5.5782 5.5,5.5782 3.0683,0 5.5434,-2.5101 5.5,-5.5782 l 0,-18.416 c 0.02,-1.4585 -0.5411,-2.8649 -1.5585,-3.9101 -0.4457,-0.5531 -0.9942,-1.0128 -1.6153,-1.3574 -11.2609,-6.5015 -15.9233,-20.2369 -10.9473,-32.25 3.2455,-7.8353 9.9084,-13.2892 17.6348,-15.2012 -1.8106,3.5173 -2.613,7.5784 -2.0664,11.7305 1.3053,9.9151 9.8412,17.4003 19.8418,17.4003 0.1356,3e-4 0.2711,4e-4 0.4063,-0.014 0.1488,0.011 0.298,0.015 0.4472,0.014 l 16.9082,0 c 3.068,0.043 5.5781,-2.4317 5.5781,-5.5 0,-3.0683 -2.5101,-5.5434 -5.5781,-5.5 l -16.9082,0 c -0.1355,-3e-4 -0.271,0 -0.4062,0.016 -0.1488,-0.011 -0.2981,-0.017 -0.4473,-0.016 -4.5654,0 -8.3396,-3.3075 -8.9355,-7.8339 -0.596,-4.5264 2.1916,-8.7013 6.6015,-9.8829 0.78,-0.1967 1.5074,-0.5639 2.1309,-1.0722 1.3907,-0.9772 2.2515,-2.5425 2.332,-4.2403 0.1222,-2.612 -1.6114,-4.947 -4.1465,-5.5878 -3.3393,-0.8948 -6.7086,-1.2981 -10.0273,-1.25 z m 56.9629,33.8418 0,0 c -0.8355,-0.022 -1.6651,0.1459 -2.4258,0.4921 -0.022,0.01 -0.043,0.016 -0.065,0.025 -0.1424,0.067 -0.2818,0.1399 -0.4179,0.2188 -0.025,0.014 -0.049,0.028 -0.074,0.043 -0.118,0.071 -0.2334,0.1455 -0.3458,0.2247 -0.047,0.033 -0.094,0.067 -0.1406,0.1015 -0.089,0.067 -0.1753,0.1367 -0.2597,0.209 -0.073,0.061 -0.1436,0.1232 -0.2129,0.1875 -0.032,0.03 -0.063,0.06 -0.094,0.09 -0.028,0.026 -0.055,0.053 -0.082,0.08 l -36.6953,36.6934 c -5.1854,5.1862 2.5931,12.9647 7.7793,7.7793 l 33.5332,-33.5352 c 8.7603,7.0973 12.0052,19.1922 7.5625,29.918 -4.8298,11.6602 -17.2281,18.0442 -29.4375,15.332 -0.8157,-0.4302 -1.7264,-0.6485 -2.6485,-0.6347 -2.5193,0.04 -4.6896,1.7857 -5.2675,4.2382 -0.1026,0.3797 -0.1641,0.7694 -0.1836,1.1622 -0.011,0.2843 2e-4,0.5689 0.033,0.8515 l 0,44.75 c -16.4871,-1.9454 -33.0824,4.499 -43.92,17.4727 -12.3481,14.7819 -15.0301,35.4101 -6.871,52.8574 8.1594,17.4473 25.7117,28.6152 44.9726,28.6152 3.068,0.043 5.5781,-2.4317 5.5781,-5.5 0,-3.0683 -2.5101,-5.5434 -5.5781,-5.5 -15.0164,0 -28.6466,-8.673 -35.0078,-22.2754 -6.3612,-13.6025 -4.2795,-29.6219 5.3477,-41.1464 9.6269,-11.5245 25.0195,-16.4245 39.5371,-12.586 3.4119,0.954 6.8227,-1.5192 6.9765,-5.0586 0.015,-0.3552 -0.01,-0.7111 -0.059,-1.0625 0.016,-0.1773 0.024,-0.3552 0.023,-0.5332 l 0,-44.1387 c 15.5366,1.1127 30.5193,-7.7904 36.6679,-22.6347 7.056,-17.0346 0.3566,-36.7673 -15.6113,-45.9863 -0.795,-0.4657 -1.6942,-0.7243 -2.6152,-0.752 z m -94.3321,79.4277 c -1.2459,0.032 -2.4441,0.4855 -3.3984,1.2871 -35.72,29.0694 -46.6873,79.0149 -26.4316,120.375 13.3361,27.2313 37.9116,46.0461 65.9492,52.7598 11.4204,6.2729 18.5117,18.1811 18.5117,31.1602 -0.043,3.068 2.4317,5.5781 5.5,5.5781 3.0683,0 5.5434,-2.5101 5.5,-5.5781 0,-10.4962 -3.56,-20.4724 -9.7891,-28.4981 8.4653,0.2817 17.0703,-0.5168 25.6289,-2.5 44.8651,-10.3962 76.6817,-50.4266 76.6817,-96.4805 0,-0.2514 -0.014,-0.5026 -0.047,-0.7519 0.033,-0.2499 0.049,-0.5018 0.047,-0.7539 l 0,-16.9102 c 0.1855,-3.7066 2.1623,-7.0719 5.3301,-8.9414 3.3284,-1.9643 7.406,-1.9629 10.7343,0 3.3284,1.9643 5.3672,5.5715 5.3672,9.5 -0.022,3.0871 2.4211,5.6035 5.4414,5.6035 3.0202,0 5.4615,-2.5164 5.4395,-5.6035 0,-7.8838 -4.1289,-15.187 -10.8086,-19.1289 -6.6796,-3.9419 -14.9337,-3.9419 -21.6133,0 -6.0898,3.5938 -10.0461,9.9875 -10.6992,17.0625 -0.1334,0.4919 -0.1979,0.9981 -0.1914,1.5078 l 0,16.9102 c 0,0.2514 0.014,0.5026 0.047,0.7519 -0.033,0.2499 -0.049,0.5019 -0.047,0.7539 0,40.9956 -28.2267,76.5094 -68.1641,85.7637 -13.2802,3.0773 -26.6696,2.9578 -39.2968,0.1 -0.2942,-0.091 -0.5953,-0.1549 -0.9004,-0.1953 -24.974,-5.9284 -46.8493,-22.6628 -58.7422,-46.9472 -18.0309,-36.8174 -8.3008,-81.1293 23.4961,-107.0059 4.154,-3.2749 1.7429,-9.9526 -3.545,-9.8184 z m 168.8477,12.7852 c -7.1886,3e-4 -14.3767,1.8966 -20.8125,5.6875 -12.3913,7.2989 -20.1921,20.5804 -20.7598,35.0898 -0.095,0.4193 -0.1404,0.8474 -0.1347,1.2793 0.093,9.1405 -4.6998,17.5231 -12.6035,22.0196 -7.9039,4.4966 -17.6812,4.397 -25.6778,-0.2598 -7.9966,-4.6568 -12.9601,-13.133 -13.0527,-22.2734 0.013,-3.1007 -2.5399,-5.6508 -5.6406,-5.6348 -3.0354,0.015 -5.4351,2.487 -5.3614,5.5234 0.1324,13.0643 7.26,25.2234 18.6621,31.8633 11.4022,6.64 25.3845,6.7808 36.6543,0.3692 11.2699,-6.4114 18.152,-18.4299 18.0196,-31.4942 0,-0.078 -0.01,-0.155 -0.012,-0.2324 0.183,-11.0064 5.9849,-21.1097 15.3516,-26.627 9.5183,-5.6067 21.22,-5.6067 30.7383,0 9.4378,5.5592 15.2633,15.7735 15.3613,26.877 -0.052,0.3182 -0.076,0.6385 -0.072,0.9609 l 0,4.3457 c -0.043,3.068 2.4317,5.5782 5.5,5.5782 3.0683,0 5.5434,-2.5102 5.5,-5.5782 l 0,-4.3457 c 0,-0.2061 -0.01,-0.4102 -0.029,-0.6152 10e-5,-0.021 10e-5,-0.042 0,-0.062 10e-5,-15.165 -7.9437,-29.2006 -20.8164,-36.7832 -6.4358,-3.7909 -13.6237,-5.6872 -20.8125,-5.6875 z"
       id="path3573"
       inkscape:connector-curvature="0"
       sodipodi:nodetypes="ssccsssccsscccscccscccccsccccscsccccsccccccccccccccccccccccccccsccccccsccscsccccccsccccsccsccsscccsccscssccsccsccscccsccsscccscccsscccscsccscc" />
    <path
       style="color:#000000;font-style:normal;font-variant:normal;font-weight:normal;font-stretch:normal;font-size:medium;line-height:normal;font-family:sans-serif;text-indent:0;text-align:start;text-decoration:none;text-decoration-line:none;text-decoration-style:solid;text-decoration-color:#000000;letter-spacing:normal;word-spacing:normal;text-transform:none;direction:ltr;block-progression:tb;writing-mode:lr-tb;baseline-shift:baseline;text-anchor:start;white-space:normal;clip-rule:nonzero;display:inline;overflow:visible;visibility:visible;opacity:1;isolation:auto;mix-blend-mode:normal;color-interpolation:sRGB;color-interpolation-filters:linearRGB;solid-color:#000000;solid-opacity:1;fill:#000000;fill-opacity:1;fill-rule:nonzero;stroke:#000000;stroke-width:1;stroke-linecap:round;stroke-linejoin:miter;stroke-miterlimit:4;stroke-dasharray:none;stroke-dashoffset:0;stroke-opacity:1;color-rendering:auto;image-rendering:auto;shape-rendering:auto;text-rendering:auto;enable-background:accumulate"
       d="m 1182.0729,1501.8538 c -112.7386,0 -204.24802,91.5114 -204.24802,204.25 0,112.7385 91.50942,204.248 204.24802,204.248 112.7385,0 204.25,-91.5095 204.25,-204.248 0,-112.7386 -91.5115,-204.25 -204.25,-204.25 z m 0,11 c 106.7936,0 193.25,86.4563 193.25,193.25 0,106.7936 -86.4564,193.248 -193.25,193.248 -106.7937,0 -193.24802,-86.4544 -193.24802,-193.248 0,-106.7937 86.45432,-193.25 193.24802,-193.25 z"
       id="path3575"
       inkscape:connector-curvature="0"
       sodipodi:nodetypes="ssssssssss" />
    <circle
       style="opacity:1;fill:none;fill-opacity:1;fill-rule:nonzero;stroke:#800000;stroke-width:12.37118149;stroke-linecap:round;stroke-miterlimit:4;stroke-dasharray:none"
       id="path3585"
       cx="1182.0732"
       cy="1325.8701"
       r="197.58192" />
    <path
       style="color:#000000;font-style:normal;font-variant:normal;font-weight:normal;font-stretch:normal;font-size:medium;line-height:normal;font-family:sans-serif;text-indent:0;text-align:start;text-decoration:none;text-decoration-line:none;text-decoration-style:solid;text-decoration-color:#000000;letter-spacing:normal;word-spacing:normal;text-transform:none;direction:ltr;block-progression:tb;writing-mode:lr-tb;baseline-shift:baseline;text-anchor:start;white-space:normal;clip-rule:nonzero;display:inline;overflow:visible;visibility:visible;opacity:0.76000001;isolation:auto;mix-blend-mode:normal;color-interpolation:sRGB;color-interpolation-filters:linearRGB;solid-color:#000000;solid-opacity:1;fill:#000000;fill-opacity:1;fill-rule:nonzero;stroke:#000000;stroke-width:6;stroke-linecap:round;stroke-linejoin:miter;stroke-miterlimit:4;stroke-dasharray:none;stroke-dashoffset:0;stroke-opacity:1;color-rendering:auto;image-rendering:auto;shape-rendering:auto;text-rendering:auto;enable-background:accumulate"
       d="m 368.7269,163.76657 c -112.7386,0 -204.24805,91.5114 -204.24805,204.25 0,112.73851 91.50945,204.24801 204.24805,204.24801 112.7385,0 204.25,-91.5095 204.25,-204.24801 0,-112.7386 -91.5115,-204.25 -204.25,-204.25 z m 0,11 c 106.7936,0 193.25,86.4563 193.25,193.25 0,106.79361 -86.4564,193.24801 -193.25,193.24801 -106.7937,0 -193.24805,-86.4544 -193.24805,-193.24801 0,-106.7937 86.45435,-193.25 193.24805,-193.25 z"
       id="path4467"
       inkscape:connector-curvature="0"
       sodipodi:nodetypes="ssssssssss"
       inkscape:export-xdpi="117.77"
       inkscape:export-ydpi="117.77" />
    <rect
       inkscape:export-ydpi="90"
       inkscape:export-xdpi="90"
       y="1533.8719"
       x="140.90424"
       height="29.999998"
       width="29.999998"
       id="rect4469"
       style="opacity:0;fill:#999999;fill-opacity:1;fill-rule:nonzero;stroke:none;stroke-width:11;stroke-linecap:round;stroke-miterlimit:4;stroke-dasharray:none" />
    <path
       style="color:#000000;font-style:normal;font-variant:normal;font-weight:normal;font-stretch:normal;font-size:medium;line-height:normal;font-family:sans-serif;text-indent:0;text-align:start;text-decoration:none;text-decoration-line:none;text-decoration-style:solid;text-decoration-color:#000000;letter-spacing:normal;word-spacing:normal;text-transform:none;direction:ltr;block-progression:tb;writing-mode:lr-tb;baseline-shift:baseline;text-anchor:start;white-space:normal;clip-rule:nonzero;display:inline;overflow:visible;visibility:visible;opacity:1;isolation:auto;mix-blend-mode:normal;color-interpolation:sRGB;color-interpolation-filters:linearRGB;solid-color:#000000;solid-opacity:1;fill:#000000;fill-opacity:1;fill-rule:nonzero;stroke:#000000;stroke-width:0.14616394;stroke-linecap:round;stroke-linejoin:miter;stroke-miterlimit:4;stroke-dasharray:none;stroke-dashoffset:0;stroke-opacity:1;color-rendering:auto;image-rendering:auto;shape-rendering:auto;text-rendering:auto;enable-background:accumulate"
       d="m 155.90416,1533.9451 c -8.23916,0 -14.92684,6.6878 -14.92684,14.9269 0,8.2393 6.68768,14.9268 14.92684,14.9268 8.23915,0 14.92699,-6.6875 14.92699,-14.9268 0,-8.2391 -6.68784,-14.9269 -14.92699,-14.9269 z m 0,0.8039 c 7.80469,0 14.12309,6.3183 14.12309,14.1231 0,7.8046 -6.3184,14.123 -14.12309,14.123 -7.80469,0 -14.12295,-6.3183 -14.12295,-14.123 0,-7.8047 6.31826,-14.1231 14.12295,-14.1231 z m -2.04087,2.5606 c -1.05098,0.015 -2.03127,0.6495 -2.45025,1.6611 -0.41402,0.9994 -0.1796,2.1258 0.5327,2.8798 -0.51798,0.1651 -0.99462,0.4519 -1.38612,0.8433 -0.6445,0.6444 -1.00674,1.519 -1.00674,2.4305 l 0.8039,0 0,0 1.90442,0 c 0.22421,0 0.40766,-0.1777 0.40766,-0.4019 0,-0.2243 -0.18345,-0.4051 -0.40766,-0.402 l -1.7781,0 c 0.12676,-0.3953 0.34583,-0.759 0.64489,-1.0582 0.34835,-0.3482 0.78423,-0.5882 1.25582,-0.6997 l 0,0.8035 c -0.003,0.2244 0.17772,0.4077 0.40194,0.4077 0.22424,0 0.40513,-0.1833 0.40196,-0.4077 l 0,-1.3457 c 10e-4,-0.1061 -0.0396,-0.2094 -0.11391,-0.2857 -0.0326,-0.04 -0.0726,-0.074 -0.11804,-0.1 -0.82297,-0.4753 -1.16371,-1.479 -0.80006,-2.3568 0.2372,-0.5728 0.72414,-0.9712 1.2888,-1.1111 -0.13233,0.2572 -0.19097,0.5541 -0.15103,0.8575 0.0954,0.7246 0.71922,1.2717 1.45009,1.2717 0.0101,0 0.0198,0 0.0297,-10e-4 0.0112,8e-4 0.0218,0 0.0327,10e-4 l 1.2357,0 c 0.2242,0 0.40765,-0.1777 0.40765,-0.402 0,-0.2244 -0.18345,-0.4051 -0.40765,-0.4021 l -1.2357,0 c -0.0101,0 -0.0198,0 -0.0297,10e-4 -0.0112,-7e-4 -0.0218,0 -0.0327,-10e-4 -0.33365,0 -0.60949,-0.2418 -0.65303,-0.5726 -0.0435,-0.3307 0.16016,-0.6358 0.48245,-0.7222 0.057,-0.014 0.11014,-0.041 0.15573,-0.078 0.10165,-0.072 0.16455,-0.1859 0.17042,-0.3099 0.009,-0.191 -0.11776,-0.3617 -0.30303,-0.4087 -0.24405,-0.065 -0.49027,-0.095 -0.73281,-0.092 z m 4.16296,2.4734 c -0.0611,0 -0.12169,0.011 -0.17728,0.035 -0.001,7e-4 -0.003,0 -0.004,0 -0.0101,0 -0.0206,0.011 -0.0305,0.015 -0.002,0 -0.003,0 -0.006,0 -0.009,0 -0.0171,0.011 -0.0252,0.017 -0.003,0 -0.007,0 -0.0101,0.011 -0.007,0 -0.0128,0.011 -0.019,0.015 -0.006,0 -0.0101,0.011 -0.0155,0.013 -0.002,0 -0.004,0 -0.007,0.011 -0.002,0 -0.004,0 -0.006,0.011 l -2.68176,2.6816 c -0.37896,0.3791 0.18951,0.9475 0.56852,0.5685 l 2.45067,-2.4508 c 0.64023,0.5187 0.87738,1.4026 0.5527,2.1864 -0.35297,0.8522 -1.25906,1.3187 -2.15136,1.1206 -0.0597,-0.031 -0.12617,-0.049 -0.19355,-0.047 -0.18411,0 -0.34273,0.1306 -0.38498,0.3097 -0.008,0.028 -0.0119,0.056 -0.0134,0.085 -8e-4,0.021 0,0.041 0.002,0.063 l 0,3.2703 c -1.2049,-0.142 -2.41772,0.3289 -3.20975,1.277 -0.90244,1.0803 -1.09845,2.5879 -0.50216,3.8629 0.5963,1.2751 1.87907,2.0913 3.28668,2.0913 0.22422,0 0.40767,-0.1777 0.40767,-0.402 0,-0.2242 -0.18345,-0.4051 -0.40767,-0.402 -1.09742,0 -2.09353,-0.6337 -2.55842,-1.6279 -0.4649,-0.9941 -0.31276,-2.1648 0.39081,-3.007 0.70355,-0.8422 1.82848,-1.2004 2.88946,-0.9198 0.24933,0.07 0.49861,-0.1105 0.50986,-0.3697 0.001,-0.025 -7.3e-4,-0.052 -0.004,-0.078 0.001,-0.013 0.002,-0.025 0.001,-0.039 l 0,-3.2257 c 1.13544,0.082 2.23041,-0.5694 2.67976,-1.6542 0.51566,-1.245 0.026,-2.687 -1.1409,-3.3608 -0.0581,-0.034 -0.12382,-0.052 -0.19113,-0.054 z m -6.89398,5.8047 c -0.0911,0 -0.17861,0.035 -0.24835,0.094 -2.6105,2.1244 -3.41201,5.7746 -1.93167,8.7972 0.97462,1.9902 2.77065,3.3651 4.8197,3.8558 0.83462,0.4584 1.35285,1.3286 1.35285,2.2771 -0.003,0.2244 0.17772,0.4078 0.40196,0.4078 0.22424,0 0.40513,-0.1834 0.40195,-0.4078 0,-0.767 -0.26016,-1.496 -0.71539,-2.0826 0.61866,0.02 1.24752,-0.038 1.873,-0.1827 3.27882,-0.7598 5.60405,-3.6853 5.60405,-7.051 0,-0.018 -0.001,-0.036 -0.003,-0.054 0.002,-0.018 0.003,-0.036 0.003,-0.054 l 0,-1.2357 c 0.0135,-0.271 0.15804,-0.5169 0.38953,-0.6534 0.24326,-0.1437 0.54123,-0.1435 0.78449,0 0.24325,0.1435 0.39225,0.4071 0.39225,0.6941 -0.001,0.2257 0.17687,0.4095 0.3976,0.4095 0.22072,0 0.39919,-0.1838 0.39759,-0.4095 0,-0.5761 -0.30174,-1.11 -0.78991,-1.398 -0.48815,-0.2881 -1.09139,-0.2881 -1.57954,0 -0.44506,0.2626 -0.73419,0.7299 -0.78192,1.247 -0.0101,0.035 -0.0145,0.073 -0.0139,0.1106 l 0,1.2356 c 0,0.019 0.001,0.036 0.003,0.054 -0.002,0.018 -0.003,0.036 -0.003,0.054 0,2.996 -2.06286,5.5915 -4.98156,6.2679 -0.97056,0.2248 -1.94909,0.2162 -2.87191,0.011 -0.0214,-0.011 -0.0434,-0.011 -0.0658,-0.014 -1.82515,-0.4333 -3.42384,-1.6563 -4.293,-3.4309 -1.31773,-2.6907 -0.60663,-5.9291 1.71714,-7.8202 0.30358,-0.2394 0.12738,-0.7274 -0.25908,-0.7176 z m 12.33988,0.9342 c -0.52543,0 -1.05078,0.1385 -1.52117,0.4157 -0.90558,0.5334 -1.47567,1.504 -1.51718,2.5643 -0.007,0.03 -0.0101,0.063 -0.0101,0.094 0.007,0.6681 -0.34348,1.2805 -0.9211,1.6092 -0.57763,0.3285 -1.29217,0.3212 -1.87658,-0.019 -0.58441,-0.3404 -0.94715,-0.9599 -0.95392,-1.6278 9.6e-4,-0.2267 -0.18562,-0.413 -0.41222,-0.4119 -0.22184,0 -0.39721,0.1817 -0.39183,0.4037 0.0101,0.9548 0.53058,1.8434 1.36387,2.3286 0.8333,0.4852 1.85516,0.4956 2.67877,0.027 0.82362,-0.4686 1.3266,-1.3469 1.3169,-2.3017 0,-0.011 -7.2e-4,-0.011 -8.6e-4,-0.017 0.0134,-0.8043 0.43738,-1.5426 1.12191,-1.9458 0.69562,-0.4098 1.55082,-0.4098 2.24642,0 0.68973,0.4062 1.11548,1.1527 1.12264,1.9642 -0.003,0.023 -0.006,0.047 -0.006,0.071 l 0,0.3175 c -0.003,0.2242 0.1777,0.4076 0.40194,0.4076 0.22424,0 0.40513,-0.1834 0.40195,-0.4076 l 0,-0.3175 c 0,-0.015 -7.2e-4,-0.03 -0.002,-0.044 1e-5,0 1e-5,0 0,0 1e-5,-1.1083 -0.58055,-2.134 -1.52132,-2.6882 -0.47036,-0.277 -0.99572,-0.4157 -1.52116,-0.4157 z"
       id="path4471"
       inkscape:connector-curvature="0"
       sodipodi:nodetypes="sssssssssscccsccccscccccsccccscsccccscccccccccccccccccccccccccsccccccsccscsccccccscccccsccsccsccccsccscsscccccsccscccsccsscccscccsscccsccccscc"
       inkscape:export-xdpi="90"
       inkscape:export-ydpi="90" />
    <path
       sodipodi:nodetypes="ssssssssss"
       inkscape:connector-curvature="0"
       id="path4473"
       d="m 155.90417,1534.0892 c -8.15965,0 -14.7828,6.6233 -14.7828,14.7829 0,8.1597 6.62315,14.7827 14.7828,14.7827 8.15964,0 14.78294,-6.623 14.78294,-14.7827 0,-8.1596 -6.6233,-14.7829 -14.78294,-14.7829 z m 0,0.7961 c 7.72937,0 13.9868,6.2574 13.9868,13.9868 0,7.7293 -6.25743,13.9867 -13.9868,13.9867 -7.72938,0 -13.98666,-6.2574 -13.98666,-13.9867 0,-7.7294 6.25728,-13.9868 13.98666,-13.9868 z"
       style="color:#000000;font-style:normal;font-variant:normal;font-weight:normal;font-stretch:normal;font-size:medium;line-height:normal;font-family:sans-serif;text-indent:0;text-align:start;text-decoration:none;text-decoration-line:none;text-decoration-style:solid;text-decoration-color:#000000;letter-spacing:normal;word-spacing:normal;text-transform:none;direction:ltr;block-progression:tb;writing-mode:lr-tb;baseline-shift:baseline;text-anchor:start;white-space:normal;clip-rule:nonzero;display:inline;overflow:visible;visibility:visible;opacity:1;isolation:auto;mix-blend-mode:normal;color-interpolation:sRGB;color-interpolation-filters:linearRGB;solid-color:#000000;solid-opacity:1;fill:#000000;fill-opacity:1;fill-rule:nonzero;stroke:#000000;stroke-width:0.43426028;stroke-linecap:round;stroke-linejoin:miter;stroke-miterlimit:4;stroke-dasharray:none;stroke-dashoffset:0;stroke-opacity:1;color-rendering:auto;image-rendering:auto;shape-rendering:auto;text-rendering:auto;enable-background:accumulate"
       inkscape:export-xdpi="90"
       inkscape:export-ydpi="90" />
  </g>
</svg>
