<?xml version="1.0" encoding="UTF-8" standalone="no"?>
<!-- Created with Inkscape (http://www.inkscape.org/) -->

<svg
   xmlns:dc="http://purl.org/dc/elements/1.1/"
   xmlns:cc="http://creativecommons.org/ns#"
   xmlns:rdf="http://www.w3.org/1999/02/22-rdf-syntax-ns#"
   xmlns:svg="http://www.w3.org/2000/svg"
   xmlns="http://www.w3.org/2000/svg"
   xmlns:sodipodi="http://sodipodi.sourceforge.net/DTD/sodipodi-0.dtd"
   xmlns:inkscape="http://www.inkscape.org/namespaces/inkscape"
   width="609.2276mm"
   height="342.69055mm"
   viewBox="0 0 2158.6805 1214.2579"
   id="svg2"
   version="1.1"
   inkscape:version="0.91 r13725"
   sodipodi:docname="rooster-hat.svg">
  <defs
     id="defs4" />
  <sodipodi:namedview
     id="base"
     pagecolor="#ffffff"
     bordercolor="#666666"
     borderopacity="1.0"
     inkscape:pageopacity="0.0"
     inkscape:pageshadow="2"
     inkscape:zoom="0.33547958"
     inkscape:cx="1077.0815"
     inkscape:cy="570.45313"
     inkscape:document-units="px"
     inkscape:current-layer="layer1"
     showgrid="false"
     inkscape:window-width="1430"
     inkscape:window-height="793"
     inkscape:window-x="36"
     inkscape:window-y="11"
     inkscape:window-maximized="0"
     showguides="true"
     inkscape:guide-bbox="true"
     fit-margin-top="0"
     fit-margin-left="0"
     fit-margin-right="0"
     fit-margin-bottom="0" />
  <metadata
     id="metadata7">
    <rdf:RDF>
      <cc:Work
         rdf:about="">
        <dc:format>image/svg+xml</dc:format>
        <dc:type
           rdf:resource="http://purl.org/dc/dcmitype/StillImage" />
        <dc:title></dc:title>
      </cc:Work>
    </rdf:RDF>
  </metadata>
  <g
     inkscape:label="Layer 1"
     inkscape:groupmode="layer"
     id="layer1"
     transform="translate(4588.7524,-3560.7324)">
    <rect
       inkscape:export-ydpi="145.92"
       inkscape:export-xdpi="145.92"
       y="3560.7324"
       x="-4588.7524"
       height="1214.2578"
       width="2158.6804"
       id="rect5860"
       style="color:#000000;clip-rule:nonzero;display:inline;overflow:visible;visibility:visible;opacity:1;isolation:auto;mix-blend-mode:normal;color-interpolation:sRGB;color-interpolation-filters:linearRGB;solid-color:#000000;solid-opacity:1;fill:#000000;fill-opacity:1;fill-rule:nonzero;stroke:none;stroke-width:1.5;stroke-linecap:round;stroke-linejoin:miter;stroke-miterlimit:4;stroke-dasharray:none;stroke-dashoffset:0.60000002;stroke-opacity:1;color-rendering:auto;image-rendering:auto;shape-rendering:auto;text-rendering:auto;enable-background:accumulate" />
    <g
       id="g6125"
       inkscape:export-xdpi="145.92"
       inkscape:export-ydpi="145.92">
      <path
         sodipodi:nodetypes="cscscccccsccccccsccccccccccsccccscccccscccccccssccsscccccscccccccccccccccscccccssccsccccccsccsccscccsscccssccscccccccsscccc"
         inkscape:connector-curvature="0"
         id="path5936"
         d="m -3525.266,4052.0199 c -6.6288,0.096 -12.8156,4.097 -15.4573,10.4725 -2.4957,6.0226 -1.251,12.7805 2.7876,17.5181 -2.9317,1.0647 -5.6263,2.7623 -7.8734,5.0085 -4.0286,4.0272 -6.2947,9.4896 -6.3033,15.1841 l 17.079,0 c 0.5041,0 0.7572,-0.031 1.0956,-0.076 2.9281,-0.9058 2.5658,-5.6256 -1.0964,-5.5737 l -9.976,0 c 0.7724,-1.9587 1.9384,-3.7611 3.4572,-5.2792 1.8817,-1.8811 4.1965,-3.2236 6.7097,-3.9407 l 0,4.1791 c -0.057,4.0691 6.0782,4.0691 6.0201,0 l 0,-8.2074 c 0.011,-0.8287 -0.3202,-1.6255 -0.9159,-2.2019 -0.2222,-0.2517 -0.4863,-0.4644 -0.7789,-0.6293 -4.7823,-2.7601 -6.7571,-8.5777 -4.6439,-13.6776 1.2172,-2.9379 3.5646,-5.0784 6.3541,-6.0981 -0.4952,1.3783 -0.6817,2.8822 -0.4803,4.4116 0.618,4.6921 4.6645,8.2399 9.3988,8.2399 0.053,-3e-4 0.1071,0 0.16,-0.012 0.074,0.012 0.1465,0.012 0.2203,0.012 l 7.5393,0 c 4.0698,0.058 4.0698,-6.0752 0,-6.0179 l -7.5393,0 c -0.053,0 -0.105,0 -0.157,0.011 -0.074,0 -0.1492,-0.011 -0.2233,-0.011 -1.7603,0 -3.2013,-1.2638 -3.431,-3.0082 -0.2297,-1.7446 0.835,-3.3375 2.5352,-3.793 0.4146,-0.1038 0.8024,-0.2961 1.1375,-0.5617 0.7588,-0.5345 1.2273,-1.3887 1.2714,-2.3156 0.067,-1.4285 -0.8804,-2.7067 -2.2674,-3.0574 -1.5387,-0.4122 -3.0926,-0.5979 -4.6224,-0.5755 z m 25.4212,15.0716 c -0.9636,-0.036 -1.8859,0.3933 -2.4798,1.1526 l -16.127,16.1225 c -2.9547,2.8355 1.418,7.2081 4.2546,4.2545 l 14.5891,-14.5823 c 3.4295,3.0452 4.6467,7.9698 2.8262,12.3634 -2.0399,4.9233 -7.2466,7.6248 -12.4035,6.5212 -0.4326,-0.2182 -0.9116,-0.3282 -1.3961,-0.3216 -1.2724,0.021 -2.3951,0.8385 -2.803,2.0433 -0.024,0.067 -0.045,0.1349 -0.065,0.2032 -0.067,0.2266 -0.106,0.461 -0.1185,0.697 -0.011,0.1669 4e-4,0.3345 0.022,0.5003 l 0,19.2353 c -7.3288,-0.6593 -14.6351,2.2836 -19.4517,8.0473 -5.6434,6.7535 -6.8691,16.1807 -3.1402,24.1517 3.7291,7.9709 11.7528,13.0744 20.5555,13.0744 4.069,0.057 4.069,-6.0731 0,-6.0164 -6.4802,0 -12.3582,-3.7398 -15.1033,-9.6076 -2.7452,-5.868 -1.8487,-12.7729 2.3057,-17.7444 4.1545,-4.9716 10.7949,-7.0845 17.0599,-5.4286 1.8668,0.5219 3.7328,-0.8307 3.8173,-2.7666 0.011,-0.1806 0,-0.361 -0.027,-0.5402 0,-0.066 0.011,-0.1325 0,-0.1984 l 0,-19.0847 c 6.9447,0.2485 13.5512,-3.8161 16.3056,-10.4632 3.2313,-7.7984 0.1983,-16.8301 -7.0622,-21.1095 -0.03,-0.019 -0.063,-0.039 -0.094,-0.056 -0.014,-0.011 -0.026,-0.017 -0.04,-0.025 -0.012,-0.012 -0.025,-0.015 -0.039,-0.022 -0.053,-0.03 -0.1092,-0.061 -0.1647,-0.088 -0.063,-0.03 -0.1273,-0.058 -0.1924,-0.085 -0.016,-0.011 -0.031,-0.014 -0.048,-0.02 -0.314,-0.1244 -0.6479,-0.1937 -0.9853,-0.2078 z m -43.3613,36.6305 c -0.7842,-0.022 -1.5454,0.2617 -2.1227,0.7925 -15.3268,13.6673 -19.3669,36.0603 -9.7806,54.2179 6.1447,11.6387 16.8893,19.631 29.06,22.5759 4.8949,2.7043 8.9826,10.1837 8.9826,15.7519 -0.057,4.0685 6.0778,4.0685 6.0202,0 0,-4.4089 -2.4272,-10.9909 -4.8576,-14.4931 3.6748,0.029 7.3968,-0.3949 11.0906,-1.3094 19.9362,-4.9364 33.964,-22.8558 33.964,-43.3872 8e-4,-0.115 0,-0.2301 -0.016,-0.3445 0.011,-0.109 0.016,-0.2171 0.016,-0.3262 l 0,-7.5351 c 2e-4,-0.018 2e-4,-0.037 0,-0.055 0.097,-1.4295 0.871,-2.7182 2.098,-3.442 1.3144,-0.7754 2.9189,-0.7753 4.2331,0 1.3142,0.7753 2.118,2.1961 2.118,3.7468 -0.081,4.1371 6.0334,4.1371 5.9524,0 0,-3.7142 -1.9455,-7.1583 -5.0935,-9.0153 -3.148,-1.8571 -7.0389,-1.8572 -10.1869,0 -2.8423,1.6766 -4.7,4.6494 -5.035,7.9442 -0.073,0.2679 -0.1071,0.5443 -0.1039,0.8217 l 0,7.5351 c -7e-4,0.1152 0,0.2302 0.017,0.3447 -0.012,0.1082 -0.017,0.2172 -0.017,0.3262 0,17.7967 -12.1115,33.2673 -29.3925,37.546 -5.9637,1.4767 -12.0059,1.4851 -17.7031,0.2185 -0.1689,-0.056 -0.3423,-0.097 -0.5187,-0.1244 -10.5985,-2.5105 -19.9515,-9.4451 -25.3055,-19.5864 -8.3096,-15.7393 -4.821,-35.0731 8.4642,-46.9199 2.0766,-1.7956 0.8605,-5.2044 -1.8839,-5.2824 z m 76.5695,4.4746 c -3.301,-1e-4 -6.6026,0.8699 -9.5573,2.6096 -5.6581,3.3316 -9.2319,9.3813 -9.5267,15.998 -0.05,0.2279 -0.075,0.4612 -0.07,0.6954 0.04,3.8753 -1.9909,7.4237 -5.3443,9.3308 -3.3535,1.9071 -7.5007,1.8658 -10.8934,-0.109 -3.3929,-1.9752 -5.496,-5.5664 -5.5353,-9.4415 0.012,-1.6959 -1.39,-3.0906 -3.0863,-3.0821 -1.6603,0.012 -2.9723,1.3601 -2.9322,3.0204 0.062,6.0216 3.3465,11.6287 8.6029,14.6886 5.2564,3.0598 11.7044,3.1254 16.8998,0.1708 5.1952,-2.9546 8.3701,-8.4963 8.3089,-14.5178 -8e-4,-0.065 0,-0.1316 -0.011,-0.1969 0.1102,-4.6716 2.5847,-8.9481 6.5666,-11.2927 4.0739,-2.3988 9.0805,-2.3987 13.1546,0 4.0164,2.3651 6.5001,6.6966 6.5696,11.4158 -0.026,0.1672 -0.038,0.3353 -0.036,0.5047 l 0,1.9357 c -0.058,4.0683 6.0775,4.0683 6.0201,0 l 0,-1.9357 c 8e-4,-0.1251 -0.011,-0.2496 -0.022,-0.3738 -0.024,-6.9322 -3.665,-13.3412 -9.5543,-16.8089 -2.9547,-1.7399 -6.2549,-2.6112 -9.5558,-2.6113 z"
         style="color:#000000;font-style:normal;font-variant:normal;font-weight:normal;font-stretch:normal;font-size:medium;line-height:normal;font-family:sans-serif;text-indent:0;text-align:start;text-decoration:none;text-decoration-line:none;text-decoration-style:solid;text-decoration-color:#000000;letter-spacing:normal;word-spacing:normal;text-transform:none;direction:ltr;block-progression:tb;writing-mode:lr-tb;baseline-shift:baseline;text-anchor:start;white-space:normal;clip-rule:nonzero;display:inline;overflow:visible;visibility:visible;opacity:1;isolation:auto;mix-blend-mode:normal;color-interpolation:sRGB;color-interpolation-filters:linearRGB;solid-color:#000000;solid-opacity:1;fill:#ffffff;fill-opacity:1;fill-rule:nonzero;stroke:none;stroke-width:13.5;stroke-linecap:butt;stroke-linejoin:miter;stroke-miterlimit:4;stroke-dasharray:none;stroke-dashoffset:0;stroke-opacity:1;color-rendering:auto;image-rendering:auto;shape-rendering:auto;text-rendering:auto;enable-background:accumulate"
         inkscape:export-xdpi="54.740002"
         inkscape:export-ydpi="54.740002" />
      <path
         inkscape:connector-curvature="0"
         id="path5970"
         d="m -3570.3457,4196.9504 a 3.0003,3.0003 0 1 0 0,6 l 117.3496,0 a 3.0003,3.0003 0 1 0 0,-6 l -117.3496,0 z"
         style="color:#000000;font-style:normal;font-variant:normal;font-weight:normal;font-stretch:normal;font-size:medium;line-height:normal;font-family:sans-serif;text-indent:0;text-align:start;text-decoration:none;text-decoration-line:none;text-decoration-style:solid;text-decoration-color:#000000;letter-spacing:normal;word-spacing:normal;text-transform:none;direction:ltr;block-progression:tb;writing-mode:lr-tb;baseline-shift:baseline;text-anchor:start;white-space:normal;clip-rule:nonzero;display:inline;overflow:visible;visibility:visible;opacity:1;isolation:auto;mix-blend-mode:normal;color-interpolation:sRGB;color-interpolation-filters:linearRGB;solid-color:#000000;solid-opacity:1;fill:#ffffff;fill-opacity:1;fill-rule:evenodd;stroke:none;stroke-width:6;stroke-linecap:round;stroke-linejoin:miter;stroke-miterlimit:4;stroke-dasharray:none;stroke-dashoffset:0.60000002;stroke-opacity:1;color-rendering:auto;image-rendering:auto;shape-rendering:auto;text-rendering:auto;enable-background:accumulate" />
      <path
         id="path6015"
         d="m -3691.1211,4012.832 0,0.5 0,236.42 0,2.5 0,0 0,70.6386 74.6152,0 214.1836,0 74.6172,0 0,-70.6386 0,-2.5 0,-24.5274 0,-212.3926 -0.5,0 -73.2188,0 -215.9804,0 -73.7188,0 z m 5,5 68.7188,0 215.9804,0 68.7188,0 0,229.42 -51.5039,0 0,-14.2344 18.0898,0 -10.5293,-13.5313 7.5195,0 -9.996,-12.8457 5.0312,0 -16.0059,-20.7344 -1.9785,-2.5624 -17.9843,23.2968 5.0312,0 -9.998,12.8457 7.5214,0 -10.5312,13.5313 17.8066,0 0,14.2344 -1.1914,0 -215.9804,0 -1.1895,0 0,-14.2344 17.8047,0 -10.5293,-13.5313 7.5195,0 -9.9961,-12.8457 5.0313,0 -17.9844,-23.2968 -1.9805,2.5624 -16.0039,20.7344 5.0313,0 -9.9981,12.8457 7.5215,0 -10.5312,13.5313 18.0918,0 0,14.2344 -51.5059,0 0,-229.42 z m 59.375,173.6934 7.8086,10.1152 -5.0859,0 10,12.8457 -7.5176,0 10.5312,13.5313 -12.582,0 0,15.9297 0,3.8047 0,4.5 4.5,0 1.6895,0 215.9804,0 1.6914,0 4.5,0 0,-4.5 0,-3.8047 0,-15.9297 -12.582,0 10.5293,-13.5313 -7.5156,0 9.998,-12.8457 -5.0859,0 7.8086,-10.1152 7.8105,10.1152 -5.0859,0 10,12.8457 -7.5176,0 10.5313,13.5313 -12.8672,0 0,15.9297 0,3.8047 0,2.2441 0,2.2559 4.5,0 52.0097,0 0,31.8984 c -6.2657,5.585 -14.7857,8.7656 -23.6855,8.7656 -8.9743,0 -17.5658,-3.2301 -23.8457,-8.9023 a 2.4949133,2.4949133 0 0 0 -0.4395,-0.3321 c -7.196,-6.2511 -16.7255,-9.7187 -26.6425,-9.7187 -9.9313,0 -19.4722,3.4778 -26.6719,9.7461 a 2.4949133,2.4949133 0 0 0 -0.4082,0.3047 c -6.2798,5.6722 -14.8714,8.9023 -23.8457,8.9023 -8.9742,0 -17.5659,-3.2301 -23.8457,-8.9023 a 2.4949133,2.4949133 0 0 0 -0.4375,-0.3321 c -7.196,-6.2511 -16.7256,-9.7187 -26.6426,-9.7187 -9.9295,0 -19.4706,3.4762 -26.6699,9.7422 a 2.4949133,2.4949133 0 0 0 -0.4102,0.3086 c -6.2799,5.6722 -14.8714,8.9023 -23.8457,8.9023 -8.9742,0 -17.5656,-3.2301 -23.8457,-8.9023 a 2.4949133,2.4949133 0 0 0 -0.4394,-0.3321 c -7.1961,-6.2511 -16.7237,-9.7187 -26.6407,-9.7187 -9.9295,0 -19.4706,3.4762 -26.6699,9.7422 a 2.4949133,2.4949133 0 0 0 -0.4121,0.3086 c -6.28,5.6722 -14.8715,8.9023 -23.8457,8.9023 -8.9742,0 -17.5657,-3.2301 -23.8457,-8.9023 a 2.4949133,2.4949133 0 0 0 -0.3379,-0.2676 l 0,-31.4941 52.0098,0 4.5,0 0,-2.2559 0,-2.2441 0,-3.8047 0,-15.9297 -12.8672,0 10.5293,-13.5313 -7.5157,0 9.9981,-12.8457 -5.0859,0 7.8105,-10.1152 z m 15.7324,87.4277 c 8.9742,0 17.5639,3.2301 23.8438,8.9024 a 2.4949133,2.4949133 0 0 0 0.4394,0.332 c 7.1961,6.2511 16.7256,9.7187 26.6426,9.7187 9.9297,0 19.4706,-3.4761 26.6699,-9.7421 a 2.4949133,2.4949133 0 0 0 0.4102,-0.3086 c 6.28,-5.6723 14.8715,-8.9024 23.8457,-8.9024 8.9742,0 17.5657,3.2301 23.8457,8.9024 a 2.4949133,2.4949133 0 0 0 0.4375,0.332 c 7.1962,6.2511 16.7257,9.7187 26.6426,9.7187 9.9297,0 19.4706,-3.4761 26.6699,-9.7421 a 2.4949133,2.4949133 0 0 0 0.4121,-0.3086 c 6.28,-5.6723 14.8696,-8.9024 23.8438,-8.9024 8.9742,0 17.5657,3.2301 23.8457,8.9024 a 2.4949133,2.4949133 0 0 0 0.4394,0.332 c 7.1962,6.2511 16.7254,9.7187 26.6426,9.7187 8.6126,0 16.9308,-2.619 23.6855,-7.4003 l 0,27.3906 -69.623,0 -214.1836,0 -69.6211,0 0,-27.7403 c 6.8406,5.0073 15.3598,7.75 24.1836,7.75 9.9295,0 19.4706,-3.4761 26.6699,-9.7421 a 2.4949133,2.4949133 0 0 0 0.4121,-0.3086 c 6.2799,-5.6723 14.8715,-8.9024 23.8457,-8.9024 z"
         style="color:#000000;font-style:normal;font-variant:normal;font-weight:normal;font-stretch:normal;font-size:medium;line-height:normal;font-family:sans-serif;text-indent:0;text-align:start;text-decoration:none;text-decoration-line:none;text-decoration-style:solid;text-decoration-color:#000000;letter-spacing:normal;word-spacing:normal;text-transform:none;direction:ltr;block-progression:tb;writing-mode:lr-tb;baseline-shift:baseline;text-anchor:start;white-space:normal;clip-rule:nonzero;display:inline;overflow:visible;visibility:visible;opacity:1;isolation:auto;mix-blend-mode:normal;color-interpolation:sRGB;color-interpolation-filters:linearRGB;solid-color:#000000;solid-opacity:1;fill:#ffffff;fill-opacity:1;fill-rule:nonzero;stroke:none;stroke-width:1;stroke-linecap:square;stroke-linejoin:miter;stroke-miterlimit:4;stroke-dasharray:none;stroke-dashoffset:0;stroke-opacity:1;color-rendering:auto;image-rendering:auto;shape-rendering:auto;text-rendering:auto;enable-background:accumulate"
         inkscape:connector-curvature="0" />
      <path
         inkscape:connector-curvature="0"
         id="path6099"
         d="m -3599.4111,4133.8906 a 6.323247,6.323247 0 0 0 -6.3243,6.3242 6.323247,6.323247 0 0 0 6.3243,6.3243 6.323247,6.323247 0 0 0 6.3222,-6.3243 6.323247,6.323247 0 0 0 -6.3222,-6.3242 z m 180,0 a 6.323247,6.323247 0 0 0 -6.3243,6.3242 6.323247,6.323247 0 0 0 6.3243,6.3243 6.323247,6.323247 0 0 0 6.3222,-6.3243 6.323247,6.323247 0 0 0 -6.3222,-6.3242 z"
         style="opacity:1;fill:#ffffff;fill-opacity:1;fill-rule:nonzero;stroke:none;stroke-width:6;stroke-linecap:round;stroke-linejoin:round;stroke-miterlimit:4;stroke-dasharray:none;stroke-dashoffset:0;stroke-opacity:1" />
    </g>
  </g>
</svg>
