<?xml version="1.0" encoding="UTF-8" standalone="no"?>
<!-- Created with Inkscape (http://www.inkscape.org/) -->

<svg
   xmlns:dc="http://purl.org/dc/elements/1.1/"
   xmlns:cc="http://creativecommons.org/ns#"
   xmlns:rdf="http://www.w3.org/1999/02/22-rdf-syntax-ns#"
   xmlns:svg="http://www.w3.org/2000/svg"
   xmlns="http://www.w3.org/2000/svg"
   xmlns:sodipodi="http://sodipodi.sourceforge.net/DTD/sodipodi-0.dtd"
   xmlns:inkscape="http://www.inkscape.org/namespaces/inkscape"
   width="609.2276mm"
   height="342.69055mm"
   viewBox="0 0 2158.6805 1214.2579"
   id="svg2"
   version="1.1"
   inkscape:version="0.91 r13725"
   sodipodi:docname="updated rooster lines only.svg">
  <defs
     id="defs4" />
  <sodipodi:namedview
     id="base"
     pagecolor="#ffffff"
     bordercolor="#666666"
     borderopacity="1.0"
     inkscape:pageopacity="0.0"
     inkscape:pageshadow="2"
     inkscape:zoom="2.8284271"
     inkscape:cx="-618.90991"
     inkscape:cy="739.78884"
     inkscape:document-units="px"
     inkscape:current-layer="layer1"
     showgrid="false"
     inkscape:window-width="1420"
     inkscape:window-height="752"
     inkscape:window-x="11"
     inkscape:window-y="13"
     inkscape:window-maximized="0"
     showguides="false"
     inkscape:guide-bbox="true"
     fit-margin-top="0"
     fit-margin-left="0"
     fit-margin-right="0"
     fit-margin-bottom="0" />
  <metadata
     id="metadata7">
    <rdf:RDF>
      <cc:Work
         rdf:about="">
        <dc:format>image/svg+xml</dc:format>
        <dc:type
           rdf:resource="http://purl.org/dc/dcmitype/StillImage" />
        <dc:title></dc:title>
      </cc:Work>
    </rdf:RDF>
  </metadata>
  <g
     inkscape:label="Layer 1"
     inkscape:groupmode="layer"
     id="layer1"
     transform="translate(4588.7524,-3560.7324)">
    <path
       inkscape:export-ydpi="54.740002"
       inkscape:export-xdpi="54.740002"
       style="color:#000000;font-style:normal;font-variant:normal;font-weight:normal;font-stretch:normal;font-size:medium;line-height:normal;font-family:sans-serif;text-indent:0;text-align:start;text-decoration:none;text-decoration-line:none;text-decoration-style:solid;text-decoration-color:#000000;letter-spacing:normal;word-spacing:normal;text-transform:none;direction:ltr;block-progression:tb;writing-mode:lr-tb;baseline-shift:baseline;text-anchor:start;white-space:normal;clip-rule:nonzero;display:inline;overflow:visible;visibility:visible;opacity:0.25;isolation:auto;mix-blend-mode:normal;color-interpolation:sRGB;color-interpolation-filters:linearRGB;solid-color:#000000;solid-opacity:1;fill:#000000;fill-opacity:1;fill-rule:nonzero;stroke:none;stroke-width:13.5;stroke-linecap:butt;stroke-linejoin:miter;stroke-miterlimit:4;stroke-dasharray:none;stroke-dashoffset:0;stroke-opacity:1;color-rendering:auto;image-rendering:auto;shape-rendering:auto;text-rendering:auto;enable-background:accumulate"
       d="m -3649.9742,3711.8265 c -18.4869,0.2677 -35.741,11.426 -43.1084,29.2064 -6.9602,16.7963 -3.4889,35.6432 7.7743,48.8558 -8.1762,2.9693 -15.6911,7.7037 -21.958,13.968 -11.2352,11.2314 -17.5551,26.4653 -17.579,42.3465 l 47.6311,0 c 1.4059,0 2.1117,-0.086 3.0555,-0.2119 8.1661,-2.5262 7.1557,-15.6891 -3.0577,-15.5444 l -27.8218,0 c 2.1541,-5.4625 5.4059,-10.4892 9.6417,-14.723 5.2478,-5.2461 11.7035,-8.9902 18.7125,-10.9901 l 0,11.655 c -0.159,11.3482 16.9513,11.3482 16.7892,0 l 0,-22.8894 c 0.031,-2.3111 -0.893,-4.5333 -2.5543,-6.1408 -0.6197,-0.702 -1.3562,-1.2952 -2.1722,-1.755 -13.3373,-7.6976 -18.8447,-23.9221 -12.9513,-38.1451 3.3946,-8.1934 9.9412,-14.163 17.7208,-17.0068 -1.3811,3.8439 -1.9012,8.0381 -1.3395,12.3034 1.7235,13.0856 13.0087,22.98 26.212,22.98 0.1479,-9e-4 0.2987,0 0.4463,-0.034 0.2063,0.034 0.4085,0.034 0.6144,0.034 l 21.0261,0 c 11.3501,0.1617 11.3501,-16.943 0,-16.7832 l -21.0261,0 c -0.1479,0 -0.2929,0 -0.4379,0.031 -0.2064,0 -0.4161,-0.031 -0.6228,-0.031 -4.9092,0 -8.928,-3.5245 -9.5686,-8.3895 -0.6406,-4.8654 2.3287,-9.3078 7.0704,-10.5781 1.1562,-0.2895 2.2378,-0.8258 3.1723,-1.5666 2.1162,-1.4906 3.4228,-3.8729 3.5458,-6.4579 0.1868,-3.9839 -2.4553,-7.5486 -6.3235,-8.5267 -4.2912,-1.1495 -8.6249,-1.6674 -12.8913,-1.605 z m 70.8965,42.0327 c -2.6874,-0.1004 -5.2595,1.0969 -6.9159,3.2145 l -44.9761,44.9636 c -8.2403,7.9078 3.9546,20.1024 11.8655,11.8652 l 40.6872,-40.6681 c 9.5644,8.4926 12.959,22.2267 7.8819,34.4799 -5.689,13.7304 -20.2099,21.2646 -34.5918,18.1868 -1.2065,-0.6085 -2.5423,-0.9153 -3.8935,-0.8969 -3.5486,0.059 -6.6797,2.3385 -7.8172,5.6985 -0.067,0.1868 -0.1255,0.3762 -0.1813,0.5667 -0.1869,0.6319 -0.2956,1.2857 -0.3305,1.9438 -0.031,0.4655 0,0.9329 0.061,1.3953 l 0,53.6448 c -20.4391,-1.8387 -40.8155,6.3687 -54.2483,22.4429 -15.7388,18.8346 -19.1571,45.1259 -8.7577,67.356 10.4,22.2298 32.7771,36.4628 57.3267,36.4628 11.3479,0.159 11.3479,-16.9371 0,-16.779 -18.0725,0 -34.4654,-10.4298 -42.1212,-26.7943 -7.656,-16.3651 -5.1558,-35.622 6.4303,-49.4869 11.5864,-13.8651 30.1056,-19.7578 47.5779,-15.1397 5.2063,1.4555 10.4103,-2.3167 10.646,-7.7157 0.031,-0.5036 0,-1.0067 -0.075,-1.5065 0,-0.1841 0.031,-0.3695 0,-0.5533 l 0,-53.2248 c 19.3678,0.693 37.7925,-10.6426 45.4742,-29.1805 9.0117,-21.7488 0.553,-46.937 -19.6956,-58.8717 -0.084,-0.053 -0.1757,-0.1088 -0.2621,-0.1562 -0.039,-0.031 -0.072,-0.047 -0.1116,-0.07 -0.034,-0.034 -0.07,-0.042 -0.1088,-0.061 -0.1478,-0.084 -0.3045,-0.1701 -0.4593,-0.2454 -0.1757,-0.084 -0.355,-0.1617 -0.5366,-0.237 -0.045,-0.031 -0.086,-0.039 -0.1338,-0.056 -0.8757,-0.3469 -1.8069,-0.5402 -2.7479,-0.5795 z m -120.9291,102.1578 c -2.1871,-0.061 -4.3099,0.7298 -5.92,2.2102 -42.7444,38.1163 -54.0118,100.5675 -27.2768,151.2067 17.1368,32.4589 47.1021,54.7484 81.0446,62.9613 13.6513,7.542 25.0513,28.4011 25.0513,43.9301 -0.1589,11.3465 16.9502,11.3465 16.7896,0 0,-12.2959 -6.7691,-30.6522 -13.5472,-40.4194 10.2485,0.081 20.6287,-1.1014 30.9302,-3.6518 55.5995,-13.767 94.7213,-63.7419 94.7213,-121.0013 0,-0.3207 0,-0.6417 -0.045,-0.9608 0.031,-0.304 0.045,-0.6054 0.045,-0.9097 l 0,-21.0144 c 5e-4,-0.05 5e-4,-0.1032 0,-0.1534 0.2705,-3.9867 2.4291,-7.5807 5.851,-9.5993 3.6657,-2.1625 8.1405,-2.1622 11.8056,0 3.6651,2.1622 5.9068,6.1246 5.9068,10.4493 -0.2259,11.5379 16.8264,11.5379 16.6005,0 0,-10.3584 -5.4257,-19.9636 -14.2051,-25.1425 -8.7794,-5.1792 -19.6306,-5.1795 -28.41,0 -7.9268,4.6758 -13.1077,12.9666 -14.0419,22.1554 -0.2036,0.7471 -0.2987,1.5179 -0.2898,2.2916 l 0,21.0144 c -0,0.3213 0,0.642 0.047,0.9613 -0.033,0.3018 -0.047,0.6058 -0.047,0.9098 0,49.6327 -33.7774,92.7782 -81.9719,104.7109 -16.632,4.1184 -33.4829,4.1418 -49.3717,0.6094 -0.471,-0.1562 -0.9546,-0.2705 -1.4466,-0.3469 -29.5578,-7.0015 -55.6421,-26.3412 -70.5738,-54.624 -23.1744,-43.8949 -13.4451,-97.8144 23.6056,-130.8536 5.7914,-5.0077 2.3998,-14.5144 -5.2539,-14.7319 z m 213.5425,12.4791 c -9.2061,-3e-4 -18.4138,2.426 -26.6541,7.2778 -15.7797,9.2914 -25.7466,26.1633 -26.5687,44.6164 -0.1395,0.6356 -0.2092,1.2862 -0.1953,1.9394 0.1116,10.8077 -5.5523,20.7037 -14.9045,26.0224 -9.3525,5.3186 -20.9185,5.2035 -30.3803,-0.304 -9.4624,-5.5086 -15.3277,-15.524 -15.4373,-26.3311 0.034,-4.7297 -3.8765,-8.6193 -8.6073,-8.5956 -4.6303,0.033 -8.2893,3.7931 -8.1775,8.4235 0.1729,16.7935 9.333,32.4309 23.9924,40.9646 14.6594,8.5334 32.6421,8.7163 47.1314,0.4763 14.4887,-8.24 23.3431,-23.695 23.1724,-40.4882 -0,-0.1813 0,-0.3671 -0.031,-0.5492 0.3073,-13.0285 7.2084,-24.9551 18.3134,-31.4939 11.3615,-6.6899 25.3243,-6.6896 36.6865,0 11.2012,6.596 18.1279,18.676 18.3217,31.8372 -0.073,0.4663 -0.106,0.9352 -0.1004,1.4076 l 0,5.3984 c -0.1617,11.346 16.9494,11.346 16.7893,0 l 0,-5.3984 c 0,-0.3489 -0.031,-0.6961 -0.061,-1.0425 -0.067,-19.333 -10.2213,-37.2069 -26.6458,-46.8779 -8.2402,-4.8523 -17.4441,-7.2823 -26.6499,-7.2825 z"
       id="path5936"
       inkscape:connector-curvature="0"
       sodipodi:nodetypes="cscscccccsccccccsccccccccccsccccscccccscccccccssccsscccccscccccccccccccccscccccssccsccccccsccsccscccsscccssccscccccccsscccc" />
    <rect
       y="3364.9556"
       x="-4326.4409"
       height="1105.2469"
       width="1473.6627"
       id="rect6178"
       style="color:#000000;clip-rule:nonzero;display:inline;overflow:visible;visibility:visible;opacity:1;isolation:auto;mix-blend-mode:normal;color-interpolation:sRGB;color-interpolation-filters:linearRGB;solid-color:#000000;solid-opacity:1;fill:#808080;fill-opacity:1;fill-rule:nonzero;stroke:none;stroke-width:1.5;stroke-linecap:round;stroke-linejoin:miter;stroke-miterlimit:4;stroke-dasharray:none;stroke-dashoffset:0.60000002;stroke-opacity:1;color-rendering:auto;image-rendering:auto;shape-rendering:auto;text-rendering:auto;enable-background:accumulate" />
    <rect
       style="color:#000000;clip-rule:nonzero;display:inline;overflow:visible;visibility:visible;opacity:1;isolation:auto;mix-blend-mode:normal;color-interpolation:sRGB;color-interpolation-filters:linearRGB;solid-color:#000000;solid-opacity:1;fill:#ffffff;fill-opacity:1;fill-rule:nonzero;stroke:none;stroke-width:1.5;stroke-linecap:round;stroke-linejoin:miter;stroke-miterlimit:4;stroke-dasharray:none;stroke-dashoffset:0.60000002;stroke-opacity:1;color-rendering:auto;image-rendering:auto;shape-rendering:auto;text-rendering:auto;enable-background:accumulate"
       id="rect6176"
       width="800.00012"
       height="600.00006"
       x="-3980.8"
       y="3617.5791" />
    <path
       style="color:#000000;font-style:normal;font-variant:normal;font-weight:normal;font-stretch:normal;font-size:medium;line-height:normal;font-family:sans-serif;text-indent:0;text-align:start;text-decoration:none;text-decoration-line:none;text-decoration-style:solid;text-decoration-color:#000000;letter-spacing:normal;word-spacing:normal;text-transform:none;direction:ltr;block-progression:tb;writing-mode:lr-tb;baseline-shift:baseline;text-anchor:start;white-space:normal;clip-rule:nonzero;display:inline;overflow:visible;visibility:visible;opacity:1;isolation:auto;mix-blend-mode:normal;color-interpolation:sRGB;color-interpolation-filters:linearRGB;solid-color:#000000;solid-opacity:1;fill:#000000;fill-opacity:1;fill-rule:evenodd;stroke:none;stroke-width:6;stroke-linecap:round;stroke-linejoin:miter;stroke-miterlimit:4;stroke-dasharray:none;stroke-dashoffset:0.60000002;stroke-opacity:1;color-rendering:auto;image-rendering:auto;shape-rendering:auto;text-rendering:auto;enable-background:accumulate"
       d="m -3570.3457,4400.3482 a 3.0003,3.0003 0 1 0 0,6 l 117.3496,0 a 3.0003,3.0003 0 1 0 0,-6 l -117.3496,0 z"
       id="path5970"
       inkscape:connector-curvature="0" />
    <path
       style="opacity:1;fill:#000000;fill-opacity:1;fill-rule:nonzero;stroke:none;stroke-width:6;stroke-linecap:round;stroke-linejoin:round;stroke-miterlimit:4;stroke-dasharray:none;stroke-dashoffset:0;stroke-opacity:1"
       d="m -3599.4111,4397.6921 a 6.323247,6.323247 0 0 0 -6.3243,6.3242 6.323247,6.323247 0 0 0 6.3243,6.3243 6.323247,6.323247 0 0 0 6.3222,-6.3243 6.323247,6.323247 0 0 0 -6.3222,-6.3242 z m 180,0 a 6.323247,6.323247 0 0 0 -6.3243,6.3242 6.323247,6.323247 0 0 0 6.3243,6.3243 6.323247,6.323247 0 0 0 6.3222,-6.3243 6.323247,6.323247 0 0 0 -6.3222,-6.3242 z"
       id="path6099"
       inkscape:connector-curvature="0" />
    <path
       style="opacity:0.5;fill:none;fill-opacity:1;fill-rule:nonzero;stroke:#800000;stroke-width:25.00000381;stroke-linecap:round;stroke-linejoin:round;stroke-miterlimit:4;stroke-dasharray:none;stroke-dashoffset:2.19999981;stroke-opacity:1"
       d="m -667.73047,386.03125 c -34.80164,40.18415 -38.96809,98.50573 -10.23242,143.23242 28.73596,44.72661 83.49951,65.15806 134.49414,50.17774 50.99413,-14.98086 86.01963,-61.78915 86.01953,-114.95703 m -120.04492,162.81835 c -0.8312,-8.49841 -3.24652,-16.67765 -7.04151,-24.14994 -4.10818,-8.08893 -9.83314,-15.34942 -16.91552,-21.28951"
       transform="translate(-4588.7525,3560.7324)"
       id="path6180"
       inkscape:connector-curvature="0"
       sodipodi:nodetypes="cscccsc" />
    <path
       id="path6182"
       style="opacity:0.5;fill:none;fill-opacity:1;fill-rule:nonzero;stroke:#800000;stroke-width:25.00000381;stroke-linecap:round;stroke-linejoin:round;stroke-miterlimit:4;stroke-dasharray:none;stroke-dashoffset:2.19999981;stroke-opacity:1"
       sodipodi:type="arc"
       sodipodi:cx="-5170.5708"
       sodipodi:cy="4016.3696"
       sodipodi:rx="52.635509"
       sodipodi:ry="52.635509"
       sodipodi:start="1.6184276"
       sodipodi:end="5.0064627"
       d="m -5173.0769,4068.9454 a 52.635509,52.635509 0 0 1 -46.1002,-32.3785 52.635509,52.635509 0 0 1 9.5782,-55.5145 52.635509,52.635509 0 0 1 54.2847,-15.0587"
       sodipodi:open="true" />
    <path
       style="opacity:0.5;fill:none;fill-opacity:1;fill-rule:nonzero;stroke:#800000;stroke-width:25.00000381;stroke-linecap:round;stroke-linejoin:round;stroke-miterlimit:4;stroke-dasharray:none;stroke-dashoffset:2.19999981;stroke-opacity:1"
       id="path6184"
       transform="matrix(0,-1,1,0,0,0)"
       sodipodi:type="arc"
       sodipodi:cx="-4006.3181"
       sodipodi:cy="-5122.6167"
       sodipodi:rx="32.697334"
       sodipodi:ry="32.697334"
       sodipodi:start="1.5311056"
       sodipodi:end="4.712389"
       d="m -4005.0207,-5089.9451 a 32.697334,32.697334 0 0 1 -29.1717,-15.5795 32.697334,32.697334 0 0 1 -0.6562,-33.0647 32.697334,32.697334 0 0 1 28.5305,-16.7247"
       sodipodi:open="true" />
    <path
       style="color:#000000;clip-rule:nonzero;display:inline;overflow:visible;visibility:visible;opacity:0.5;isolation:auto;mix-blend-mode:normal;color-interpolation:sRGB;color-interpolation-filters:linearRGB;solid-color:#000000;solid-opacity:1;fill:none;fill-opacity:1;fill-rule:evenodd;stroke:#800000;stroke-width:25.00000381;stroke-linecap:round;stroke-linejoin:miter;stroke-miterlimit:4;stroke-dasharray:none;stroke-dashoffset:0.60000002;stroke-opacity:1;color-rendering:auto;image-rendering:auto;shape-rendering:auto;text-rendering:auto;enable-background:accumulate"
       d="m -5046.1039,4027.2585 0,-25.5023"
       id="path6188"
       inkscape:connector-curvature="0" />
    <path
       id="path6190"
       style="opacity:0.5;fill:none;fill-opacity:1;fill-rule:nonzero;stroke:#800000;stroke-width:25.00000381;stroke-linecap:round;stroke-linejoin:round;stroke-miterlimit:4;stroke-dasharray:none;stroke-dashoffset:2.19999981;stroke-opacity:1"
       sodipodi:type="arc"
       sodipodi:cx="5023.8394"
       sodipodi:cy="-4006.4629"
       sodipodi:rx="66.100273"
       sodipodi:ry="66.858261"
       sodipodi:start="0.00094127045"
       sodipodi:end="3.1415927"
       d="m 5089.9396,-4006.4 a 66.100273,66.858261 0 0 1 -66.1314,66.7954 66.100273,66.858261 0 0 1 -66.0691,-66.8583"
       transform="scale(-1,-1)"
       sodipodi:open="true" />
    <path
       style="opacity:0.5;fill:none;fill-opacity:1;fill-rule:nonzero;stroke:#800000;stroke-width:25.00000381;stroke-linecap:round;stroke-linejoin:round;stroke-miterlimit:4;stroke-dasharray:none;stroke-dashoffset:2.19999981;stroke-opacity:1"
       id="circle6192"
       sodipodi:type="arc"
       sodipodi:cx="5023.8394"
       sodipodi:cy="-4003.5251"
       sodipodi:rx="22.264566"
       sodipodi:ry="22.264566"
       sodipodi:start="0"
       sodipodi:end="3.1415927"
       d="m 5046.1039,-4003.5251 a 22.264566,22.264566 0 0 1 -11.1323,19.2816 22.264566,22.264566 0 0 1 -22.2645,0 22.264566,22.264566 0 0 1 -11.1323,-19.2816"
       sodipodi:open="true"
       transform="scale(-1,-1)" />
    <path
       style="opacity:0.5;fill:none;fill-opacity:1;fill-rule:nonzero;stroke:#800000;stroke-width:25.00000191;stroke-linecap:round;stroke-linejoin:round;stroke-miterlimit:4;stroke-dasharray:none;stroke-dashoffset:2.19999981;stroke-opacity:1"
       id="path6194"
       sodipodi:type="arc"
       sodipodi:cx="-5145.7832"
       sodipodi:cy="3864.3381"
       sodipodi:rx="44.74976"
       sodipodi:ry="43.998241"
       sodipodi:start="5.2726742"
       sodipodi:end="1.7841584"
       d="m -5122.0019,3827.0671 a 44.74976,43.998241 0 0 1 17.662,53.8693 44.74976,43.998241 0 0 1 -50.9189,26.4023"
       sodipodi:open="true" />
    <path
       id="circle6196"
       style="opacity:0.5;fill:none;fill-opacity:1;fill-rule:nonzero;stroke:#800000;stroke-width:25.00000381;stroke-linecap:round;stroke-linejoin:round;stroke-miterlimit:4;stroke-dasharray:none;stroke-dashoffset:2.19999981;stroke-opacity:1"
       sodipodi:type="arc"
       sodipodi:cx="-5192.1406"
       sodipodi:cy="3823.771"
       sodipodi:rx="44.312241"
       sodipodi:ry="43.89452"
       sodipodi:start="2.1080608"
       sodipodi:end="4.9505947"
       d="m -5214.8191,3861.4813 a 44.312241,43.89452 0 0 1 -18.3444,-54.3065 44.312241,43.89452 0 0 1 51.4788,-26.0589"
       sodipodi:open="true" />
    <path
       style="opacity:0.5;fill:none;fill-opacity:1;fill-rule:nonzero;stroke:#800000;stroke-width:25.00000381;stroke-linecap:round;stroke-linejoin:round;stroke-miterlimit:4;stroke-dasharray:none;stroke-dashoffset:2.19999981;stroke-opacity:1"
       id="circle6198"
       sodipodi:type="arc"
       sodipodi:cx="-5177.8125"
       sodipodi:cy="3802.0881"
       sodipodi:rx="21.626947"
       sodipodi:ry="21.423077"
       sodipodi:start="1.5396438"
       sodipodi:end="4.5275556"
       d="m -5177.1389,3823.5008 a 21.626947,21.423077 0 0 1 -22.1746,-19.1036 21.626947,21.423077 0 0 1 17.5263,-23.3672"
       sodipodi:open="true" />
    <path
       inkscape:connector-curvature="0"
       id="path6202"
       d="m -5155.314,3965.989 0,-58.621"
       style="color:#000000;clip-rule:nonzero;display:inline;overflow:visible;visibility:visible;opacity:0.5;isolation:auto;mix-blend-mode:normal;color-interpolation:sRGB;color-interpolation-filters:linearRGB;solid-color:#000000;solid-opacity:1;fill:none;fill-opacity:1;fill-rule:evenodd;stroke:#800000;stroke-width:25.00000381;stroke-linecap:round;stroke-linejoin:miter;stroke-miterlimit:4;stroke-dasharray:none;stroke-dashoffset:0.60000002;stroke-opacity:1;color-rendering:auto;image-rendering:auto;shape-rendering:auto;text-rendering:auto;enable-background:accumulate"
       sodipodi:nodetypes="cc" />
    <path
       sodipodi:nodetypes="cc"
       style="color:#000000;clip-rule:nonzero;display:inline;overflow:visible;visibility:visible;opacity:0.5;isolation:auto;mix-blend-mode:normal;color-interpolation:sRGB;color-interpolation-filters:linearRGB;solid-color:#000000;solid-opacity:1;fill:none;fill-opacity:1;fill-rule:evenodd;stroke:#800000;stroke-width:25.00000381;stroke-linecap:round;stroke-linejoin:miter;stroke-miterlimit:4;stroke-dasharray:none;stroke-dashoffset:0.60000002;stroke-opacity:1;color-rendering:auto;image-rendering:auto;shape-rendering:auto;text-rendering:auto;enable-background:accumulate"
       d="m -5176.5427,3823.5099 12.6405,0"
       id="path6204"
       inkscape:connector-curvature="0" />
    <path
       inkscape:connector-curvature="0"
       id="path6206"
       d="m -5163.1362,3868.2357 41.1637,-41.1639"
       style="color:#000000;clip-rule:nonzero;display:inline;overflow:visible;visibility:visible;opacity:0.5;isolation:auto;mix-blend-mode:normal;color-interpolation:sRGB;color-interpolation-filters:linearRGB;solid-color:#000000;solid-opacity:1;fill:none;fill-opacity:1;fill-rule:evenodd;stroke:#800000;stroke-width:25.00000381;stroke-linecap:round;stroke-linejoin:miter;stroke-miterlimit:4;stroke-dasharray:none;stroke-dashoffset:0.60000002;stroke-opacity:1;color-rendering:auto;image-rendering:auto;shape-rendering:auto;text-rendering:auto;enable-background:accumulate"
       sodipodi:nodetypes="cc" />
    <path
       style="opacity:0.5;fill:none;fill-opacity:1;fill-rule:nonzero;stroke:#800000;stroke-width:25.00000763;stroke-linecap:round;stroke-linejoin:round;stroke-miterlimit:4;stroke-dasharray:none;stroke-dashoffset:2.19999981;stroke-opacity:1"
       id="path6208"
       sodipodi:type="arc"
       sodipodi:cx="5215.2642"
       sodipodi:cy="-3909.7942"
       sodipodi:rx="48.988689"
       sodipodi:ry="48.542774"
       sodipodi:start="0"
       sodipodi:end="1.5707963"
       sodipodi:open="true"
       d="m 5264.2528,-3909.7942 a 48.988689,48.542774 0 0 1 -48.9886,48.5428"
       transform="scale(-1,-1)" />
    <path
       inkscape:connector-curvature="0"
       id="path6210"
       d="m -5264.1371,3909.971 40.4369,0"
       style="color:#000000;clip-rule:nonzero;display:inline;overflow:visible;visibility:visible;opacity:0.5;isolation:auto;mix-blend-mode:normal;color-interpolation:sRGB;color-interpolation-filters:linearRGB;solid-color:#000000;solid-opacity:1;fill:none;fill-opacity:1;fill-rule:evenodd;stroke:#800000;stroke-width:25.00000572;stroke-linecap:round;stroke-linejoin:miter;stroke-miterlimit:4;stroke-dasharray:none;stroke-dashoffset:0.60000002;stroke-opacity:1;color-rendering:auto;image-rendering:auto;shape-rendering:auto;text-rendering:auto;enable-background:accumulate"
       sodipodi:nodetypes="cc" />
    <path
       sodipodi:nodetypes="cc"
       style="color:#000000;clip-rule:nonzero;display:inline;overflow:visible;visibility:visible;opacity:0.5;isolation:auto;mix-blend-mode:normal;color-interpolation:sRGB;color-interpolation-filters:linearRGB;solid-color:#000000;solid-opacity:1;fill:none;fill-opacity:1;fill-rule:evenodd;stroke:#800000;stroke-width:25.00000572;stroke-linecap:round;stroke-linejoin:miter;stroke-miterlimit:4;stroke-dasharray:none;stroke-dashoffset:0.60000002;stroke-opacity:1;color-rendering:auto;image-rendering:auto;shape-rendering:auto;text-rendering:auto;enable-background:accumulate"
       d="m -5215.0783,3861.4372 0,17.5605"
       id="path6212"
       inkscape:connector-curvature="0" />
  </g>
</svg>
